  0
SECTION
  2
BLOCKS
  0
ENDSEC
  0
SECTION
  2
ENTITIES
  0
LINE
  8
0
 10
42.3678
 20
63.3128
 11
42.5602
 21
63.3511
  0
LINE
  8
0
 10
42.5602
 20
63.3511
 11
42.746
 21
63.4142
  0
LINE
  8
0
 10
42.746
 20
63.4142
 11
42.922
 21
63.501
  0
LINE
  8
0
 10
42.922
 20
63.501
 11
43.0851
 21
63.61
  0
LINE
  8
0
 10
43.0851
 20
63.61
 11
43.2327
 21
63.7393
  0
LINE
  8
0
 10
43.2327
 20
63.7393
 11
43.362
 21
63.8869
  0
LINE
  8
0
 10
43.362
 20
63.8869
 11
43.471
 21
64.05
  0
LINE
  8
0
 10
43.471
 20
64.05
 11
43.5578
 21
64.226
  0
LINE
  8
0
 10
43.5578
 20
64.226
 11
43.6209
 21
64.4118
  0
LINE
  8
0
 10
43.6209
 20
64.4118
 11
43.6592
 21
64.6042
  0
LINE
  8
0
 10
43.6592
 20
64.6042
 11
43.672
 21
64.8
  0
LINE
  8
0
 10
43.672
 20
64.8
 11
43.672
 21
115.496
  0
LINE
  8
0
 10
43.672
 20
115.496
 11
43.6592
 21
115.692
  0
LINE
  8
0
 10
43.6592
 20
115.692
 11
43.6209
 21
115.884
  0
LINE
  8
0
 10
43.6209
 20
115.884
 11
43.5578
 21
116.07
  0
LINE
  8
0
 10
43.5578
 20
116.07
 11
43.471
 21
116.246
  0
LINE
  8
0
 10
43.471
 20
116.246
 11
43.362
 21
116.409
  0
LINE
  8
0
 10
43.362
 20
116.409
 11
43.2327
 21
116.557
  0
LINE
  8
0
 10
43.2327
 20
116.557
 11
43.0851
 21
116.686
  0
LINE
  8
0
 10
43.0851
 20
116.686
 11
42.922
 21
116.795
  0
LINE
  8
0
 10
42.922
 20
116.795
 11
42.746
 21
116.882
  0
LINE
  8
0
 10
42.746
 20
116.882
 11
42.5602
 21
116.945
  0
LINE
  8
0
 10
42.5602
 20
116.945
 11
42.3678
 21
116.983
  0
LINE
  8
0
 10
42.3678
 20
116.983
 11
42.172
 21
116.996
  0
LINE
  8
0
 10
42.172
 20
116.996
 11
2.7
 21
116.996
  0
LINE
  8
0
 10
2.7
 20
116.996
 11
2.5042
 21
116.983
  0
LINE
  8
0
 10
2.5042
 20
116.983
 11
2.31177
 21
116.945
  0
LINE
  8
0
 10
2.31177
 20
116.945
 11
2.12596
 21
116.882
  0
LINE
  8
0
 10
2.12596
 20
116.882
 11
1.95
 21
116.795
  0
LINE
  8
0
 10
1.95
 20
116.795
 11
1.78685
 21
116.686
  0
LINE
  8
0
 10
1.78685
 20
116.686
 11
1.63933
 21
116.557
  0
LINE
  8
0
 10
1.63933
 20
116.557
 11
1.50996
 21
116.409
  0
LINE
  8
0
 10
1.50996
 20
116.409
 11
1.40096
 21
116.246
  0
LINE
  8
0
 10
1.40096
 20
116.246
 11
1.31418
 21
116.07
  0
LINE
  8
0
 10
1.31418
 20
116.07
 11
1.2511
 21
115.884
  0
LINE
  8
0
 10
1.2511
 20
115.884
 11
1.21283
 21
115.692
  0
LINE
  8
0
 10
1.21283
 20
115.692
 11
1.2
 21
115.496
  0
LINE
  8
0
 10
1.2
 20
115.496
 11
1.2
 21
64.8
  0
LINE
  8
0
 10
1.2
 20
64.8
 11
1.21283
 21
64.6042
  0
LINE
  8
0
 10
1.21283
 20
64.6042
 11
1.2511
 21
64.4118
  0
LINE
  8
0
 10
1.2511
 20
64.4118
 11
1.31418
 21
64.226
  0
LINE
  8
0
 10
1.31418
 20
64.226
 11
1.40096
 21
64.05
  0
LINE
  8
0
 10
1.40096
 20
64.05
 11
1.50996
 21
63.8869
  0
LINE
  8
0
 10
1.50996
 20
63.8869
 11
1.63933
 21
63.7393
  0
LINE
  8
0
 10
1.63933
 20
63.7393
 11
1.78685
 21
63.61
  0
LINE
  8
0
 10
1.78685
 20
63.61
 11
1.95
 21
63.501
  0
LINE
  8
0
 10
1.95
 20
63.501
 11
2.12596
 21
63.4142
  0
LINE
  8
0
 10
2.12596
 20
63.4142
 11
2.31177
 21
63.3511
  0
LINE
  8
0
 10
2.31177
 20
63.3511
 11
2.5042
 21
63.3128
  0
LINE
  8
0
 10
2.5042
 20
63.3128
 11
2.7
 21
63.3
  0
LINE
  8
0
 10
2.7
 20
63.3
 11
42.172
 21
63.3
  0
LINE
  8
0
 10
42.172
 20
63.3
 11
42.3678
 21
63.3128
  0
LINE
  8
0
 10
33.722
 20
109.696
 11
33.722
 21
116.796
  0
LINE
  8
0
 10
33.722
 20
116.796
 11
40.822
 21
116.796
  0
LINE
  8
0
 10
40.822
 20
116.796
 11
40.822
 21
109.696
  0
LINE
  8
0
 10
40.822
 20
109.696
 11
33.722
 21
109.696
  0
LINE
  8
0
 10
2.69557
 20
112.007
 11
2.59294
 21
112.027
  0
LINE
  8
0
 10
2.59294
 20
112.027
 11
2.49385
 21
112.061
  0
LINE
  8
0
 10
2.49385
 20
112.061
 11
2.39999
 21
112.107
  0
LINE
  8
0
 10
2.39999
 20
112.107
 11
2.31299
 21
112.165
  0
LINE
  8
0
 10
2.31299
 20
112.165
 11
2.23431
 21
112.234
  0
LINE
  8
0
 10
2.23431
 20
112.234
 11
2.16531
 21
112.313
  0
LINE
  8
0
 10
2.16531
 20
112.313
 11
2.10718
 21
112.4
  0
LINE
  8
0
 10
2.10718
 20
112.4
 11
2.06088
 21
112.494
  0
LINE
  8
0
 10
2.06088
 20
112.494
 11
2.02725
 21
112.593
  0
LINE
  8
0
 10
2.02725
 20
112.593
 11
2.00684
 21
112.696
  0
LINE
  8
0
 10
2.00684
 20
112.696
 11
1.99998
 21
112.8
  0
LINE
  8
0
 10
1.99998
 20
112.8
 11
2.00684
 21
112.904
  0
LINE
  8
0
 10
2.00684
 20
112.904
 11
2.02725
 21
113.007
  0
LINE
  8
0
 10
2.02725
 20
113.007
 11
2.06088
 21
113.106
  0
LINE
  8
0
 10
2.06088
 20
113.106
 11
2.10718
 21
113.2
  0
LINE
  8
0
 10
2.10718
 20
113.2
 11
2.16531
 21
113.287
  0
LINE
  8
0
 10
2.16531
 20
113.287
 11
2.23431
 21
113.366
  0
LINE
  8
0
 10
2.23431
 20
113.366
 11
2.31299
 21
113.435
  0
LINE
  8
0
 10
2.31299
 20
113.435
 11
2.39999
 21
113.493
  0
LINE
  8
0
 10
2.39999
 20
113.493
 11
2.49385
 21
113.539
  0
LINE
  8
0
 10
2.49385
 20
113.539
 11
2.59294
 21
113.573
  0
LINE
  8
0
 10
2.59294
 20
113.573
 11
2.69557
 21
113.593
  0
LINE
  8
0
 10
2.69557
 20
113.593
 11
2.79999
 21
113.6
  0
LINE
  8
0
 10
2.79999
 20
113.6
 11
2.90442
 21
113.593
  0
LINE
  8
0
 10
2.90442
 20
113.593
 11
3.00705
 21
113.573
  0
LINE
  8
0
 10
3.00705
 20
113.573
 11
3.10614
 21
113.539
  0
LINE
  8
0
 10
3.10614
 20
113.539
 11
3.2
 21
113.493
  0
LINE
  8
0
 10
3.2
 20
113.493
 11
3.287
 21
113.435
  0
LINE
  8
0
 10
3.287
 20
113.435
 11
3.36568
 21
113.366
  0
LINE
  8
0
 10
3.36568
 20
113.366
 11
3.43468
 21
113.287
  0
LINE
  8
0
 10
3.43468
 20
113.287
 11
3.49281
 21
113.2
  0
LINE
  8
0
 10
3.49281
 20
113.2
 11
3.53909
 21
113.106
  0
LINE
  8
0
 10
3.53909
 20
113.106
 11
3.57274
 21
113.007
  0
LINE
  8
0
 10
3.57274
 20
113.007
 11
3.59315
 21
112.904
  0
LINE
  8
0
 10
3.59315
 20
112.904
 11
3.59999
 21
112.8
  0
LINE
  8
0
 10
3.59999
 20
112.8
 11
3.59315
 21
112.696
  0
LINE
  8
0
 10
3.59315
 20
112.696
 11
3.57274
 21
112.593
  0
LINE
  8
0
 10
3.57274
 20
112.593
 11
3.53909
 21
112.494
  0
LINE
  8
0
 10
3.53909
 20
112.494
 11
3.49281
 21
112.4
  0
LINE
  8
0
 10
3.49281
 20
112.4
 11
3.43468
 21
112.313
  0
LINE
  8
0
 10
3.43468
 20
112.313
 11
3.36568
 21
112.234
  0
LINE
  8
0
 10
3.36568
 20
112.234
 11
3.287
 21
112.165
  0
LINE
  8
0
 10
3.287
 20
112.165
 11
3.2
 21
112.107
  0
LINE
  8
0
 10
3.2
 20
112.107
 11
3.10614
 21
112.061
  0
LINE
  8
0
 10
3.10614
 20
112.061
 11
3.00705
 21
112.027
  0
LINE
  8
0
 10
3.00705
 20
112.027
 11
2.90442
 21
112.007
  0
LINE
  8
0
 10
2.90442
 20
112.007
 11
2.79999
 21
112
  0
LINE
  8
0
 10
2.79999
 20
112
 11
2.69557
 21
112.007
  0
LINE
  8
0
 10
31.5956
 20
64.7068
 11
31.4929
 21
64.7272
  0
LINE
  8
0
 10
31.4929
 20
64.7272
 11
31.3938
 21
64.7609
  0
LINE
  8
0
 10
31.3938
 20
64.7609
 11
31.3
 21
64.8072
  0
LINE
  8
0
 10
31.3
 20
64.8072
 11
31.213
 21
64.8653
  0
LINE
  8
0
 10
31.213
 20
64.8653
 11
31.1343
 21
64.9343
  0
LINE
  8
0
 10
31.1343
 20
64.9343
 11
31.0653
 21
65.013
  0
LINE
  8
0
 10
31.0653
 20
65.013
 11
31.0072
 21
65.1
  0
LINE
  8
0
 10
31.0072
 20
65.1
 11
30.9609
 21
65.1938
  0
LINE
  8
0
 10
30.9609
 20
65.1938
 11
30.9272
 21
65.2929
  0
LINE
  8
0
 10
30.9272
 20
65.2929
 11
30.9068
 21
65.3956
  0
LINE
  8
0
 10
30.9068
 20
65.3956
 11
30.9
 21
65.5
  0
LINE
  8
0
 10
30.9
 20
65.5
 11
30.9068
 21
65.6044
  0
LINE
  8
0
 10
30.9068
 20
65.6044
 11
30.9272
 21
65.707
  0
LINE
  8
0
 10
30.9272
 20
65.707
 11
30.9609
 21
65.8061
  0
LINE
  8
0
 10
30.9609
 20
65.8061
 11
31.0072
 21
65.9
  0
LINE
  8
0
 10
31.0072
 20
65.9
 11
31.0653
 21
65.987
  0
LINE
  8
0
 10
31.0653
 20
65.987
 11
31.1343
 21
66.0657
  0
LINE
  8
0
 10
31.1343
 20
66.0657
 11
31.213
 21
66.1347
  0
LINE
  8
0
 10
31.213
 20
66.1347
 11
31.3
 21
66.1928
  0
LINE
  8
0
 10
31.3
 20
66.1928
 11
31.3938
 21
66.2391
  0
LINE
  8
0
 10
31.3938
 20
66.2391
 11
31.4929
 21
66.2727
  0
LINE
  8
0
 10
31.4929
 20
66.2727
 11
31.5956
 21
66.2932
  0
LINE
  8
0
 10
31.5956
 20
66.2932
 11
31.7
 21
66.3
  0
LINE
  8
0
 10
31.7
 20
66.3
 11
31.8044
 21
66.2932
  0
LINE
  8
0
 10
31.8044
 20
66.2932
 11
31.907
 21
66.2727
  0
LINE
  8
0
 10
31.907
 20
66.2727
 11
32.0061
 21
66.2391
  0
LINE
  8
0
 10
32.0061
 20
66.2391
 11
32.1
 21
66.1928
  0
LINE
  8
0
 10
32.1
 20
66.1928
 11
32.187
 21
66.1347
  0
LINE
  8
0
 10
32.187
 20
66.1347
 11
32.2657
 21
66.0657
  0
LINE
  8
0
 10
32.2657
 20
66.0657
 11
32.3347
 21
65.987
  0
LINE
  8
0
 10
32.3347
 20
65.987
 11
32.3928
 21
65.9
  0
LINE
  8
0
 10
32.3928
 20
65.9
 11
32.4391
 21
65.8061
  0
LINE
  8
0
 10
32.4391
 20
65.8061
 11
32.4727
 21
65.707
  0
LINE
  8
0
 10
32.4727
 20
65.707
 11
32.4931
 21
65.6044
  0
LINE
  8
0
 10
32.4931
 20
65.6044
 11
32.5
 21
65.5
  0
LINE
  8
0
 10
32.5
 20
65.5
 11
32.4931
 21
65.3956
  0
LINE
  8
0
 10
32.4931
 20
65.3956
 11
32.4727
 21
65.2929
  0
LINE
  8
0
 10
32.4727
 20
65.2929
 11
32.4391
 21
65.1938
  0
LINE
  8
0
 10
32.4391
 20
65.1938
 11
32.3928
 21
65.1
  0
LINE
  8
0
 10
32.3928
 20
65.1
 11
32.3347
 21
65.013
  0
LINE
  8
0
 10
32.3347
 20
65.013
 11
32.2657
 21
64.9343
  0
LINE
  8
0
 10
32.2657
 20
64.9343
 11
32.187
 21
64.8653
  0
LINE
  8
0
 10
32.187
 20
64.8653
 11
32.1
 21
64.8072
  0
LINE
  8
0
 10
32.1
 20
64.8072
 11
32.0061
 21
64.7609
  0
LINE
  8
0
 10
32.0061
 20
64.7609
 11
31.907
 21
64.7272
  0
LINE
  8
0
 10
31.907
 20
64.7272
 11
31.8044
 21
64.7068
  0
LINE
  8
0
 10
31.8044
 20
64.7068
 11
31.7
 21
64.7
  0
LINE
  8
0
 10
31.7
 20
64.7
 11
31.5956
 21
64.7068
  0
ENDSEC
  0
SECTION
  2
OBJECTS
  0
DICTIONARY
  0
ENDSEC
  0
EOF
