  0
SECTION
  2
BLOCKS
  0
ENDSEC
  0
SECTION
  2
ENTITIES
  0
LINE
  8
0
 10
43.7678
 20
1.21283
 11
43.9602
 21
1.2511
  0
LINE
  8
0
 10
43.9602
 20
1.2511
 11
44.146
 21
1.31418
  0
LINE
  8
0
 10
44.146
 20
1.31418
 11
44.322
 21
1.40096
  0
LINE
  8
0
 10
44.322
 20
1.40096
 11
44.4851
 21
1.50996
  0
LINE
  8
0
 10
44.4851
 20
1.50996
 11
44.6327
 21
1.63933
  0
LINE
  8
0
 10
44.6327
 20
1.63933
 11
44.762
 21
1.78685
  0
LINE
  8
0
 10
44.762
 20
1.78685
 11
44.871
 21
1.95
  0
LINE
  8
0
 10
44.871
 20
1.95
 11
44.9578
 21
2.12596
  0
LINE
  8
0
 10
44.9578
 20
2.12596
 11
45.0209
 21
2.31177
  0
LINE
  8
0
 10
45.0209
 20
2.31177
 11
45.0592
 21
2.5042
  0
LINE
  8
0
 10
45.0592
 20
2.5042
 11
45.072
 21
2.7
  0
LINE
  8
0
 10
45.072
 20
2.7
 11
45.072
 21
52.6
  0
LINE
  8
0
 10
45.072
 20
52.6
 11
45.0592
 21
52.7958
  0
LINE
  8
0
 10
45.0592
 20
52.7958
 11
45.0209
 21
52.9882
  0
LINE
  8
0
 10
45.0209
 20
52.9882
 11
44.9578
 21
53.174
  0
LINE
  8
0
 10
44.9578
 20
53.174
 11
44.871
 21
53.35
  0
LINE
  8
0
 10
44.871
 20
53.35
 11
44.762
 21
53.5131
  0
LINE
  8
0
 10
44.762
 20
53.5131
 11
44.6327
 21
53.6607
  0
LINE
  8
0
 10
44.6327
 20
53.6607
 11
44.4851
 21
53.79
  0
LINE
  8
0
 10
44.4851
 20
53.79
 11
44.322
 21
53.899
  0
LINE
  8
0
 10
44.322
 20
53.899
 11
44.146
 21
53.9858
  0
LINE
  8
0
 10
44.146
 20
53.9858
 11
43.9602
 21
54.0489
  0
LINE
  8
0
 10
43.9602
 20
54.0489
 11
43.7678
 21
54.0872
  0
LINE
  8
0
 10
43.7678
 20
54.0872
 11
43.572
 21
54.1
  0
LINE
  8
0
 10
43.572
 20
54.1
 11
2.7
 21
54.1
  0
LINE
  8
0
 10
2.7
 20
54.1
 11
2.5042
 21
54.0872
  0
LINE
  8
0
 10
2.5042
 20
54.0872
 11
2.31177
 21
54.0489
  0
LINE
  8
0
 10
2.31177
 20
54.0489
 11
2.12596
 21
53.9858
  0
LINE
  8
0
 10
2.12596
 20
53.9858
 11
1.95
 21
53.899
  0
LINE
  8
0
 10
1.95
 20
53.899
 11
1.78685
 21
53.79
  0
LINE
  8
0
 10
1.78685
 20
53.79
 11
1.63933
 21
53.6607
  0
LINE
  8
0
 10
1.63933
 20
53.6607
 11
1.50996
 21
53.5131
  0
LINE
  8
0
 10
1.50996
 20
53.5131
 11
1.40096
 21
53.35
  0
LINE
  8
0
 10
1.40096
 20
53.35
 11
1.31418
 21
53.174
  0
LINE
  8
0
 10
1.31418
 20
53.174
 11
1.2511
 21
52.9882
  0
LINE
  8
0
 10
1.2511
 20
52.9882
 11
1.21283
 21
52.7958
  0
LINE
  8
0
 10
1.21283
 20
52.7958
 11
1.2
 21
52.6
  0
LINE
  8
0
 10
1.2
 20
52.6
 11
1.2
 21
2.7
  0
LINE
  8
0
 10
1.2
 20
2.7
 11
1.21283
 21
2.5042
  0
LINE
  8
0
 10
1.21283
 20
2.5042
 11
1.2511
 21
2.31177
  0
LINE
  8
0
 10
1.2511
 20
2.31177
 11
1.31418
 21
2.12596
  0
LINE
  8
0
 10
1.31418
 20
2.12596
 11
1.40096
 21
1.95
  0
LINE
  8
0
 10
1.40096
 20
1.95
 11
1.50996
 21
1.78685
  0
LINE
  8
0
 10
1.50996
 20
1.78685
 11
1.63933
 21
1.63933
  0
LINE
  8
0
 10
1.63933
 20
1.63933
 11
1.78685
 21
1.50996
  0
LINE
  8
0
 10
1.78685
 20
1.50996
 11
1.95
 21
1.40096
  0
LINE
  8
0
 10
1.95
 20
1.40096
 11
2.12596
 21
1.31418
  0
LINE
  8
0
 10
2.12596
 20
1.31418
 11
2.31177
 21
1.2511
  0
LINE
  8
0
 10
2.31177
 20
1.2511
 11
2.5042
 21
1.21283
  0
LINE
  8
0
 10
2.5042
 20
1.21283
 11
2.7
 21
1.2
  0
LINE
  8
0
 10
2.7
 20
1.2
 11
43.572
 21
1.2
  0
LINE
  8
0
 10
43.572
 20
1.2
 11
43.7678
 21
1.21283
  0
LINE
  8
0
 10
29.7516
 20
10.4068
 11
29.6489
 21
10.4272
  0
LINE
  8
0
 10
29.6489
 20
10.4272
 11
29.5499
 21
10.4609
  0
LINE
  8
0
 10
29.5499
 20
10.4609
 11
29.456
 21
10.5072
  0
LINE
  8
0
 10
29.456
 20
10.5072
 11
29.369
 21
10.5653
  0
LINE
  8
0
 10
29.369
 20
10.5653
 11
29.2903
 21
10.6343
  0
LINE
  8
0
 10
29.2903
 20
10.6343
 11
29.2213
 21
10.713
  0
LINE
  8
0
 10
29.2213
 20
10.713
 11
29.1632
 21
10.8
  0
LINE
  8
0
 10
29.1632
 20
10.8
 11
29.1169
 21
10.8938
  0
LINE
  8
0
 10
29.1169
 20
10.8938
 11
29.0833
 21
10.9929
  0
LINE
  8
0
 10
29.0833
 20
10.9929
 11
29.0628
 21
11.0956
  0
LINE
  8
0
 10
29.0628
 20
11.0956
 11
29.056
 21
11.2
  0
LINE
  8
0
 10
29.056
 20
11.2
 11
29.0628
 21
11.3044
  0
LINE
  8
0
 10
29.0628
 20
11.3044
 11
29.0833
 21
11.407
  0
LINE
  8
0
 10
29.0833
 20
11.407
 11
29.1169
 21
11.5061
  0
LINE
  8
0
 10
29.1169
 20
11.5061
 11
29.1632
 21
11.6
  0
LINE
  8
0
 10
29.1632
 20
11.6
 11
29.2213
 21
11.687
  0
LINE
  8
0
 10
29.2213
 20
11.687
 11
29.2903
 21
11.7657
  0
LINE
  8
0
 10
29.2903
 20
11.7657
 11
29.369
 21
11.8347
  0
LINE
  8
0
 10
29.369
 20
11.8347
 11
29.456
 21
11.8928
  0
LINE
  8
0
 10
29.456
 20
11.8928
 11
29.5499
 21
11.9391
  0
LINE
  8
0
 10
29.5499
 20
11.9391
 11
29.6489
 21
11.9727
  0
LINE
  8
0
 10
29.6489
 20
11.9727
 11
29.7516
 21
11.9931
  0
LINE
  8
0
 10
29.7516
 20
11.9931
 11
29.856
 21
12
  0
LINE
  8
0
 10
29.856
 20
12
 11
29.9604
 21
11.9931
  0
LINE
  8
0
 10
29.9604
 20
11.9931
 11
30.063
 21
11.9727
  0
LINE
  8
0
 10
30.063
 20
11.9727
 11
30.1621
 21
11.9391
  0
LINE
  8
0
 10
30.1621
 20
11.9391
 11
30.256
 21
11.8928
  0
LINE
  8
0
 10
30.256
 20
11.8928
 11
30.343
 21
11.8347
  0
LINE
  8
0
 10
30.343
 20
11.8347
 11
30.4217
 21
11.7657
  0
LINE
  8
0
 10
30.4217
 20
11.7657
 11
30.4907
 21
11.687
  0
LINE
  8
0
 10
30.4907
 20
11.687
 11
30.5488
 21
11.6
  0
LINE
  8
0
 10
30.5488
 20
11.6
 11
30.5951
 21
11.5061
  0
LINE
  8
0
 10
30.5951
 20
11.5061
 11
30.6287
 21
11.407
  0
LINE
  8
0
 10
30.6287
 20
11.407
 11
30.6492
 21
11.3044
  0
LINE
  8
0
 10
30.6492
 20
11.3044
 11
30.656
 21
11.2
  0
LINE
  8
0
 10
30.656
 20
11.2
 11
30.6492
 21
11.0956
  0
LINE
  8
0
 10
30.6492
 20
11.0956
 11
30.6287
 21
10.9929
  0
LINE
  8
0
 10
30.6287
 20
10.9929
 11
30.5951
 21
10.8938
  0
LINE
  8
0
 10
30.5951
 20
10.8938
 11
30.5488
 21
10.8
  0
LINE
  8
0
 10
30.5488
 20
10.8
 11
30.4907
 21
10.713
  0
LINE
  8
0
 10
30.4907
 20
10.713
 11
30.4217
 21
10.6343
  0
LINE
  8
0
 10
30.4217
 20
10.6343
 11
30.343
 21
10.5653
  0
LINE
  8
0
 10
30.343
 20
10.5653
 11
30.256
 21
10.5072
  0
LINE
  8
0
 10
30.256
 20
10.5072
 11
30.1621
 21
10.4609
  0
LINE
  8
0
 10
30.1621
 20
10.4609
 11
30.063
 21
10.4272
  0
LINE
  8
0
 10
30.063
 20
10.4272
 11
29.9604
 21
10.4068
  0
LINE
  8
0
 10
29.9604
 20
10.4068
 11
29.856
 21
10.4
  0
LINE
  8
0
 10
29.856
 20
10.4
 11
29.7516
 21
10.4068
  0
LINE
  8
0
 10
16.5786
 20
9.40683
 11
16.4759
 21
9.42725
  0
LINE
  8
0
 10
16.4759
 20
9.42725
 11
16.3768
 21
9.46089
  0
LINE
  8
0
 10
16.3768
 20
9.46089
 11
16.283
 21
9.50717
  0
LINE
  8
0
 10
16.283
 20
9.50717
 11
16.196
 21
9.56531
  0
LINE
  8
0
 10
16.196
 20
9.56531
 11
16.1173
 21
9.63431
  0
LINE
  8
0
 10
16.1173
 20
9.63431
 11
16.0483
 21
9.71298
  0
LINE
  8
0
 10
16.0483
 20
9.71298
 11
15.9902
 21
9.79999
  0
LINE
  8
0
 10
15.9902
 20
9.79999
 11
15.9439
 21
9.89384
  0
LINE
  8
0
 10
15.9439
 20
9.89384
 11
15.9102
 21
9.99294
  0
LINE
  8
0
 10
15.9102
 20
9.99294
 11
15.8898
 21
10.0956
  0
LINE
  8
0
 10
15.8898
 20
10.0956
 11
15.883
 21
10.2
  0
LINE
  8
0
 10
15.883
 20
10.2
 11
15.8898
 21
10.3044
  0
LINE
  8
0
 10
15.8898
 20
10.3044
 11
15.9102
 21
10.407
  0
LINE
  8
0
 10
15.9102
 20
10.407
 11
15.9439
 21
10.5061
  0
LINE
  8
0
 10
15.9439
 20
10.5061
 11
15.9902
 21
10.6
  0
LINE
  8
0
 10
15.9902
 20
10.6
 11
16.0483
 21
10.687
  0
LINE
  8
0
 10
16.0483
 20
10.687
 11
16.1173
 21
10.7657
  0
LINE
  8
0
 10
16.1173
 20
10.7657
 11
16.196
 21
10.8347
  0
LINE
  8
0
 10
16.196
 20
10.8347
 11
16.283
 21
10.8928
  0
LINE
  8
0
 10
16.283
 20
10.8928
 11
16.3768
 21
10.9391
  0
LINE
  8
0
 10
16.3768
 20
10.9391
 11
16.4759
 21
10.9727
  0
LINE
  8
0
 10
16.4759
 20
10.9727
 11
16.5786
 21
10.9931
  0
LINE
  8
0
 10
16.5786
 20
10.9931
 11
16.683
 21
11
  0
LINE
  8
0
 10
16.683
 20
11
 11
16.7874
 21
10.9931
  0
LINE
  8
0
 10
16.7874
 20
10.9931
 11
16.89
 21
10.9727
  0
LINE
  8
0
 10
16.89
 20
10.9727
 11
16.9891
 21
10.9391
  0
LINE
  8
0
 10
16.9891
 20
10.9391
 11
17.083
 21
10.8928
  0
LINE
  8
0
 10
17.083
 20
10.8928
 11
17.17
 21
10.8347
  0
LINE
  8
0
 10
17.17
 20
10.8347
 11
17.2487
 21
10.7657
  0
LINE
  8
0
 10
17.2487
 20
10.7657
 11
17.3177
 21
10.687
  0
LINE
  8
0
 10
17.3177
 20
10.687
 11
17.3758
 21
10.6
  0
LINE
  8
0
 10
17.3758
 20
10.6
 11
17.4221
 21
10.5061
  0
LINE
  8
0
 10
17.4221
 20
10.5061
 11
17.4557
 21
10.407
  0
LINE
  8
0
 10
17.4557
 20
10.407
 11
17.4762
 21
10.3044
  0
LINE
  8
0
 10
17.4762
 20
10.3044
 11
17.483
 21
10.2
  0
LINE
  8
0
 10
17.483
 20
10.2
 11
17.4762
 21
10.0956
  0
LINE
  8
0
 10
17.4762
 20
10.0956
 11
17.4557
 21
9.99294
  0
LINE
  8
0
 10
17.4557
 20
9.99294
 11
17.4221
 21
9.89384
  0
LINE
  8
0
 10
17.4221
 20
9.89384
 11
17.3758
 21
9.79999
  0
LINE
  8
0
 10
17.3758
 20
9.79999
 11
17.3177
 21
9.71298
  0
LINE
  8
0
 10
17.3177
 20
9.71298
 11
17.2487
 21
9.63431
  0
LINE
  8
0
 10
17.2487
 20
9.63431
 11
17.17
 21
9.56531
  0
LINE
  8
0
 10
17.17
 20
9.56531
 11
17.083
 21
9.50717
  0
LINE
  8
0
 10
17.083
 20
9.50717
 11
16.9891
 21
9.46089
  0
LINE
  8
0
 10
16.9891
 20
9.46089
 11
16.89
 21
9.42725
  0
LINE
  8
0
 10
16.89
 20
9.42725
 11
16.7874
 21
9.40683
  0
LINE
  8
0
 10
16.7874
 20
9.40683
 11
16.683
 21
9.39999
  0
LINE
  8
0
 10
16.683
 20
9.39999
 11
16.5786
 21
9.40683
  0
ENDSEC
  0
SECTION
  2
OBJECTS
  0
DICTIONARY
  0
ENDSEC
  0
EOF
