  0
SECTION
  2
BLOCKS
  0
ENDSEC
  0
SECTION
  2
ENTITIES
  0
LINE
  8
0
 10
41.0958
 20
1.61282
 11
41.2882
 21
1.65111
  0
LINE
  8
0
 10
41.2882
 20
1.65111
 11
41.474
 21
1.71417
  0
LINE
  8
0
 10
41.474
 20
1.71417
 11
41.65
 21
1.80095
  0
LINE
  8
0
 10
41.65
 20
1.80095
 11
41.8131
 21
1.90996
  0
LINE
  8
0
 10
41.8131
 20
1.90996
 11
41.9606
 21
2.03934
  0
LINE
  8
0
 10
41.9606
 20
2.03934
 11
42.09
 21
2.18684
  0
LINE
  8
0
 10
42.09
 20
2.18684
 11
42.199
 21
2.34999
  0
LINE
  8
0
 10
42.199
 20
2.34999
 11
42.2858
 21
2.52597
  0
LINE
  8
0
 10
42.2858
 20
2.52597
 11
42.3489
 21
2.71176
  0
LINE
  8
0
 10
42.3489
 20
2.71176
 11
42.3872
 21
2.90421
  0
LINE
  8
0
 10
42.3872
 20
2.90421
 11
42.4
 21
3.09999
  0
LINE
  8
0
 10
42.4
 20
3.09999
 11
42.4
 21
52.6
  0
LINE
  8
0
 10
42.4
 20
52.6
 11
42.3872
 21
52.7958
  0
LINE
  8
0
 10
42.3872
 20
52.7958
 11
42.3489
 21
52.9882
  0
LINE
  8
0
 10
42.3489
 20
52.9882
 11
42.2858
 21
53.174
  0
LINE
  8
0
 10
42.2858
 20
53.174
 11
42.199
 21
53.35
  0
LINE
  8
0
 10
42.199
 20
53.35
 11
42.09
 21
53.5131
  0
LINE
  8
0
 10
42.09
 20
53.5131
 11
41.9606
 21
53.6607
  0
LINE
  8
0
 10
41.9606
 20
53.6607
 11
41.8131
 21
53.79
  0
LINE
  8
0
 10
41.8131
 20
53.79
 11
41.65
 21
53.899
  0
LINE
  8
0
 10
41.65
 20
53.899
 11
41.474
 21
53.9858
  0
LINE
  8
0
 10
41.474
 20
53.9858
 11
41.2882
 21
54.0489
  0
LINE
  8
0
 10
41.2882
 20
54.0489
 11
41.0958
 21
54.0872
  0
LINE
  8
0
 10
41.0958
 20
54.0872
 11
40.9
 21
54.1
  0
LINE
  8
0
 10
40.9
 20
54.1
 11
3.09999
 21
54.1
  0
LINE
  8
0
 10
3.09999
 20
54.1
 11
2.90421
 21
54.0872
  0
LINE
  8
0
 10
2.90421
 20
54.0872
 11
2.71176
 21
54.0489
  0
LINE
  8
0
 10
2.71176
 20
54.0489
 11
2.52597
 21
53.9858
  0
LINE
  8
0
 10
2.52597
 20
53.9858
 11
2.34999
 21
53.899
  0
LINE
  8
0
 10
2.34999
 20
53.899
 11
2.18684
 21
53.79
  0
LINE
  8
0
 10
2.18684
 20
53.79
 11
2.03934
 21
53.6607
  0
LINE
  8
0
 10
2.03934
 20
53.6607
 11
1.90996
 21
53.5131
  0
LINE
  8
0
 10
1.90996
 20
53.5131
 11
1.80095
 21
53.35
  0
LINE
  8
0
 10
1.80095
 20
53.35
 11
1.71417
 21
53.174
  0
LINE
  8
0
 10
1.71417
 20
53.174
 11
1.65111
 21
52.9882
  0
LINE
  8
0
 10
1.65111
 20
52.9882
 11
1.61282
 21
52.7958
  0
LINE
  8
0
 10
1.61282
 20
52.7958
 11
1.59999
 21
52.6
  0
LINE
  8
0
 10
1.59999
 20
52.6
 11
1.59999
 21
3.09999
  0
LINE
  8
0
 10
1.59999
 20
3.09999
 11
1.61282
 21
2.90421
  0
LINE
  8
0
 10
1.61282
 20
2.90421
 11
1.65111
 21
2.71176
  0
LINE
  8
0
 10
1.65111
 20
2.71176
 11
1.71417
 21
2.52597
  0
LINE
  8
0
 10
1.71417
 20
2.52597
 11
1.80095
 21
2.34999
  0
LINE
  8
0
 10
1.80095
 20
2.34999
 11
1.90996
 21
2.18684
  0
LINE
  8
0
 10
1.90996
 20
2.18684
 11
2.03934
 21
2.03934
  0
LINE
  8
0
 10
2.03934
 20
2.03934
 11
2.18684
 21
1.90996
  0
LINE
  8
0
 10
2.18684
 20
1.90996
 11
2.34999
 21
1.80095
  0
LINE
  8
0
 10
2.34999
 20
1.80095
 11
2.52597
 21
1.71417
  0
LINE
  8
0
 10
2.52597
 20
1.71417
 11
2.71176
 21
1.65111
  0
LINE
  8
0
 10
2.71176
 20
1.65111
 11
2.90421
 21
1.61282
  0
LINE
  8
0
 10
2.90421
 20
1.61282
 11
3.09999
 21
1.59999
  0
LINE
  8
0
 10
3.09999
 20
1.59999
 11
40.9
 21
1.59999
  0
LINE
  8
0
 10
40.9
 20
1.59999
 11
41.0958
 21
1.61282
  0
LINE
  8
0
 10
12.9606
 20
13.8068
 11
12.8579
 21
13.8273
  0
LINE
  8
0
 10
12.8579
 20
13.8273
 11
12.7589
 21
13.8609
  0
LINE
  8
0
 10
12.7589
 20
13.8609
 11
12.665
 21
13.9072
  0
LINE
  8
0
 10
12.665
 20
13.9072
 11
12.578
 21
13.9653
  0
LINE
  8
0
 10
12.578
 20
13.9653
 11
12.4993
 21
14.0343
  0
LINE
  8
0
 10
12.4993
 20
14.0343
 11
12.4303
 21
14.113
  0
LINE
  8
0
 10
12.4303
 20
14.113
 11
12.3722
 21
14.2
  0
LINE
  8
0
 10
12.3722
 20
14.2
 11
12.3259
 21
14.2938
  0
LINE
  8
0
 10
12.3259
 20
14.2938
 11
12.2923
 21
14.3929
  0
LINE
  8
0
 10
12.2923
 20
14.3929
 11
12.2718
 21
14.4956
  0
LINE
  8
0
 10
12.2718
 20
14.4956
 11
12.265
 21
14.6
  0
LINE
  8
0
 10
12.265
 20
14.6
 11
12.2718
 21
14.7044
  0
LINE
  8
0
 10
12.2718
 20
14.7044
 11
12.2923
 21
14.8071
  0
LINE
  8
0
 10
12.2923
 20
14.8071
 11
12.3259
 21
14.9061
  0
LINE
  8
0
 10
12.3259
 20
14.9061
 11
12.3722
 21
15
  0
LINE
  8
0
 10
12.3722
 20
15
 11
12.4303
 21
15.087
  0
LINE
  8
0
 10
12.4303
 20
15.087
 11
12.4993
 21
15.1657
  0
LINE
  8
0
 10
12.4993
 20
15.1657
 11
12.578
 21
15.2347
  0
LINE
  8
0
 10
12.578
 20
15.2347
 11
12.665
 21
15.2928
  0
LINE
  8
0
 10
12.665
 20
15.2928
 11
12.7589
 21
15.3391
  0
LINE
  8
0
 10
12.7589
 20
15.3391
 11
12.8579
 21
15.3727
  0
LINE
  8
0
 10
12.8579
 20
15.3727
 11
12.9606
 21
15.3931
  0
LINE
  8
0
 10
12.9606
 20
15.3931
 11
13.065
 21
15.4
  0
LINE
  8
0
 10
13.065
 20
15.4
 11
13.1694
 21
15.3931
  0
LINE
  8
0
 10
13.1694
 20
15.3931
 11
13.272
 21
15.3727
  0
LINE
  8
0
 10
13.272
 20
15.3727
 11
13.3711
 21
15.3391
  0
LINE
  8
0
 10
13.3711
 20
15.3391
 11
13.465
 21
15.2928
  0
LINE
  8
0
 10
13.465
 20
15.2928
 11
13.552
 21
15.2347
  0
LINE
  8
0
 10
13.552
 20
15.2347
 11
13.6307
 21
15.1657
  0
LINE
  8
0
 10
13.6307
 20
15.1657
 11
13.6997
 21
15.087
  0
LINE
  8
0
 10
13.6997
 20
15.087
 11
13.7578
 21
15
  0
LINE
  8
0
 10
13.7578
 20
15
 11
13.8041
 21
14.9061
  0
LINE
  8
0
 10
13.8041
 20
14.9061
 11
13.8377
 21
14.8071
  0
LINE
  8
0
 10
13.8377
 20
14.8071
 11
13.8582
 21
14.7044
  0
LINE
  8
0
 10
13.8582
 20
14.7044
 11
13.865
 21
14.6
  0
LINE
  8
0
 10
13.865
 20
14.6
 11
13.8582
 21
14.4956
  0
LINE
  8
0
 10
13.8582
 20
14.4956
 11
13.8377
 21
14.3929
  0
LINE
  8
0
 10
13.8377
 20
14.3929
 11
13.8041
 21
14.2938
  0
LINE
  8
0
 10
13.8041
 20
14.2938
 11
13.7578
 21
14.2
  0
LINE
  8
0
 10
13.7578
 20
14.2
 11
13.6997
 21
14.113
  0
LINE
  8
0
 10
13.6997
 20
14.113
 11
13.6307
 21
14.0343
  0
LINE
  8
0
 10
13.6307
 20
14.0343
 11
13.552
 21
13.9653
  0
LINE
  8
0
 10
13.552
 20
13.9653
 11
13.465
 21
13.9072
  0
LINE
  8
0
 10
13.465
 20
13.9072
 11
13.3711
 21
13.8609
  0
LINE
  8
0
 10
13.3711
 20
13.8609
 11
13.272
 21
13.8273
  0
LINE
  8
0
 10
13.272
 20
13.8273
 11
13.1694
 21
13.8068
  0
LINE
  8
0
 10
13.1694
 20
13.8068
 11
13.065
 21
13.8
  0
LINE
  8
0
 10
13.065
 20
13.8
 11
12.9606
 21
13.8068
  0
LINE
  8
0
 10
28.0806
 20
13.8068
 11
27.9779
 21
13.8273
  0
LINE
  8
0
 10
27.9779
 20
13.8273
 11
27.8788
 21
13.8609
  0
LINE
  8
0
 10
27.8788
 20
13.8609
 11
27.785
 21
13.9072
  0
LINE
  8
0
 10
27.785
 20
13.9072
 11
27.698
 21
13.9653
  0
LINE
  8
0
 10
27.698
 20
13.9653
 11
27.6193
 21
14.0343
  0
LINE
  8
0
 10
27.6193
 20
14.0343
 11
27.5503
 21
14.113
  0
LINE
  8
0
 10
27.5503
 20
14.113
 11
27.4922
 21
14.2
  0
LINE
  8
0
 10
27.4922
 20
14.2
 11
27.4459
 21
14.2938
  0
LINE
  8
0
 10
27.4459
 20
14.2938
 11
27.4122
 21
14.3929
  0
LINE
  8
0
 10
27.4122
 20
14.3929
 11
27.3918
 21
14.4956
  0
LINE
  8
0
 10
27.3918
 20
14.4956
 11
27.385
 21
14.6
  0
LINE
  8
0
 10
27.385
 20
14.6
 11
27.3918
 21
14.7044
  0
LINE
  8
0
 10
27.3918
 20
14.7044
 11
27.4122
 21
14.8071
  0
LINE
  8
0
 10
27.4122
 20
14.8071
 11
27.4459
 21
14.9061
  0
LINE
  8
0
 10
27.4459
 20
14.9061
 11
27.4922
 21
15
  0
LINE
  8
0
 10
27.4922
 20
15
 11
27.5503
 21
15.087
  0
LINE
  8
0
 10
27.5503
 20
15.087
 11
27.6193
 21
15.1657
  0
LINE
  8
0
 10
27.6193
 20
15.1657
 11
27.698
 21
15.2347
  0
LINE
  8
0
 10
27.698
 20
15.2347
 11
27.785
 21
15.2928
  0
LINE
  8
0
 10
27.785
 20
15.2928
 11
27.8788
 21
15.3391
  0
LINE
  8
0
 10
27.8788
 20
15.3391
 11
27.9779
 21
15.3727
  0
LINE
  8
0
 10
27.9779
 20
15.3727
 11
28.0806
 21
15.3931
  0
LINE
  8
0
 10
28.0806
 20
15.3931
 11
28.185
 21
15.4
  0
LINE
  8
0
 10
28.185
 20
15.4
 11
28.2894
 21
15.3931
  0
LINE
  8
0
 10
28.2894
 20
15.3931
 11
28.392
 21
15.3727
  0
LINE
  8
0
 10
28.392
 20
15.3727
 11
28.4911
 21
15.3391
  0
LINE
  8
0
 10
28.4911
 20
15.3391
 11
28.585
 21
15.2928
  0
LINE
  8
0
 10
28.585
 20
15.2928
 11
28.672
 21
15.2347
  0
LINE
  8
0
 10
28.672
 20
15.2347
 11
28.7507
 21
15.1657
  0
LINE
  8
0
 10
28.7507
 20
15.1657
 11
28.8197
 21
15.087
  0
LINE
  8
0
 10
28.8197
 20
15.087
 11
28.8778
 21
15
  0
LINE
  8
0
 10
28.8778
 20
15
 11
28.9241
 21
14.9061
  0
LINE
  8
0
 10
28.9241
 20
14.9061
 11
28.9577
 21
14.8071
  0
LINE
  8
0
 10
28.9577
 20
14.8071
 11
28.9781
 21
14.7044
  0
LINE
  8
0
 10
28.9781
 20
14.7044
 11
28.985
 21
14.6
  0
LINE
  8
0
 10
28.985
 20
14.6
 11
28.9781
 21
14.4956
  0
LINE
  8
0
 10
28.9781
 20
14.4956
 11
28.9577
 21
14.3929
  0
LINE
  8
0
 10
28.9577
 20
14.3929
 11
28.9241
 21
14.2938
  0
LINE
  8
0
 10
28.9241
 20
14.2938
 11
28.8778
 21
14.2
  0
LINE
  8
0
 10
28.8778
 20
14.2
 11
28.8197
 21
14.113
  0
LINE
  8
0
 10
28.8197
 20
14.113
 11
28.7507
 21
14.0343
  0
LINE
  8
0
 10
28.7507
 20
14.0343
 11
28.672
 21
13.9653
  0
LINE
  8
0
 10
28.672
 20
13.9653
 11
28.585
 21
13.9072
  0
LINE
  8
0
 10
28.585
 20
13.9072
 11
28.4911
 21
13.8609
  0
LINE
  8
0
 10
28.4911
 20
13.8609
 11
28.392
 21
13.8273
  0
LINE
  8
0
 10
28.392
 20
13.8273
 11
28.2894
 21
13.8068
  0
LINE
  8
0
 10
28.2894
 20
13.8068
 11
28.185
 21
13.8
  0
LINE
  8
0
 10
28.185
 20
13.8
 11
28.0806
 21
13.8068
  0
ENDSEC
  0
SECTION
  2
OBJECTS
  0
DICTIONARY
  0
ENDSEC
  0
EOF
