  0
SECTION
  2
BLOCKS
  0
ENDSEC
  0
SECTION
  2
ENTITIES
  0
LINE
  8
0
 10
39.6958
 20
80.7128
 11
39.8882
 21
80.7511
  0
LINE
  8
0
 10
39.8882
 20
80.7511
 11
40.074
 21
80.8142
  0
LINE
  8
0
 10
40.074
 20
80.8142
 11
40.25
 21
80.901
  0
LINE
  8
0
 10
40.25
 20
80.901
 11
40.4131
 21
81.01
  0
LINE
  8
0
 10
40.4131
 20
81.01
 11
40.5607
 21
81.1393
  0
LINE
  8
0
 10
40.5607
 20
81.1393
 11
40.69
 21
81.2868
  0
LINE
  8
0
 10
40.69
 20
81.2868
 11
40.799
 21
81.45
  0
LINE
  8
0
 10
40.799
 20
81.45
 11
40.8858
 21
81.626
  0
LINE
  8
0
 10
40.8858
 20
81.626
 11
40.9489
 21
81.8118
  0
LINE
  8
0
 10
40.9489
 20
81.8118
 11
40.9872
 21
82.0042
  0
LINE
  8
0
 10
40.9872
 20
82.0042
 11
41
 21
82.2
  0
LINE
  8
0
 10
41
 20
82.2
 11
41
 21
117.375
  0
LINE
  8
0
 10
41
 20
117.375
 11
40.9872
 21
117.571
  0
LINE
  8
0
 10
40.9872
 20
117.571
 11
40.9489
 21
117.764
  0
LINE
  8
0
 10
40.9489
 20
117.764
 11
40.8858
 21
117.949
  0
LINE
  8
0
 10
40.8858
 20
117.949
 11
40.799
 21
118.125
  0
LINE
  8
0
 10
40.799
 20
118.125
 11
40.69
 21
118.289
  0
LINE
  8
0
 10
40.69
 20
118.289
 11
40.5607
 21
118.436
  0
LINE
  8
0
 10
40.5607
 20
118.436
 11
40.4131
 21
118.565
  0
LINE
  8
0
 10
40.4131
 20
118.565
 11
40.25
 21
118.674
  0
LINE
  8
0
 10
40.25
 20
118.674
 11
40.074
 21
118.761
  0
LINE
  8
0
 10
40.074
 20
118.761
 11
39.8882
 21
118.824
  0
LINE
  8
0
 10
39.8882
 20
118.824
 11
39.6958
 21
118.863
  0
LINE
  8
0
 10
39.6958
 20
118.863
 11
39.5
 21
118.875
  0
LINE
  8
0
 10
39.5
 20
118.875
 11
3.09999
 21
118.875
  0
LINE
  8
0
 10
3.09999
 20
118.875
 11
2.90421
 21
118.863
  0
LINE
  8
0
 10
2.90421
 20
118.863
 11
2.71176
 21
118.824
  0
LINE
  8
0
 10
2.71176
 20
118.824
 11
2.52597
 21
118.761
  0
LINE
  8
0
 10
2.52597
 20
118.761
 11
2.34999
 21
118.674
  0
LINE
  8
0
 10
2.34999
 20
118.674
 11
2.18684
 21
118.565
  0
LINE
  8
0
 10
2.18684
 20
118.565
 11
2.03934
 21
118.436
  0
LINE
  8
0
 10
2.03934
 20
118.436
 11
1.90996
 21
118.289
  0
LINE
  8
0
 10
1.90996
 20
118.289
 11
1.80095
 21
118.125
  0
LINE
  8
0
 10
1.80095
 20
118.125
 11
1.71417
 21
117.949
  0
LINE
  8
0
 10
1.71417
 20
117.949
 11
1.65111
 21
117.764
  0
LINE
  8
0
 10
1.65111
 20
117.764
 11
1.61282
 21
117.571
  0
LINE
  8
0
 10
1.61282
 20
117.571
 11
1.59999
 21
117.375
  0
LINE
  8
0
 10
1.59999
 20
117.375
 11
1.59999
 21
82.2
  0
LINE
  8
0
 10
1.59999
 20
82.2
 11
1.61282
 21
82.0042
  0
LINE
  8
0
 10
1.61282
 20
82.0042
 11
1.65111
 21
81.8118
  0
LINE
  8
0
 10
1.65111
 20
81.8118
 11
1.71417
 21
81.626
  0
LINE
  8
0
 10
1.71417
 20
81.626
 11
1.80095
 21
81.45
  0
LINE
  8
0
 10
1.80095
 20
81.45
 11
1.90996
 21
81.2868
  0
LINE
  8
0
 10
1.90996
 20
81.2868
 11
2.03934
 21
81.1393
  0
LINE
  8
0
 10
2.03934
 20
81.1393
 11
2.18684
 21
81.01
  0
LINE
  8
0
 10
2.18684
 20
81.01
 11
2.34999
 21
80.901
  0
LINE
  8
0
 10
2.34999
 20
80.901
 11
2.52597
 21
80.8142
  0
LINE
  8
0
 10
2.52597
 20
80.8142
 11
2.71176
 21
80.7511
  0
LINE
  8
0
 10
2.71176
 20
80.7511
 11
2.90421
 21
80.7128
  0
LINE
  8
0
 10
2.90421
 20
80.7128
 11
3.09999
 21
80.7
  0
LINE
  8
0
 10
3.09999
 20
80.7
 11
39.5
 21
80.7
  0
LINE
  8
0
 10
39.5
 20
80.7
 11
39.6958
 21
80.7128
  0
LINE
  8
0
 10
38.4956
 20
115.907
 11
38.3929
 21
115.927
  0
LINE
  8
0
 10
38.3929
 20
115.927
 11
38.2939
 21
115.961
  0
LINE
  8
0
 10
38.2939
 20
115.961
 11
38.2
 21
116.007
  0
LINE
  8
0
 10
38.2
 20
116.007
 11
38.113
 21
116.065
  0
LINE
  8
0
 10
38.113
 20
116.065
 11
38.0343
 21
116.134
  0
LINE
  8
0
 10
38.0343
 20
116.134
 11
37.9653
 21
116.213
  0
LINE
  8
0
 10
37.9653
 20
116.213
 11
37.9072
 21
116.3
  0
LINE
  8
0
 10
37.9072
 20
116.3
 11
37.8609
 21
116.394
  0
LINE
  8
0
 10
37.8609
 20
116.394
 11
37.8273
 21
116.493
  0
LINE
  8
0
 10
37.8273
 20
116.493
 11
37.8068
 21
116.596
  0
LINE
  8
0
 10
37.8068
 20
116.596
 11
37.8
 21
116.7
  0
LINE
  8
0
 10
37.8
 20
116.7
 11
37.8068
 21
116.804
  0
LINE
  8
0
 10
37.8068
 20
116.804
 11
37.8273
 21
116.907
  0
LINE
  8
0
 10
37.8273
 20
116.907
 11
37.8609
 21
117.006
  0
LINE
  8
0
 10
37.8609
 20
117.006
 11
37.9072
 21
117.1
  0
LINE
  8
0
 10
37.9072
 20
117.1
 11
37.9653
 21
117.187
  0
LINE
  8
0
 10
37.9653
 20
117.187
 11
38.0343
 21
117.266
  0
LINE
  8
0
 10
38.0343
 20
117.266
 11
38.113
 21
117.335
  0
LINE
  8
0
 10
38.113
 20
117.335
 11
38.2
 21
117.393
  0
LINE
  8
0
 10
38.2
 20
117.393
 11
38.2939
 21
117.439
  0
LINE
  8
0
 10
38.2939
 20
117.439
 11
38.3929
 21
117.473
  0
LINE
  8
0
 10
38.3929
 20
117.473
 11
38.4956
 21
117.493
  0
LINE
  8
0
 10
38.4956
 20
117.493
 11
38.6
 21
117.5
  0
LINE
  8
0
 10
38.6
 20
117.5
 11
38.7044
 21
117.493
  0
LINE
  8
0
 10
38.7044
 20
117.493
 11
38.8071
 21
117.473
  0
LINE
  8
0
 10
38.8071
 20
117.473
 11
38.9061
 21
117.439
  0
LINE
  8
0
 10
38.9061
 20
117.439
 11
39
 21
117.393
  0
LINE
  8
0
 10
39
 20
117.393
 11
39.087
 21
117.335
  0
LINE
  8
0
 10
39.087
 20
117.335
 11
39.1657
 21
117.266
  0
LINE
  8
0
 10
39.1657
 20
117.266
 11
39.2347
 21
117.187
  0
LINE
  8
0
 10
39.2347
 20
117.187
 11
39.2928
 21
117.1
  0
LINE
  8
0
 10
39.2928
 20
117.1
 11
39.3391
 21
117.006
  0
LINE
  8
0
 10
39.3391
 20
117.006
 11
39.3727
 21
116.907
  0
LINE
  8
0
 10
39.3727
 20
116.907
 11
39.3931
 21
116.804
  0
LINE
  8
0
 10
39.3931
 20
116.804
 11
39.4
 21
116.7
  0
LINE
  8
0
 10
39.4
 20
116.7
 11
39.3931
 21
116.596
  0
LINE
  8
0
 10
39.3931
 20
116.596
 11
39.3727
 21
116.493
  0
LINE
  8
0
 10
39.3727
 20
116.493
 11
39.3391
 21
116.394
  0
LINE
  8
0
 10
39.3391
 20
116.394
 11
39.2928
 21
116.3
  0
LINE
  8
0
 10
39.2928
 20
116.3
 11
39.2347
 21
116.213
  0
LINE
  8
0
 10
39.2347
 20
116.213
 11
39.1657
 21
116.134
  0
LINE
  8
0
 10
39.1657
 20
116.134
 11
39.087
 21
116.065
  0
LINE
  8
0
 10
39.087
 20
116.065
 11
39
 21
116.007
  0
LINE
  8
0
 10
39
 20
116.007
 11
38.9061
 21
115.961
  0
LINE
  8
0
 10
38.9061
 20
115.961
 11
38.8071
 21
115.927
  0
LINE
  8
0
 10
38.8071
 20
115.927
 11
38.7044
 21
115.907
  0
LINE
  8
0
 10
38.7044
 20
115.907
 11
38.6
 21
115.9
  0
LINE
  8
0
 10
38.6
 20
115.9
 11
38.4956
 21
115.907
  0
LINE
  8
0
 10
29.45
 20
104.925
 11
29.45
 21
112.025
  0
LINE
  8
0
 10
29.45
 20
112.025
 11
36.55
 21
112.025
  0
LINE
  8
0
 10
36.55
 20
112.025
 11
36.55
 21
104.925
  0
LINE
  8
0
 10
36.55
 20
104.925
 11
29.45
 21
104.925
  0
LINE
  8
0
 10
31.9956
 20
82.1068
 11
31.8929
 21
82.1273
  0
LINE
  8
0
 10
31.8929
 20
82.1273
 11
31.7939
 21
82.1609
  0
LINE
  8
0
 10
31.7939
 20
82.1609
 11
31.7
 21
82.2072
  0
LINE
  8
0
 10
31.7
 20
82.2072
 11
31.613
 21
82.2653
  0
LINE
  8
0
 10
31.613
 20
82.2653
 11
31.5343
 21
82.3343
  0
LINE
  8
0
 10
31.5343
 20
82.3343
 11
31.4653
 21
82.413
  0
LINE
  8
0
 10
31.4653
 20
82.413
 11
31.4072
 21
82.5
  0
LINE
  8
0
 10
31.4072
 20
82.5
 11
31.3609
 21
82.5939
  0
LINE
  8
0
 10
31.3609
 20
82.5939
 11
31.3273
 21
82.6929
  0
LINE
  8
0
 10
31.3273
 20
82.6929
 11
31.3068
 21
82.7956
  0
LINE
  8
0
 10
31.3068
 20
82.7956
 11
31.3
 21
82.9
  0
LINE
  8
0
 10
31.3
 20
82.9
 11
31.3068
 21
83.0044
  0
LINE
  8
0
 10
31.3068
 20
83.0044
 11
31.3273
 21
83.1071
  0
LINE
  8
0
 10
31.3273
 20
83.1071
 11
31.3609
 21
83.2061
  0
LINE
  8
0
 10
31.3609
 20
83.2061
 11
31.4072
 21
83.3
  0
LINE
  8
0
 10
31.4072
 20
83.3
 11
31.4653
 21
83.387
  0
LINE
  8
0
 10
31.4653
 20
83.387
 11
31.5343
 21
83.4657
  0
LINE
  8
0
 10
31.5343
 20
83.4657
 11
31.613
 21
83.5347
  0
LINE
  8
0
 10
31.613
 20
83.5347
 11
31.7
 21
83.5928
  0
LINE
  8
0
 10
31.7
 20
83.5928
 11
31.7939
 21
83.6391
  0
LINE
  8
0
 10
31.7939
 20
83.6391
 11
31.8929
 21
83.6727
  0
LINE
  8
0
 10
31.8929
 20
83.6727
 11
31.9956
 21
83.6931
  0
LINE
  8
0
 10
31.9956
 20
83.6931
 11
32.1
 21
83.7
  0
LINE
  8
0
 10
32.1
 20
83.7
 11
32.2044
 21
83.6931
  0
LINE
  8
0
 10
32.2044
 20
83.6931
 11
32.3071
 21
83.6727
  0
LINE
  8
0
 10
32.3071
 20
83.6727
 11
32.4061
 21
83.6391
  0
LINE
  8
0
 10
32.4061
 20
83.6391
 11
32.5
 21
83.5928
  0
LINE
  8
0
 10
32.5
 20
83.5928
 11
32.587
 21
83.5347
  0
LINE
  8
0
 10
32.587
 20
83.5347
 11
32.6657
 21
83.4657
  0
LINE
  8
0
 10
32.6657
 20
83.4657
 11
32.7347
 21
83.387
  0
LINE
  8
0
 10
32.7347
 20
83.387
 11
32.7928
 21
83.3
  0
LINE
  8
0
 10
32.7928
 20
83.3
 11
32.8391
 21
83.2061
  0
LINE
  8
0
 10
32.8391
 20
83.2061
 11
32.8727
 21
83.1071
  0
LINE
  8
0
 10
32.8727
 20
83.1071
 11
32.8931
 21
83.0044
  0
LINE
  8
0
 10
32.8931
 20
83.0044
 11
32.9
 21
82.9
  0
LINE
  8
0
 10
32.9
 20
82.9
 11
32.8931
 21
82.7956
  0
LINE
  8
0
 10
32.8931
 20
82.7956
 11
32.8727
 21
82.6929
  0
LINE
  8
0
 10
32.8727
 20
82.6929
 11
32.8391
 21
82.5939
  0
LINE
  8
0
 10
32.8391
 20
82.5939
 11
32.7928
 21
82.5
  0
LINE
  8
0
 10
32.7928
 20
82.5
 11
32.7347
 21
82.413
  0
LINE
  8
0
 10
32.7347
 20
82.413
 11
32.6657
 21
82.3343
  0
LINE
  8
0
 10
32.6657
 20
82.3343
 11
32.587
 21
82.2653
  0
LINE
  8
0
 10
32.587
 20
82.2653
 11
32.5
 21
82.2072
  0
LINE
  8
0
 10
32.5
 20
82.2072
 11
32.4061
 21
82.1609
  0
LINE
  8
0
 10
32.4061
 20
82.1609
 11
32.3071
 21
82.1273
  0
LINE
  8
0
 10
32.3071
 20
82.1273
 11
32.2044
 21
82.1068
  0
LINE
  8
0
 10
32.2044
 20
82.1068
 11
32.1
 21
82.1
  0
LINE
  8
0
 10
32.1
 20
82.1
 11
31.9956
 21
82.1068
  0
ENDSEC
  0
SECTION
  2
OBJECTS
  0
DICTIONARY
  0
ENDSEC
  0
EOF
