  0
SECTION
  2
BLOCKS
  0
ENDSEC
  0
SECTION
  2
ENTITIES
  0
LINE
  8
0
 10
81.5181
 20
1.61282
 11
81.7105
 21
1.65111
  0
LINE
  8
0
 10
81.7105
 20
1.65111
 11
81.8963
 21
1.71417
  0
LINE
  8
0
 10
81.8963
 20
1.71417
 11
82.0723
 21
1.80095
  0
LINE
  8
0
 10
82.0723
 20
1.80095
 11
82.2354
 21
1.90996
  0
LINE
  8
0
 10
82.2354
 20
1.90996
 11
82.383
 21
2.03934
  0
LINE
  8
0
 10
82.383
 20
2.03934
 11
82.5123
 21
2.18684
  0
LINE
  8
0
 10
82.5123
 20
2.18684
 11
82.6213
 21
2.34999
  0
LINE
  8
0
 10
82.6213
 20
2.34999
 11
82.7081
 21
2.52597
  0
LINE
  8
0
 10
82.7081
 20
2.52597
 11
82.7712
 21
2.71176
  0
LINE
  8
0
 10
82.7712
 20
2.71176
 11
82.8095
 21
2.90421
  0
LINE
  8
0
 10
82.8095
 20
2.90421
 11
82.8223
 21
3.09999
  0
LINE
  8
0
 10
82.8223
 20
3.09999
 11
82.8223
 21
64.6
  0
LINE
  8
0
 10
82.8223
 20
64.6
 11
82.8095
 21
64.7958
  0
LINE
  8
0
 10
82.8095
 20
64.7958
 11
82.7712
 21
64.9882
  0
LINE
  8
0
 10
82.7712
 20
64.9882
 11
82.7081
 21
65.174
  0
LINE
  8
0
 10
82.7081
 20
65.174
 11
82.6213
 21
65.35
  0
LINE
  8
0
 10
82.6213
 20
65.35
 11
82.5123
 21
65.5131
  0
LINE
  8
0
 10
82.5123
 20
65.5131
 11
82.383
 21
65.6607
  0
LINE
  8
0
 10
82.383
 20
65.6607
 11
82.2354
 21
65.79
  0
LINE
  8
0
 10
82.2354
 20
65.79
 11
82.0723
 21
65.899
  0
LINE
  8
0
 10
82.0723
 20
65.899
 11
81.8963
 21
65.9858
  0
LINE
  8
0
 10
81.8963
 20
65.9858
 11
81.7105
 21
66.0489
  0
LINE
  8
0
 10
81.7105
 20
66.0489
 11
81.5181
 21
66.0872
  0
LINE
  8
0
 10
81.5181
 20
66.0872
 11
81.3223
 21
66.1
  0
LINE
  8
0
 10
81.3223
 20
66.1
 11
3.09999
 21
66.1
  0
LINE
  8
0
 10
3.09999
 20
66.1
 11
2.90421
 21
66.0872
  0
LINE
  8
0
 10
2.90421
 20
66.0872
 11
2.71176
 21
66.0489
  0
LINE
  8
0
 10
2.71176
 20
66.0489
 11
2.52597
 21
65.9858
  0
LINE
  8
0
 10
2.52597
 20
65.9858
 11
2.34999
 21
65.899
  0
LINE
  8
0
 10
2.34999
 20
65.899
 11
2.18684
 21
65.79
  0
LINE
  8
0
 10
2.18684
 20
65.79
 11
2.03934
 21
65.6607
  0
LINE
  8
0
 10
2.03934
 20
65.6607
 11
1.90996
 21
65.5131
  0
LINE
  8
0
 10
1.90996
 20
65.5131
 11
1.80095
 21
65.35
  0
LINE
  8
0
 10
1.80095
 20
65.35
 11
1.71417
 21
65.174
  0
LINE
  8
0
 10
1.71417
 20
65.174
 11
1.65111
 21
64.9882
  0
LINE
  8
0
 10
1.65111
 20
64.9882
 11
1.61282
 21
64.7958
  0
LINE
  8
0
 10
1.61282
 20
64.7958
 11
1.59999
 21
64.6
  0
LINE
  8
0
 10
1.59999
 20
64.6
 11
1.59999
 21
3.09999
  0
LINE
  8
0
 10
1.59999
 20
3.09999
 11
1.61282
 21
2.90421
  0
LINE
  8
0
 10
1.61282
 20
2.90421
 11
1.65111
 21
2.71176
  0
LINE
  8
0
 10
1.65111
 20
2.71176
 11
1.71417
 21
2.52597
  0
LINE
  8
0
 10
1.71417
 20
2.52597
 11
1.80095
 21
2.34999
  0
LINE
  8
0
 10
1.80095
 20
2.34999
 11
1.90996
 21
2.18684
  0
LINE
  8
0
 10
1.90996
 20
2.18684
 11
2.03934
 21
2.03934
  0
LINE
  8
0
 10
2.03934
 20
2.03934
 11
2.18684
 21
1.90996
  0
LINE
  8
0
 10
2.18684
 20
1.90996
 11
2.34999
 21
1.80095
  0
LINE
  8
0
 10
2.34999
 20
1.80095
 11
2.52597
 21
1.71417
  0
LINE
  8
0
 10
2.52597
 20
1.71417
 11
2.71176
 21
1.65111
  0
LINE
  8
0
 10
2.71176
 20
1.65111
 11
2.90421
 21
1.61282
  0
LINE
  8
0
 10
2.90421
 20
1.61282
 11
3.09999
 21
1.59999
  0
LINE
  8
0
 10
3.09999
 20
1.59999
 11
81.3223
 21
1.59999
  0
LINE
  8
0
 10
81.3223
 20
1.59999
 11
81.5181
 21
1.61282
  0
LINE
  8
0
 10
23.0661
 20
13.8068
 11
22.9635
 21
13.8273
  0
LINE
  8
0
 10
22.9635
 20
13.8273
 11
22.8644
 21
13.8609
  0
LINE
  8
0
 10
22.8644
 20
13.8609
 11
22.7706
 21
13.9072
  0
LINE
  8
0
 10
22.7706
 20
13.9072
 11
22.6836
 21
13.9653
  0
LINE
  8
0
 10
22.6836
 20
13.9653
 11
22.6049
 21
14.0343
  0
LINE
  8
0
 10
22.6049
 20
14.0343
 11
22.5359
 21
14.113
  0
LINE
  8
0
 10
22.5359
 20
14.113
 11
22.4778
 21
14.2
  0
LINE
  8
0
 10
22.4778
 20
14.2
 11
22.4315
 21
14.2938
  0
LINE
  8
0
 10
22.4315
 20
14.2938
 11
22.3978
 21
14.3929
  0
LINE
  8
0
 10
22.3978
 20
14.3929
 11
22.3774
 21
14.4956
  0
LINE
  8
0
 10
22.3774
 20
14.4956
 11
22.3706
 21
14.6
  0
LINE
  8
0
 10
22.3706
 20
14.6
 11
22.3774
 21
14.7044
  0
LINE
  8
0
 10
22.3774
 20
14.7044
 11
22.3978
 21
14.8071
  0
LINE
  8
0
 10
22.3978
 20
14.8071
 11
22.4315
 21
14.9061
  0
LINE
  8
0
 10
22.4315
 20
14.9061
 11
22.4778
 21
15
  0
LINE
  8
0
 10
22.4778
 20
15
 11
22.5359
 21
15.087
  0
LINE
  8
0
 10
22.5359
 20
15.087
 11
22.6049
 21
15.1657
  0
LINE
  8
0
 10
22.6049
 20
15.1657
 11
22.6836
 21
15.2347
  0
LINE
  8
0
 10
22.6836
 20
15.2347
 11
22.7706
 21
15.2928
  0
LINE
  8
0
 10
22.7706
 20
15.2928
 11
22.8644
 21
15.3391
  0
LINE
  8
0
 10
22.8644
 20
15.3391
 11
22.9635
 21
15.3727
  0
LINE
  8
0
 10
22.9635
 20
15.3727
 11
23.0661
 21
15.3931
  0
LINE
  8
0
 10
23.0661
 20
15.3931
 11
23.1706
 21
15.4
  0
LINE
  8
0
 10
23.1706
 20
15.4
 11
23.275
 21
15.3931
  0
LINE
  8
0
 10
23.275
 20
15.3931
 11
23.3776
 21
15.3727
  0
LINE
  8
0
 10
23.3776
 20
15.3727
 11
23.4767
 21
15.3391
  0
LINE
  8
0
 10
23.4767
 20
15.3391
 11
23.5706
 21
15.2928
  0
LINE
  8
0
 10
23.5706
 20
15.2928
 11
23.6576
 21
15.2347
  0
LINE
  8
0
 10
23.6576
 20
15.2347
 11
23.7363
 21
15.1657
  0
LINE
  8
0
 10
23.7363
 20
15.1657
 11
23.8053
 21
15.087
  0
LINE
  8
0
 10
23.8053
 20
15.087
 11
23.8634
 21
15
  0
LINE
  8
0
 10
23.8634
 20
15
 11
23.9097
 21
14.9061
  0
LINE
  8
0
 10
23.9097
 20
14.9061
 11
23.9433
 21
14.8071
  0
LINE
  8
0
 10
23.9433
 20
14.8071
 11
23.9637
 21
14.7044
  0
LINE
  8
0
 10
23.9637
 20
14.7044
 11
23.9706
 21
14.6
  0
LINE
  8
0
 10
23.9706
 20
14.6
 11
23.9637
 21
14.4956
  0
LINE
  8
0
 10
23.9637
 20
14.4956
 11
23.9433
 21
14.3929
  0
LINE
  8
0
 10
23.9433
 20
14.3929
 11
23.9097
 21
14.2938
  0
LINE
  8
0
 10
23.9097
 20
14.2938
 11
23.8634
 21
14.2
  0
LINE
  8
0
 10
23.8634
 20
14.2
 11
23.8053
 21
14.113
  0
LINE
  8
0
 10
23.8053
 20
14.113
 11
23.7363
 21
14.0343
  0
LINE
  8
0
 10
23.7363
 20
14.0343
 11
23.6576
 21
13.9653
  0
LINE
  8
0
 10
23.6576
 20
13.9653
 11
23.5706
 21
13.9072
  0
LINE
  8
0
 10
23.5706
 20
13.9072
 11
23.4767
 21
13.8609
  0
LINE
  8
0
 10
23.4767
 20
13.8609
 11
23.3776
 21
13.8273
  0
LINE
  8
0
 10
23.3776
 20
13.8273
 11
23.275
 21
13.8068
  0
LINE
  8
0
 10
23.275
 20
13.8068
 11
23.1706
 21
13.8
  0
LINE
  8
0
 10
23.1706
 20
13.8
 11
23.0661
 21
13.8068
  0
LINE
  8
0
 10
55.3973
 20
13.8068
 11
55.2947
 21
13.8273
  0
LINE
  8
0
 10
55.2947
 20
13.8273
 11
55.1956
 21
13.8609
  0
LINE
  8
0
 10
55.1956
 20
13.8609
 11
55.1017
 21
13.9072
  0
LINE
  8
0
 10
55.1017
 20
13.9072
 11
55.0147
 21
13.9653
  0
LINE
  8
0
 10
55.0147
 20
13.9653
 11
54.936
 21
14.0343
  0
LINE
  8
0
 10
54.936
 20
14.0343
 11
54.867
 21
14.113
  0
LINE
  8
0
 10
54.867
 20
14.113
 11
54.8089
 21
14.2
  0
LINE
  8
0
 10
54.8089
 20
14.2
 11
54.7626
 21
14.2938
  0
LINE
  8
0
 10
54.7626
 20
14.2938
 11
54.729
 21
14.3929
  0
LINE
  8
0
 10
54.729
 20
14.3929
 11
54.7086
 21
14.4956
  0
LINE
  8
0
 10
54.7086
 20
14.4956
 11
54.7017
 21
14.6
  0
LINE
  8
0
 10
54.7017
 20
14.6
 11
54.7086
 21
14.7044
  0
LINE
  8
0
 10
54.7086
 20
14.7044
 11
54.729
 21
14.8071
  0
LINE
  8
0
 10
54.729
 20
14.8071
 11
54.7626
 21
14.9061
  0
LINE
  8
0
 10
54.7626
 20
14.9061
 11
54.8089
 21
15
  0
LINE
  8
0
 10
54.8089
 20
15
 11
54.867
 21
15.087
  0
LINE
  8
0
 10
54.867
 20
15.087
 11
54.936
 21
15.1657
  0
LINE
  8
0
 10
54.936
 20
15.1657
 11
55.0147
 21
15.2347
  0
LINE
  8
0
 10
55.0147
 20
15.2347
 11
55.1017
 21
15.2928
  0
LINE
  8
0
 10
55.1017
 20
15.2928
 11
55.1956
 21
15.3391
  0
LINE
  8
0
 10
55.1956
 20
15.3391
 11
55.2947
 21
15.3727
  0
LINE
  8
0
 10
55.2947
 20
15.3727
 11
55.3973
 21
15.3931
  0
LINE
  8
0
 10
55.3973
 20
15.3931
 11
55.5017
 21
15.4
  0
LINE
  8
0
 10
55.5017
 20
15.4
 11
55.6061
 21
15.3931
  0
LINE
  8
0
 10
55.6061
 20
15.3931
 11
55.7088
 21
15.3727
  0
LINE
  8
0
 10
55.7088
 20
15.3727
 11
55.8079
 21
15.3391
  0
LINE
  8
0
 10
55.8079
 20
15.3391
 11
55.9017
 21
15.2928
  0
LINE
  8
0
 10
55.9017
 20
15.2928
 11
55.9887
 21
15.2347
  0
LINE
  8
0
 10
55.9887
 20
15.2347
 11
56.0674
 21
15.1657
  0
LINE
  8
0
 10
56.0674
 20
15.1657
 11
56.1364
 21
15.087
  0
LINE
  8
0
 10
56.1364
 20
15.087
 11
56.1945
 21
15
  0
LINE
  8
0
 10
56.1945
 20
15
 11
56.2408
 21
14.9061
  0
LINE
  8
0
 10
56.2408
 20
14.9061
 11
56.2745
 21
14.8071
  0
LINE
  8
0
 10
56.2745
 20
14.8071
 11
56.2949
 21
14.7044
  0
LINE
  8
0
 10
56.2949
 20
14.7044
 11
56.3017
 21
14.6
  0
LINE
  8
0
 10
56.3017
 20
14.6
 11
56.2949
 21
14.4956
  0
LINE
  8
0
 10
56.2949
 20
14.4956
 11
56.2745
 21
14.3929
  0
LINE
  8
0
 10
56.2745
 20
14.3929
 11
56.2408
 21
14.2938
  0
LINE
  8
0
 10
56.2408
 20
14.2938
 11
56.1945
 21
14.2
  0
LINE
  8
0
 10
56.1945
 20
14.2
 11
56.1364
 21
14.113
  0
LINE
  8
0
 10
56.1364
 20
14.113
 11
56.0674
 21
14.0343
  0
LINE
  8
0
 10
56.0674
 20
14.0343
 11
55.9887
 21
13.9653
  0
LINE
  8
0
 10
55.9887
 20
13.9653
 11
55.9017
 21
13.9072
  0
LINE
  8
0
 10
55.9017
 20
13.9072
 11
55.8079
 21
13.8609
  0
LINE
  8
0
 10
55.8079
 20
13.8609
 11
55.7088
 21
13.8273
  0
LINE
  8
0
 10
55.7088
 20
13.8273
 11
55.6061
 21
13.8068
  0
LINE
  8
0
 10
55.6061
 20
13.8068
 11
55.5017
 21
13.8
  0
LINE
  8
0
 10
55.5017
 20
13.8
 11
55.3973
 21
13.8068
  0
ENDSEC
  0
SECTION
  2
OBJECTS
  0
DICTIONARY
  0
ENDSEC
  0
EOF
