  0
SECTION
  2
BLOCKS
  0
ENDSEC
  0
SECTION
  2
ENTITIES
  0
LINE
  8
0
 10
80.1181
 20
92.7128
 11
80.3105
 21
92.7511
  0
LINE
  8
0
 10
80.3105
 20
92.7511
 11
80.4963
 21
92.8142
  0
LINE
  8
0
 10
80.4963
 20
92.8142
 11
80.6723
 21
92.901
  0
LINE
  8
0
 10
80.6723
 20
92.901
 11
80.8354
 21
93.01
  0
LINE
  8
0
 10
80.8354
 20
93.01
 11
80.983
 21
93.1393
  0
LINE
  8
0
 10
80.983
 20
93.1393
 11
81.1123
 21
93.2868
  0
LINE
  8
0
 10
81.1123
 20
93.2868
 11
81.2213
 21
93.45
  0
LINE
  8
0
 10
81.2213
 20
93.45
 11
81.3081
 21
93.626
  0
LINE
  8
0
 10
81.3081
 20
93.626
 11
81.3712
 21
93.8118
  0
LINE
  8
0
 10
81.3712
 20
93.8118
 11
81.4095
 21
94.0042
  0
LINE
  8
0
 10
81.4095
 20
94.0042
 11
81.4223
 21
94.2
  0
LINE
  8
0
 10
81.4223
 20
94.2
 11
81.4223
 21
151.522
  0
LINE
  8
0
 10
81.4223
 20
151.522
 11
81.4095
 21
151.718
  0
LINE
  8
0
 10
81.4095
 20
151.718
 11
81.3712
 21
151.911
  0
LINE
  8
0
 10
81.3712
 20
151.911
 11
81.3081
 21
152.096
  0
LINE
  8
0
 10
81.3081
 20
152.096
 11
81.2213
 21
152.272
  0
LINE
  8
0
 10
81.2213
 20
152.272
 11
81.1123
 21
152.435
  0
LINE
  8
0
 10
81.1123
 20
152.435
 11
80.983
 21
152.583
  0
LINE
  8
0
 10
80.983
 20
152.583
 11
80.8354
 21
152.712
  0
LINE
  8
0
 10
80.8354
 20
152.712
 11
80.6723
 21
152.821
  0
LINE
  8
0
 10
80.6723
 20
152.821
 11
80.4963
 21
152.908
  0
LINE
  8
0
 10
80.4963
 20
152.908
 11
80.3105
 21
152.971
  0
LINE
  8
0
 10
80.3105
 20
152.971
 11
80.1181
 21
153.009
  0
LINE
  8
0
 10
80.1181
 20
153.009
 11
79.9223
 21
153.022
  0
LINE
  8
0
 10
79.9223
 20
153.022
 11
3.09999
 21
153.022
  0
LINE
  8
0
 10
3.09999
 20
153.022
 11
2.90421
 21
153.009
  0
LINE
  8
0
 10
2.90421
 20
153.009
 11
2.71176
 21
152.971
  0
LINE
  8
0
 10
2.71176
 20
152.971
 11
2.52597
 21
152.908
  0
LINE
  8
0
 10
2.52597
 20
152.908
 11
2.34999
 21
152.821
  0
LINE
  8
0
 10
2.34999
 20
152.821
 11
2.18684
 21
152.712
  0
LINE
  8
0
 10
2.18684
 20
152.712
 11
2.03934
 21
152.583
  0
LINE
  8
0
 10
2.03934
 20
152.583
 11
1.90996
 21
152.435
  0
LINE
  8
0
 10
1.90996
 20
152.435
 11
1.80095
 21
152.272
  0
LINE
  8
0
 10
1.80095
 20
152.272
 11
1.71417
 21
152.096
  0
LINE
  8
0
 10
1.71417
 20
152.096
 11
1.65111
 21
151.911
  0
LINE
  8
0
 10
1.65111
 20
151.911
 11
1.61282
 21
151.718
  0
LINE
  8
0
 10
1.61282
 20
151.718
 11
1.59999
 21
151.522
  0
LINE
  8
0
 10
1.59999
 20
151.522
 11
1.59999
 21
94.2
  0
LINE
  8
0
 10
1.59999
 20
94.2
 11
1.61282
 21
94.0042
  0
LINE
  8
0
 10
1.61282
 20
94.0042
 11
1.65111
 21
93.8118
  0
LINE
  8
0
 10
1.65111
 20
93.8118
 11
1.71417
 21
93.626
  0
LINE
  8
0
 10
1.71417
 20
93.626
 11
1.80095
 21
93.45
  0
LINE
  8
0
 10
1.80095
 20
93.45
 11
1.90996
 21
93.2868
  0
LINE
  8
0
 10
1.90996
 20
93.2868
 11
2.03934
 21
93.1393
  0
LINE
  8
0
 10
2.03934
 20
93.1393
 11
2.18684
 21
93.01
  0
LINE
  8
0
 10
2.18684
 20
93.01
 11
2.34999
 21
92.901
  0
LINE
  8
0
 10
2.34999
 20
92.901
 11
2.52597
 21
92.8142
  0
LINE
  8
0
 10
2.52597
 20
92.8142
 11
2.71176
 21
92.7511
  0
LINE
  8
0
 10
2.71176
 20
92.7511
 11
2.90421
 21
92.7128
  0
LINE
  8
0
 10
2.90421
 20
92.7128
 11
3.09999
 21
92.7
  0
LINE
  8
0
 10
3.09999
 20
92.7
 11
79.9223
 21
92.7
  0
LINE
  8
0
 10
79.9223
 20
92.7
 11
80.1181
 21
92.7128
  0
LINE
  8
0
 10
79.4956
 20
150.407
 11
79.3929
 21
150.427
  0
LINE
  8
0
 10
79.3929
 20
150.427
 11
79.2939
 21
150.461
  0
LINE
  8
0
 10
79.2939
 20
150.461
 11
79.2
 21
150.507
  0
LINE
  8
0
 10
79.2
 20
150.507
 11
79.113
 21
150.565
  0
LINE
  8
0
 10
79.113
 20
150.565
 11
79.0343
 21
150.634
  0
LINE
  8
0
 10
79.0343
 20
150.634
 11
78.9653
 21
150.713
  0
LINE
  8
0
 10
78.9653
 20
150.713
 11
78.9072
 21
150.8
  0
LINE
  8
0
 10
78.9072
 20
150.8
 11
78.8609
 21
150.894
  0
LINE
  8
0
 10
78.8609
 20
150.894
 11
78.8273
 21
150.993
  0
LINE
  8
0
 10
78.8273
 20
150.993
 11
78.8068
 21
151.096
  0
LINE
  8
0
 10
78.8068
 20
151.096
 11
78.8
 21
151.2
  0
LINE
  8
0
 10
78.8
 20
151.2
 11
78.8068
 21
151.304
  0
LINE
  8
0
 10
78.8068
 20
151.304
 11
78.8273
 21
151.407
  0
LINE
  8
0
 10
78.8273
 20
151.407
 11
78.8609
 21
151.506
  0
LINE
  8
0
 10
78.8609
 20
151.506
 11
78.9072
 21
151.6
  0
LINE
  8
0
 10
78.9072
 20
151.6
 11
78.9653
 21
151.687
  0
LINE
  8
0
 10
78.9653
 20
151.687
 11
79.0343
 21
151.766
  0
LINE
  8
0
 10
79.0343
 20
151.766
 11
79.113
 21
151.835
  0
LINE
  8
0
 10
79.113
 20
151.835
 11
79.2
 21
151.893
  0
LINE
  8
0
 10
79.2
 20
151.893
 11
79.2939
 21
151.939
  0
LINE
  8
0
 10
79.2939
 20
151.939
 11
79.3929
 21
151.973
  0
LINE
  8
0
 10
79.3929
 20
151.973
 11
79.4956
 21
151.993
  0
LINE
  8
0
 10
79.4956
 20
151.993
 11
79.6
 21
152
  0
LINE
  8
0
 10
79.6
 20
152
 11
79.7044
 21
151.993
  0
LINE
  8
0
 10
79.7044
 20
151.993
 11
79.8071
 21
151.973
  0
LINE
  8
0
 10
79.8071
 20
151.973
 11
79.9061
 21
151.939
  0
LINE
  8
0
 10
79.9061
 20
151.939
 11
80
 21
151.893
  0
LINE
  8
0
 10
80
 20
151.893
 11
80.087
 21
151.835
  0
LINE
  8
0
 10
80.087
 20
151.835
 11
80.1657
 21
151.766
  0
LINE
  8
0
 10
80.1657
 20
151.766
 11
80.2347
 21
151.687
  0
LINE
  8
0
 10
80.2347
 20
151.687
 11
80.2928
 21
151.6
  0
LINE
  8
0
 10
80.2928
 20
151.6
 11
80.3391
 21
151.506
  0
LINE
  8
0
 10
80.3391
 20
151.506
 11
80.3727
 21
151.407
  0
LINE
  8
0
 10
80.3727
 20
151.407
 11
80.3932
 21
151.304
  0
LINE
  8
0
 10
80.3932
 20
151.304
 11
80.4
 21
151.2
  0
LINE
  8
0
 10
80.4
 20
151.2
 11
80.3932
 21
151.096
  0
LINE
  8
0
 10
80.3932
 20
151.096
 11
80.3727
 21
150.993
  0
LINE
  8
0
 10
80.3727
 20
150.993
 11
80.3391
 21
150.894
  0
LINE
  8
0
 10
80.3391
 20
150.894
 11
80.2928
 21
150.8
  0
LINE
  8
0
 10
80.2928
 20
150.8
 11
80.2347
 21
150.713
  0
LINE
  8
0
 10
80.2347
 20
150.713
 11
80.1657
 21
150.634
  0
LINE
  8
0
 10
80.1657
 20
150.634
 11
80.087
 21
150.565
  0
LINE
  8
0
 10
80.087
 20
150.565
 11
80
 21
150.507
  0
LINE
  8
0
 10
80
 20
150.507
 11
79.9061
 21
150.461
  0
LINE
  8
0
 10
79.9061
 20
150.461
 11
79.8071
 21
150.427
  0
LINE
  8
0
 10
79.8071
 20
150.427
 11
79.7044
 21
150.407
  0
LINE
  8
0
 10
79.7044
 20
150.407
 11
79.6
 21
150.4
  0
LINE
  8
0
 10
79.6
 20
150.4
 11
79.4956
 21
150.407
  0
LINE
  8
0
 10
39.1611
 20
144.572
 11
39.1611
 21
150.672
  0
LINE
  8
0
 10
39.1611
 20
150.672
 11
45.2612
 21
150.672
  0
LINE
  8
0
 10
45.2612
 20
150.672
 11
45.2612
 21
144.572
  0
LINE
  8
0
 10
45.2612
 20
144.572
 11
39.1611
 21
144.572
  0
LINE
  8
0
 10
68.8723
 20
138.072
 11
68.8723
 21
147.172
  0
LINE
  8
0
 10
68.8723
 20
147.172
 11
77.9723
 21
147.172
  0
LINE
  8
0
 10
77.9723
 20
147.172
 11
77.9723
 21
138.072
  0
LINE
  8
0
 10
77.9723
 20
138.072
 11
68.8723
 21
138.072
  0
LINE
  8
0
 10
61.4956
 20
94.1068
 11
61.3929
 21
94.1273
  0
LINE
  8
0
 10
61.3929
 20
94.1273
 11
61.2939
 21
94.1609
  0
LINE
  8
0
 10
61.2939
 20
94.1609
 11
61.2
 21
94.2072
  0
LINE
  8
0
 10
61.2
 20
94.2072
 11
61.113
 21
94.2653
  0
LINE
  8
0
 10
61.113
 20
94.2653
 11
61.0343
 21
94.3343
  0
LINE
  8
0
 10
61.0343
 20
94.3343
 11
60.9653
 21
94.413
  0
LINE
  8
0
 10
60.9653
 20
94.413
 11
60.9072
 21
94.5
  0
LINE
  8
0
 10
60.9072
 20
94.5
 11
60.8609
 21
94.5939
  0
LINE
  8
0
 10
60.8609
 20
94.5939
 11
60.8273
 21
94.6929
  0
LINE
  8
0
 10
60.8273
 20
94.6929
 11
60.8068
 21
94.7956
  0
LINE
  8
0
 10
60.8068
 20
94.7956
 11
60.8
 21
94.9
  0
LINE
  8
0
 10
60.8
 20
94.9
 11
60.8068
 21
95.0044
  0
LINE
  8
0
 10
60.8068
 20
95.0044
 11
60.8273
 21
95.1071
  0
LINE
  8
0
 10
60.8273
 20
95.1071
 11
60.8609
 21
95.2061
  0
LINE
  8
0
 10
60.8609
 20
95.2061
 11
60.9072
 21
95.3
  0
LINE
  8
0
 10
60.9072
 20
95.3
 11
60.9653
 21
95.387
  0
LINE
  8
0
 10
60.9653
 20
95.387
 11
61.0343
 21
95.4657
  0
LINE
  8
0
 10
61.0343
 20
95.4657
 11
61.113
 21
95.5347
  0
LINE
  8
0
 10
61.113
 20
95.5347
 11
61.2
 21
95.5928
  0
LINE
  8
0
 10
61.2
 20
95.5928
 11
61.2939
 21
95.6391
  0
LINE
  8
0
 10
61.2939
 20
95.6391
 11
61.3929
 21
95.6727
  0
LINE
  8
0
 10
61.3929
 20
95.6727
 11
61.4956
 21
95.6931
  0
LINE
  8
0
 10
61.4956
 20
95.6931
 11
61.6
 21
95.7
  0
LINE
  8
0
 10
61.6
 20
95.7
 11
61.7044
 21
95.6931
  0
LINE
  8
0
 10
61.7044
 20
95.6931
 11
61.8071
 21
95.6727
  0
LINE
  8
0
 10
61.8071
 20
95.6727
 11
61.9061
 21
95.6391
  0
LINE
  8
0
 10
61.9061
 20
95.6391
 11
62
 21
95.5928
  0
LINE
  8
0
 10
62
 20
95.5928
 11
62.087
 21
95.5347
  0
LINE
  8
0
 10
62.087
 20
95.5347
 11
62.1657
 21
95.4657
  0
LINE
  8
0
 10
62.1657
 20
95.4657
 11
62.2347
 21
95.387
  0
LINE
  8
0
 10
62.2347
 20
95.387
 11
62.2928
 21
95.3
  0
LINE
  8
0
 10
62.2928
 20
95.3
 11
62.3391
 21
95.2061
  0
LINE
  8
0
 10
62.3391
 20
95.2061
 11
62.3727
 21
95.1071
  0
LINE
  8
0
 10
62.3727
 20
95.1071
 11
62.3931
 21
95.0044
  0
LINE
  8
0
 10
62.3931
 20
95.0044
 11
62.4
 21
94.9
  0
LINE
  8
0
 10
62.4
 20
94.9
 11
62.3931
 21
94.7956
  0
LINE
  8
0
 10
62.3931
 20
94.7956
 11
62.3727
 21
94.6929
  0
LINE
  8
0
 10
62.3727
 20
94.6929
 11
62.3391
 21
94.5939
  0
LINE
  8
0
 10
62.3391
 20
94.5939
 11
62.2928
 21
94.5
  0
LINE
  8
0
 10
62.2928
 20
94.5
 11
62.2347
 21
94.413
  0
LINE
  8
0
 10
62.2347
 20
94.413
 11
62.1657
 21
94.3343
  0
LINE
  8
0
 10
62.1657
 20
94.3343
 11
62.087
 21
94.2653
  0
LINE
  8
0
 10
62.087
 20
94.2653
 11
62
 21
94.2072
  0
LINE
  8
0
 10
62
 20
94.2072
 11
61.9061
 21
94.1609
  0
LINE
  8
0
 10
61.9061
 20
94.1609
 11
61.8071
 21
94.1273
  0
LINE
  8
0
 10
61.8071
 20
94.1273
 11
61.7044
 21
94.1068
  0
LINE
  8
0
 10
61.7044
 20
94.1068
 11
61.6
 21
94.1
  0
LINE
  8
0
 10
61.6
 20
94.1
 11
61.4956
 21
94.1068
  0
LINE
  8
0
 10
31.4956
 20
94.1068
 11
31.3929
 21
94.1273
  0
LINE
  8
0
 10
31.3929
 20
94.1273
 11
31.2939
 21
94.1609
  0
LINE
  8
0
 10
31.2939
 20
94.1609
 11
31.2
 21
94.2072
  0
LINE
  8
0
 10
31.2
 20
94.2072
 11
31.113
 21
94.2653
  0
LINE
  8
0
 10
31.113
 20
94.2653
 11
31.0343
 21
94.3343
  0
LINE
  8
0
 10
31.0343
 20
94.3343
 11
30.9653
 21
94.413
  0
LINE
  8
0
 10
30.9653
 20
94.413
 11
30.9072
 21
94.5
  0
LINE
  8
0
 10
30.9072
 20
94.5
 11
30.8609
 21
94.5939
  0
LINE
  8
0
 10
30.8609
 20
94.5939
 11
30.8273
 21
94.6929
  0
LINE
  8
0
 10
30.8273
 20
94.6929
 11
30.8068
 21
94.7956
  0
LINE
  8
0
 10
30.8068
 20
94.7956
 11
30.8
 21
94.9
  0
LINE
  8
0
 10
30.8
 20
94.9
 11
30.8068
 21
95.0044
  0
LINE
  8
0
 10
30.8068
 20
95.0044
 11
30.8273
 21
95.1071
  0
LINE
  8
0
 10
30.8273
 20
95.1071
 11
30.8609
 21
95.2061
  0
LINE
  8
0
 10
30.8609
 20
95.2061
 11
30.9072
 21
95.3
  0
LINE
  8
0
 10
30.9072
 20
95.3
 11
30.9653
 21
95.387
  0
LINE
  8
0
 10
30.9653
 20
95.387
 11
31.0343
 21
95.4657
  0
LINE
  8
0
 10
31.0343
 20
95.4657
 11
31.113
 21
95.5347
  0
LINE
  8
0
 10
31.113
 20
95.5347
 11
31.2
 21
95.5928
  0
LINE
  8
0
 10
31.2
 20
95.5928
 11
31.2939
 21
95.6391
  0
LINE
  8
0
 10
31.2939
 20
95.6391
 11
31.3929
 21
95.6727
  0
LINE
  8
0
 10
31.3929
 20
95.6727
 11
31.4956
 21
95.6931
  0
LINE
  8
0
 10
31.4956
 20
95.6931
 11
31.6
 21
95.7
  0
LINE
  8
0
 10
31.6
 20
95.7
 11
31.7044
 21
95.6931
  0
LINE
  8
0
 10
31.7044
 20
95.6931
 11
31.8071
 21
95.6727
  0
LINE
  8
0
 10
31.8071
 20
95.6727
 11
31.9061
 21
95.6391
  0
LINE
  8
0
 10
31.9061
 20
95.6391
 11
32
 21
95.5928
  0
LINE
  8
0
 10
32
 20
95.5928
 11
32.087
 21
95.5347
  0
LINE
  8
0
 10
32.087
 20
95.5347
 11
32.1657
 21
95.4657
  0
LINE
  8
0
 10
32.1657
 20
95.4657
 11
32.2347
 21
95.387
  0
LINE
  8
0
 10
32.2347
 20
95.387
 11
32.2928
 21
95.3
  0
LINE
  8
0
 10
32.2928
 20
95.3
 11
32.3391
 21
95.2061
  0
LINE
  8
0
 10
32.3391
 20
95.2061
 11
32.3727
 21
95.1071
  0
LINE
  8
0
 10
32.3727
 20
95.1071
 11
32.3931
 21
95.0044
  0
LINE
  8
0
 10
32.3931
 20
95.0044
 11
32.4
 21
94.9
  0
LINE
  8
0
 10
32.4
 20
94.9
 11
32.3931
 21
94.7956
  0
LINE
  8
0
 10
32.3931
 20
94.7956
 11
32.3727
 21
94.6929
  0
LINE
  8
0
 10
32.3727
 20
94.6929
 11
32.3391
 21
94.5939
  0
LINE
  8
0
 10
32.3391
 20
94.5939
 11
32.2928
 21
94.5
  0
LINE
  8
0
 10
32.2928
 20
94.5
 11
32.2347
 21
94.413
  0
LINE
  8
0
 10
32.2347
 20
94.413
 11
32.1657
 21
94.3343
  0
LINE
  8
0
 10
32.1657
 20
94.3343
 11
32.087
 21
94.2653
  0
LINE
  8
0
 10
32.087
 20
94.2653
 11
32
 21
94.2072
  0
LINE
  8
0
 10
32
 20
94.2072
 11
31.9061
 21
94.1609
  0
LINE
  8
0
 10
31.9061
 20
94.1609
 11
31.8071
 21
94.1273
  0
LINE
  8
0
 10
31.8071
 20
94.1273
 11
31.7044
 21
94.1068
  0
LINE
  8
0
 10
31.7044
 20
94.1068
 11
31.6
 21
94.1
  0
LINE
  8
0
 10
31.6
 20
94.1
 11
31.4956
 21
94.1068
  0
ENDSEC
  0
SECTION
  2
OBJECTS
  0
DICTIONARY
  0
ENDSEC
  0
EOF
