  0
SECTION
  2
BLOCKS
  0
ENDSEC
  0
SECTION
  2
ENTITIES
  0
LINE
  8
0
 10
81.9181
 20
1.21283
 11
82.1105
 21
1.2511
  0
LINE
  8
0
 10
82.1105
 20
1.2511
 11
82.2963
 21
1.31418
  0
LINE
  8
0
 10
82.2963
 20
1.31418
 11
82.4723
 21
1.40096
  0
LINE
  8
0
 10
82.4723
 20
1.40096
 11
82.6354
 21
1.50996
  0
LINE
  8
0
 10
82.6354
 20
1.50996
 11
82.783
 21
1.63933
  0
LINE
  8
0
 10
82.783
 20
1.63933
 11
82.9123
 21
1.78685
  0
LINE
  8
0
 10
82.9123
 20
1.78685
 11
83.0213
 21
1.95
  0
LINE
  8
0
 10
83.0213
 20
1.95
 11
83.1081
 21
2.12596
  0
LINE
  8
0
 10
83.1081
 20
2.12596
 11
83.1712
 21
2.31177
  0
LINE
  8
0
 10
83.1712
 20
2.31177
 11
83.2095
 21
2.5042
  0
LINE
  8
0
 10
83.2095
 20
2.5042
 11
83.2223
 21
2.7
  0
LINE
  8
0
 10
83.2223
 20
2.7
 11
83.2223
 21
64.6
  0
LINE
  8
0
 10
83.2223
 20
64.6
 11
83.2095
 21
64.7958
  0
LINE
  8
0
 10
83.2095
 20
64.7958
 11
83.1712
 21
64.9882
  0
LINE
  8
0
 10
83.1712
 20
64.9882
 11
83.1081
 21
65.174
  0
LINE
  8
0
 10
83.1081
 20
65.174
 11
83.0213
 21
65.35
  0
LINE
  8
0
 10
83.0213
 20
65.35
 11
82.9123
 21
65.5131
  0
LINE
  8
0
 10
82.9123
 20
65.5131
 11
82.783
 21
65.6607
  0
LINE
  8
0
 10
82.783
 20
65.6607
 11
82.6354
 21
65.79
  0
LINE
  8
0
 10
82.6354
 20
65.79
 11
82.4723
 21
65.899
  0
LINE
  8
0
 10
82.4723
 20
65.899
 11
82.2963
 21
65.9858
  0
LINE
  8
0
 10
82.2963
 20
65.9858
 11
82.1105
 21
66.0489
  0
LINE
  8
0
 10
82.1105
 20
66.0489
 11
81.9181
 21
66.0872
  0
LINE
  8
0
 10
81.9181
 20
66.0872
 11
81.7223
 21
66.1
  0
LINE
  8
0
 10
81.7223
 20
66.1
 11
2.7
 21
66.1
  0
LINE
  8
0
 10
2.7
 20
66.1
 11
2.5042
 21
66.0872
  0
LINE
  8
0
 10
2.5042
 20
66.0872
 11
2.31177
 21
66.0489
  0
LINE
  8
0
 10
2.31177
 20
66.0489
 11
2.12596
 21
65.9858
  0
LINE
  8
0
 10
2.12596
 20
65.9858
 11
1.95
 21
65.899
  0
LINE
  8
0
 10
1.95
 20
65.899
 11
1.78685
 21
65.79
  0
LINE
  8
0
 10
1.78685
 20
65.79
 11
1.63933
 21
65.6607
  0
LINE
  8
0
 10
1.63933
 20
65.6607
 11
1.50996
 21
65.5131
  0
LINE
  8
0
 10
1.50996
 20
65.5131
 11
1.40096
 21
65.35
  0
LINE
  8
0
 10
1.40096
 20
65.35
 11
1.31418
 21
65.174
  0
LINE
  8
0
 10
1.31418
 20
65.174
 11
1.2511
 21
64.9882
  0
LINE
  8
0
 10
1.2511
 20
64.9882
 11
1.21283
 21
64.7958
  0
LINE
  8
0
 10
1.21283
 20
64.7958
 11
1.2
 21
64.6
  0
LINE
  8
0
 10
1.2
 20
64.6
 11
1.2
 21
2.7
  0
LINE
  8
0
 10
1.2
 20
2.7
 11
1.21283
 21
2.5042
  0
LINE
  8
0
 10
1.21283
 20
2.5042
 11
1.2511
 21
2.31177
  0
LINE
  8
0
 10
1.2511
 20
2.31177
 11
1.31418
 21
2.12596
  0
LINE
  8
0
 10
1.31418
 20
2.12596
 11
1.40096
 21
1.95
  0
LINE
  8
0
 10
1.40096
 20
1.95
 11
1.50996
 21
1.78685
  0
LINE
  8
0
 10
1.50996
 20
1.78685
 11
1.63933
 21
1.63933
  0
LINE
  8
0
 10
1.63933
 20
1.63933
 11
1.78685
 21
1.50996
  0
LINE
  8
0
 10
1.78685
 20
1.50996
 11
1.95
 21
1.40096
  0
LINE
  8
0
 10
1.95
 20
1.40096
 11
2.12596
 21
1.31418
  0
LINE
  8
0
 10
2.12596
 20
1.31418
 11
2.31177
 21
1.2511
  0
LINE
  8
0
 10
2.31177
 20
1.2511
 11
2.5042
 21
1.21283
  0
LINE
  8
0
 10
2.5042
 20
1.21283
 11
2.7
 21
1.2
  0
LINE
  8
0
 10
2.7
 20
1.2
 11
81.7223
 21
1.2
  0
LINE
  8
0
 10
81.7223
 20
1.2
 11
81.9181
 21
1.21283
  0
LINE
  8
0
 10
9.99557
 20
9.40683
 11
9.89294
 21
9.42725
  0
LINE
  8
0
 10
9.89294
 20
9.42725
 11
9.79384
 21
9.46089
  0
LINE
  8
0
 10
9.79384
 20
9.46089
 11
9.7
 21
9.50717
  0
LINE
  8
0
 10
9.7
 20
9.50717
 11
9.61298
 21
9.56531
  0
LINE
  8
0
 10
9.61298
 20
9.56531
 11
9.5343
 21
9.63431
  0
LINE
  8
0
 10
9.5343
 20
9.63431
 11
9.46532
 21
9.71298
  0
LINE
  8
0
 10
9.46532
 20
9.71298
 11
9.40717
 21
9.79999
  0
LINE
  8
0
 10
9.40717
 20
9.79999
 11
9.36089
 21
9.89384
  0
LINE
  8
0
 10
9.36089
 20
9.89384
 11
9.32726
 21
9.99294
  0
LINE
  8
0
 10
9.32726
 20
9.99294
 11
9.30684
 21
10.0956
  0
LINE
  8
0
 10
9.30684
 20
10.0956
 11
9.29999
 21
10.2
  0
LINE
  8
0
 10
9.29999
 20
10.2
 11
9.30684
 21
10.3044
  0
LINE
  8
0
 10
9.30684
 20
10.3044
 11
9.32726
 21
10.407
  0
LINE
  8
0
 10
9.32726
 20
10.407
 11
9.36089
 21
10.5061
  0
LINE
  8
0
 10
9.36089
 20
10.5061
 11
9.40717
 21
10.6
  0
LINE
  8
0
 10
9.40717
 20
10.6
 11
9.46532
 21
10.687
  0
LINE
  8
0
 10
9.46532
 20
10.687
 11
9.5343
 21
10.7657
  0
LINE
  8
0
 10
9.5343
 20
10.7657
 11
9.61298
 21
10.8347
  0
LINE
  8
0
 10
9.61298
 20
10.8347
 11
9.7
 21
10.8928
  0
LINE
  8
0
 10
9.7
 20
10.8928
 11
9.79384
 21
10.9391
  0
LINE
  8
0
 10
9.79384
 20
10.9391
 11
9.89294
 21
10.9727
  0
LINE
  8
0
 10
9.89294
 20
10.9727
 11
9.99557
 21
10.9931
  0
LINE
  8
0
 10
9.99557
 20
10.9931
 11
10.1
 21
11
  0
LINE
  8
0
 10
10.1
 20
11
 11
10.2044
 21
10.9931
  0
LINE
  8
0
 10
10.2044
 20
10.9931
 11
10.3071
 21
10.9727
  0
LINE
  8
0
 10
10.3071
 20
10.9727
 11
10.4061
 21
10.9391
  0
LINE
  8
0
 10
10.4061
 20
10.9391
 11
10.5
 21
10.8928
  0
LINE
  8
0
 10
10.5
 20
10.8928
 11
10.587
 21
10.8347
  0
LINE
  8
0
 10
10.587
 20
10.8347
 11
10.6657
 21
10.7657
  0
LINE
  8
0
 10
10.6657
 20
10.7657
 11
10.7347
 21
10.687
  0
LINE
  8
0
 10
10.7347
 20
10.687
 11
10.7928
 21
10.6
  0
LINE
  8
0
 10
10.7928
 20
10.6
 11
10.8391
 21
10.5061
  0
LINE
  8
0
 10
10.8391
 20
10.5061
 11
10.8727
 21
10.407
  0
LINE
  8
0
 10
10.8727
 20
10.407
 11
10.8931
 21
10.3044
  0
LINE
  8
0
 10
10.8931
 20
10.3044
 11
10.9
 21
10.2
  0
LINE
  8
0
 10
10.9
 20
10.2
 11
10.8931
 21
10.0956
  0
LINE
  8
0
 10
10.8931
 20
10.0956
 11
10.8727
 21
9.99294
  0
LINE
  8
0
 10
10.8727
 20
9.99294
 11
10.8391
 21
9.89384
  0
LINE
  8
0
 10
10.8391
 20
9.89384
 11
10.7928
 21
9.79999
  0
LINE
  8
0
 10
10.7928
 20
9.79999
 11
10.7347
 21
9.71298
  0
LINE
  8
0
 10
10.7347
 20
9.71298
 11
10.6657
 21
9.63431
  0
LINE
  8
0
 10
10.6657
 20
9.63431
 11
10.587
 21
9.56531
  0
LINE
  8
0
 10
10.587
 20
9.56531
 11
10.5
 21
9.50717
  0
LINE
  8
0
 10
10.5
 20
9.50717
 11
10.4061
 21
9.46089
  0
LINE
  8
0
 10
10.4061
 20
9.46089
 11
10.3071
 21
9.42725
  0
LINE
  8
0
 10
10.3071
 20
9.42725
 11
10.2044
 21
9.40683
  0
LINE
  8
0
 10
10.2044
 20
9.40683
 11
10.1
 21
9.39999
  0
LINE
  8
0
 10
10.1
 20
9.39999
 11
9.99557
 21
9.40683
  0
LINE
  8
0
 10
31.0161
 20
9.40683
 11
30.9135
 21
9.42725
  0
LINE
  8
0
 10
30.9135
 20
9.42725
 11
30.8144
 21
9.46089
  0
LINE
  8
0
 10
30.8144
 20
9.46089
 11
30.7206
 21
9.50717
  0
LINE
  8
0
 10
30.7206
 20
9.50717
 11
30.6336
 21
9.56531
  0
LINE
  8
0
 10
30.6336
 20
9.56531
 11
30.5549
 21
9.63431
  0
LINE
  8
0
 10
30.5549
 20
9.63431
 11
30.4859
 21
9.71298
  0
LINE
  8
0
 10
30.4859
 20
9.71298
 11
30.4277
 21
9.79999
  0
LINE
  8
0
 10
30.4277
 20
9.79999
 11
30.3815
 21
9.89384
  0
LINE
  8
0
 10
30.3815
 20
9.89384
 11
30.3478
 21
9.99294
  0
LINE
  8
0
 10
30.3478
 20
9.99294
 11
30.3274
 21
10.0956
  0
LINE
  8
0
 10
30.3274
 20
10.0956
 11
30.3206
 21
10.2
  0
LINE
  8
0
 10
30.3206
 20
10.2
 11
30.3274
 21
10.3044
  0
LINE
  8
0
 10
30.3274
 20
10.3044
 11
30.3478
 21
10.407
  0
LINE
  8
0
 10
30.3478
 20
10.407
 11
30.3815
 21
10.5061
  0
LINE
  8
0
 10
30.3815
 20
10.5061
 11
30.4277
 21
10.6
  0
LINE
  8
0
 10
30.4277
 20
10.6
 11
30.4859
 21
10.687
  0
LINE
  8
0
 10
30.4859
 20
10.687
 11
30.5549
 21
10.7657
  0
LINE
  8
0
 10
30.5549
 20
10.7657
 11
30.6336
 21
10.8347
  0
LINE
  8
0
 10
30.6336
 20
10.8347
 11
30.7206
 21
10.8928
  0
LINE
  8
0
 10
30.7206
 20
10.8928
 11
30.8144
 21
10.9391
  0
LINE
  8
0
 10
30.8144
 20
10.9391
 11
30.9135
 21
10.9727
  0
LINE
  8
0
 10
30.9135
 20
10.9727
 11
31.0161
 21
10.9931
  0
LINE
  8
0
 10
31.0161
 20
10.9931
 11
31.1206
 21
11
  0
LINE
  8
0
 10
31.1206
 20
11
 11
31.225
 21
10.9931
  0
LINE
  8
0
 10
31.225
 20
10.9931
 11
31.3276
 21
10.9727
  0
LINE
  8
0
 10
31.3276
 20
10.9727
 11
31.4267
 21
10.9391
  0
LINE
  8
0
 10
31.4267
 20
10.9391
 11
31.5206
 21
10.8928
  0
LINE
  8
0
 10
31.5206
 20
10.8928
 11
31.6076
 21
10.8347
  0
LINE
  8
0
 10
31.6076
 20
10.8347
 11
31.6862
 21
10.7657
  0
LINE
  8
0
 10
31.6862
 20
10.7657
 11
31.7552
 21
10.687
  0
LINE
  8
0
 10
31.7552
 20
10.687
 11
31.8134
 21
10.6
  0
LINE
  8
0
 10
31.8134
 20
10.6
 11
31.8597
 21
10.5061
  0
LINE
  8
0
 10
31.8597
 20
10.5061
 11
31.8933
 21
10.407
  0
LINE
  8
0
 10
31.8933
 20
10.407
 11
31.9137
 21
10.3044
  0
LINE
  8
0
 10
31.9137
 20
10.3044
 11
31.9206
 21
10.2
  0
LINE
  8
0
 10
31.9206
 20
10.2
 11
31.9137
 21
10.0956
  0
LINE
  8
0
 10
31.9137
 20
10.0956
 11
31.8933
 21
9.99294
  0
LINE
  8
0
 10
31.8933
 20
9.99294
 11
31.8597
 21
9.89384
  0
LINE
  8
0
 10
31.8597
 20
9.89384
 11
31.8134
 21
9.79999
  0
LINE
  8
0
 10
31.8134
 20
9.79999
 11
31.7552
 21
9.71298
  0
LINE
  8
0
 10
31.7552
 20
9.71298
 11
31.6862
 21
9.63431
  0
LINE
  8
0
 10
31.6862
 20
9.63431
 11
31.6076
 21
9.56531
  0
LINE
  8
0
 10
31.6076
 20
9.56531
 11
31.5206
 21
9.50717
  0
LINE
  8
0
 10
31.5206
 20
9.50717
 11
31.4267
 21
9.46089
  0
LINE
  8
0
 10
31.4267
 20
9.46089
 11
31.3276
 21
9.42725
  0
LINE
  8
0
 10
31.3276
 20
9.42725
 11
31.225
 21
9.40683
  0
LINE
  8
0
 10
31.225
 20
9.40683
 11
31.1206
 21
9.39999
  0
LINE
  8
0
 10
31.1206
 20
9.39999
 11
31.0161
 21
9.40683
  0
ENDSEC
  0
SECTION
  2
OBJECTS
  0
DICTIONARY
  0
ENDSEC
  0
EOF
