  0
SECTION
  2
BLOCKS
  0
ENDSEC
  0
SECTION
  2
ENTITIES
  0
LINE
  8
0
 10
80.5181
 20
98.3128
 11
80.7105
 21
98.3511
  0
LINE
  8
0
 10
80.7105
 20
98.3511
 11
80.8963
 21
98.4142
  0
LINE
  8
0
 10
80.8963
 20
98.4142
 11
81.0723
 21
98.501
  0
LINE
  8
0
 10
81.0723
 20
98.501
 11
81.2354
 21
98.61
  0
LINE
  8
0
 10
81.2354
 20
98.61
 11
81.383
 21
98.7393
  0
LINE
  8
0
 10
81.383
 20
98.7393
 11
81.5123
 21
98.8869
  0
LINE
  8
0
 10
81.5123
 20
98.8869
 11
81.6213
 21
99.05
  0
LINE
  8
0
 10
81.6213
 20
99.05
 11
81.7081
 21
99.226
  0
LINE
  8
0
 10
81.7081
 20
99.226
 11
81.7712
 21
99.4118
  0
LINE
  8
0
 10
81.7712
 20
99.4118
 11
81.8095
 21
99.6042
  0
LINE
  8
0
 10
81.8095
 20
99.6042
 11
81.8223
 21
99.8
  0
LINE
  8
0
 10
81.8223
 20
99.8
 11
81.8223
 21
151.922
  0
LINE
  8
0
 10
81.8223
 20
151.922
 11
81.8095
 21
152.118
  0
LINE
  8
0
 10
81.8095
 20
152.118
 11
81.7712
 21
152.311
  0
LINE
  8
0
 10
81.7712
 20
152.311
 11
81.7081
 21
152.496
  0
LINE
  8
0
 10
81.7081
 20
152.496
 11
81.6213
 21
152.672
  0
LINE
  8
0
 10
81.6213
 20
152.672
 11
81.5123
 21
152.835
  0
LINE
  8
0
 10
81.5123
 20
152.835
 11
81.383
 21
152.983
  0
LINE
  8
0
 10
81.383
 20
152.983
 11
81.2354
 21
153.112
  0
LINE
  8
0
 10
81.2354
 20
153.112
 11
81.0723
 21
153.221
  0
LINE
  8
0
 10
81.0723
 20
153.221
 11
80.8963
 21
153.308
  0
LINE
  8
0
 10
80.8963
 20
153.308
 11
80.7105
 21
153.371
  0
LINE
  8
0
 10
80.7105
 20
153.371
 11
80.5181
 21
153.409
  0
LINE
  8
0
 10
80.5181
 20
153.409
 11
80.3223
 21
153.422
  0
LINE
  8
0
 10
80.3223
 20
153.422
 11
2.7
 21
153.422
  0
LINE
  8
0
 10
2.7
 20
153.422
 11
2.5042
 21
153.409
  0
LINE
  8
0
 10
2.5042
 20
153.409
 11
2.31177
 21
153.371
  0
LINE
  8
0
 10
2.31177
 20
153.371
 11
2.12596
 21
153.308
  0
LINE
  8
0
 10
2.12596
 20
153.308
 11
1.95
 21
153.221
  0
LINE
  8
0
 10
1.95
 20
153.221
 11
1.78685
 21
153.112
  0
LINE
  8
0
 10
1.78685
 20
153.112
 11
1.63933
 21
152.983
  0
LINE
  8
0
 10
1.63933
 20
152.983
 11
1.50996
 21
152.835
  0
LINE
  8
0
 10
1.50996
 20
152.835
 11
1.40096
 21
152.672
  0
LINE
  8
0
 10
1.40096
 20
152.672
 11
1.31418
 21
152.496
  0
LINE
  8
0
 10
1.31418
 20
152.496
 11
1.2511
 21
152.311
  0
LINE
  8
0
 10
1.2511
 20
152.311
 11
1.21283
 21
152.118
  0
LINE
  8
0
 10
1.21283
 20
152.118
 11
1.2
 21
151.922
  0
LINE
  8
0
 10
1.2
 20
151.922
 11
1.2
 21
99.8
  0
LINE
  8
0
 10
1.2
 20
99.8
 11
1.21283
 21
99.6042
  0
LINE
  8
0
 10
1.21283
 20
99.6042
 11
1.2511
 21
99.4118
  0
LINE
  8
0
 10
1.2511
 20
99.4118
 11
1.31418
 21
99.226
  0
LINE
  8
0
 10
1.31418
 20
99.226
 11
1.40096
 21
99.05
  0
LINE
  8
0
 10
1.40096
 20
99.05
 11
1.50996
 21
98.8869
  0
LINE
  8
0
 10
1.50996
 20
98.8869
 11
1.63933
 21
98.7393
  0
LINE
  8
0
 10
1.63933
 20
98.7393
 11
1.78685
 21
98.61
  0
LINE
  8
0
 10
1.78685
 20
98.61
 11
1.95
 21
98.501
  0
LINE
  8
0
 10
1.95
 20
98.501
 11
2.12596
 21
98.4142
  0
LINE
  8
0
 10
2.12596
 20
98.4142
 11
2.31177
 21
98.3511
  0
LINE
  8
0
 10
2.31177
 20
98.3511
 11
2.5042
 21
98.3128
  0
LINE
  8
0
 10
2.5042
 20
98.3128
 11
2.7
 21
98.3
  0
LINE
  8
0
 10
2.7
 20
98.3
 11
80.3223
 21
98.3
  0
LINE
  8
0
 10
80.3223
 20
98.3
 11
80.5181
 21
98.3128
  0
LINE
  8
0
 10
68.8723
 20
144.122
 11
68.8723
 21
153.222
  0
LINE
  8
0
 10
68.8723
 20
153.222
 11
77.9723
 21
153.222
  0
LINE
  8
0
 10
77.9723
 20
153.222
 11
77.9723
 21
144.122
  0
LINE
  8
0
 10
77.9723
 20
144.122
 11
68.8723
 21
144.122
  0
LINE
  8
0
 10
39.1611
 20
144.572
 11
39.1611
 21
150.672
  0
LINE
  8
0
 10
39.1611
 20
150.672
 11
45.2612
 21
150.672
  0
LINE
  8
0
 10
45.2612
 20
150.672
 11
45.2612
 21
144.572
  0
LINE
  8
0
 10
45.2612
 20
144.572
 11
39.1611
 21
144.572
  0
LINE
  8
0
 10
3.59557
 20
147.507
 11
3.49294
 21
147.527
  0
LINE
  8
0
 10
3.49294
 20
147.527
 11
3.39384
 21
147.561
  0
LINE
  8
0
 10
3.39384
 20
147.561
 11
3.29999
 21
147.607
  0
LINE
  8
0
 10
3.29999
 20
147.607
 11
3.21298
 21
147.665
  0
LINE
  8
0
 10
3.21298
 20
147.665
 11
3.13431
 21
147.734
  0
LINE
  8
0
 10
3.13431
 20
147.734
 11
3.06531
 21
147.813
  0
LINE
  8
0
 10
3.06531
 20
147.813
 11
3.00717
 21
147.9
  0
LINE
  8
0
 10
3.00717
 20
147.9
 11
2.96089
 21
147.994
  0
LINE
  8
0
 10
2.96089
 20
147.994
 11
2.92725
 21
148.093
  0
LINE
  8
0
 10
2.92725
 20
148.093
 11
2.90683
 21
148.196
  0
LINE
  8
0
 10
2.90683
 20
148.196
 11
2.89999
 21
148.3
  0
LINE
  8
0
 10
2.89999
 20
148.3
 11
2.90683
 21
148.404
  0
LINE
  8
0
 10
2.90683
 20
148.404
 11
2.92725
 21
148.507
  0
LINE
  8
0
 10
2.92725
 20
148.507
 11
2.96089
 21
148.606
  0
LINE
  8
0
 10
2.96089
 20
148.606
 11
3.00717
 21
148.7
  0
LINE
  8
0
 10
3.00717
 20
148.7
 11
3.06531
 21
148.787
  0
LINE
  8
0
 10
3.06531
 20
148.787
 11
3.13431
 21
148.866
  0
LINE
  8
0
 10
3.13431
 20
148.866
 11
3.21298
 21
148.935
  0
LINE
  8
0
 10
3.21298
 20
148.935
 11
3.29999
 21
148.993
  0
LINE
  8
0
 10
3.29999
 20
148.993
 11
3.39384
 21
149.039
  0
LINE
  8
0
 10
3.39384
 20
149.039
 11
3.49294
 21
149.073
  0
LINE
  8
0
 10
3.49294
 20
149.073
 11
3.59557
 21
149.093
  0
LINE
  8
0
 10
3.59557
 20
149.093
 11
3.7
 21
149.1
  0
LINE
  8
0
 10
3.7
 20
149.1
 11
3.80441
 21
149.093
  0
LINE
  8
0
 10
3.80441
 20
149.093
 11
3.90704
 21
149.073
  0
LINE
  8
0
 10
3.90704
 20
149.073
 11
4.00613
 21
149.039
  0
LINE
  8
0
 10
4.00613
 20
149.039
 11
4.09999
 21
148.993
  0
LINE
  8
0
 10
4.09999
 20
148.993
 11
4.187
 21
148.935
  0
LINE
  8
0
 10
4.187
 20
148.935
 11
4.26567
 21
148.866
  0
LINE
  8
0
 10
4.26567
 20
148.866
 11
4.33467
 21
148.787
  0
LINE
  8
0
 10
4.33467
 20
148.787
 11
4.39281
 21
148.7
  0
LINE
  8
0
 10
4.39281
 20
148.7
 11
4.4391
 21
148.606
  0
LINE
  8
0
 10
4.4391
 20
148.606
 11
4.47273
 21
148.507
  0
LINE
  8
0
 10
4.47273
 20
148.507
 11
4.49315
 21
148.404
  0
LINE
  8
0
 10
4.49315
 20
148.404
 11
4.5
 21
148.3
  0
LINE
  8
0
 10
4.5
 20
148.3
 11
4.49315
 21
148.196
  0
LINE
  8
0
 10
4.49315
 20
148.196
 11
4.47273
 21
148.093
  0
LINE
  8
0
 10
4.47273
 20
148.093
 11
4.4391
 21
147.994
  0
LINE
  8
0
 10
4.4391
 20
147.994
 11
4.39281
 21
147.9
  0
LINE
  8
0
 10
4.39281
 20
147.9
 11
4.33467
 21
147.813
  0
LINE
  8
0
 10
4.33467
 20
147.813
 11
4.26567
 21
147.734
  0
LINE
  8
0
 10
4.26567
 20
147.734
 11
4.187
 21
147.665
  0
LINE
  8
0
 10
4.187
 20
147.665
 11
4.09999
 21
147.607
  0
LINE
  8
0
 10
4.09999
 20
147.607
 11
4.00613
 21
147.561
  0
LINE
  8
0
 10
4.00613
 20
147.561
 11
3.90704
 21
147.527
  0
LINE
  8
0
 10
3.90704
 20
147.527
 11
3.80441
 21
147.507
  0
LINE
  8
0
 10
3.80441
 20
147.507
 11
3.7
 21
147.5
  0
LINE
  8
0
 10
3.7
 20
147.5
 11
3.59557
 21
147.507
  0
LINE
  8
0
 10
61.0956
 20
147.507
 11
60.9929
 21
147.527
  0
LINE
  8
0
 10
60.9929
 20
147.527
 11
60.8938
 21
147.561
  0
LINE
  8
0
 10
60.8938
 20
147.561
 11
60.8
 21
147.607
  0
LINE
  8
0
 10
60.8
 20
147.607
 11
60.713
 21
147.665
  0
LINE
  8
0
 10
60.713
 20
147.665
 11
60.6343
 21
147.734
  0
LINE
  8
0
 10
60.6343
 20
147.734
 11
60.5653
 21
147.813
  0
LINE
  8
0
 10
60.5653
 20
147.813
 11
60.5072
 21
147.9
  0
LINE
  8
0
 10
60.5072
 20
147.9
 11
60.4609
 21
147.994
  0
LINE
  8
0
 10
60.4609
 20
147.994
 11
60.4272
 21
148.093
  0
LINE
  8
0
 10
60.4272
 20
148.093
 11
60.4068
 21
148.196
  0
LINE
  8
0
 10
60.4068
 20
148.196
 11
60.4
 21
148.3
  0
LINE
  8
0
 10
60.4
 20
148.3
 11
60.4068
 21
148.404
  0
LINE
  8
0
 10
60.4068
 20
148.404
 11
60.4272
 21
148.507
  0
LINE
  8
0
 10
60.4272
 20
148.507
 11
60.4609
 21
148.606
  0
LINE
  8
0
 10
60.4609
 20
148.606
 11
60.5072
 21
148.7
  0
LINE
  8
0
 10
60.5072
 20
148.7
 11
60.5653
 21
148.787
  0
LINE
  8
0
 10
60.5653
 20
148.787
 11
60.6343
 21
148.866
  0
LINE
  8
0
 10
60.6343
 20
148.866
 11
60.713
 21
148.935
  0
LINE
  8
0
 10
60.713
 20
148.935
 11
60.8
 21
148.993
  0
LINE
  8
0
 10
60.8
 20
148.993
 11
60.8938
 21
149.039
  0
LINE
  8
0
 10
60.8938
 20
149.039
 11
60.9929
 21
149.073
  0
LINE
  8
0
 10
60.9929
 20
149.073
 11
61.0956
 21
149.093
  0
LINE
  8
0
 10
61.0956
 20
149.093
 11
61.2
 21
149.1
  0
LINE
  8
0
 10
61.2
 20
149.1
 11
61.3044
 21
149.093
  0
LINE
  8
0
 10
61.3044
 20
149.093
 11
61.407
 21
149.073
  0
LINE
  8
0
 10
61.407
 20
149.073
 11
61.5061
 21
149.039
  0
LINE
  8
0
 10
61.5061
 20
149.039
 11
61.6
 21
148.993
  0
LINE
  8
0
 10
61.6
 20
148.993
 11
61.687
 21
148.935
  0
LINE
  8
0
 10
61.687
 20
148.935
 11
61.7657
 21
148.866
  0
LINE
  8
0
 10
61.7657
 20
148.866
 11
61.8347
 21
148.787
  0
LINE
  8
0
 10
61.8347
 20
148.787
 11
61.8928
 21
148.7
  0
LINE
  8
0
 10
61.8928
 20
148.7
 11
61.9391
 21
148.606
  0
LINE
  8
0
 10
61.9391
 20
148.606
 11
61.9727
 21
148.507
  0
LINE
  8
0
 10
61.9727
 20
148.507
 11
61.9931
 21
148.404
  0
LINE
  8
0
 10
61.9931
 20
148.404
 11
62
 21
148.3
  0
LINE
  8
0
 10
62
 20
148.3
 11
61.9931
 21
148.196
  0
LINE
  8
0
 10
61.9931
 20
148.196
 11
61.9727
 21
148.093
  0
LINE
  8
0
 10
61.9727
 20
148.093
 11
61.9391
 21
147.994
  0
LINE
  8
0
 10
61.9391
 20
147.994
 11
61.8928
 21
147.9
  0
LINE
  8
0
 10
61.8928
 20
147.9
 11
61.8347
 21
147.813
  0
LINE
  8
0
 10
61.8347
 20
147.813
 11
61.7657
 21
147.734
  0
LINE
  8
0
 10
61.7657
 20
147.734
 11
61.687
 21
147.665
  0
LINE
  8
0
 10
61.687
 20
147.665
 11
61.6
 21
147.607
  0
LINE
  8
0
 10
61.6
 20
147.607
 11
61.5061
 21
147.561
  0
LINE
  8
0
 10
61.5061
 20
147.561
 11
61.407
 21
147.527
  0
LINE
  8
0
 10
61.407
 20
147.527
 11
61.3044
 21
147.507
  0
LINE
  8
0
 10
61.3044
 20
147.507
 11
61.2
 21
147.5
  0
LINE
  8
0
 10
61.2
 20
147.5
 11
61.0956
 21
147.507
  0
LINE
  8
0
 10
80.0956
 20
135.507
 11
79.9929
 21
135.527
  0
LINE
  8
0
 10
79.9929
 20
135.527
 11
79.8938
 21
135.561
  0
LINE
  8
0
 10
79.8938
 20
135.561
 11
79.8
 21
135.607
  0
LINE
  8
0
 10
79.8
 20
135.607
 11
79.713
 21
135.665
  0
LINE
  8
0
 10
79.713
 20
135.665
 11
79.6343
 21
135.734
  0
LINE
  8
0
 10
79.6343
 20
135.734
 11
79.5653
 21
135.813
  0
LINE
  8
0
 10
79.5653
 20
135.813
 11
79.5072
 21
135.9
  0
LINE
  8
0
 10
79.5072
 20
135.9
 11
79.4609
 21
135.994
  0
LINE
  8
0
 10
79.4609
 20
135.994
 11
79.4273
 21
136.093
  0
LINE
  8
0
 10
79.4273
 20
136.093
 11
79.4068
 21
136.196
  0
LINE
  8
0
 10
79.4068
 20
136.196
 11
79.4
 21
136.3
  0
LINE
  8
0
 10
79.4
 20
136.3
 11
79.4068
 21
136.404
  0
LINE
  8
0
 10
79.4068
 20
136.404
 11
79.4273
 21
136.507
  0
LINE
  8
0
 10
79.4273
 20
136.507
 11
79.4609
 21
136.606
  0
LINE
  8
0
 10
79.4609
 20
136.606
 11
79.5072
 21
136.7
  0
LINE
  8
0
 10
79.5072
 20
136.7
 11
79.5653
 21
136.787
  0
LINE
  8
0
 10
79.5653
 20
136.787
 11
79.6343
 21
136.866
  0
LINE
  8
0
 10
79.6343
 20
136.866
 11
79.713
 21
136.935
  0
LINE
  8
0
 10
79.713
 20
136.935
 11
79.8
 21
136.993
  0
LINE
  8
0
 10
79.8
 20
136.993
 11
79.8938
 21
137.039
  0
LINE
  8
0
 10
79.8938
 20
137.039
 11
79.9929
 21
137.073
  0
LINE
  8
0
 10
79.9929
 20
137.073
 11
80.0956
 21
137.093
  0
LINE
  8
0
 10
80.0956
 20
137.093
 11
80.2
 21
137.1
  0
LINE
  8
0
 10
80.2
 20
137.1
 11
80.3044
 21
137.093
  0
LINE
  8
0
 10
80.3044
 20
137.093
 11
80.4071
 21
137.073
  0
LINE
  8
0
 10
80.4071
 20
137.073
 11
80.5061
 21
137.039
  0
LINE
  8
0
 10
80.5061
 20
137.039
 11
80.6
 21
136.993
  0
LINE
  8
0
 10
80.6
 20
136.993
 11
80.687
 21
136.935
  0
LINE
  8
0
 10
80.687
 20
136.935
 11
80.7657
 21
136.866
  0
LINE
  8
0
 10
80.7657
 20
136.866
 11
80.8347
 21
136.787
  0
LINE
  8
0
 10
80.8347
 20
136.787
 11
80.8928
 21
136.7
  0
LINE
  8
0
 10
80.8928
 20
136.7
 11
80.9391
 21
136.606
  0
LINE
  8
0
 10
80.9391
 20
136.606
 11
80.9727
 21
136.507
  0
LINE
  8
0
 10
80.9727
 20
136.507
 11
80.9931
 21
136.404
  0
LINE
  8
0
 10
80.9931
 20
136.404
 11
81
 21
136.3
  0
LINE
  8
0
 10
81
 20
136.3
 11
80.9931
 21
136.196
  0
LINE
  8
0
 10
80.9931
 20
136.196
 11
80.9727
 21
136.093
  0
LINE
  8
0
 10
80.9727
 20
136.093
 11
80.9391
 21
135.994
  0
LINE
  8
0
 10
80.9391
 20
135.994
 11
80.8928
 21
135.9
  0
LINE
  8
0
 10
80.8928
 20
135.9
 11
80.8347
 21
135.813
  0
LINE
  8
0
 10
80.8347
 20
135.813
 11
80.7657
 21
135.734
  0
LINE
  8
0
 10
80.7657
 20
135.734
 11
80.687
 21
135.665
  0
LINE
  8
0
 10
80.687
 20
135.665
 11
80.6
 21
135.607
  0
LINE
  8
0
 10
80.6
 20
135.607
 11
80.5061
 21
135.561
  0
LINE
  8
0
 10
80.5061
 20
135.561
 11
80.4071
 21
135.527
  0
LINE
  8
0
 10
80.4071
 20
135.527
 11
80.3044
 21
135.507
  0
LINE
  8
0
 10
80.3044
 20
135.507
 11
80.2
 21
135.5
  0
LINE
  8
0
 10
80.2
 20
135.5
 11
80.0956
 21
135.507
  0
LINE
  8
0
 10
80.0956
 20
100.507
 11
79.9929
 21
100.527
  0
LINE
  8
0
 10
79.9929
 20
100.527
 11
79.8938
 21
100.561
  0
LINE
  8
0
 10
79.8938
 20
100.561
 11
79.8
 21
100.607
  0
LINE
  8
0
 10
79.8
 20
100.607
 11
79.713
 21
100.665
  0
LINE
  8
0
 10
79.713
 20
100.665
 11
79.6343
 21
100.734
  0
LINE
  8
0
 10
79.6343
 20
100.734
 11
79.5653
 21
100.813
  0
LINE
  8
0
 10
79.5653
 20
100.813
 11
79.5072
 21
100.9
  0
LINE
  8
0
 10
79.5072
 20
100.9
 11
79.4609
 21
100.994
  0
LINE
  8
0
 10
79.4609
 20
100.994
 11
79.4273
 21
101.093
  0
LINE
  8
0
 10
79.4273
 20
101.093
 11
79.4068
 21
101.196
  0
LINE
  8
0
 10
79.4068
 20
101.196
 11
79.4
 21
101.3
  0
LINE
  8
0
 10
79.4
 20
101.3
 11
79.4068
 21
101.404
  0
LINE
  8
0
 10
79.4068
 20
101.404
 11
79.4273
 21
101.507
  0
LINE
  8
0
 10
79.4273
 20
101.507
 11
79.4609
 21
101.606
  0
LINE
  8
0
 10
79.4609
 20
101.606
 11
79.5072
 21
101.7
  0
LINE
  8
0
 10
79.5072
 20
101.7
 11
79.5653
 21
101.787
  0
LINE
  8
0
 10
79.5653
 20
101.787
 11
79.6343
 21
101.866
  0
LINE
  8
0
 10
79.6343
 20
101.866
 11
79.713
 21
101.935
  0
LINE
  8
0
 10
79.713
 20
101.935
 11
79.8
 21
101.993
  0
LINE
  8
0
 10
79.8
 20
101.993
 11
79.8938
 21
102.039
  0
LINE
  8
0
 10
79.8938
 20
102.039
 11
79.9929
 21
102.073
  0
LINE
  8
0
 10
79.9929
 20
102.073
 11
80.0956
 21
102.093
  0
LINE
  8
0
 10
80.0956
 20
102.093
 11
80.2
 21
102.1
  0
LINE
  8
0
 10
80.2
 20
102.1
 11
80.3044
 21
102.093
  0
LINE
  8
0
 10
80.3044
 20
102.093
 11
80.4071
 21
102.073
  0
LINE
  8
0
 10
80.4071
 20
102.073
 11
80.5061
 21
102.039
  0
LINE
  8
0
 10
80.5061
 20
102.039
 11
80.6
 21
101.993
  0
LINE
  8
0
 10
80.6
 20
101.993
 11
80.687
 21
101.935
  0
LINE
  8
0
 10
80.687
 20
101.935
 11
80.7657
 21
101.866
  0
LINE
  8
0
 10
80.7657
 20
101.866
 11
80.8347
 21
101.787
  0
LINE
  8
0
 10
80.8347
 20
101.787
 11
80.8928
 21
101.7
  0
LINE
  8
0
 10
80.8928
 20
101.7
 11
80.9391
 21
101.606
  0
LINE
  8
0
 10
80.9391
 20
101.606
 11
80.9727
 21
101.507
  0
LINE
  8
0
 10
80.9727
 20
101.507
 11
80.9931
 21
101.404
  0
LINE
  8
0
 10
80.9931
 20
101.404
 11
81
 21
101.3
  0
LINE
  8
0
 10
81
 20
101.3
 11
80.9931
 21
101.196
  0
LINE
  8
0
 10
80.9931
 20
101.196
 11
80.9727
 21
101.093
  0
LINE
  8
0
 10
80.9727
 20
101.093
 11
80.9391
 21
100.994
  0
LINE
  8
0
 10
80.9391
 20
100.994
 11
80.8928
 21
100.9
  0
LINE
  8
0
 10
80.8928
 20
100.9
 11
80.8347
 21
100.813
  0
LINE
  8
0
 10
80.8347
 20
100.813
 11
80.7657
 21
100.734
  0
LINE
  8
0
 10
80.7657
 20
100.734
 11
80.687
 21
100.665
  0
LINE
  8
0
 10
80.687
 20
100.665
 11
80.6
 21
100.607
  0
LINE
  8
0
 10
80.6
 20
100.607
 11
80.5061
 21
100.561
  0
LINE
  8
0
 10
80.5061
 20
100.561
 11
80.4071
 21
100.527
  0
LINE
  8
0
 10
80.4071
 20
100.527
 11
80.3044
 21
100.507
  0
LINE
  8
0
 10
80.3044
 20
100.507
 11
80.2
 21
100.5
  0
LINE
  8
0
 10
80.2
 20
100.5
 11
80.0956
 21
100.507
  0
ENDSEC
  0
SECTION
  2
OBJECTS
  0
DICTIONARY
  0
ENDSEC
  0
EOF
