  0
SECTION
  2
BLOCKS
  0
ENDSEC
  0
SECTION
  2
ENTITIES
  0
LINE
  8
0
 10
50.0958
 20
1.61282
 11
50.2882
 21
1.65111
  0
LINE
  8
0
 10
50.2882
 20
1.65111
 11
50.474
 21
1.71417
  0
LINE
  8
0
 10
50.474
 20
1.71417
 11
50.65
 21
1.80095
  0
LINE
  8
0
 10
50.65
 20
1.80095
 11
50.8131
 21
1.90996
  0
LINE
  8
0
 10
50.8131
 20
1.90996
 11
50.9606
 21
2.03934
  0
LINE
  8
0
 10
50.9606
 20
2.03934
 11
51.09
 21
2.18684
  0
LINE
  8
0
 10
51.09
 20
2.18684
 11
51.199
 21
2.34999
  0
LINE
  8
0
 10
51.199
 20
2.34999
 11
51.2858
 21
2.52597
  0
LINE
  8
0
 10
51.2858
 20
2.52597
 11
51.3489
 21
2.71176
  0
LINE
  8
0
 10
51.3489
 20
2.71176
 11
51.3872
 21
2.90421
  0
LINE
  8
0
 10
51.3872
 20
2.90421
 11
51.4
 21
3.09999
  0
LINE
  8
0
 10
51.4
 20
3.09999
 11
51.4
 21
62.6
  0
LINE
  8
0
 10
51.4
 20
62.6
 11
51.3872
 21
62.7958
  0
LINE
  8
0
 10
51.3872
 20
62.7958
 11
51.3489
 21
62.9882
  0
LINE
  8
0
 10
51.3489
 20
62.9882
 11
51.2858
 21
63.174
  0
LINE
  8
0
 10
51.2858
 20
63.174
 11
51.199
 21
63.35
  0
LINE
  8
0
 10
51.199
 20
63.35
 11
51.09
 21
63.5131
  0
LINE
  8
0
 10
51.09
 20
63.5131
 11
50.9606
 21
63.6607
  0
LINE
  8
0
 10
50.9606
 20
63.6607
 11
50.8131
 21
63.79
  0
LINE
  8
0
 10
50.8131
 20
63.79
 11
50.65
 21
63.899
  0
LINE
  8
0
 10
50.65
 20
63.899
 11
50.474
 21
63.9858
  0
LINE
  8
0
 10
50.474
 20
63.9858
 11
50.2882
 21
64.0489
  0
LINE
  8
0
 10
50.2882
 20
64.0489
 11
50.0958
 21
64.0872
  0
LINE
  8
0
 10
50.0958
 20
64.0872
 11
49.9
 21
64.1
  0
LINE
  8
0
 10
49.9
 20
64.1
 11
3.09999
 21
64.1
  0
LINE
  8
0
 10
3.09999
 20
64.1
 11
2.90421
 21
64.0872
  0
LINE
  8
0
 10
2.90421
 20
64.0872
 11
2.71176
 21
64.0489
  0
LINE
  8
0
 10
2.71176
 20
64.0489
 11
2.52597
 21
63.9858
  0
LINE
  8
0
 10
2.52597
 20
63.9858
 11
2.34999
 21
63.899
  0
LINE
  8
0
 10
2.34999
 20
63.899
 11
2.18684
 21
63.79
  0
LINE
  8
0
 10
2.18684
 20
63.79
 11
2.03934
 21
63.6607
  0
LINE
  8
0
 10
2.03934
 20
63.6607
 11
1.90996
 21
63.5131
  0
LINE
  8
0
 10
1.90996
 20
63.5131
 11
1.80095
 21
63.35
  0
LINE
  8
0
 10
1.80095
 20
63.35
 11
1.71417
 21
63.174
  0
LINE
  8
0
 10
1.71417
 20
63.174
 11
1.65111
 21
62.9882
  0
LINE
  8
0
 10
1.65111
 20
62.9882
 11
1.61282
 21
62.7958
  0
LINE
  8
0
 10
1.61282
 20
62.7958
 11
1.59999
 21
62.6
  0
LINE
  8
0
 10
1.59999
 20
62.6
 11
1.59999
 21
3.09999
  0
LINE
  8
0
 10
1.59999
 20
3.09999
 11
1.61282
 21
2.90421
  0
LINE
  8
0
 10
1.61282
 20
2.90421
 11
1.65111
 21
2.71176
  0
LINE
  8
0
 10
1.65111
 20
2.71176
 11
1.71417
 21
2.52597
  0
LINE
  8
0
 10
1.71417
 20
2.52597
 11
1.80095
 21
2.34999
  0
LINE
  8
0
 10
1.80095
 20
2.34999
 11
1.90996
 21
2.18684
  0
LINE
  8
0
 10
1.90996
 20
2.18684
 11
2.03934
 21
2.03934
  0
LINE
  8
0
 10
2.03934
 20
2.03934
 11
2.18684
 21
1.90996
  0
LINE
  8
0
 10
2.18684
 20
1.90996
 11
2.34999
 21
1.80095
  0
LINE
  8
0
 10
2.34999
 20
1.80095
 11
2.52597
 21
1.71417
  0
LINE
  8
0
 10
2.52597
 20
1.71417
 11
2.71176
 21
1.65111
  0
LINE
  8
0
 10
2.71176
 20
1.65111
 11
2.90421
 21
1.61282
  0
LINE
  8
0
 10
2.90421
 20
1.61282
 11
3.09999
 21
1.59999
  0
LINE
  8
0
 10
3.09999
 20
1.59999
 11
49.9
 21
1.59999
  0
LINE
  8
0
 10
49.9
 20
1.59999
 11
50.0958
 21
1.61282
  0
LINE
  8
0
 10
15.2106
 20
13.8068
 11
15.1079
 21
13.8273
  0
LINE
  8
0
 10
15.1079
 20
13.8273
 11
15.0089
 21
13.8609
  0
LINE
  8
0
 10
15.0089
 20
13.8609
 11
14.915
 21
13.9072
  0
LINE
  8
0
 10
14.915
 20
13.9072
 11
14.828
 21
13.9653
  0
LINE
  8
0
 10
14.828
 20
13.9653
 11
14.7493
 21
14.0343
  0
LINE
  8
0
 10
14.7493
 20
14.0343
 11
14.6803
 21
14.113
  0
LINE
  8
0
 10
14.6803
 20
14.113
 11
14.6222
 21
14.2
  0
LINE
  8
0
 10
14.6222
 20
14.2
 11
14.5759
 21
14.2938
  0
LINE
  8
0
 10
14.5759
 20
14.2938
 11
14.5423
 21
14.3929
  0
LINE
  8
0
 10
14.5423
 20
14.3929
 11
14.5218
 21
14.4956
  0
LINE
  8
0
 10
14.5218
 20
14.4956
 11
14.515
 21
14.6
  0
LINE
  8
0
 10
14.515
 20
14.6
 11
14.5218
 21
14.7044
  0
LINE
  8
0
 10
14.5218
 20
14.7044
 11
14.5423
 21
14.8071
  0
LINE
  8
0
 10
14.5423
 20
14.8071
 11
14.5759
 21
14.9061
  0
LINE
  8
0
 10
14.5759
 20
14.9061
 11
14.6222
 21
15
  0
LINE
  8
0
 10
14.6222
 20
15
 11
14.6803
 21
15.087
  0
LINE
  8
0
 10
14.6803
 20
15.087
 11
14.7493
 21
15.1657
  0
LINE
  8
0
 10
14.7493
 20
15.1657
 11
14.828
 21
15.2347
  0
LINE
  8
0
 10
14.828
 20
15.2347
 11
14.915
 21
15.2928
  0
LINE
  8
0
 10
14.915
 20
15.2928
 11
15.0089
 21
15.3391
  0
LINE
  8
0
 10
15.0089
 20
15.3391
 11
15.1079
 21
15.3727
  0
LINE
  8
0
 10
15.1079
 20
15.3727
 11
15.2106
 21
15.3931
  0
LINE
  8
0
 10
15.2106
 20
15.3931
 11
15.315
 21
15.4
  0
LINE
  8
0
 10
15.315
 20
15.4
 11
15.4194
 21
15.3931
  0
LINE
  8
0
 10
15.4194
 20
15.3931
 11
15.522
 21
15.3727
  0
LINE
  8
0
 10
15.522
 20
15.3727
 11
15.6211
 21
15.3391
  0
LINE
  8
0
 10
15.6211
 20
15.3391
 11
15.715
 21
15.2928
  0
LINE
  8
0
 10
15.715
 20
15.2928
 11
15.802
 21
15.2347
  0
LINE
  8
0
 10
15.802
 20
15.2347
 11
15.8807
 21
15.1657
  0
LINE
  8
0
 10
15.8807
 20
15.1657
 11
15.9497
 21
15.087
  0
LINE
  8
0
 10
15.9497
 20
15.087
 11
16.0078
 21
15
  0
LINE
  8
0
 10
16.0078
 20
15
 11
16.0541
 21
14.9061
  0
LINE
  8
0
 10
16.0541
 20
14.9061
 11
16.0877
 21
14.8071
  0
LINE
  8
0
 10
16.0877
 20
14.8071
 11
16.1082
 21
14.7044
  0
LINE
  8
0
 10
16.1082
 20
14.7044
 11
16.115
 21
14.6
  0
LINE
  8
0
 10
16.115
 20
14.6
 11
16.1082
 21
14.4956
  0
LINE
  8
0
 10
16.1082
 20
14.4956
 11
16.0877
 21
14.3929
  0
LINE
  8
0
 10
16.0877
 20
14.3929
 11
16.0541
 21
14.2938
  0
LINE
  8
0
 10
16.0541
 20
14.2938
 11
16.0078
 21
14.2
  0
LINE
  8
0
 10
16.0078
 20
14.2
 11
15.9497
 21
14.113
  0
LINE
  8
0
 10
15.9497
 20
14.113
 11
15.8807
 21
14.0343
  0
LINE
  8
0
 10
15.8807
 20
14.0343
 11
15.802
 21
13.9653
  0
LINE
  8
0
 10
15.802
 20
13.9653
 11
15.715
 21
13.9072
  0
LINE
  8
0
 10
15.715
 20
13.9072
 11
15.6211
 21
13.8609
  0
LINE
  8
0
 10
15.6211
 20
13.8609
 11
15.522
 21
13.8273
  0
LINE
  8
0
 10
15.522
 20
13.8273
 11
15.4194
 21
13.8068
  0
LINE
  8
0
 10
15.4194
 20
13.8068
 11
15.315
 21
13.8
  0
LINE
  8
0
 10
15.315
 20
13.8
 11
15.2106
 21
13.8068
  0
LINE
  8
0
 10
33.3306
 20
13.8068
 11
33.2279
 21
13.8273
  0
LINE
  8
0
 10
33.2279
 20
13.8273
 11
33.1288
 21
13.8609
  0
LINE
  8
0
 10
33.1288
 20
13.8609
 11
33.035
 21
13.9072
  0
LINE
  8
0
 10
33.035
 20
13.9072
 11
32.948
 21
13.9653
  0
LINE
  8
0
 10
32.948
 20
13.9653
 11
32.8693
 21
14.0343
  0
LINE
  8
0
 10
32.8693
 20
14.0343
 11
32.8003
 21
14.113
  0
LINE
  8
0
 10
32.8003
 20
14.113
 11
32.7422
 21
14.2
  0
LINE
  8
0
 10
32.7422
 20
14.2
 11
32.6959
 21
14.2938
  0
LINE
  8
0
 10
32.6959
 20
14.2938
 11
32.6622
 21
14.3929
  0
LINE
  8
0
 10
32.6622
 20
14.3929
 11
32.6418
 21
14.4956
  0
LINE
  8
0
 10
32.6418
 20
14.4956
 11
32.635
 21
14.6
  0
LINE
  8
0
 10
32.635
 20
14.6
 11
32.6418
 21
14.7044
  0
LINE
  8
0
 10
32.6418
 20
14.7044
 11
32.6622
 21
14.8071
  0
LINE
  8
0
 10
32.6622
 20
14.8071
 11
32.6959
 21
14.9061
  0
LINE
  8
0
 10
32.6959
 20
14.9061
 11
32.7422
 21
15
  0
LINE
  8
0
 10
32.7422
 20
15
 11
32.8003
 21
15.087
  0
LINE
  8
0
 10
32.8003
 20
15.087
 11
32.8693
 21
15.1657
  0
LINE
  8
0
 10
32.8693
 20
15.1657
 11
32.948
 21
15.2347
  0
LINE
  8
0
 10
32.948
 20
15.2347
 11
33.035
 21
15.2928
  0
LINE
  8
0
 10
33.035
 20
15.2928
 11
33.1288
 21
15.3391
  0
LINE
  8
0
 10
33.1288
 20
15.3391
 11
33.2279
 21
15.3727
  0
LINE
  8
0
 10
33.2279
 20
15.3727
 11
33.3306
 21
15.3931
  0
LINE
  8
0
 10
33.3306
 20
15.3931
 11
33.435
 21
15.4
  0
LINE
  8
0
 10
33.435
 20
15.4
 11
33.5394
 21
15.3931
  0
LINE
  8
0
 10
33.5394
 20
15.3931
 11
33.642
 21
15.3727
  0
LINE
  8
0
 10
33.642
 20
15.3727
 11
33.7411
 21
15.3391
  0
LINE
  8
0
 10
33.7411
 20
15.3391
 11
33.835
 21
15.2928
  0
LINE
  8
0
 10
33.835
 20
15.2928
 11
33.922
 21
15.2347
  0
LINE
  8
0
 10
33.922
 20
15.2347
 11
34.0007
 21
15.1657
  0
LINE
  8
0
 10
34.0007
 20
15.1657
 11
34.0697
 21
15.087
  0
LINE
  8
0
 10
34.0697
 20
15.087
 11
34.1278
 21
15
  0
LINE
  8
0
 10
34.1278
 20
15
 11
34.1741
 21
14.9061
  0
LINE
  8
0
 10
34.1741
 20
14.9061
 11
34.2077
 21
14.8071
  0
LINE
  8
0
 10
34.2077
 20
14.8071
 11
34.2281
 21
14.7044
  0
LINE
  8
0
 10
34.2281
 20
14.7044
 11
34.235
 21
14.6
  0
LINE
  8
0
 10
34.235
 20
14.6
 11
34.2281
 21
14.4956
  0
LINE
  8
0
 10
34.2281
 20
14.4956
 11
34.2077
 21
14.3929
  0
LINE
  8
0
 10
34.2077
 20
14.3929
 11
34.1741
 21
14.2938
  0
LINE
  8
0
 10
34.1741
 20
14.2938
 11
34.1278
 21
14.2
  0
LINE
  8
0
 10
34.1278
 20
14.2
 11
34.0697
 21
14.113
  0
LINE
  8
0
 10
34.0697
 20
14.113
 11
34.0007
 21
14.0343
  0
LINE
  8
0
 10
34.0007
 20
14.0343
 11
33.922
 21
13.9653
  0
LINE
  8
0
 10
33.922
 20
13.9653
 11
33.835
 21
13.9072
  0
LINE
  8
0
 10
33.835
 20
13.9072
 11
33.7411
 21
13.8609
  0
LINE
  8
0
 10
33.7411
 20
13.8609
 11
33.642
 21
13.8273
  0
LINE
  8
0
 10
33.642
 20
13.8273
 11
33.5394
 21
13.8068
  0
LINE
  8
0
 10
33.5394
 20
13.8068
 11
33.435
 21
13.8
  0
LINE
  8
0
 10
33.435
 20
13.8
 11
33.3306
 21
13.8068
  0
ENDSEC
  0
SECTION
  2
OBJECTS
  0
DICTIONARY
  0
ENDSEC
  0
EOF
