  0
SECTION
  2
BLOCKS
  0
ENDSEC
  0
SECTION
  2
ENTITIES
  0
LINE
  8
0
 10
50.4958
 20
1.21283
 11
50.6882
 21
1.2511
  0
LINE
  8
0
 10
50.6882
 20
1.2511
 11
50.874
 21
1.31418
  0
LINE
  8
0
 10
50.874
 20
1.31418
 11
51.05
 21
1.40096
  0
LINE
  8
0
 10
51.05
 20
1.40096
 11
51.2131
 21
1.50996
  0
LINE
  8
0
 10
51.2131
 20
1.50996
 11
51.3607
 21
1.63933
  0
LINE
  8
0
 10
51.3607
 20
1.63933
 11
51.49
 21
1.78685
  0
LINE
  8
0
 10
51.49
 20
1.78685
 11
51.599
 21
1.95
  0
LINE
  8
0
 10
51.599
 20
1.95
 11
51.6858
 21
2.12596
  0
LINE
  8
0
 10
51.6858
 20
2.12596
 11
51.7489
 21
2.31177
  0
LINE
  8
0
 10
51.7489
 20
2.31177
 11
51.7872
 21
2.5042
  0
LINE
  8
0
 10
51.7872
 20
2.5042
 11
51.8
 21
2.7
  0
LINE
  8
0
 10
51.8
 20
2.7
 11
51.8
 21
62.6
  0
LINE
  8
0
 10
51.8
 20
62.6
 11
51.7872
 21
62.7958
  0
LINE
  8
0
 10
51.7872
 20
62.7958
 11
51.7489
 21
62.9882
  0
LINE
  8
0
 10
51.7489
 20
62.9882
 11
51.6858
 21
63.174
  0
LINE
  8
0
 10
51.6858
 20
63.174
 11
51.599
 21
63.35
  0
LINE
  8
0
 10
51.599
 20
63.35
 11
51.49
 21
63.5131
  0
LINE
  8
0
 10
51.49
 20
63.5131
 11
51.3607
 21
63.6607
  0
LINE
  8
0
 10
51.3607
 20
63.6607
 11
51.2131
 21
63.79
  0
LINE
  8
0
 10
51.2131
 20
63.79
 11
51.05
 21
63.899
  0
LINE
  8
0
 10
51.05
 20
63.899
 11
50.874
 21
63.9858
  0
LINE
  8
0
 10
50.874
 20
63.9858
 11
50.6882
 21
64.0489
  0
LINE
  8
0
 10
50.6882
 20
64.0489
 11
50.4958
 21
64.0872
  0
LINE
  8
0
 10
50.4958
 20
64.0872
 11
50.3
 21
64.1
  0
LINE
  8
0
 10
50.3
 20
64.1
 11
2.7
 21
64.1
  0
LINE
  8
0
 10
2.7
 20
64.1
 11
2.5042
 21
64.0872
  0
LINE
  8
0
 10
2.5042
 20
64.0872
 11
2.31177
 21
64.0489
  0
LINE
  8
0
 10
2.31177
 20
64.0489
 11
2.12596
 21
63.9858
  0
LINE
  8
0
 10
2.12596
 20
63.9858
 11
1.95
 21
63.899
  0
LINE
  8
0
 10
1.95
 20
63.899
 11
1.78685
 21
63.79
  0
LINE
  8
0
 10
1.78685
 20
63.79
 11
1.63933
 21
63.6607
  0
LINE
  8
0
 10
1.63933
 20
63.6607
 11
1.50996
 21
63.5131
  0
LINE
  8
0
 10
1.50996
 20
63.5131
 11
1.40096
 21
63.35
  0
LINE
  8
0
 10
1.40096
 20
63.35
 11
1.31418
 21
63.174
  0
LINE
  8
0
 10
1.31418
 20
63.174
 11
1.2511
 21
62.9882
  0
LINE
  8
0
 10
1.2511
 20
62.9882
 11
1.21283
 21
62.7958
  0
LINE
  8
0
 10
1.21283
 20
62.7958
 11
1.2
 21
62.6
  0
LINE
  8
0
 10
1.2
 20
62.6
 11
1.2
 21
2.7
  0
LINE
  8
0
 10
1.2
 20
2.7
 11
1.21283
 21
2.5042
  0
LINE
  8
0
 10
1.21283
 20
2.5042
 11
1.2511
 21
2.31177
  0
LINE
  8
0
 10
1.2511
 20
2.31177
 11
1.31418
 21
2.12596
  0
LINE
  8
0
 10
1.31418
 20
2.12596
 11
1.40096
 21
1.95
  0
LINE
  8
0
 10
1.40096
 20
1.95
 11
1.50996
 21
1.78685
  0
LINE
  8
0
 10
1.50996
 20
1.78685
 11
1.63933
 21
1.63933
  0
LINE
  8
0
 10
1.63933
 20
1.63933
 11
1.78685
 21
1.50996
  0
LINE
  8
0
 10
1.78685
 20
1.50996
 11
1.95
 21
1.40096
  0
LINE
  8
0
 10
1.95
 20
1.40096
 11
2.12596
 21
1.31418
  0
LINE
  8
0
 10
2.12596
 20
1.31418
 11
2.31177
 21
1.2511
  0
LINE
  8
0
 10
2.31177
 20
1.2511
 11
2.5042
 21
1.21283
  0
LINE
  8
0
 10
2.5042
 20
1.21283
 11
2.7
 21
1.2
  0
LINE
  8
0
 10
2.7
 20
1.2
 11
50.3
 21
1.2
  0
LINE
  8
0
 10
50.3
 20
1.2
 11
50.4958
 21
1.21283
  0
LINE
  8
0
 10
33.5306
 20
10.4068
 11
33.4279
 21
10.4272
  0
LINE
  8
0
 10
33.4279
 20
10.4272
 11
33.3288
 21
10.4609
  0
LINE
  8
0
 10
33.3288
 20
10.4609
 11
33.235
 21
10.5072
  0
LINE
  8
0
 10
33.235
 20
10.5072
 11
33.148
 21
10.5653
  0
LINE
  8
0
 10
33.148
 20
10.5653
 11
33.0693
 21
10.6343
  0
LINE
  8
0
 10
33.0693
 20
10.6343
 11
33.0003
 21
10.713
  0
LINE
  8
0
 10
33.0003
 20
10.713
 11
32.9422
 21
10.8
  0
LINE
  8
0
 10
32.9422
 20
10.8
 11
32.8959
 21
10.8938
  0
LINE
  8
0
 10
32.8959
 20
10.8938
 11
32.8623
 21
10.9929
  0
LINE
  8
0
 10
32.8623
 20
10.9929
 11
32.8418
 21
11.0956
  0
LINE
  8
0
 10
32.8418
 20
11.0956
 11
32.835
 21
11.2
  0
LINE
  8
0
 10
32.835
 20
11.2
 11
32.8418
 21
11.3044
  0
LINE
  8
0
 10
32.8418
 20
11.3044
 11
32.8623
 21
11.407
  0
LINE
  8
0
 10
32.8623
 20
11.407
 11
32.8959
 21
11.5061
  0
LINE
  8
0
 10
32.8959
 20
11.5061
 11
32.9422
 21
11.6
  0
LINE
  8
0
 10
32.9422
 20
11.6
 11
33.0003
 21
11.687
  0
LINE
  8
0
 10
33.0003
 20
11.687
 11
33.0693
 21
11.7657
  0
LINE
  8
0
 10
33.0693
 20
11.7657
 11
33.148
 21
11.8347
  0
LINE
  8
0
 10
33.148
 20
11.8347
 11
33.235
 21
11.8928
  0
LINE
  8
0
 10
33.235
 20
11.8928
 11
33.3288
 21
11.9391
  0
LINE
  8
0
 10
33.3288
 20
11.9391
 11
33.4279
 21
11.9727
  0
LINE
  8
0
 10
33.4279
 20
11.9727
 11
33.5306
 21
11.9931
  0
LINE
  8
0
 10
33.5306
 20
11.9931
 11
33.635
 21
12
  0
LINE
  8
0
 10
33.635
 20
12
 11
33.7394
 21
11.9931
  0
LINE
  8
0
 10
33.7394
 20
11.9931
 11
33.8421
 21
11.9727
  0
LINE
  8
0
 10
33.8421
 20
11.9727
 11
33.9411
 21
11.9391
  0
LINE
  8
0
 10
33.9411
 20
11.9391
 11
34.035
 21
11.8928
  0
LINE
  8
0
 10
34.035
 20
11.8928
 11
34.122
 21
11.8347
  0
LINE
  8
0
 10
34.122
 20
11.8347
 11
34.2007
 21
11.7657
  0
LINE
  8
0
 10
34.2007
 20
11.7657
 11
34.2697
 21
11.687
  0
LINE
  8
0
 10
34.2697
 20
11.687
 11
34.3278
 21
11.6
  0
LINE
  8
0
 10
34.3278
 20
11.6
 11
34.3741
 21
11.5061
  0
LINE
  8
0
 10
34.3741
 20
11.5061
 11
34.4077
 21
11.407
  0
LINE
  8
0
 10
34.4077
 20
11.407
 11
34.4281
 21
11.3044
  0
LINE
  8
0
 10
34.4281
 20
11.3044
 11
34.435
 21
11.2
  0
LINE
  8
0
 10
34.435
 20
11.2
 11
34.4281
 21
11.0956
  0
LINE
  8
0
 10
34.4281
 20
11.0956
 11
34.4077
 21
10.9929
  0
LINE
  8
0
 10
34.4077
 20
10.9929
 11
34.3741
 21
10.8938
  0
LINE
  8
0
 10
34.3741
 20
10.8938
 11
34.3278
 21
10.8
  0
LINE
  8
0
 10
34.3278
 20
10.8
 11
34.2697
 21
10.713
  0
LINE
  8
0
 10
34.2697
 20
10.713
 11
34.2007
 21
10.6343
  0
LINE
  8
0
 10
34.2007
 20
10.6343
 11
34.122
 21
10.5653
  0
LINE
  8
0
 10
34.122
 20
10.5653
 11
34.035
 21
10.5072
  0
LINE
  8
0
 10
34.035
 20
10.5072
 11
33.9411
 21
10.4609
  0
LINE
  8
0
 10
33.9411
 20
10.4609
 11
33.8421
 21
10.4272
  0
LINE
  8
0
 10
33.8421
 20
10.4272
 11
33.7394
 21
10.4068
  0
LINE
  8
0
 10
33.7394
 20
10.4068
 11
33.635
 21
10.4
  0
LINE
  8
0
 10
33.635
 20
10.4
 11
33.5306
 21
10.4068
  0
ENDSEC
  0
SECTION
  2
OBJECTS
  0
DICTIONARY
  0
ENDSEC
  0
EOF
