  0
SECTION
  2
BLOCKS
  0
ENDSEC
  0
SECTION
  2
ENTITIES
  0
LINE
  8
0
 10
48.6958
 20
101.713
 11
48.8882
 21
101.751
  0
LINE
  8
0
 10
48.8882
 20
101.751
 11
49.074
 21
101.814
  0
LINE
  8
0
 10
49.074
 20
101.814
 11
49.25
 21
101.901
  0
LINE
  8
0
 10
49.25
 20
101.901
 11
49.4131
 21
102.01
  0
LINE
  8
0
 10
49.4131
 20
102.01
 11
49.5607
 21
102.139
  0
LINE
  8
0
 10
49.5607
 20
102.139
 11
49.69
 21
102.287
  0
LINE
  8
0
 10
49.69
 20
102.287
 11
49.799
 21
102.45
  0
LINE
  8
0
 10
49.799
 20
102.45
 11
49.8858
 21
102.626
  0
LINE
  8
0
 10
49.8858
 20
102.626
 11
49.9489
 21
102.812
  0
LINE
  8
0
 10
49.9489
 20
102.812
 11
49.9872
 21
103.004
  0
LINE
  8
0
 10
49.9872
 20
103.004
 11
50
 21
103.2
  0
LINE
  8
0
 10
50
 20
103.2
 11
50
 21
142.169
  0
LINE
  8
0
 10
50
 20
142.169
 11
49.9872
 21
142.365
  0
LINE
  8
0
 10
49.9872
 20
142.365
 11
49.9489
 21
142.557
  0
LINE
  8
0
 10
49.9489
 20
142.557
 11
49.8858
 21
142.743
  0
LINE
  8
0
 10
49.8858
 20
142.743
 11
49.799
 21
142.919
  0
LINE
  8
0
 10
49.799
 20
142.919
 11
49.69
 21
143.082
  0
LINE
  8
0
 10
49.69
 20
143.082
 11
49.5607
 21
143.23
  0
LINE
  8
0
 10
49.5607
 20
143.23
 11
49.4131
 21
143.359
  0
LINE
  8
0
 10
49.4131
 20
143.359
 11
49.25
 21
143.468
  0
LINE
  8
0
 10
49.25
 20
143.468
 11
49.074
 21
143.555
  0
LINE
  8
0
 10
49.074
 20
143.555
 11
48.8882
 21
143.618
  0
LINE
  8
0
 10
48.8882
 20
143.618
 11
48.6958
 21
143.656
  0
LINE
  8
0
 10
48.6958
 20
143.656
 11
48.5
 21
143.669
  0
LINE
  8
0
 10
48.5
 20
143.669
 11
3.09999
 21
143.669
  0
LINE
  8
0
 10
3.09999
 20
143.669
 11
2.90421
 21
143.656
  0
LINE
  8
0
 10
2.90421
 20
143.656
 11
2.71176
 21
143.618
  0
LINE
  8
0
 10
2.71176
 20
143.618
 11
2.52597
 21
143.555
  0
LINE
  8
0
 10
2.52597
 20
143.555
 11
2.34999
 21
143.468
  0
LINE
  8
0
 10
2.34999
 20
143.468
 11
2.18684
 21
143.359
  0
LINE
  8
0
 10
2.18684
 20
143.359
 11
2.03934
 21
143.23
  0
LINE
  8
0
 10
2.03934
 20
143.23
 11
1.90996
 21
143.082
  0
LINE
  8
0
 10
1.90996
 20
143.082
 11
1.80095
 21
142.919
  0
LINE
  8
0
 10
1.80095
 20
142.919
 11
1.71417
 21
142.743
  0
LINE
  8
0
 10
1.71417
 20
142.743
 11
1.65111
 21
142.557
  0
LINE
  8
0
 10
1.65111
 20
142.557
 11
1.61282
 21
142.365
  0
LINE
  8
0
 10
1.61282
 20
142.365
 11
1.59999
 21
142.169
  0
LINE
  8
0
 10
1.59999
 20
142.169
 11
1.59999
 21
103.2
  0
LINE
  8
0
 10
1.59999
 20
103.2
 11
1.61282
 21
103.004
  0
LINE
  8
0
 10
1.61282
 20
103.004
 11
1.65111
 21
102.812
  0
LINE
  8
0
 10
1.65111
 20
102.812
 11
1.71417
 21
102.626
  0
LINE
  8
0
 10
1.71417
 20
102.626
 11
1.80095
 21
102.45
  0
LINE
  8
0
 10
1.80095
 20
102.45
 11
1.90996
 21
102.287
  0
LINE
  8
0
 10
1.90996
 20
102.287
 11
2.03934
 21
102.139
  0
LINE
  8
0
 10
2.03934
 20
102.139
 11
2.18684
 21
102.01
  0
LINE
  8
0
 10
2.18684
 20
102.01
 11
2.34999
 21
101.901
  0
LINE
  8
0
 10
2.34999
 20
101.901
 11
2.52597
 21
101.814
  0
LINE
  8
0
 10
2.52597
 20
101.814
 11
2.71176
 21
101.751
  0
LINE
  8
0
 10
2.71176
 20
101.751
 11
2.90421
 21
101.713
  0
LINE
  8
0
 10
2.90421
 20
101.713
 11
3.09999
 21
101.7
  0
LINE
  8
0
 10
3.09999
 20
101.7
 11
48.5
 21
101.7
  0
LINE
  8
0
 10
48.5
 20
101.7
 11
48.6958
 21
101.713
  0
LINE
  8
0
 10
34.9956
 20
141.107
 11
34.8929
 21
141.127
  0
LINE
  8
0
 10
34.8929
 20
141.127
 11
34.7939
 21
141.161
  0
LINE
  8
0
 10
34.7939
 20
141.161
 11
34.7
 21
141.207
  0
LINE
  8
0
 10
34.7
 20
141.207
 11
34.613
 21
141.265
  0
LINE
  8
0
 10
34.613
 20
141.265
 11
34.5343
 21
141.334
  0
LINE
  8
0
 10
34.5343
 20
141.334
 11
34.4653
 21
141.413
  0
LINE
  8
0
 10
34.4653
 20
141.413
 11
34.4072
 21
141.5
  0
LINE
  8
0
 10
34.4072
 20
141.5
 11
34.3609
 21
141.594
  0
LINE
  8
0
 10
34.3609
 20
141.594
 11
34.3273
 21
141.693
  0
LINE
  8
0
 10
34.3273
 20
141.693
 11
34.3068
 21
141.796
  0
LINE
  8
0
 10
34.3068
 20
141.796
 11
34.3
 21
141.9
  0
LINE
  8
0
 10
34.3
 20
141.9
 11
34.3068
 21
142.004
  0
LINE
  8
0
 10
34.3068
 20
142.004
 11
34.3273
 21
142.107
  0
LINE
  8
0
 10
34.3273
 20
142.107
 11
34.3609
 21
142.206
  0
LINE
  8
0
 10
34.3609
 20
142.206
 11
34.4072
 21
142.3
  0
LINE
  8
0
 10
34.4072
 20
142.3
 11
34.4653
 21
142.387
  0
LINE
  8
0
 10
34.4653
 20
142.387
 11
34.5343
 21
142.466
  0
LINE
  8
0
 10
34.5343
 20
142.466
 11
34.613
 21
142.535
  0
LINE
  8
0
 10
34.613
 20
142.535
 11
34.7
 21
142.593
  0
LINE
  8
0
 10
34.7
 20
142.593
 11
34.7939
 21
142.639
  0
LINE
  8
0
 10
34.7939
 20
142.639
 11
34.8929
 21
142.673
  0
LINE
  8
0
 10
34.8929
 20
142.673
 11
34.9956
 21
142.693
  0
LINE
  8
0
 10
34.9956
 20
142.693
 11
35.1
 21
142.7
  0
LINE
  8
0
 10
35.1
 20
142.7
 11
35.2044
 21
142.693
  0
LINE
  8
0
 10
35.2044
 20
142.693
 11
35.3071
 21
142.673
  0
LINE
  8
0
 10
35.3071
 20
142.673
 11
35.4061
 21
142.639
  0
LINE
  8
0
 10
35.4061
 20
142.639
 11
35.5
 21
142.593
  0
LINE
  8
0
 10
35.5
 20
142.593
 11
35.587
 21
142.535
  0
LINE
  8
0
 10
35.587
 20
142.535
 11
35.6657
 21
142.466
  0
LINE
  8
0
 10
35.6657
 20
142.466
 11
35.7347
 21
142.387
  0
LINE
  8
0
 10
35.7347
 20
142.387
 11
35.7928
 21
142.3
  0
LINE
  8
0
 10
35.7928
 20
142.3
 11
35.8391
 21
142.206
  0
LINE
  8
0
 10
35.8391
 20
142.206
 11
35.8727
 21
142.107
  0
LINE
  8
0
 10
35.8727
 20
142.107
 11
35.8931
 21
142.004
  0
LINE
  8
0
 10
35.8931
 20
142.004
 11
35.9
 21
141.9
  0
LINE
  8
0
 10
35.9
 20
141.9
 11
35.8931
 21
141.796
  0
LINE
  8
0
 10
35.8931
 20
141.796
 11
35.8727
 21
141.693
  0
LINE
  8
0
 10
35.8727
 20
141.693
 11
35.8391
 21
141.594
  0
LINE
  8
0
 10
35.8391
 20
141.594
 11
35.7928
 21
141.5
  0
LINE
  8
0
 10
35.7928
 20
141.5
 11
35.7347
 21
141.413
  0
LINE
  8
0
 10
35.7347
 20
141.413
 11
35.6657
 21
141.334
  0
LINE
  8
0
 10
35.6657
 20
141.334
 11
35.587
 21
141.265
  0
LINE
  8
0
 10
35.587
 20
141.265
 11
35.5
 21
141.207
  0
LINE
  8
0
 10
35.5
 20
141.207
 11
35.4061
 21
141.161
  0
LINE
  8
0
 10
35.4061
 20
141.161
 11
35.3071
 21
141.127
  0
LINE
  8
0
 10
35.3071
 20
141.127
 11
35.2044
 21
141.107
  0
LINE
  8
0
 10
35.2044
 20
141.107
 11
35.1
 21
141.1
  0
LINE
  8
0
 10
35.1
 20
141.1
 11
34.9956
 21
141.107
  0
LINE
  8
0
 10
48.2956
 20
140.907
 11
48.1929
 21
140.927
  0
LINE
  8
0
 10
48.1929
 20
140.927
 11
48.0938
 21
140.961
  0
LINE
  8
0
 10
48.0938
 20
140.961
 11
48
 21
141.007
  0
LINE
  8
0
 10
48
 20
141.007
 11
47.913
 21
141.065
  0
LINE
  8
0
 10
47.913
 20
141.065
 11
47.8343
 21
141.134
  0
LINE
  8
0
 10
47.8343
 20
141.134
 11
47.7653
 21
141.213
  0
LINE
  8
0
 10
47.7653
 20
141.213
 11
47.7072
 21
141.3
  0
LINE
  8
0
 10
47.7072
 20
141.3
 11
47.6609
 21
141.394
  0
LINE
  8
0
 10
47.6609
 20
141.394
 11
47.6273
 21
141.493
  0
LINE
  8
0
 10
47.6273
 20
141.493
 11
47.6068
 21
141.596
  0
LINE
  8
0
 10
47.6068
 20
141.596
 11
47.6
 21
141.7
  0
LINE
  8
0
 10
47.6
 20
141.7
 11
47.6068
 21
141.804
  0
LINE
  8
0
 10
47.6068
 20
141.804
 11
47.6273
 21
141.907
  0
LINE
  8
0
 10
47.6273
 20
141.907
 11
47.6609
 21
142.006
  0
LINE
  8
0
 10
47.6609
 20
142.006
 11
47.7072
 21
142.1
  0
LINE
  8
0
 10
47.7072
 20
142.1
 11
47.7653
 21
142.187
  0
LINE
  8
0
 10
47.7653
 20
142.187
 11
47.8343
 21
142.266
  0
LINE
  8
0
 10
47.8343
 20
142.266
 11
47.913
 21
142.335
  0
LINE
  8
0
 10
47.913
 20
142.335
 11
48
 21
142.393
  0
LINE
  8
0
 10
48
 20
142.393
 11
48.0938
 21
142.439
  0
LINE
  8
0
 10
48.0938
 20
142.439
 11
48.1929
 21
142.473
  0
LINE
  8
0
 10
48.1929
 20
142.473
 11
48.2956
 21
142.493
  0
LINE
  8
0
 10
48.2956
 20
142.493
 11
48.4
 21
142.5
  0
LINE
  8
0
 10
48.4
 20
142.5
 11
48.5044
 21
142.493
  0
LINE
  8
0
 10
48.5044
 20
142.493
 11
48.6071
 21
142.473
  0
LINE
  8
0
 10
48.6071
 20
142.473
 11
48.7061
 21
142.439
  0
LINE
  8
0
 10
48.7061
 20
142.439
 11
48.8
 21
142.393
  0
LINE
  8
0
 10
48.8
 20
142.393
 11
48.887
 21
142.335
  0
LINE
  8
0
 10
48.887
 20
142.335
 11
48.9657
 21
142.266
  0
LINE
  8
0
 10
48.9657
 20
142.266
 11
49.0347
 21
142.187
  0
LINE
  8
0
 10
49.0347
 20
142.187
 11
49.0928
 21
142.1
  0
LINE
  8
0
 10
49.0928
 20
142.1
 11
49.1391
 21
142.006
  0
LINE
  8
0
 10
49.1391
 20
142.006
 11
49.1727
 21
141.907
  0
LINE
  8
0
 10
49.1727
 20
141.907
 11
49.1931
 21
141.804
  0
LINE
  8
0
 10
49.1931
 20
141.804
 11
49.2
 21
141.7
  0
LINE
  8
0
 10
49.2
 20
141.7
 11
49.1931
 21
141.596
  0
LINE
  8
0
 10
49.1931
 20
141.596
 11
49.1727
 21
141.493
  0
LINE
  8
0
 10
49.1727
 20
141.493
 11
49.1391
 21
141.394
  0
LINE
  8
0
 10
49.1391
 20
141.394
 11
49.0928
 21
141.3
  0
LINE
  8
0
 10
49.0928
 20
141.3
 11
49.0347
 21
141.213
  0
LINE
  8
0
 10
49.0347
 20
141.213
 11
48.9657
 21
141.134
  0
LINE
  8
0
 10
48.9657
 20
141.134
 11
48.887
 21
141.065
  0
LINE
  8
0
 10
48.887
 20
141.065
 11
48.8
 21
141.007
  0
LINE
  8
0
 10
48.8
 20
141.007
 11
48.7061
 21
140.961
  0
LINE
  8
0
 10
48.7061
 20
140.961
 11
48.6071
 21
140.927
  0
LINE
  8
0
 10
48.6071
 20
140.927
 11
48.5044
 21
140.907
  0
LINE
  8
0
 10
48.5044
 20
140.907
 11
48.4
 21
140.9
  0
LINE
  8
0
 10
48.4
 20
140.9
 11
48.2956
 21
140.907
  0
LINE
  8
0
 10
23.95
 20
136.219
 11
23.95
 21
141.319
  0
LINE
  8
0
 10
23.95
 20
141.319
 11
29.05
 21
141.319
  0
LINE
  8
0
 10
29.05
 20
141.319
 11
29.05
 21
136.219
  0
LINE
  8
0
 10
29.05
 20
136.219
 11
23.95
 21
136.219
  0
LINE
  8
0
 10
37.45
 20
128.719
 11
37.45
 21
137.819
  0
LINE
  8
0
 10
37.45
 20
137.819
 11
46.55
 21
137.819
  0
LINE
  8
0
 10
46.55
 20
137.819
 11
46.55
 21
128.719
  0
LINE
  8
0
 10
46.55
 20
128.719
 11
37.45
 21
128.719
  0
LINE
  8
0
 10
33.4956
 20
103.107
 11
33.3929
 21
103.127
  0
LINE
  8
0
 10
33.3929
 20
103.127
 11
33.2939
 21
103.161
  0
LINE
  8
0
 10
33.2939
 20
103.161
 11
33.2
 21
103.207
  0
LINE
  8
0
 10
33.2
 20
103.207
 11
33.113
 21
103.265
  0
LINE
  8
0
 10
33.113
 20
103.265
 11
33.0343
 21
103.334
  0
LINE
  8
0
 10
33.0343
 20
103.334
 11
32.9653
 21
103.413
  0
LINE
  8
0
 10
32.9653
 20
103.413
 11
32.9072
 21
103.5
  0
LINE
  8
0
 10
32.9072
 20
103.5
 11
32.8609
 21
103.594
  0
LINE
  8
0
 10
32.8609
 20
103.594
 11
32.8273
 21
103.693
  0
LINE
  8
0
 10
32.8273
 20
103.693
 11
32.8068
 21
103.796
  0
LINE
  8
0
 10
32.8068
 20
103.796
 11
32.8
 21
103.9
  0
LINE
  8
0
 10
32.8
 20
103.9
 11
32.8068
 21
104.004
  0
LINE
  8
0
 10
32.8068
 20
104.004
 11
32.8273
 21
104.107
  0
LINE
  8
0
 10
32.8273
 20
104.107
 11
32.8609
 21
104.206
  0
LINE
  8
0
 10
32.8609
 20
104.206
 11
32.9072
 21
104.3
  0
LINE
  8
0
 10
32.9072
 20
104.3
 11
32.9653
 21
104.387
  0
LINE
  8
0
 10
32.9653
 20
104.387
 11
33.0343
 21
104.466
  0
LINE
  8
0
 10
33.0343
 20
104.466
 11
33.113
 21
104.535
  0
LINE
  8
0
 10
33.113
 20
104.535
 11
33.2
 21
104.593
  0
LINE
  8
0
 10
33.2
 20
104.593
 11
33.2939
 21
104.639
  0
LINE
  8
0
 10
33.2939
 20
104.639
 11
33.3929
 21
104.673
  0
LINE
  8
0
 10
33.3929
 20
104.673
 11
33.4956
 21
104.693
  0
LINE
  8
0
 10
33.4956
 20
104.693
 11
33.6
 21
104.7
  0
LINE
  8
0
 10
33.6
 20
104.7
 11
33.7044
 21
104.693
  0
LINE
  8
0
 10
33.7044
 20
104.693
 11
33.8071
 21
104.673
  0
LINE
  8
0
 10
33.8071
 20
104.673
 11
33.9061
 21
104.639
  0
LINE
  8
0
 10
33.9061
 20
104.639
 11
34
 21
104.593
  0
LINE
  8
0
 10
34
 20
104.593
 11
34.087
 21
104.535
  0
LINE
  8
0
 10
34.087
 20
104.535
 11
34.1657
 21
104.466
  0
LINE
  8
0
 10
34.1657
 20
104.466
 11
34.2347
 21
104.387
  0
LINE
  8
0
 10
34.2347
 20
104.387
 11
34.2928
 21
104.3
  0
LINE
  8
0
 10
34.2928
 20
104.3
 11
34.3391
 21
104.206
  0
LINE
  8
0
 10
34.3391
 20
104.206
 11
34.3727
 21
104.107
  0
LINE
  8
0
 10
34.3727
 20
104.107
 11
34.3931
 21
104.004
  0
LINE
  8
0
 10
34.3931
 20
104.004
 11
34.4
 21
103.9
  0
LINE
  8
0
 10
34.4
 20
103.9
 11
34.3931
 21
103.796
  0
LINE
  8
0
 10
34.3931
 20
103.796
 11
34.3727
 21
103.693
  0
LINE
  8
0
 10
34.3727
 20
103.693
 11
34.3391
 21
103.594
  0
LINE
  8
0
 10
34.3391
 20
103.594
 11
34.2928
 21
103.5
  0
LINE
  8
0
 10
34.2928
 20
103.5
 11
34.2347
 21
103.413
  0
LINE
  8
0
 10
34.2347
 20
103.413
 11
34.1657
 21
103.334
  0
LINE
  8
0
 10
34.1657
 20
103.334
 11
34.087
 21
103.265
  0
LINE
  8
0
 10
34.087
 20
103.265
 11
34
 21
103.207
  0
LINE
  8
0
 10
34
 20
103.207
 11
33.9061
 21
103.161
  0
LINE
  8
0
 10
33.9061
 20
103.161
 11
33.8071
 21
103.127
  0
LINE
  8
0
 10
33.8071
 20
103.127
 11
33.7044
 21
103.107
  0
LINE
  8
0
 10
33.7044
 20
103.107
 11
33.6
 21
103.1
  0
LINE
  8
0
 10
33.6
 20
103.1
 11
33.4956
 21
103.107
  0
ENDSEC
  0
SECTION
  2
OBJECTS
  0
DICTIONARY
  0
ENDSEC
  0
EOF
