  0
SECTION
  2
BLOCKS
  0
ENDSEC
  0
SECTION
  2
ENTITIES
  0
LINE
  8
0
 10
49.0958
 20
89.3128
 11
49.2882
 21
89.3511
  0
LINE
  8
0
 10
49.2882
 20
89.3511
 11
49.474
 21
89.4142
  0
LINE
  8
0
 10
49.474
 20
89.4142
 11
49.65
 21
89.501
  0
LINE
  8
0
 10
49.65
 20
89.501
 11
49.8131
 21
89.61
  0
LINE
  8
0
 10
49.8131
 20
89.61
 11
49.9606
 21
89.7393
  0
LINE
  8
0
 10
49.9606
 20
89.7393
 11
50.09
 21
89.8869
  0
LINE
  8
0
 10
50.09
 20
89.8869
 11
50.199
 21
90.05
  0
LINE
  8
0
 10
50.199
 20
90.05
 11
50.2858
 21
90.226
  0
LINE
  8
0
 10
50.2858
 20
90.226
 11
50.3489
 21
90.4118
  0
LINE
  8
0
 10
50.3489
 20
90.4118
 11
50.3872
 21
90.6042
  0
LINE
  8
0
 10
50.3872
 20
90.6042
 11
50.4
 21
90.8
  0
LINE
  8
0
 10
50.4
 20
90.8
 11
50.4
 21
142.569
  0
LINE
  8
0
 10
50.4
 20
142.569
 11
50.3872
 21
142.765
  0
LINE
  8
0
 10
50.3872
 20
142.765
 11
50.3489
 21
142.958
  0
LINE
  8
0
 10
50.3489
 20
142.958
 11
50.2858
 21
143.143
  0
LINE
  8
0
 10
50.2858
 20
143.143
 11
50.199
 21
143.319
  0
LINE
  8
0
 10
50.199
 20
143.319
 11
50.09
 21
143.482
  0
LINE
  8
0
 10
50.09
 20
143.482
 11
49.9606
 21
143.63
  0
LINE
  8
0
 10
49.9606
 20
143.63
 11
49.8131
 21
143.759
  0
LINE
  8
0
 10
49.8131
 20
143.759
 11
49.65
 21
143.868
  0
LINE
  8
0
 10
49.65
 20
143.868
 11
49.474
 21
143.955
  0
LINE
  8
0
 10
49.474
 20
143.955
 11
49.2882
 21
144.018
  0
LINE
  8
0
 10
49.2882
 20
144.018
 11
49.0958
 21
144.056
  0
LINE
  8
0
 10
49.0958
 20
144.056
 11
48.9
 21
144.069
  0
LINE
  8
0
 10
48.9
 20
144.069
 11
2.7
 21
144.069
  0
LINE
  8
0
 10
2.7
 20
144.069
 11
2.5042
 21
144.056
  0
LINE
  8
0
 10
2.5042
 20
144.056
 11
2.31177
 21
144.018
  0
LINE
  8
0
 10
2.31177
 20
144.018
 11
2.12596
 21
143.955
  0
LINE
  8
0
 10
2.12596
 20
143.955
 11
1.95
 21
143.868
  0
LINE
  8
0
 10
1.95
 20
143.868
 11
1.78685
 21
143.759
  0
LINE
  8
0
 10
1.78685
 20
143.759
 11
1.63933
 21
143.63
  0
LINE
  8
0
 10
1.63933
 20
143.63
 11
1.50996
 21
143.482
  0
LINE
  8
0
 10
1.50996
 20
143.482
 11
1.40096
 21
143.319
  0
LINE
  8
0
 10
1.40096
 20
143.319
 11
1.31418
 21
143.143
  0
LINE
  8
0
 10
1.31418
 20
143.143
 11
1.2511
 21
142.958
  0
LINE
  8
0
 10
1.2511
 20
142.958
 11
1.21283
 21
142.765
  0
LINE
  8
0
 10
1.21283
 20
142.765
 11
1.2
 21
142.569
  0
LINE
  8
0
 10
1.2
 20
142.569
 11
1.2
 21
90.8
  0
LINE
  8
0
 10
1.2
 20
90.8
 11
1.21283
 21
90.6042
  0
LINE
  8
0
 10
1.21283
 20
90.6042
 11
1.2511
 21
90.4118
  0
LINE
  8
0
 10
1.2511
 20
90.4118
 11
1.31418
 21
90.226
  0
LINE
  8
0
 10
1.31418
 20
90.226
 11
1.40096
 21
90.05
  0
LINE
  8
0
 10
1.40096
 20
90.05
 11
1.50996
 21
89.8869
  0
LINE
  8
0
 10
1.50996
 20
89.8869
 11
1.63933
 21
89.7393
  0
LINE
  8
0
 10
1.63933
 20
89.7393
 11
1.78685
 21
89.61
  0
LINE
  8
0
 10
1.78685
 20
89.61
 11
1.95
 21
89.501
  0
LINE
  8
0
 10
1.95
 20
89.501
 11
2.12596
 21
89.4142
  0
LINE
  8
0
 10
2.12596
 20
89.4142
 11
2.31177
 21
89.3511
  0
LINE
  8
0
 10
2.31177
 20
89.3511
 11
2.5042
 21
89.3128
  0
LINE
  8
0
 10
2.5042
 20
89.3128
 11
2.7
 21
89.3
  0
LINE
  8
0
 10
2.7
 20
89.3
 11
48.9
 21
89.3
  0
LINE
  8
0
 10
48.9
 20
89.3
 11
49.0958
 21
89.3128
  0
LINE
  8
0
 10
38.45
 20
134.769
 11
38.45
 21
143.869
  0
LINE
  8
0
 10
38.45
 20
143.869
 11
47.55
 21
143.869
  0
LINE
  8
0
 10
47.55
 20
143.869
 11
47.55
 21
134.769
  0
LINE
  8
0
 10
47.55
 20
134.769
 11
38.45
 21
134.769
  0
LINE
  8
0
 10
23.95
 20
136.219
 11
23.95
 21
141.319
  0
LINE
  8
0
 10
23.95
 20
141.319
 11
29.05
 21
141.319
  0
LINE
  8
0
 10
29.05
 20
141.319
 11
29.05
 21
136.219
  0
LINE
  8
0
 10
29.05
 20
136.219
 11
23.95
 21
136.219
  0
LINE
  8
0
 10
36.5956
 20
138.507
 11
36.4929
 21
138.527
  0
LINE
  8
0
 10
36.4929
 20
138.527
 11
36.3938
 21
138.561
  0
LINE
  8
0
 10
36.3938
 20
138.561
 11
36.3
 21
138.607
  0
LINE
  8
0
 10
36.3
 20
138.607
 11
36.213
 21
138.665
  0
LINE
  8
0
 10
36.213
 20
138.665
 11
36.1343
 21
138.734
  0
LINE
  8
0
 10
36.1343
 20
138.734
 11
36.0653
 21
138.813
  0
LINE
  8
0
 10
36.0653
 20
138.813
 11
36.0072
 21
138.9
  0
LINE
  8
0
 10
36.0072
 20
138.9
 11
35.9609
 21
138.994
  0
LINE
  8
0
 10
35.9609
 20
138.994
 11
35.9272
 21
139.093
  0
LINE
  8
0
 10
35.9272
 20
139.093
 11
35.9068
 21
139.196
  0
LINE
  8
0
 10
35.9068
 20
139.196
 11
35.9
 21
139.3
  0
LINE
  8
0
 10
35.9
 20
139.3
 11
35.9068
 21
139.404
  0
LINE
  8
0
 10
35.9068
 20
139.404
 11
35.9272
 21
139.507
  0
LINE
  8
0
 10
35.9272
 20
139.507
 11
35.9609
 21
139.606
  0
LINE
  8
0
 10
35.9609
 20
139.606
 11
36.0072
 21
139.7
  0
LINE
  8
0
 10
36.0072
 20
139.7
 11
36.0653
 21
139.787
  0
LINE
  8
0
 10
36.0653
 20
139.787
 11
36.1343
 21
139.866
  0
LINE
  8
0
 10
36.1343
 20
139.866
 11
36.213
 21
139.935
  0
LINE
  8
0
 10
36.213
 20
139.935
 11
36.3
 21
139.993
  0
LINE
  8
0
 10
36.3
 20
139.993
 11
36.3938
 21
140.039
  0
LINE
  8
0
 10
36.3938
 20
140.039
 11
36.4929
 21
140.073
  0
LINE
  8
0
 10
36.4929
 20
140.073
 11
36.5956
 21
140.093
  0
LINE
  8
0
 10
36.5956
 20
140.093
 11
36.7
 21
140.1
  0
LINE
  8
0
 10
36.7
 20
140.1
 11
36.8044
 21
140.093
  0
LINE
  8
0
 10
36.8044
 20
140.093
 11
36.907
 21
140.073
  0
LINE
  8
0
 10
36.907
 20
140.073
 11
37.0061
 21
140.039
  0
LINE
  8
0
 10
37.0061
 20
140.039
 11
37.1
 21
139.993
  0
LINE
  8
0
 10
37.1
 20
139.993
 11
37.187
 21
139.935
  0
LINE
  8
0
 10
37.187
 20
139.935
 11
37.2657
 21
139.866
  0
LINE
  8
0
 10
37.2657
 20
139.866
 11
37.3347
 21
139.787
  0
LINE
  8
0
 10
37.3347
 20
139.787
 11
37.3928
 21
139.7
  0
LINE
  8
0
 10
37.3928
 20
139.7
 11
37.4391
 21
139.606
  0
LINE
  8
0
 10
37.4391
 20
139.606
 11
37.4727
 21
139.507
  0
LINE
  8
0
 10
37.4727
 20
139.507
 11
37.4931
 21
139.404
  0
LINE
  8
0
 10
37.4931
 20
139.404
 11
37.5
 21
139.3
  0
LINE
  8
0
 10
37.5
 20
139.3
 11
37.4931
 21
139.196
  0
LINE
  8
0
 10
37.4931
 20
139.196
 11
37.4727
 21
139.093
  0
LINE
  8
0
 10
37.4727
 20
139.093
 11
37.4391
 21
138.994
  0
LINE
  8
0
 10
37.4391
 20
138.994
 11
37.3928
 21
138.9
  0
LINE
  8
0
 10
37.3928
 20
138.9
 11
37.3347
 21
138.813
  0
LINE
  8
0
 10
37.3347
 20
138.813
 11
37.2657
 21
138.734
  0
LINE
  8
0
 10
37.2657
 20
138.734
 11
37.187
 21
138.665
  0
LINE
  8
0
 10
37.187
 20
138.665
 11
37.1
 21
138.607
  0
LINE
  8
0
 10
37.1
 20
138.607
 11
37.0061
 21
138.561
  0
LINE
  8
0
 10
37.0061
 20
138.561
 11
36.907
 21
138.527
  0
LINE
  8
0
 10
36.907
 20
138.527
 11
36.8044
 21
138.507
  0
LINE
  8
0
 10
36.8044
 20
138.507
 11
36.7
 21
138.5
  0
LINE
  8
0
 10
36.7
 20
138.5
 11
36.5956
 21
138.507
  0
LINE
  8
0
 10
47.6956
 20
116.007
 11
47.5929
 21
116.027
  0
LINE
  8
0
 10
47.5929
 20
116.027
 11
47.4939
 21
116.061
  0
LINE
  8
0
 10
47.4939
 20
116.061
 11
47.4
 21
116.107
  0
LINE
  8
0
 10
47.4
 20
116.107
 11
47.313
 21
116.165
  0
LINE
  8
0
 10
47.313
 20
116.165
 11
47.2343
 21
116.234
  0
LINE
  8
0
 10
47.2343
 20
116.234
 11
47.1653
 21
116.313
  0
LINE
  8
0
 10
47.1653
 20
116.313
 11
47.1072
 21
116.4
  0
LINE
  8
0
 10
47.1072
 20
116.4
 11
47.0609
 21
116.494
  0
LINE
  8
0
 10
47.0609
 20
116.494
 11
47.0273
 21
116.593
  0
LINE
  8
0
 10
47.0273
 20
116.593
 11
47.0068
 21
116.696
  0
LINE
  8
0
 10
47.0068
 20
116.696
 11
47
 21
116.8
  0
LINE
  8
0
 10
47
 20
116.8
 11
47.0068
 21
116.904
  0
LINE
  8
0
 10
47.0068
 20
116.904
 11
47.0273
 21
117.007
  0
LINE
  8
0
 10
47.0273
 20
117.007
 11
47.0609
 21
117.106
  0
LINE
  8
0
 10
47.0609
 20
117.106
 11
47.1072
 21
117.2
  0
LINE
  8
0
 10
47.1072
 20
117.2
 11
47.1653
 21
117.287
  0
LINE
  8
0
 10
47.1653
 20
117.287
 11
47.2343
 21
117.366
  0
LINE
  8
0
 10
47.2343
 20
117.366
 11
47.313
 21
117.435
  0
LINE
  8
0
 10
47.313
 20
117.435
 11
47.4
 21
117.493
  0
LINE
  8
0
 10
47.4
 20
117.493
 11
47.4939
 21
117.539
  0
LINE
  8
0
 10
47.4939
 20
117.539
 11
47.5929
 21
117.573
  0
LINE
  8
0
 10
47.5929
 20
117.573
 11
47.6956
 21
117.593
  0
LINE
  8
0
 10
47.6956
 20
117.593
 11
47.8
 21
117.6
  0
LINE
  8
0
 10
47.8
 20
117.6
 11
47.9044
 21
117.593
  0
LINE
  8
0
 10
47.9044
 20
117.593
 11
48.007
 21
117.573
  0
LINE
  8
0
 10
48.007
 20
117.573
 11
48.1061
 21
117.539
  0
LINE
  8
0
 10
48.1061
 20
117.539
 11
48.2
 21
117.493
  0
LINE
  8
0
 10
48.2
 20
117.493
 11
48.287
 21
117.435
  0
LINE
  8
0
 10
48.287
 20
117.435
 11
48.3657
 21
117.366
  0
LINE
  8
0
 10
48.3657
 20
117.366
 11
48.4347
 21
117.287
  0
LINE
  8
0
 10
48.4347
 20
117.287
 11
48.4928
 21
117.2
  0
LINE
  8
0
 10
48.4928
 20
117.2
 11
48.5391
 21
117.106
  0
LINE
  8
0
 10
48.5391
 20
117.106
 11
48.5727
 21
117.007
  0
LINE
  8
0
 10
48.5727
 20
117.007
 11
48.5932
 21
116.904
  0
LINE
  8
0
 10
48.5932
 20
116.904
 11
48.6
 21
116.8
  0
LINE
  8
0
 10
48.6
 20
116.8
 11
48.5932
 21
116.696
  0
LINE
  8
0
 10
48.5932
 20
116.696
 11
48.5727
 21
116.593
  0
LINE
  8
0
 10
48.5727
 20
116.593
 11
48.5391
 21
116.494
  0
LINE
  8
0
 10
48.5391
 20
116.494
 11
48.4928
 21
116.4
  0
LINE
  8
0
 10
48.4928
 20
116.4
 11
48.4347
 21
116.313
  0
LINE
  8
0
 10
48.4347
 20
116.313
 11
48.3657
 21
116.234
  0
LINE
  8
0
 10
48.3657
 20
116.234
 11
48.287
 21
116.165
  0
LINE
  8
0
 10
48.287
 20
116.165
 11
48.2
 21
116.107
  0
LINE
  8
0
 10
48.2
 20
116.107
 11
48.1061
 21
116.061
  0
LINE
  8
0
 10
48.1061
 20
116.061
 11
48.007
 21
116.027
  0
LINE
  8
0
 10
48.007
 20
116.027
 11
47.9044
 21
116.007
  0
LINE
  8
0
 10
47.9044
 20
116.007
 11
47.8
 21
116
  0
LINE
  8
0
 10
47.8
 20
116
 11
47.6956
 21
116.007
  0
ENDSEC
  0
SECTION
  2
OBJECTS
  0
DICTIONARY
  0
ENDSEC
  0
EOF
