%TF.GenerationSoftware,KiCad,Pcbnew,10.0.6*%
%TF.CreationDate,2026-09-27T19:27:52+03:00*%
%TF.ProjectId,keyboard_prototype,6b657962-6f61-4726-945f-70726f746f74,rev?*%
%TF.SameCoordinates,Original*%
%TF.FileFunction,Soldermask,Top*%
%TF.FilePolarity,Negative*%
%FSLAX46Y46*%
G04 Gerber Fmt 4.6, Leading zero omitted, Abs format (unit mm)*
G04 Created by KiCad (PCBNEW 10.0.6) date 2026-09-27 19:27:52*
%MOMM*%
%LPD*%
G01*
G04 APERTURE LIST*
G04 Aperture macros list*
%AMRoundRect*
0 Rectangle with rounded corners*
0 $1 Rounding radius*
0 $2 $3 $4 $5 $6 $7 $8 $9 X,Y pos of 4 corners*
0 Add a 4 corners polygon primitive as box body*
4,1,4,$2,$3,$4,$5,$6,$7,$8,$9,$2,$3,0*
0 Add four circle primitives for the rounded corners*
1,1,$1+$1,$2,$3*
1,1,$1+$1,$4,$5*
1,1,$1+$1,$6,$7*
1,1,$1+$1,$8,$9*
0 Add four rect primitives between the rounded corners*
20,1,$1+$1,$2,$3,$4,$5,0*
20,1,$1+$1,$4,$5,$6,$7,0*
20,1,$1+$1,$6,$7,$8,$9,0*
20,1,$1+$1,$8,$9,$2,$3,0*%
G04 Aperture macros list end*
%ADD10R,1.000000X0.750000*%
%ADD11RoundRect,0.200000X-0.200000X-0.275000X0.200000X-0.275000X0.200000X0.275000X-0.200000X0.275000X0*%
%ADD12RoundRect,0.225000X-0.375000X0.225000X-0.375000X-0.225000X0.375000X-0.225000X0.375000X0.225000X0*%
%ADD13RoundRect,0.218750X-0.218750X-0.256250X0.218750X-0.256250X0.218750X0.256250X-0.218750X0.256250X0*%
%ADD14RoundRect,0.225000X0.375000X-0.225000X0.375000X0.225000X-0.375000X0.225000X-0.375000X-0.225000X0*%
%ADD15C,2.200000*%
%ADD16R,0.750000X1.000000*%
%ADD17RoundRect,0.150000X-0.587500X-0.150000X0.587500X-0.150000X0.587500X0.150000X-0.587500X0.150000X0*%
G04 APERTURE END LIST*
D10*
%TO.C,SW14*%
X142000000Y-109125000D03*
X148000000Y-109125000D03*
X142000000Y-112875000D03*
X148000000Y-112875000D03*
%TD*%
D11*
%TO.C,R8*%
X135675000Y-157950000D03*
X137325000Y-157950000D03*
%TD*%
D12*
%TO.C,D13*%
X116200000Y-109350000D03*
X116200000Y-112650000D03*
%TD*%
D13*
%TO.C,LED4*%
X118712500Y-160550000D03*
X120287500Y-160550000D03*
%TD*%
%TO.C,LED2*%
X118712500Y-141550000D03*
X120287500Y-141550000D03*
%TD*%
D10*
%TO.C,SW2*%
X125000000Y-128875000D03*
X131000000Y-128875000D03*
X125000000Y-132625000D03*
X131000000Y-132625000D03*
%TD*%
D14*
%TO.C,D19*%
X116600000Y-117650000D03*
X116600000Y-114350000D03*
%TD*%
D10*
%TO.C,SW18*%
X125000000Y-121125000D03*
X131000000Y-121125000D03*
X125000000Y-124875000D03*
X131000000Y-124875000D03*
%TD*%
D12*
%TO.C,D6*%
X150200000Y-138600000D03*
X150200000Y-141900000D03*
%TD*%
D15*
%TO.C,H1*%
X102800000Y-163500000D03*
%TD*%
D10*
%TO.C,SW1*%
X108000000Y-128875000D03*
X114000000Y-128875000D03*
X108000000Y-132625000D03*
X114000000Y-132625000D03*
%TD*%
D12*
%TO.C,D16*%
X150200000Y-119350000D03*
X150200000Y-122650000D03*
%TD*%
D16*
%TO.C,SW20*%
X133125000Y-119000000D03*
X133125000Y-113000000D03*
X136875000Y-119000000D03*
X136875000Y-113000000D03*
%TD*%
D12*
%TO.C,D10*%
X116200000Y-157600000D03*
X116200000Y-160900000D03*
%TD*%
D10*
%TO.C,SW9*%
X142000000Y-147875000D03*
X148000000Y-147875000D03*
X142000000Y-151625000D03*
X148000000Y-151625000D03*
%TD*%
D17*
%TO.C,Q1*%
X118062500Y-124650000D03*
X118062500Y-126550000D03*
X119937500Y-125600000D03*
%TD*%
D12*
%TO.C,D15*%
X116200000Y-119350000D03*
X116200000Y-122650000D03*
%TD*%
D15*
%TO.C,H2*%
X153200000Y-163500000D03*
%TD*%
D12*
%TO.C,D3*%
X150200000Y-129100000D03*
X150200000Y-132400000D03*
%TD*%
D11*
%TO.C,R2*%
X118675000Y-138950000D03*
X120325000Y-138950000D03*
%TD*%
D10*
%TO.C,SW11*%
X125000000Y-157375000D03*
X131000000Y-157375000D03*
X125000000Y-161125000D03*
X131000000Y-161125000D03*
%TD*%
%TO.C,SW15*%
X108000000Y-119125000D03*
X114000000Y-119125000D03*
X108000000Y-122875000D03*
X114000000Y-122875000D03*
%TD*%
%TO.C,SW3*%
X142000000Y-128875000D03*
X148000000Y-128875000D03*
X142000000Y-132625000D03*
X148000000Y-132625000D03*
%TD*%
D13*
%TO.C,LED1*%
X118712500Y-132050000D03*
X120287500Y-132050000D03*
%TD*%
D12*
%TO.C,D8*%
X133199999Y-148100000D03*
X133199999Y-151400000D03*
%TD*%
%TO.C,D1*%
X116200000Y-129100000D03*
X116200000Y-132400000D03*
%TD*%
%TO.C,D5*%
X133199999Y-138600000D03*
X133199999Y-141900000D03*
%TD*%
D10*
%TO.C,SW7*%
X108000000Y-147875000D03*
X114000000Y-147875000D03*
X108000000Y-151625000D03*
X114000000Y-151625000D03*
%TD*%
D11*
%TO.C,R9*%
X122275000Y-126600000D03*
X123925000Y-126600000D03*
%TD*%
D13*
%TO.C,LED7*%
X135712500Y-151050000D03*
X137287500Y-151050000D03*
%TD*%
D12*
%TO.C,D17*%
X122800000Y-107350000D03*
X122800000Y-110650000D03*
%TD*%
D11*
%TO.C,R5*%
X135675000Y-129449999D03*
X137325000Y-129449999D03*
%TD*%
D12*
%TO.C,D7*%
X116200000Y-148100000D03*
X116200000Y-151400000D03*
%TD*%
D16*
%TO.C,SW19*%
X119125000Y-119000000D03*
X119125000Y-113000000D03*
X122875000Y-119000000D03*
X122875000Y-113000000D03*
%TD*%
D12*
%TO.C,D9*%
X150200000Y-148100000D03*
X150200000Y-151400000D03*
%TD*%
D13*
%TO.C,LED5*%
X135712500Y-132050000D03*
X137287500Y-132050000D03*
%TD*%
D14*
%TO.C,D20*%
X139400000Y-117650000D03*
X139400000Y-114350000D03*
%TD*%
D12*
%TO.C,D4*%
X116200000Y-138600000D03*
X116200000Y-141900000D03*
%TD*%
D13*
%TO.C,LED3*%
X118712500Y-151050000D03*
X120287500Y-151050000D03*
%TD*%
D15*
%TO.C,H3*%
X103500000Y-103500000D03*
%TD*%
D12*
%TO.C,D2*%
X133199999Y-129100000D03*
X133199999Y-132400000D03*
%TD*%
D11*
%TO.C,R4*%
X118675000Y-157950000D03*
X120325000Y-157950000D03*
%TD*%
D12*
%TO.C,D14*%
X150200000Y-109350000D03*
X150200000Y-112650000D03*
%TD*%
D11*
%TO.C,R6*%
X135675000Y-138950000D03*
X137325000Y-138950000D03*
%TD*%
D10*
%TO.C,SW6*%
X142000000Y-138375000D03*
X148000000Y-138375000D03*
X142000000Y-142125000D03*
X148000000Y-142125000D03*
%TD*%
D11*
%TO.C,R7*%
X135675000Y-148450000D03*
X137325000Y-148450000D03*
%TD*%
D13*
%TO.C,LED6*%
X135712500Y-141550000D03*
X137287500Y-141550000D03*
%TD*%
D10*
%TO.C,SW12*%
X142000000Y-157375000D03*
X148000000Y-157375000D03*
X142000000Y-161125000D03*
X148000000Y-161125000D03*
%TD*%
%TO.C,SW10*%
X108000000Y-157375000D03*
X114000000Y-157375000D03*
X108000000Y-161125000D03*
X114000000Y-161125000D03*
%TD*%
D11*
%TO.C,R3*%
X118675000Y-148450000D03*
X120325000Y-148450000D03*
%TD*%
D12*
%TO.C,D18*%
X133199999Y-121350000D03*
X133199999Y-124650000D03*
%TD*%
D10*
%TO.C,SW21*%
X125000000Y-114125000D03*
X131000000Y-114125000D03*
X125000000Y-117875000D03*
X131000000Y-117875000D03*
%TD*%
D12*
%TO.C,D11*%
X133199999Y-157600000D03*
X133199999Y-160900000D03*
%TD*%
%TO.C,D21*%
X133199999Y-107350000D03*
X133199999Y-110650000D03*
%TD*%
D10*
%TO.C,SW17*%
X125000000Y-107125000D03*
X131000000Y-107125000D03*
X125000000Y-110875000D03*
X131000000Y-110875000D03*
%TD*%
D15*
%TO.C,H4*%
X152500000Y-103500000D03*
%TD*%
D10*
%TO.C,SW5*%
X125000000Y-138375000D03*
X131000000Y-138375000D03*
X125000000Y-142125000D03*
X131000000Y-142125000D03*
%TD*%
%TO.C,SW4*%
X108000000Y-138375000D03*
X114000000Y-138375000D03*
X108000000Y-142125000D03*
X114000000Y-142125000D03*
%TD*%
%TO.C,SW8*%
X125000000Y-147875000D03*
X131000000Y-147875000D03*
X125000000Y-151625000D03*
X131000000Y-151625000D03*
%TD*%
D13*
%TO.C,LED8*%
X135712500Y-160550000D03*
X137287500Y-160550000D03*
%TD*%
D12*
%TO.C,D12*%
X150200000Y-157600000D03*
X150200000Y-160900000D03*
%TD*%
D10*
%TO.C,SW16*%
X142000000Y-119125000D03*
X148000000Y-119125000D03*
X142000000Y-122875000D03*
X148000000Y-122875000D03*
%TD*%
%TO.C,SW13*%
X108000000Y-109125000D03*
X114000000Y-109125000D03*
X108000000Y-112875000D03*
X114000000Y-112875000D03*
%TD*%
D11*
%TO.C,R1*%
X118675000Y-129449999D03*
X120325000Y-129449999D03*
%TD*%
M02*
