%TF.GenerationSoftware,KiCad,Pcbnew,10.0.6*%
%TF.CreationDate,2026-09-27T19:27:52+03:00*%
%TF.ProjectId,keyboard_prototype,6b657962-6f61-4726-945f-70726f746f74,rev?*%
%TF.SameCoordinates,Original*%
%TF.FileFunction,Soldermask,Bot*%
%TF.FilePolarity,Negative*%
%FSLAX46Y46*%
G04 Gerber Fmt 4.6, Leading zero omitted, Abs format (unit mm)*
G04 Created by KiCad (PCBNEW 10.0.6) date 2026-09-27 19:27:52*
%MOMM*%
%LPD*%
G01*
G04 APERTURE LIST*
G04 Aperture macros list*
%AMRoundRect*
0 Rectangle with rounded corners*
0 $1 Rounding radius*
0 $2 $3 $4 $5 $6 $7 $8 $9 X,Y pos of 4 corners*
0 Add a 4 corners polygon primitive as box body*
4,1,4,$2,$3,$4,$5,$6,$7,$8,$9,$2,$3,0*
0 Add four circle primitives for the rounded corners*
1,1,$1+$1,$2,$3*
1,1,$1+$1,$4,$5*
1,1,$1+$1,$6,$7*
1,1,$1+$1,$8,$9*
0 Add four rect primitives between the rounded corners*
20,1,$1+$1,$2,$3,$4,$5,0*
20,1,$1+$1,$4,$5,$6,$7,0*
20,1,$1+$1,$6,$7,$8,$9,0*
20,1,$1+$1,$8,$9,$2,$3,0*%
G04 Aperture macros list end*
%ADD10C,2.200000*%
%ADD11RoundRect,0.550800X-0.875000X-0.500000X0.875000X-0.500000X0.875000X0.500000X-0.875000X0.500000X0*%
%ADD12C,1.700000*%
%ADD13RoundRect,0.275000X0.275000X-0.975000X0.275000X0.975000X-0.275000X0.975000X-0.275000X-0.975000X0*%
%ADD14R,0.300000X1.300000*%
%ADD15R,1.800000X2.200000*%
%ADD16R,1.000000X1.500000*%
G04 APERTURE END LIST*
%TO.C,JP1*%
G36*
X140350000Y-143250000D02*
G01*
X140650000Y-143250000D01*
X140650000Y-144750000D01*
X140350000Y-144750000D01*
X140350000Y-143250000D01*
G37*
%TD*%
D10*
%TO.C,H1*%
X102800000Y-163500000D03*
%TD*%
%TO.C,H2*%
X153200000Y-163500000D03*
%TD*%
%TO.C,H3*%
X103500000Y-103500000D03*
%TD*%
%TO.C,H4*%
X152500000Y-103500000D03*
%TD*%
D11*
%TO.C,U1*%
X119917500Y-162620000D03*
X119917500Y-160080000D03*
X119917500Y-157540000D03*
X119917500Y-155000000D03*
X119917500Y-152460000D03*
X119917500Y-149920000D03*
X119917500Y-147380000D03*
X136082500Y-147380000D03*
X136082500Y-149920000D03*
X136082500Y-152460000D03*
X136082500Y-155000000D03*
X136082500Y-157540000D03*
X136082500Y-160080000D03*
X136082500Y-162620000D03*
D12*
X126829500Y-163378000D03*
X129369500Y-163378000D03*
X126829500Y-160838000D03*
X129369500Y-160838000D03*
D13*
X126829500Y-146360000D03*
X129369500Y-146360000D03*
%TD*%
D14*
%TO.C,J1*%
X131250000Y-133375000D03*
X130750000Y-133375000D03*
X130250000Y-133375000D03*
X129750000Y-133375000D03*
X129250000Y-133375000D03*
X128750000Y-133375000D03*
X128250000Y-133375000D03*
X127750000Y-133375000D03*
X127250000Y-133375000D03*
X126750000Y-133375000D03*
X126250000Y-133375000D03*
X125750000Y-133375000D03*
X125250000Y-133375000D03*
X124750000Y-133375000D03*
D15*
X133150000Y-136625000D03*
X122850000Y-136625000D03*
%TD*%
D16*
%TO.C,JP1*%
X141150000Y-144000000D03*
X139850000Y-144000000D03*
%TD*%
M02*
