%TF.GenerationSoftware,KiCad,Pcbnew,10.0.6*%
%TF.CreationDate,2026-09-27T19:27:52+03:00*%
%TF.ProjectId,keyboard_prototype,6b657962-6f61-4726-945f-70726f746f74,rev?*%
%TF.SameCoordinates,Original*%
%TF.FileFunction,Copper,L2,Bot*%
%TF.FilePolarity,Positive*%
%FSLAX46Y46*%
G04 Gerber Fmt 4.6, Leading zero omitted, Abs format (unit mm)*
G04 Created by KiCad (PCBNEW 10.0.6) date 2026-09-27 19:27:52*
%MOMM*%
%LPD*%
G01*
G04 APERTURE LIST*
G04 Aperture macros list*
%AMRoundRect*
0 Rectangle with rounded corners*
0 $1 Rounding radius*
0 $2 $3 $4 $5 $6 $7 $8 $9 X,Y pos of 4 corners*
0 Add a 4 corners polygon primitive as box body*
4,1,4,$2,$3,$4,$5,$6,$7,$8,$9,$2,$3,0*
0 Add four circle primitives for the rounded corners*
1,1,$1+$1,$2,$3*
1,1,$1+$1,$4,$5*
1,1,$1+$1,$6,$7*
1,1,$1+$1,$8,$9*
0 Add four rect primitives between the rounded corners*
20,1,$1+$1,$2,$3,$4,$5,0*
20,1,$1+$1,$4,$5,$6,$7,0*
20,1,$1+$1,$6,$7,$8,$9,0*
20,1,$1+$1,$8,$9,$2,$3,0*%
G04 Aperture macros list end*
%TA.AperFunction,SMDPad,CuDef*%
%ADD10RoundRect,0.500000X-0.875000X-0.500000X0.875000X-0.500000X0.875000X0.500000X-0.875000X0.500000X0*%
%TD*%
%TA.AperFunction,SMDPad,CuDef*%
%ADD11C,1.700000*%
%TD*%
%TA.AperFunction,SMDPad,CuDef*%
%ADD12RoundRect,0.275000X0.275000X-0.975000X0.275000X0.975000X-0.275000X0.975000X-0.275000X-0.975000X0*%
%TD*%
%TA.AperFunction,SMDPad,CuDef*%
%ADD13R,0.300000X1.300000*%
%TD*%
%TA.AperFunction,SMDPad,CuDef*%
%ADD14R,1.800000X2.200000*%
%TD*%
%TA.AperFunction,SMDPad,CuDef*%
%ADD15R,1.000000X1.500000*%
%TD*%
%TA.AperFunction,ViaPad*%
%ADD16C,0.600000*%
%TD*%
%TA.AperFunction,Conductor*%
%ADD17C,0.250000*%
%TD*%
G04 APERTURE END LIST*
D10*
%TO.P,U1,1*%
%TO.N,/ROW0*%
X119917500Y-162620000D03*
%TO.P,U1,2*%
%TO.N,/ROW1*%
X119917500Y-160080000D03*
%TO.P,U1,3*%
%TO.N,/ROW2*%
X119917500Y-157540000D03*
%TO.P,U1,4*%
%TO.N,/ROW3*%
X119917500Y-155000000D03*
%TO.P,U1,5*%
%TO.N,/ROW4*%
X119917500Y-152460000D03*
%TO.P,U1,6*%
%TO.N,/COL0*%
X119917500Y-149920000D03*
%TO.P,U1,7*%
%TO.N,/COL1*%
X119917500Y-147380000D03*
%TO.P,U1,8*%
%TO.N,/COL2*%
X136082500Y-147380000D03*
%TO.P,U1,9*%
%TO.N,/COL3*%
X136082500Y-149920000D03*
%TO.P,U1,10*%
%TO.N,/COL4*%
X136082500Y-152460000D03*
%TO.P,U1,11*%
%TO.N,/BL_EN*%
X136082500Y-155000000D03*
%TO.P,U1,12*%
%TO.N,unconnected-(U1-3V3_OUT-Pad12)*%
X136082500Y-157540000D03*
%TO.P,U1,13*%
%TO.N,GND*%
X136082500Y-160080000D03*
%TO.P,U1,14*%
%TO.N,/VBUS*%
X136082500Y-162620000D03*
D11*
%TO.P,U1,15*%
%TO.N,unconnected-(U1-SWDIO-Pad15)*%
X126829500Y-163378000D03*
%TO.P,U1,16*%
%TO.N,unconnected-(U1-SWCLK-Pad16)*%
X129369500Y-163378000D03*
%TO.P,U1,17*%
%TO.N,unconnected-(U1-EN-Pad17)*%
X126829500Y-160838000D03*
%TO.P,U1,18*%
%TO.N,unconnected-(U1-GND-Pad18)*%
X129369500Y-160838000D03*
D12*
%TO.P,U1,19*%
%TO.N,unconnected-(U1-VIN-Pad19)*%
X126829500Y-146360000D03*
%TO.P,U1,20*%
%TO.N,unconnected-(U1-GND-Pad20)*%
X129369500Y-146360000D03*
%TD*%
D13*
%TO.P,J1,1*%
%TO.N,GND*%
X131250000Y-133375000D03*
%TO.P,J1,2*%
%TO.N,/ROW0*%
X130750000Y-133375000D03*
%TO.P,J1,3*%
%TO.N,/ROW1*%
X130250000Y-133375000D03*
%TO.P,J1,4*%
%TO.N,/ROW2*%
X129750000Y-133375000D03*
%TO.P,J1,5*%
%TO.N,/ROW3*%
X129250000Y-133375000D03*
%TO.P,J1,6*%
%TO.N,/ROW4*%
X128750000Y-133375000D03*
%TO.P,J1,7*%
%TO.N,/COL0*%
X128250000Y-133375000D03*
%TO.P,J1,8*%
%TO.N,/COL1*%
X127750000Y-133375000D03*
%TO.P,J1,9*%
%TO.N,/COL2*%
X127250000Y-133375000D03*
%TO.P,J1,10*%
%TO.N,/COL3*%
X126750000Y-133375000D03*
%TO.P,J1,11*%
%TO.N,/COL4*%
X126250000Y-133375000D03*
%TO.P,J1,12*%
%TO.N,/BL_EN*%
X125750000Y-133375000D03*
%TO.P,J1,13*%
%TO.N,/LED_PWR*%
X125250000Y-133375000D03*
%TO.P,J1,14*%
%TO.N,GND*%
X124750000Y-133375000D03*
D14*
%TO.P,J1,MP*%
X133150000Y-136625000D03*
X122850000Y-136625000D03*
%TD*%
D15*
%TO.P,JP1,1*%
%TO.N,/VBUS*%
X141150000Y-144000000D03*
%TO.P,JP1,2*%
%TO.N,/LED_PWR*%
X139850000Y-144000000D03*
%TD*%
D16*
%TO.N,/BL_EN*%
X130000000Y-135250000D03*
X125500000Y-130750000D03*
X139500000Y-157750000D03*
X142750000Y-154750000D03*
X137250000Y-126000000D03*
%TO.N,/COL0*%
X118750000Y-149500000D03*
X129250000Y-139500000D03*
X107500000Y-157000000D03*
X113500000Y-147500000D03*
X107500000Y-128500000D03*
X113500000Y-129250000D03*
X107500000Y-148250000D03*
X128000000Y-140750000D03*
X113500000Y-138750000D03*
X107500000Y-109500000D03*
%TO.N,/COL1*%
X132250000Y-156000000D03*
X121250000Y-147750000D03*
X125500000Y-114500000D03*
X127000000Y-138750000D03*
X124750000Y-129000000D03*
X124750000Y-147250000D03*
X132000000Y-145000000D03*
X122500000Y-149000000D03*
X118750000Y-146500000D03*
X116250000Y-144000000D03*
X126500000Y-127750000D03*
X130250000Y-143500000D03*
X131500000Y-148250000D03*
%TO.N,/COL2*%
X141500000Y-157000000D03*
X147500000Y-138250000D03*
X128500000Y-138000000D03*
X127000000Y-136500000D03*
X147500000Y-129250000D03*
X147500000Y-109500000D03*
X137000000Y-146000000D03*
X141500000Y-148250000D03*
%TO.N,/COL3*%
X116000000Y-124750000D03*
X128750000Y-142750000D03*
X117000000Y-162750000D03*
X126250000Y-140250000D03*
X130250000Y-153750000D03*
X130500000Y-120750000D03*
X126250000Y-156250000D03*
X123750000Y-161250000D03*
X130500000Y-107500000D03*
%TO.N,/COL4*%
X132750000Y-118500000D03*
X135750000Y-121750000D03*
X142250000Y-152750000D03*
X118750000Y-118500000D03*
X132250000Y-140250000D03*
X132750000Y-113500000D03*
X137250000Y-152750000D03*
X125500000Y-136250000D03*
X118750000Y-113250000D03*
%TO.N,/LED_K*%
X138000000Y-134500000D03*
X138500000Y-141250000D03*
%TO.N,/LED_PWR*%
X139500000Y-144750000D03*
X135000000Y-130250000D03*
X117500000Y-162000000D03*
X117500000Y-137000000D03*
X122500000Y-161250000D03*
X134750000Y-138250000D03*
X125250000Y-134500000D03*
X115000000Y-145000000D03*
X138250000Y-155250000D03*
X118500000Y-129750000D03*
X122000000Y-155000000D03*
%TO.N,/ROW0*%
X121500000Y-131750000D03*
X120250000Y-137500000D03*
X133250000Y-129500000D03*
X131000000Y-135250000D03*
X116750000Y-128750000D03*
X135000000Y-128000000D03*
X116750000Y-119750000D03*
%TO.N,/ROW1*%
X149000000Y-137500000D03*
X149750000Y-119750000D03*
X130500000Y-130750000D03*
X132500000Y-134000000D03*
X118250000Y-140500000D03*
X123500000Y-131500000D03*
%TO.N,/ROW2*%
X121750000Y-134750000D03*
X130750000Y-150500000D03*
X132750000Y-150250000D03*
X115750000Y-147750000D03*
X121250000Y-156750000D03*
X134000000Y-153000000D03*
X125250000Y-109750000D03*
X129500000Y-153250000D03*
X119000000Y-136500000D03*
%TO.N,/ROW3*%
X132000000Y-142750000D03*
X134750000Y-144500000D03*
X139250000Y-142000000D03*
X122000000Y-160500000D03*
X135750000Y-123750000D03*
X126500000Y-148250000D03*
%TO.N,/ROW4*%
X123750000Y-153250000D03*
X121250000Y-153250000D03*
X133750000Y-107750000D03*
X130000000Y-140750000D03*
X133000000Y-162000000D03*
X138500000Y-162000000D03*
X125500000Y-146750000D03*
%TO.N,GND*%
X138500000Y-157750000D03*
X118500000Y-126500000D03*
X134000000Y-133500000D03*
X124000000Y-142750000D03*
X140000000Y-135250000D03*
X119750000Y-127750000D03*
X131500000Y-133750000D03*
X142250000Y-154000000D03*
X126250000Y-150750000D03*
X137250000Y-127250000D03*
%TO.N,Net-(D5-A)*%
X125500000Y-149000000D03*
X124250000Y-149750000D03*
%TD*%
%TO.N,/BL_EN*%
D17*
X138000000Y-152250000D02*
X138500000Y-151750000D01*
X140250000Y-133500000D02*
X143500000Y-136750000D01*
X143000000Y-154500000D02*
X142750000Y-154750000D01*
X125500000Y-130750000D02*
X125750000Y-131000000D01*
X139500000Y-157750000D02*
X139250000Y-157500000D01*
X139250000Y-157500000D02*
X139250000Y-157250000D01*
X138500000Y-151750000D02*
X138500000Y-145500000D01*
X143000000Y-154250000D02*
X143000000Y-154500000D01*
X137250000Y-154000000D02*
X137500000Y-154250000D01*
X143500000Y-136750000D02*
X143500000Y-153750000D01*
X138000000Y-153750000D02*
X138000000Y-152250000D01*
X138500000Y-145500000D02*
X135000000Y-142000000D01*
X143500000Y-153750000D02*
X143000000Y-154250000D01*
X125750000Y-133375000D02*
X125750000Y-131000000D01*
X135000000Y-142000000D02*
X135000000Y-141750000D01*
X137750000Y-156000000D02*
X137250000Y-155500000D01*
X139250000Y-157250000D02*
X138000000Y-156000000D01*
X138000000Y-126750000D02*
X138000000Y-130250000D01*
X135000000Y-141750000D02*
X130750000Y-137500000D01*
X137500000Y-154250000D02*
X138000000Y-153750000D01*
X138000000Y-156000000D02*
X137750000Y-156000000D01*
X137250000Y-126000000D02*
X138000000Y-126750000D01*
X138000000Y-130250000D02*
X140250000Y-132500000D01*
X140250000Y-132500000D02*
X140250000Y-133500000D01*
X130750000Y-136000000D02*
X130000000Y-135250000D01*
X130750000Y-137500000D02*
X130750000Y-136000000D01*
%TO.N,/COL0*%
X113500000Y-129250000D02*
X113500000Y-138750000D01*
X129250000Y-137500000D02*
X128250000Y-136500000D01*
X107500000Y-109500000D02*
X107500000Y-128500000D01*
X128000000Y-142500000D02*
X128000000Y-140750000D01*
X129250000Y-139500000D02*
X129250000Y-137500000D01*
X128250000Y-136500000D02*
X128250000Y-134000000D01*
X107500000Y-157000000D02*
X107500000Y-148250000D01*
X113500000Y-138750000D02*
X113500000Y-147500000D01*
X121250000Y-149250000D02*
X128000000Y-142500000D01*
%TO.N,/COL1*%
X126000000Y-116500000D02*
X126000000Y-120000000D01*
X116500000Y-143750000D02*
X116250000Y-144000000D01*
X125500000Y-128750000D02*
X125250000Y-128500000D01*
X120500000Y-134000000D02*
X120500000Y-136000000D01*
X132000000Y-145000000D02*
X130500000Y-143500000D01*
X126500000Y-127750000D02*
X125500000Y-128750000D01*
X132250000Y-156000000D02*
X132250000Y-151750000D01*
X130500000Y-143500000D02*
X130250000Y-143500000D01*
X124750000Y-129000000D02*
X122750000Y-131000000D01*
X120500000Y-136000000D02*
X119500000Y-137000000D01*
X121250000Y-146500000D02*
X127750000Y-140000000D01*
X132000000Y-151500000D02*
X132000000Y-148750000D01*
X119500000Y-137000000D02*
X119500000Y-137250000D01*
X124500000Y-147000000D02*
X122500000Y-149000000D01*
X127000000Y-138750000D02*
X127750000Y-138000000D01*
X124750000Y-147250000D02*
X124500000Y-147000000D01*
X132250000Y-151750000D02*
X132000000Y-151500000D01*
X125500000Y-116000000D02*
X126000000Y-116500000D01*
X125250000Y-128500000D02*
X124750000Y-129000000D01*
X126250000Y-120250000D02*
X126250000Y-127500000D01*
X119500000Y-137250000D02*
X116500000Y-140250000D01*
X126250000Y-127500000D02*
X126500000Y-127750000D01*
X122750000Y-131750000D02*
X120500000Y-134000000D01*
X116500000Y-140250000D02*
X116500000Y-143750000D01*
X125500000Y-114500000D02*
X125500000Y-116000000D01*
X127750000Y-140000000D02*
X127750000Y-134000000D01*
X132000000Y-148750000D02*
X131500000Y-148250000D01*
X126000000Y-120000000D02*
X126250000Y-120250000D01*
X122750000Y-131000000D02*
X122750000Y-131750000D01*
%TO.N,/COL2*%
X127000000Y-136500000D02*
X127250000Y-136250000D01*
X147500000Y-109500000D02*
X147500000Y-129250000D01*
X128500000Y-140250000D02*
X128500000Y-138000000D01*
X147500000Y-129250000D02*
X147500000Y-138250000D01*
X141500000Y-157000000D02*
X141500000Y-148250000D01*
X134750000Y-146500000D02*
X128500000Y-140250000D01*
X127250000Y-136250000D02*
X127250000Y-134000000D01*
X137000000Y-146000000D02*
X137000000Y-146500000D01*
%TO.N,/COL3*%
X126250000Y-136000000D02*
X126750000Y-135500000D01*
X114500000Y-148750000D02*
X115000000Y-149250000D01*
X130250000Y-153750000D02*
X130250000Y-152250000D01*
X116750000Y-160750000D02*
X116750000Y-162500000D01*
X115000000Y-138750000D02*
X115000000Y-142000000D01*
X126750000Y-135500000D02*
X126750000Y-134000000D01*
X116000000Y-137750000D02*
X115000000Y-138750000D01*
X126250000Y-158750000D02*
X126250000Y-156250000D01*
X114500000Y-142750000D02*
X114250000Y-143000000D01*
X114250000Y-145500000D02*
X114500000Y-145750000D01*
X116000000Y-155750000D02*
X116000000Y-160000000D01*
X130250000Y-152250000D02*
X131500000Y-151000000D01*
X116750000Y-162500000D02*
X117000000Y-162750000D01*
X115000000Y-142000000D02*
X114500000Y-142500000D01*
X116000000Y-124750000D02*
X116000000Y-137750000D01*
X126250000Y-140250000D02*
X126250000Y-136000000D01*
X128750000Y-143250000D02*
X128750000Y-142750000D01*
X134750000Y-149250000D02*
X128750000Y-143250000D01*
X123750000Y-161250000D02*
X126250000Y-158750000D01*
X114500000Y-142500000D02*
X114500000Y-142750000D01*
X115000000Y-149250000D02*
X115000000Y-154750000D01*
X130750000Y-148750000D02*
X130750000Y-147750000D01*
X131500000Y-151000000D02*
X131500000Y-149500000D01*
X130750000Y-147750000D02*
X132000000Y-146500000D01*
X130500000Y-107500000D02*
X130500000Y-120750000D01*
X115000000Y-154750000D02*
X116000000Y-155750000D01*
X131500000Y-149500000D02*
X130750000Y-148750000D01*
X116000000Y-160000000D02*
X116750000Y-160750000D01*
X114250000Y-143000000D02*
X114250000Y-145500000D01*
X114500000Y-145750000D02*
X114500000Y-148750000D01*
%TO.N,/COL4*%
X135750000Y-122500000D02*
X136500000Y-123250000D01*
X138000000Y-151250000D02*
X138000000Y-146000000D01*
X136500000Y-130750000D02*
X139250000Y-133500000D01*
X118750000Y-118500000D02*
X118750000Y-113250000D01*
X137500000Y-151750000D02*
X138000000Y-151250000D01*
X126250000Y-135000000D02*
X126250000Y-134000000D01*
X142000000Y-142750000D02*
X142000000Y-147500000D01*
X139750000Y-140250000D02*
X139750000Y-140500000D01*
X142250000Y-147750000D02*
X142250000Y-152750000D01*
X125750000Y-136000000D02*
X125750000Y-135500000D01*
X125750000Y-135500000D02*
X126250000Y-135000000D01*
X135750000Y-121750000D02*
X135750000Y-122500000D01*
X139750000Y-140500000D02*
X142000000Y-142750000D01*
X139250000Y-139750000D02*
X139750000Y-140250000D01*
X139250000Y-133500000D02*
X139250000Y-139750000D01*
X137250000Y-151500000D02*
X137500000Y-151750000D01*
X125500000Y-136250000D02*
X125750000Y-136000000D01*
X136500000Y-123250000D02*
X136500000Y-130750000D01*
X142000000Y-147500000D02*
X142250000Y-147750000D01*
X138000000Y-146000000D02*
X132250000Y-140250000D01*
X132750000Y-113500000D02*
X132750000Y-118500000D01*
%TO.N,/LED_K*%
X138000000Y-140750000D02*
X138500000Y-141250000D01*
X138000000Y-134500000D02*
X138000000Y-140750000D01*
%TO.N,/LED_PWR*%
X115000000Y-145000000D02*
X115000000Y-143000000D01*
X134750000Y-131500000D02*
X134750000Y-138250000D01*
X116500000Y-159500000D02*
X116500000Y-155250000D01*
X117500000Y-137000000D02*
X118250000Y-136250000D01*
X122750000Y-160000000D02*
X122750000Y-161000000D01*
X138250000Y-155250000D02*
X138250000Y-154500000D01*
X122000000Y-155250000D02*
X122500000Y-155750000D01*
X135000000Y-130250000D02*
X135000000Y-131250000D01*
X118250000Y-136250000D02*
X118250000Y-136000000D01*
X118250000Y-136000000D02*
X118500000Y-135750000D01*
X139000000Y-145250000D02*
X139500000Y-144750000D01*
X125250000Y-134500000D02*
X125250000Y-134000000D01*
X115500000Y-139250000D02*
X117500000Y-137250000D01*
X122500000Y-159750000D02*
X122750000Y-160000000D01*
X115500000Y-154250000D02*
X115500000Y-148750000D01*
X134750000Y-138500000D02*
X134750000Y-138250000D01*
X118500000Y-135750000D02*
X118500000Y-129750000D01*
X139000000Y-152250000D02*
X139000000Y-145250000D01*
X138500000Y-154250000D02*
X138500000Y-152750000D01*
X115000000Y-143000000D02*
X115500000Y-142500000D01*
X115500000Y-148750000D02*
X115000000Y-148250000D01*
X138500000Y-152750000D02*
X139000000Y-152250000D01*
X122500000Y-155750000D02*
X122500000Y-159750000D01*
X117500000Y-137250000D02*
X117500000Y-137000000D01*
X139500000Y-143250000D02*
X134750000Y-138500000D01*
X122750000Y-161000000D02*
X122500000Y-161250000D01*
X115500000Y-142500000D02*
X115500000Y-139250000D01*
X116500000Y-155250000D02*
X115500000Y-154250000D01*
X122000000Y-155000000D02*
X122000000Y-155250000D01*
X117500000Y-160500000D02*
X116500000Y-159500000D01*
X135000000Y-131250000D02*
X134750000Y-131500000D01*
X115000000Y-148250000D02*
X115000000Y-145000000D01*
X117500000Y-162000000D02*
X117500000Y-160500000D01*
X138250000Y-154500000D02*
X138500000Y-154250000D01*
%TO.N,/ROW0*%
X118000000Y-160000000D02*
X117000000Y-159000000D01*
X118000000Y-161500000D02*
X118000000Y-160000000D01*
X116750000Y-119750000D02*
X116750000Y-128750000D01*
X118500000Y-161500000D02*
X118250000Y-161750000D01*
X118500000Y-129000000D02*
X118750000Y-128750000D01*
X130750000Y-135000000D02*
X130750000Y-134000000D01*
X117000000Y-129000000D02*
X117250000Y-128750000D01*
X117250000Y-128750000D02*
X117500000Y-129000000D01*
X118000000Y-129000000D02*
X118250000Y-128750000D01*
X131750000Y-134500000D02*
X131000000Y-135250000D01*
X117500000Y-129000000D02*
X117750000Y-128750000D01*
X132750000Y-135000000D02*
X132500000Y-134750000D01*
X131000000Y-135250000D02*
X130750000Y-135000000D01*
X118250000Y-161750000D02*
X118000000Y-161500000D01*
X118250000Y-128750000D02*
X118500000Y-129000000D01*
X117750000Y-128750000D02*
X118000000Y-129000000D01*
X119250000Y-129500000D02*
X121500000Y-131750000D01*
X133250000Y-129500000D02*
X133250000Y-134500000D01*
X132500000Y-134750000D02*
X132250000Y-135000000D01*
X118750000Y-128750000D02*
X119250000Y-129250000D01*
X116750000Y-128750000D02*
X117000000Y-129000000D01*
X117000000Y-159000000D02*
X117000000Y-140750000D01*
X132250000Y-135000000D02*
X131750000Y-134500000D01*
X117000000Y-140750000D02*
X120250000Y-137500000D01*
X118750000Y-161750000D02*
X118500000Y-161500000D01*
X133250000Y-134500000D02*
X132750000Y-135000000D01*
X135000000Y-128000000D02*
X133250000Y-129750000D01*
X119250000Y-129250000D02*
X119250000Y-129500000D01*
%TO.N,/ROW1*%
X131750000Y-132250000D02*
X131750000Y-131500000D01*
X117500000Y-156750000D02*
X117500000Y-141250000D01*
X117500000Y-141250000D02*
X121000000Y-137750000D01*
X118750000Y-159500000D02*
X118000000Y-158750000D01*
X121000000Y-134500000D02*
X123500000Y-132000000D01*
X118000000Y-158750000D02*
X118000000Y-157250000D01*
X149750000Y-136750000D02*
X149000000Y-137500000D01*
X130250000Y-133375000D02*
X130250000Y-131000000D01*
X131750000Y-131500000D02*
X130750000Y-130500000D01*
X130500000Y-130750000D02*
X130250000Y-131000000D01*
X132500000Y-134000000D02*
X132500000Y-133000000D01*
X118000000Y-157250000D02*
X117500000Y-156750000D01*
X149750000Y-119750000D02*
X149750000Y-136750000D01*
X130750000Y-130500000D02*
X130500000Y-130750000D01*
X121000000Y-137750000D02*
X121000000Y-134500000D01*
X123500000Y-132000000D02*
X123500000Y-131500000D01*
X132500000Y-133000000D02*
X131750000Y-132250000D01*
%TO.N,/ROW2*%
X129750000Y-133375000D02*
X129750000Y-130500000D01*
X127500000Y-128500000D02*
X127750000Y-128250000D01*
X115500000Y-143500000D02*
X116000000Y-143000000D01*
X121500000Y-138250000D02*
X121500000Y-135000000D01*
X118750000Y-157000000D02*
X118000000Y-156250000D01*
X118000000Y-137750000D02*
X118000000Y-137500000D01*
X126500000Y-119500000D02*
X126750000Y-119750000D01*
X115750000Y-144750000D02*
X115500000Y-144500000D01*
X116000000Y-143000000D02*
X116000000Y-139750000D01*
X126750000Y-119750000D02*
X126750000Y-126750000D01*
X125250000Y-129750000D02*
X125500000Y-130000000D01*
X128000000Y-128500000D02*
X128250000Y-128250000D01*
X126250000Y-114000000D02*
X126250000Y-115750000D01*
X124750000Y-130250000D02*
X125250000Y-129750000D01*
X125250000Y-109750000D02*
X125250000Y-113000000D01*
X129750000Y-129500000D02*
X129750000Y-130500000D01*
X125250000Y-113000000D02*
X126250000Y-114000000D01*
X125500000Y-130000000D02*
X127250000Y-128250000D01*
X115500000Y-144500000D02*
X115500000Y-143500000D01*
X128750000Y-128500000D02*
X129750000Y-129500000D01*
X124250000Y-131500000D02*
X124750000Y-131000000D01*
X129750000Y-151500000D02*
X129750000Y-153000000D01*
X129750000Y-153000000D02*
X129500000Y-153250000D01*
X127250000Y-127250000D02*
X127250000Y-128250000D01*
X126250000Y-115750000D02*
X126500000Y-116000000D01*
X124750000Y-131000000D02*
X124750000Y-130250000D01*
X126500000Y-116000000D02*
X126500000Y-119500000D01*
X115750000Y-147750000D02*
X115750000Y-144750000D01*
X127750000Y-128250000D02*
X128000000Y-128500000D01*
X118000000Y-141750000D02*
X121500000Y-138250000D01*
X124250000Y-132250000D02*
X124250000Y-131500000D01*
X118000000Y-156250000D02*
X118000000Y-141750000D01*
X128250000Y-128250000D02*
X128500000Y-128500000D01*
X118000000Y-137500000D02*
X119000000Y-136500000D01*
X133750000Y-151250000D02*
X132750000Y-150250000D01*
X127250000Y-128250000D02*
X127500000Y-128500000D01*
X121500000Y-135000000D02*
X124250000Y-132250000D01*
X133750000Y-152750000D02*
X133750000Y-151250000D01*
X128500000Y-128500000D02*
X128750000Y-128500000D01*
X116000000Y-139750000D02*
X118000000Y-137750000D01*
X130750000Y-150500000D02*
X129750000Y-151500000D01*
X134000000Y-153000000D02*
X133750000Y-152750000D01*
X126750000Y-126750000D02*
X127250000Y-127250000D01*
%TO.N,/ROW3*%
X135750000Y-123750000D02*
X135750000Y-131000000D01*
X126500000Y-149000000D02*
X126500000Y-148250000D01*
X130750000Y-140250000D02*
X130500000Y-140000000D01*
X135750000Y-131000000D02*
X138750000Y-134000000D01*
X130250000Y-136500000D02*
X129250000Y-135500000D01*
X122000000Y-156250000D02*
X121250000Y-155500000D01*
X121250000Y-154250000D02*
X126500000Y-149000000D01*
X138750000Y-140250000D02*
X139250000Y-140750000D01*
X130500000Y-140000000D02*
X130500000Y-138500000D01*
X134750000Y-144500000D02*
X132500000Y-142250000D01*
X132000000Y-142750000D02*
X130750000Y-141500000D01*
X130500000Y-138500000D02*
X130250000Y-138250000D01*
X130250000Y-138250000D02*
X130250000Y-136500000D01*
X130750000Y-141500000D02*
X130750000Y-140250000D01*
X129250000Y-135500000D02*
X129250000Y-134000000D01*
X122000000Y-160500000D02*
X122000000Y-156250000D01*
X139250000Y-140750000D02*
X139250000Y-142000000D01*
X132500000Y-142250000D02*
X132000000Y-142750000D01*
X138750000Y-134000000D02*
X138750000Y-140250000D01*
%TO.N,/ROW4*%
X144000000Y-154250000D02*
X143500000Y-154750000D01*
X133750000Y-109250000D02*
X134250000Y-109750000D01*
X130000000Y-139000000D02*
X129750000Y-138750000D01*
X133000000Y-162000000D02*
X124000000Y-153000000D01*
X121250000Y-151750000D02*
X125500000Y-147500000D01*
X134500000Y-119250000D02*
X136500000Y-121250000D01*
X134250000Y-113250000D02*
X134500000Y-113500000D01*
X134250000Y-109750000D02*
X134250000Y-113250000D01*
X134500000Y-113500000D02*
X134500000Y-119250000D01*
X142250000Y-157500000D02*
X140750000Y-159000000D01*
X124000000Y-153000000D02*
X123750000Y-153250000D01*
X140750000Y-159000000D02*
X140750000Y-159750000D01*
X129750000Y-137000000D02*
X128750000Y-136000000D01*
X137000000Y-124500000D02*
X144000000Y-131500000D01*
X125500000Y-147500000D02*
X125500000Y-146750000D01*
X137000000Y-122750000D02*
X137000000Y-124500000D01*
X133750000Y-107750000D02*
X133750000Y-109250000D01*
X130000000Y-140750000D02*
X130000000Y-139000000D01*
X142250000Y-156500000D02*
X142250000Y-157500000D01*
X128750000Y-136000000D02*
X128750000Y-134000000D01*
X143500000Y-155250000D02*
X142250000Y-156500000D01*
X140750000Y-159750000D02*
X138500000Y-162000000D01*
X144000000Y-131500000D02*
X144000000Y-154250000D01*
X143500000Y-154750000D02*
X143500000Y-155250000D01*
X129750000Y-138750000D02*
X129750000Y-137000000D01*
X136500000Y-122250000D02*
X137000000Y-122750000D01*
X136500000Y-121250000D02*
X136500000Y-122250000D01*
%TO.N,/VBUS*%
X140250000Y-148000000D02*
X140750000Y-147500000D01*
X140750000Y-147500000D02*
X140750000Y-144750000D01*
X137750000Y-161500000D02*
X138000000Y-161500000D01*
X138000000Y-161500000D02*
X140250000Y-159250000D01*
X140250000Y-159250000D02*
X140250000Y-148000000D01*
X137250000Y-162000000D02*
X137750000Y-161500000D01*
%TO.N,GND*%
X140000000Y-135250000D02*
X139750000Y-135000000D01*
X139750000Y-133000000D02*
X139750000Y-137500000D01*
X138000000Y-158250000D02*
X138000000Y-158750000D01*
X131250000Y-133500000D02*
X131500000Y-133750000D01*
X118500000Y-126500000D02*
X119750000Y-127750000D01*
X143000000Y-152250000D02*
X143000000Y-153250000D01*
X143000000Y-153250000D02*
X142250000Y-154000000D01*
X123750000Y-135750000D02*
X124500000Y-135000000D01*
X124500000Y-134000000D02*
X124750000Y-133750000D01*
X138500000Y-157750000D02*
X138000000Y-158250000D01*
X134750000Y-159500000D02*
X126250000Y-151000000D01*
X126250000Y-151000000D02*
X126250000Y-150750000D01*
X142500000Y-147000000D02*
X142750000Y-147250000D01*
X142750000Y-152000000D02*
X143000000Y-152250000D01*
X139750000Y-137500000D02*
X142500000Y-140250000D01*
X137250000Y-130500000D02*
X139750000Y-133000000D01*
X142500000Y-140250000D02*
X142500000Y-147000000D01*
X142750000Y-147250000D02*
X142750000Y-152000000D01*
X134000000Y-135750000D02*
X134000000Y-133500000D01*
X138000000Y-158750000D02*
X137250000Y-159500000D01*
X124500000Y-142250000D02*
X124500000Y-134000000D01*
X124000000Y-142750000D02*
X124500000Y-142250000D01*
X137250000Y-127250000D02*
X137250000Y-130500000D01*
%TO.N,Net-(D5-A)*%
X124250000Y-149750000D02*
X125250000Y-148750000D01*
X125250000Y-148750000D02*
X125500000Y-149000000D01*
%TD*%
M02*
