%TF.GenerationSoftware,KiCad,Pcbnew,10.0.6*%
%TF.CreationDate,2026-09-27T19:27:52+03:00*%
%TF.ProjectId,keyboard_prototype,6b657962-6f61-4726-945f-70726f746f74,rev?*%
%TF.SameCoordinates,Original*%
%TF.FileFunction,Legend,Bot*%
%TF.FilePolarity,Positive*%
%FSLAX46Y46*%
G04 Gerber Fmt 4.6, Leading zero omitted, Abs format (unit mm)*
G04 Created by KiCad (PCBNEW 10.0.6) date 2026-09-27 19:27:52*
%MOMM*%
%LPD*%
G01*
G04 APERTURE LIST*
G04 Aperture macros list*
%AMRoundRect*
0 Rectangle with rounded corners*
0 $1 Rounding radius*
0 $2 $3 $4 $5 $6 $7 $8 $9 X,Y pos of 4 corners*
0 Add a 4 corners polygon primitive as box body*
4,1,4,$2,$3,$4,$5,$6,$7,$8,$9,$2,$3,0*
0 Add four circle primitives for the rounded corners*
1,1,$1+$1,$2,$3*
1,1,$1+$1,$4,$5*
1,1,$1+$1,$6,$7*
1,1,$1+$1,$8,$9*
0 Add four rect primitives between the rounded corners*
20,1,$1+$1,$2,$3,$4,$5,0*
20,1,$1+$1,$4,$5,$6,$7,0*
20,1,$1+$1,$6,$7,$8,$9,0*
20,1,$1+$1,$8,$9,$2,$3,0*%
G04 Aperture macros list end*
%ADD10C,0.120000*%
%ADD11C,0.135000*%
%ADD12C,0.180000*%
%ADD13C,0.150000*%
%ADD14C,0.100000*%
%ADD15C,0.127000*%
%ADD16C,0.504000*%
%ADD17C,2.200000*%
%ADD18RoundRect,0.550800X-0.875000X-0.500000X0.875000X-0.500000X0.875000X0.500000X-0.875000X0.500000X0*%
%ADD19C,1.700000*%
%ADD20RoundRect,0.275000X0.275000X-0.975000X0.275000X0.975000X-0.275000X0.975000X-0.275000X-0.975000X0*%
%ADD21R,0.300000X1.300000*%
%ADD22R,1.800000X2.200000*%
%ADD23R,1.000000X1.500000*%
G04 APERTURE END LIST*
D10*
X134247620Y-127063855D02*
X134247620Y-127635283D01*
X134247620Y-127635283D02*
X134285715Y-127749569D01*
X134285715Y-127749569D02*
X134361906Y-127825760D01*
X134361906Y-127825760D02*
X134476191Y-127863855D01*
X134476191Y-127863855D02*
X134552382Y-127863855D01*
X133447620Y-127863855D02*
X133904763Y-127863855D01*
X133676191Y-127863855D02*
X133676191Y-127063855D01*
X133676191Y-127063855D02*
X133752382Y-127178140D01*
X133752382Y-127178140D02*
X133828572Y-127254331D01*
X133828572Y-127254331D02*
X133904763Y-127292426D01*
X133104762Y-127787664D02*
X133066667Y-127825760D01*
X133066667Y-127825760D02*
X133104762Y-127863855D01*
X133104762Y-127863855D02*
X133142858Y-127825760D01*
X133142858Y-127825760D02*
X133104762Y-127787664D01*
X133104762Y-127787664D02*
X133104762Y-127863855D01*
X133104762Y-127368617D02*
X133066667Y-127406712D01*
X133066667Y-127406712D02*
X133104762Y-127444807D01*
X133104762Y-127444807D02*
X133142858Y-127406712D01*
X133142858Y-127406712D02*
X133104762Y-127368617D01*
X133104762Y-127368617D02*
X133104762Y-127444807D01*
X131847620Y-127444807D02*
X132114286Y-127444807D01*
X132114286Y-127863855D02*
X132114286Y-127063855D01*
X132114286Y-127063855D02*
X131733334Y-127063855D01*
X131428572Y-127863855D02*
X131428572Y-127063855D01*
X131428572Y-127063855D02*
X131123810Y-127063855D01*
X131123810Y-127063855D02*
X131047620Y-127101950D01*
X131047620Y-127101950D02*
X131009525Y-127140045D01*
X131009525Y-127140045D02*
X130971429Y-127216236D01*
X130971429Y-127216236D02*
X130971429Y-127330521D01*
X130971429Y-127330521D02*
X131009525Y-127406712D01*
X131009525Y-127406712D02*
X131047620Y-127444807D01*
X131047620Y-127444807D02*
X131123810Y-127482902D01*
X131123810Y-127482902D02*
X131428572Y-127482902D01*
X130171429Y-127787664D02*
X130209525Y-127825760D01*
X130209525Y-127825760D02*
X130323810Y-127863855D01*
X130323810Y-127863855D02*
X130400001Y-127863855D01*
X130400001Y-127863855D02*
X130514287Y-127825760D01*
X130514287Y-127825760D02*
X130590477Y-127749569D01*
X130590477Y-127749569D02*
X130628572Y-127673379D01*
X130628572Y-127673379D02*
X130666668Y-127520998D01*
X130666668Y-127520998D02*
X130666668Y-127406712D01*
X130666668Y-127406712D02*
X130628572Y-127254331D01*
X130628572Y-127254331D02*
X130590477Y-127178140D01*
X130590477Y-127178140D02*
X130514287Y-127101950D01*
X130514287Y-127101950D02*
X130400001Y-127063855D01*
X130400001Y-127063855D02*
X130323810Y-127063855D01*
X130323810Y-127063855D02*
X130209525Y-127101950D01*
X130209525Y-127101950D02*
X130171429Y-127140045D01*
X129333334Y-127330521D02*
X129028572Y-127330521D01*
X129219048Y-127063855D02*
X129219048Y-127749569D01*
X129219048Y-127749569D02*
X129180953Y-127825760D01*
X129180953Y-127825760D02*
X129104763Y-127863855D01*
X129104763Y-127863855D02*
X129028572Y-127863855D01*
X128647620Y-127863855D02*
X128723810Y-127825760D01*
X128723810Y-127825760D02*
X128761905Y-127787664D01*
X128761905Y-127787664D02*
X128800001Y-127711474D01*
X128800001Y-127711474D02*
X128800001Y-127482902D01*
X128800001Y-127482902D02*
X128761905Y-127406712D01*
X128761905Y-127406712D02*
X128723810Y-127368617D01*
X128723810Y-127368617D02*
X128647620Y-127330521D01*
X128647620Y-127330521D02*
X128533334Y-127330521D01*
X128533334Y-127330521D02*
X128457143Y-127368617D01*
X128457143Y-127368617D02*
X128419048Y-127406712D01*
X128419048Y-127406712D02*
X128380953Y-127482902D01*
X128380953Y-127482902D02*
X128380953Y-127711474D01*
X128380953Y-127711474D02*
X128419048Y-127787664D01*
X128419048Y-127787664D02*
X128457143Y-127825760D01*
X128457143Y-127825760D02*
X128533334Y-127863855D01*
X128533334Y-127863855D02*
X128647620Y-127863855D01*
X127428571Y-127863855D02*
X127428571Y-127330521D01*
X127428571Y-127406712D02*
X127390476Y-127368617D01*
X127390476Y-127368617D02*
X127314286Y-127330521D01*
X127314286Y-127330521D02*
X127200000Y-127330521D01*
X127200000Y-127330521D02*
X127123809Y-127368617D01*
X127123809Y-127368617D02*
X127085714Y-127444807D01*
X127085714Y-127444807D02*
X127085714Y-127863855D01*
X127085714Y-127444807D02*
X127047619Y-127368617D01*
X127047619Y-127368617D02*
X126971428Y-127330521D01*
X126971428Y-127330521D02*
X126857143Y-127330521D01*
X126857143Y-127330521D02*
X126780952Y-127368617D01*
X126780952Y-127368617D02*
X126742857Y-127444807D01*
X126742857Y-127444807D02*
X126742857Y-127863855D01*
X126019047Y-127863855D02*
X126019047Y-127444807D01*
X126019047Y-127444807D02*
X126057142Y-127368617D01*
X126057142Y-127368617D02*
X126133333Y-127330521D01*
X126133333Y-127330521D02*
X126285714Y-127330521D01*
X126285714Y-127330521D02*
X126361904Y-127368617D01*
X126019047Y-127825760D02*
X126095238Y-127863855D01*
X126095238Y-127863855D02*
X126285714Y-127863855D01*
X126285714Y-127863855D02*
X126361904Y-127825760D01*
X126361904Y-127825760D02*
X126400000Y-127749569D01*
X126400000Y-127749569D02*
X126400000Y-127673379D01*
X126400000Y-127673379D02*
X126361904Y-127597188D01*
X126361904Y-127597188D02*
X126285714Y-127559093D01*
X126285714Y-127559093D02*
X126095238Y-127559093D01*
X126095238Y-127559093D02*
X126019047Y-127520998D01*
X125638094Y-127863855D02*
X125638094Y-127330521D01*
X125638094Y-127063855D02*
X125676190Y-127101950D01*
X125676190Y-127101950D02*
X125638094Y-127140045D01*
X125638094Y-127140045D02*
X125599999Y-127101950D01*
X125599999Y-127101950D02*
X125638094Y-127063855D01*
X125638094Y-127063855D02*
X125638094Y-127140045D01*
X125257142Y-127330521D02*
X125257142Y-127863855D01*
X125257142Y-127406712D02*
X125219047Y-127368617D01*
X125219047Y-127368617D02*
X125142857Y-127330521D01*
X125142857Y-127330521D02*
X125028571Y-127330521D01*
X125028571Y-127330521D02*
X124952380Y-127368617D01*
X124952380Y-127368617D02*
X124914285Y-127444807D01*
X124914285Y-127444807D02*
X124914285Y-127863855D01*
X124533332Y-127863855D02*
X124533332Y-127063855D01*
X124533332Y-127368617D02*
X124457142Y-127330521D01*
X124457142Y-127330521D02*
X124304761Y-127330521D01*
X124304761Y-127330521D02*
X124228570Y-127368617D01*
X124228570Y-127368617D02*
X124190475Y-127406712D01*
X124190475Y-127406712D02*
X124152380Y-127482902D01*
X124152380Y-127482902D02*
X124152380Y-127711474D01*
X124152380Y-127711474D02*
X124190475Y-127787664D01*
X124190475Y-127787664D02*
X124228570Y-127825760D01*
X124228570Y-127825760D02*
X124304761Y-127863855D01*
X124304761Y-127863855D02*
X124457142Y-127863855D01*
X124457142Y-127863855D02*
X124533332Y-127825760D01*
X123695237Y-127863855D02*
X123771427Y-127825760D01*
X123771427Y-127825760D02*
X123809522Y-127787664D01*
X123809522Y-127787664D02*
X123847618Y-127711474D01*
X123847618Y-127711474D02*
X123847618Y-127482902D01*
X123847618Y-127482902D02*
X123809522Y-127406712D01*
X123809522Y-127406712D02*
X123771427Y-127368617D01*
X123771427Y-127368617D02*
X123695237Y-127330521D01*
X123695237Y-127330521D02*
X123580951Y-127330521D01*
X123580951Y-127330521D02*
X123504760Y-127368617D01*
X123504760Y-127368617D02*
X123466665Y-127406712D01*
X123466665Y-127406712D02*
X123428570Y-127482902D01*
X123428570Y-127482902D02*
X123428570Y-127711474D01*
X123428570Y-127711474D02*
X123466665Y-127787664D01*
X123466665Y-127787664D02*
X123504760Y-127825760D01*
X123504760Y-127825760D02*
X123580951Y-127863855D01*
X123580951Y-127863855D02*
X123695237Y-127863855D01*
X122742855Y-127863855D02*
X122742855Y-127444807D01*
X122742855Y-127444807D02*
X122780950Y-127368617D01*
X122780950Y-127368617D02*
X122857141Y-127330521D01*
X122857141Y-127330521D02*
X123009522Y-127330521D01*
X123009522Y-127330521D02*
X123085712Y-127368617D01*
X122742855Y-127825760D02*
X122819046Y-127863855D01*
X122819046Y-127863855D02*
X123009522Y-127863855D01*
X123009522Y-127863855D02*
X123085712Y-127825760D01*
X123085712Y-127825760D02*
X123123808Y-127749569D01*
X123123808Y-127749569D02*
X123123808Y-127673379D01*
X123123808Y-127673379D02*
X123085712Y-127597188D01*
X123085712Y-127597188D02*
X123009522Y-127559093D01*
X123009522Y-127559093D02*
X122819046Y-127559093D01*
X122819046Y-127559093D02*
X122742855Y-127520998D01*
X122361902Y-127863855D02*
X122361902Y-127330521D01*
X122361902Y-127482902D02*
X122323807Y-127406712D01*
X122323807Y-127406712D02*
X122285712Y-127368617D01*
X122285712Y-127368617D02*
X122209521Y-127330521D01*
X122209521Y-127330521D02*
X122133331Y-127330521D01*
X121523807Y-127863855D02*
X121523807Y-127063855D01*
X121523807Y-127825760D02*
X121599998Y-127863855D01*
X121599998Y-127863855D02*
X121752379Y-127863855D01*
X121752379Y-127863855D02*
X121828569Y-127825760D01*
X121828569Y-127825760D02*
X121866664Y-127787664D01*
X121866664Y-127787664D02*
X121904760Y-127711474D01*
X121904760Y-127711474D02*
X121904760Y-127482902D01*
X121904760Y-127482902D02*
X121866664Y-127406712D01*
X121866664Y-127406712D02*
X121828569Y-127368617D01*
X121828569Y-127368617D02*
X121752379Y-127330521D01*
X121752379Y-127330521D02*
X121599998Y-127330521D01*
X121599998Y-127330521D02*
X121523807Y-127368617D01*
X142404761Y-162563855D02*
X142404761Y-163211474D01*
X142404761Y-163211474D02*
X142366666Y-163287664D01*
X142366666Y-163287664D02*
X142328571Y-163325760D01*
X142328571Y-163325760D02*
X142252380Y-163363855D01*
X142252380Y-163363855D02*
X142099999Y-163363855D01*
X142099999Y-163363855D02*
X142023809Y-163325760D01*
X142023809Y-163325760D02*
X141985714Y-163287664D01*
X141985714Y-163287664D02*
X141947618Y-163211474D01*
X141947618Y-163211474D02*
X141947618Y-162563855D01*
X141604762Y-163325760D02*
X141490476Y-163363855D01*
X141490476Y-163363855D02*
X141300000Y-163363855D01*
X141300000Y-163363855D02*
X141223809Y-163325760D01*
X141223809Y-163325760D02*
X141185714Y-163287664D01*
X141185714Y-163287664D02*
X141147619Y-163211474D01*
X141147619Y-163211474D02*
X141147619Y-163135283D01*
X141147619Y-163135283D02*
X141185714Y-163059093D01*
X141185714Y-163059093D02*
X141223809Y-163020998D01*
X141223809Y-163020998D02*
X141300000Y-162982902D01*
X141300000Y-162982902D02*
X141452381Y-162944807D01*
X141452381Y-162944807D02*
X141528571Y-162906712D01*
X141528571Y-162906712D02*
X141566666Y-162868617D01*
X141566666Y-162868617D02*
X141604762Y-162792426D01*
X141604762Y-162792426D02*
X141604762Y-162716236D01*
X141604762Y-162716236D02*
X141566666Y-162640045D01*
X141566666Y-162640045D02*
X141528571Y-162601950D01*
X141528571Y-162601950D02*
X141452381Y-162563855D01*
X141452381Y-162563855D02*
X141261904Y-162563855D01*
X141261904Y-162563855D02*
X141147619Y-162601950D01*
X140538095Y-162944807D02*
X140423809Y-162982902D01*
X140423809Y-162982902D02*
X140385714Y-163020998D01*
X140385714Y-163020998D02*
X140347618Y-163097188D01*
X140347618Y-163097188D02*
X140347618Y-163211474D01*
X140347618Y-163211474D02*
X140385714Y-163287664D01*
X140385714Y-163287664D02*
X140423809Y-163325760D01*
X140423809Y-163325760D02*
X140499999Y-163363855D01*
X140499999Y-163363855D02*
X140804761Y-163363855D01*
X140804761Y-163363855D02*
X140804761Y-162563855D01*
X140804761Y-162563855D02*
X140538095Y-162563855D01*
X140538095Y-162563855D02*
X140461904Y-162601950D01*
X140461904Y-162601950D02*
X140423809Y-162640045D01*
X140423809Y-162640045D02*
X140385714Y-162716236D01*
X140385714Y-162716236D02*
X140385714Y-162792426D01*
X140385714Y-162792426D02*
X140423809Y-162868617D01*
X140423809Y-162868617D02*
X140461904Y-162906712D01*
X140461904Y-162906712D02*
X140538095Y-162944807D01*
X140538095Y-162944807D02*
X140804761Y-162944807D01*
X140004761Y-163059093D02*
X139395238Y-163059093D01*
X138557142Y-163287664D02*
X138595238Y-163325760D01*
X138595238Y-163325760D02*
X138709523Y-163363855D01*
X138709523Y-163363855D02*
X138785714Y-163363855D01*
X138785714Y-163363855D02*
X138900000Y-163325760D01*
X138900000Y-163325760D02*
X138976190Y-163249569D01*
X138976190Y-163249569D02*
X139014285Y-163173379D01*
X139014285Y-163173379D02*
X139052381Y-163020998D01*
X139052381Y-163020998D02*
X139052381Y-162906712D01*
X139052381Y-162906712D02*
X139014285Y-162754331D01*
X139014285Y-162754331D02*
X138976190Y-162678140D01*
X138976190Y-162678140D02*
X138900000Y-162601950D01*
X138900000Y-162601950D02*
X138785714Y-162563855D01*
X138785714Y-162563855D02*
X138709523Y-162563855D01*
X138709523Y-162563855D02*
X138595238Y-162601950D01*
X138595238Y-162601950D02*
X138557142Y-162640045D01*
X150609525Y-140563855D02*
X150609525Y-141135283D01*
X150609525Y-141135283D02*
X150647620Y-141249569D01*
X150647620Y-141249569D02*
X150723811Y-141325760D01*
X150723811Y-141325760D02*
X150838096Y-141363855D01*
X150838096Y-141363855D02*
X150914287Y-141363855D01*
X150228572Y-141363855D02*
X150228572Y-140563855D01*
X150228572Y-140563855D02*
X149923810Y-140563855D01*
X149923810Y-140563855D02*
X149847620Y-140601950D01*
X149847620Y-140601950D02*
X149809525Y-140640045D01*
X149809525Y-140640045D02*
X149771429Y-140716236D01*
X149771429Y-140716236D02*
X149771429Y-140830521D01*
X149771429Y-140830521D02*
X149809525Y-140906712D01*
X149809525Y-140906712D02*
X149847620Y-140944807D01*
X149847620Y-140944807D02*
X149923810Y-140982902D01*
X149923810Y-140982902D02*
X150228572Y-140982902D01*
X149009525Y-141363855D02*
X149466668Y-141363855D01*
X149238096Y-141363855D02*
X149238096Y-140563855D01*
X149238096Y-140563855D02*
X149314287Y-140678140D01*
X149314287Y-140678140D02*
X149390477Y-140754331D01*
X149390477Y-140754331D02*
X149466668Y-140792426D01*
X147714286Y-141325760D02*
X147790477Y-141363855D01*
X147790477Y-141363855D02*
X147942858Y-141363855D01*
X147942858Y-141363855D02*
X148019048Y-141325760D01*
X148019048Y-141325760D02*
X148057143Y-141287664D01*
X148057143Y-141287664D02*
X148095239Y-141211474D01*
X148095239Y-141211474D02*
X148095239Y-140982902D01*
X148095239Y-140982902D02*
X148057143Y-140906712D01*
X148057143Y-140906712D02*
X148019048Y-140868617D01*
X148019048Y-140868617D02*
X147942858Y-140830521D01*
X147942858Y-140830521D02*
X147790477Y-140830521D01*
X147790477Y-140830521D02*
X147714286Y-140868617D01*
X147257144Y-141363855D02*
X147333334Y-141325760D01*
X147333334Y-141325760D02*
X147371429Y-141249569D01*
X147371429Y-141249569D02*
X147371429Y-140563855D01*
X146838096Y-141363855D02*
X146914286Y-141325760D01*
X146914286Y-141325760D02*
X146952381Y-141287664D01*
X146952381Y-141287664D02*
X146990477Y-141211474D01*
X146990477Y-141211474D02*
X146990477Y-140982902D01*
X146990477Y-140982902D02*
X146952381Y-140906712D01*
X146952381Y-140906712D02*
X146914286Y-140868617D01*
X146914286Y-140868617D02*
X146838096Y-140830521D01*
X146838096Y-140830521D02*
X146723810Y-140830521D01*
X146723810Y-140830521D02*
X146647619Y-140868617D01*
X146647619Y-140868617D02*
X146609524Y-140906712D01*
X146609524Y-140906712D02*
X146571429Y-140982902D01*
X146571429Y-140982902D02*
X146571429Y-141211474D01*
X146571429Y-141211474D02*
X146609524Y-141287664D01*
X146609524Y-141287664D02*
X146647619Y-141325760D01*
X146647619Y-141325760D02*
X146723810Y-141363855D01*
X146723810Y-141363855D02*
X146838096Y-141363855D01*
X146266667Y-141325760D02*
X146190476Y-141363855D01*
X146190476Y-141363855D02*
X146038095Y-141363855D01*
X146038095Y-141363855D02*
X145961905Y-141325760D01*
X145961905Y-141325760D02*
X145923809Y-141249569D01*
X145923809Y-141249569D02*
X145923809Y-141211474D01*
X145923809Y-141211474D02*
X145961905Y-141135283D01*
X145961905Y-141135283D02*
X146038095Y-141097188D01*
X146038095Y-141097188D02*
X146152381Y-141097188D01*
X146152381Y-141097188D02*
X146228571Y-141059093D01*
X146228571Y-141059093D02*
X146266667Y-140982902D01*
X146266667Y-140982902D02*
X146266667Y-140944807D01*
X146266667Y-140944807D02*
X146228571Y-140868617D01*
X146228571Y-140868617D02*
X146152381Y-140830521D01*
X146152381Y-140830521D02*
X146038095Y-140830521D01*
X146038095Y-140830521D02*
X145961905Y-140868617D01*
X145276190Y-141325760D02*
X145352381Y-141363855D01*
X145352381Y-141363855D02*
X145504762Y-141363855D01*
X145504762Y-141363855D02*
X145580952Y-141325760D01*
X145580952Y-141325760D02*
X145619048Y-141249569D01*
X145619048Y-141249569D02*
X145619048Y-140944807D01*
X145619048Y-140944807D02*
X145580952Y-140868617D01*
X145580952Y-140868617D02*
X145504762Y-140830521D01*
X145504762Y-140830521D02*
X145352381Y-140830521D01*
X145352381Y-140830521D02*
X145276190Y-140868617D01*
X145276190Y-140868617D02*
X145238095Y-140944807D01*
X145238095Y-140944807D02*
X145238095Y-141020998D01*
X145238095Y-141020998D02*
X145619048Y-141097188D01*
X144552381Y-141363855D02*
X144552381Y-140563855D01*
X144552381Y-141325760D02*
X144628572Y-141363855D01*
X144628572Y-141363855D02*
X144780953Y-141363855D01*
X144780953Y-141363855D02*
X144857143Y-141325760D01*
X144857143Y-141325760D02*
X144895238Y-141287664D01*
X144895238Y-141287664D02*
X144933334Y-141211474D01*
X144933334Y-141211474D02*
X144933334Y-140982902D01*
X144933334Y-140982902D02*
X144895238Y-140906712D01*
X144895238Y-140906712D02*
X144857143Y-140868617D01*
X144857143Y-140868617D02*
X144780953Y-140830521D01*
X144780953Y-140830521D02*
X144628572Y-140830521D01*
X144628572Y-140830521D02*
X144552381Y-140868617D01*
X143561904Y-140944807D02*
X142952381Y-140944807D01*
X142952381Y-141173379D02*
X143561904Y-141173379D01*
X141580952Y-141363855D02*
X141961904Y-141363855D01*
X141961904Y-141363855D02*
X141961904Y-140563855D01*
X141314285Y-140944807D02*
X141047619Y-140944807D01*
X140933333Y-141363855D02*
X141314285Y-141363855D01*
X141314285Y-141363855D02*
X141314285Y-140563855D01*
X141314285Y-140563855D02*
X140933333Y-140563855D01*
X140590475Y-141363855D02*
X140590475Y-140563855D01*
X140590475Y-140563855D02*
X140399999Y-140563855D01*
X140399999Y-140563855D02*
X140285713Y-140601950D01*
X140285713Y-140601950D02*
X140209523Y-140678140D01*
X140209523Y-140678140D02*
X140171428Y-140754331D01*
X140171428Y-140754331D02*
X140133332Y-140906712D01*
X140133332Y-140906712D02*
X140133332Y-141020998D01*
X140133332Y-141020998D02*
X140171428Y-141173379D01*
X140171428Y-141173379D02*
X140209523Y-141249569D01*
X140209523Y-141249569D02*
X140285713Y-141325760D01*
X140285713Y-141325760D02*
X140399999Y-141363855D01*
X140399999Y-141363855D02*
X140590475Y-141363855D01*
X139828571Y-141325760D02*
X139752380Y-141363855D01*
X139752380Y-141363855D02*
X139599999Y-141363855D01*
X139599999Y-141363855D02*
X139523809Y-141325760D01*
X139523809Y-141325760D02*
X139485713Y-141249569D01*
X139485713Y-141249569D02*
X139485713Y-141211474D01*
X139485713Y-141211474D02*
X139523809Y-141135283D01*
X139523809Y-141135283D02*
X139599999Y-141097188D01*
X139599999Y-141097188D02*
X139714285Y-141097188D01*
X139714285Y-141097188D02*
X139790475Y-141059093D01*
X139790475Y-141059093D02*
X139828571Y-140982902D01*
X139828571Y-140982902D02*
X139828571Y-140944807D01*
X139828571Y-140944807D02*
X139790475Y-140868617D01*
X139790475Y-140868617D02*
X139714285Y-140830521D01*
X139714285Y-140830521D02*
X139599999Y-140830521D01*
X139599999Y-140830521D02*
X139523809Y-140868617D01*
X138647618Y-140830521D02*
X138342856Y-140830521D01*
X138533332Y-141363855D02*
X138533332Y-140678140D01*
X138533332Y-140678140D02*
X138495237Y-140601950D01*
X138495237Y-140601950D02*
X138419047Y-140563855D01*
X138419047Y-140563855D02*
X138342856Y-140563855D01*
X138076189Y-141363855D02*
X138076189Y-140830521D01*
X138076189Y-140982902D02*
X138038094Y-140906712D01*
X138038094Y-140906712D02*
X137999999Y-140868617D01*
X137999999Y-140868617D02*
X137923808Y-140830521D01*
X137923808Y-140830521D02*
X137847618Y-140830521D01*
X137466666Y-141363855D02*
X137542856Y-141325760D01*
X137542856Y-141325760D02*
X137580951Y-141287664D01*
X137580951Y-141287664D02*
X137619047Y-141211474D01*
X137619047Y-141211474D02*
X137619047Y-140982902D01*
X137619047Y-140982902D02*
X137580951Y-140906712D01*
X137580951Y-140906712D02*
X137542856Y-140868617D01*
X137542856Y-140868617D02*
X137466666Y-140830521D01*
X137466666Y-140830521D02*
X137352380Y-140830521D01*
X137352380Y-140830521D02*
X137276189Y-140868617D01*
X137276189Y-140868617D02*
X137238094Y-140906712D01*
X137238094Y-140906712D02*
X137199999Y-140982902D01*
X137199999Y-140982902D02*
X137199999Y-141211474D01*
X137199999Y-141211474D02*
X137238094Y-141287664D01*
X137238094Y-141287664D02*
X137276189Y-141325760D01*
X137276189Y-141325760D02*
X137352380Y-141363855D01*
X137352380Y-141363855D02*
X137466666Y-141363855D01*
X136857141Y-141363855D02*
X136857141Y-140830521D01*
X136857141Y-140906712D02*
X136819046Y-140868617D01*
X136819046Y-140868617D02*
X136742856Y-140830521D01*
X136742856Y-140830521D02*
X136628570Y-140830521D01*
X136628570Y-140830521D02*
X136552379Y-140868617D01*
X136552379Y-140868617D02*
X136514284Y-140944807D01*
X136514284Y-140944807D02*
X136514284Y-141363855D01*
X136514284Y-140944807D02*
X136476189Y-140868617D01*
X136476189Y-140868617D02*
X136399998Y-140830521D01*
X136399998Y-140830521D02*
X136285713Y-140830521D01*
X136285713Y-140830521D02*
X136209522Y-140868617D01*
X136209522Y-140868617D02*
X136171427Y-140944807D01*
X136171427Y-140944807D02*
X136171427Y-141363855D01*
X135180950Y-140563855D02*
X135180950Y-141211474D01*
X135180950Y-141211474D02*
X135142855Y-141287664D01*
X135142855Y-141287664D02*
X135104760Y-141325760D01*
X135104760Y-141325760D02*
X135028569Y-141363855D01*
X135028569Y-141363855D02*
X134876188Y-141363855D01*
X134876188Y-141363855D02*
X134799998Y-141325760D01*
X134799998Y-141325760D02*
X134761903Y-141287664D01*
X134761903Y-141287664D02*
X134723807Y-141211474D01*
X134723807Y-141211474D02*
X134723807Y-140563855D01*
X134380951Y-141325760D02*
X134266665Y-141363855D01*
X134266665Y-141363855D02*
X134076189Y-141363855D01*
X134076189Y-141363855D02*
X133999998Y-141325760D01*
X133999998Y-141325760D02*
X133961903Y-141287664D01*
X133961903Y-141287664D02*
X133923808Y-141211474D01*
X133923808Y-141211474D02*
X133923808Y-141135283D01*
X133923808Y-141135283D02*
X133961903Y-141059093D01*
X133961903Y-141059093D02*
X133999998Y-141020998D01*
X133999998Y-141020998D02*
X134076189Y-140982902D01*
X134076189Y-140982902D02*
X134228570Y-140944807D01*
X134228570Y-140944807D02*
X134304760Y-140906712D01*
X134304760Y-140906712D02*
X134342855Y-140868617D01*
X134342855Y-140868617D02*
X134380951Y-140792426D01*
X134380951Y-140792426D02*
X134380951Y-140716236D01*
X134380951Y-140716236D02*
X134342855Y-140640045D01*
X134342855Y-140640045D02*
X134304760Y-140601950D01*
X134304760Y-140601950D02*
X134228570Y-140563855D01*
X134228570Y-140563855D02*
X134038093Y-140563855D01*
X134038093Y-140563855D02*
X133923808Y-140601950D01*
X133314284Y-140944807D02*
X133199998Y-140982902D01*
X133199998Y-140982902D02*
X133161903Y-141020998D01*
X133161903Y-141020998D02*
X133123807Y-141097188D01*
X133123807Y-141097188D02*
X133123807Y-141211474D01*
X133123807Y-141211474D02*
X133161903Y-141287664D01*
X133161903Y-141287664D02*
X133199998Y-141325760D01*
X133199998Y-141325760D02*
X133276188Y-141363855D01*
X133276188Y-141363855D02*
X133580950Y-141363855D01*
X133580950Y-141363855D02*
X133580950Y-140563855D01*
X133580950Y-140563855D02*
X133314284Y-140563855D01*
X133314284Y-140563855D02*
X133238093Y-140601950D01*
X133238093Y-140601950D02*
X133199998Y-140640045D01*
X133199998Y-140640045D02*
X133161903Y-140716236D01*
X133161903Y-140716236D02*
X133161903Y-140792426D01*
X133161903Y-140792426D02*
X133199998Y-140868617D01*
X133199998Y-140868617D02*
X133238093Y-140906712D01*
X133238093Y-140906712D02*
X133314284Y-140944807D01*
X133314284Y-140944807D02*
X133580950Y-140944807D01*
D11*
X138457143Y-124009337D02*
X137857143Y-124909337D01*
X137857143Y-124009337D02*
X138457143Y-124909337D01*
X137514286Y-124909337D02*
X137514286Y-124009337D01*
X137128572Y-124652194D02*
X136700001Y-124652194D01*
X137214286Y-124909337D02*
X136914286Y-124009337D01*
X136914286Y-124009337D02*
X136614286Y-124909337D01*
X136142857Y-124009337D02*
X135971429Y-124009337D01*
X135971429Y-124009337D02*
X135885714Y-124052194D01*
X135885714Y-124052194D02*
X135800000Y-124137908D01*
X135800000Y-124137908D02*
X135757143Y-124309337D01*
X135757143Y-124309337D02*
X135757143Y-124609337D01*
X135757143Y-124609337D02*
X135800000Y-124780765D01*
X135800000Y-124780765D02*
X135885714Y-124866480D01*
X135885714Y-124866480D02*
X135971429Y-124909337D01*
X135971429Y-124909337D02*
X136142857Y-124909337D01*
X136142857Y-124909337D02*
X136228572Y-124866480D01*
X136228572Y-124866480D02*
X136314286Y-124780765D01*
X136314286Y-124780765D02*
X136357143Y-124609337D01*
X136357143Y-124609337D02*
X136357143Y-124309337D01*
X136357143Y-124309337D02*
X136314286Y-124137908D01*
X136314286Y-124137908D02*
X136228572Y-124052194D01*
X136228572Y-124052194D02*
X136142857Y-124009337D01*
X134171429Y-124909337D02*
X134471429Y-124480765D01*
X134685715Y-124909337D02*
X134685715Y-124009337D01*
X134685715Y-124009337D02*
X134342858Y-124009337D01*
X134342858Y-124009337D02*
X134257143Y-124052194D01*
X134257143Y-124052194D02*
X134214286Y-124095051D01*
X134214286Y-124095051D02*
X134171429Y-124180765D01*
X134171429Y-124180765D02*
X134171429Y-124309337D01*
X134171429Y-124309337D02*
X134214286Y-124395051D01*
X134214286Y-124395051D02*
X134257143Y-124437908D01*
X134257143Y-124437908D02*
X134342858Y-124480765D01*
X134342858Y-124480765D02*
X134685715Y-124480765D01*
X133785715Y-124909337D02*
X133785715Y-124009337D01*
X133785715Y-124009337D02*
X133442858Y-124009337D01*
X133442858Y-124009337D02*
X133357143Y-124052194D01*
X133357143Y-124052194D02*
X133314286Y-124095051D01*
X133314286Y-124095051D02*
X133271429Y-124180765D01*
X133271429Y-124180765D02*
X133271429Y-124309337D01*
X133271429Y-124309337D02*
X133314286Y-124395051D01*
X133314286Y-124395051D02*
X133357143Y-124437908D01*
X133357143Y-124437908D02*
X133442858Y-124480765D01*
X133442858Y-124480765D02*
X133785715Y-124480765D01*
X132928572Y-124095051D02*
X132885715Y-124052194D01*
X132885715Y-124052194D02*
X132800001Y-124009337D01*
X132800001Y-124009337D02*
X132585715Y-124009337D01*
X132585715Y-124009337D02*
X132500001Y-124052194D01*
X132500001Y-124052194D02*
X132457143Y-124095051D01*
X132457143Y-124095051D02*
X132414286Y-124180765D01*
X132414286Y-124180765D02*
X132414286Y-124266480D01*
X132414286Y-124266480D02*
X132457143Y-124395051D01*
X132457143Y-124395051D02*
X132971429Y-124909337D01*
X132971429Y-124909337D02*
X132414286Y-124909337D01*
X131857143Y-124009337D02*
X131771429Y-124009337D01*
X131771429Y-124009337D02*
X131685715Y-124052194D01*
X131685715Y-124052194D02*
X131642858Y-124095051D01*
X131642858Y-124095051D02*
X131600000Y-124180765D01*
X131600000Y-124180765D02*
X131557143Y-124352194D01*
X131557143Y-124352194D02*
X131557143Y-124566480D01*
X131557143Y-124566480D02*
X131600000Y-124737908D01*
X131600000Y-124737908D02*
X131642858Y-124823622D01*
X131642858Y-124823622D02*
X131685715Y-124866480D01*
X131685715Y-124866480D02*
X131771429Y-124909337D01*
X131771429Y-124909337D02*
X131857143Y-124909337D01*
X131857143Y-124909337D02*
X131942858Y-124866480D01*
X131942858Y-124866480D02*
X131985715Y-124823622D01*
X131985715Y-124823622D02*
X132028572Y-124737908D01*
X132028572Y-124737908D02*
X132071429Y-124566480D01*
X132071429Y-124566480D02*
X132071429Y-124352194D01*
X132071429Y-124352194D02*
X132028572Y-124180765D01*
X132028572Y-124180765D02*
X131985715Y-124095051D01*
X131985715Y-124095051D02*
X131942858Y-124052194D01*
X131942858Y-124052194D02*
X131857143Y-124009337D01*
X130785715Y-124309337D02*
X130785715Y-124909337D01*
X131000000Y-123966480D02*
X131214286Y-124609337D01*
X131214286Y-124609337D02*
X130657143Y-124609337D01*
X130142857Y-124009337D02*
X130057143Y-124009337D01*
X130057143Y-124009337D02*
X129971429Y-124052194D01*
X129971429Y-124052194D02*
X129928572Y-124095051D01*
X129928572Y-124095051D02*
X129885714Y-124180765D01*
X129885714Y-124180765D02*
X129842857Y-124352194D01*
X129842857Y-124352194D02*
X129842857Y-124566480D01*
X129842857Y-124566480D02*
X129885714Y-124737908D01*
X129885714Y-124737908D02*
X129928572Y-124823622D01*
X129928572Y-124823622D02*
X129971429Y-124866480D01*
X129971429Y-124866480D02*
X130057143Y-124909337D01*
X130057143Y-124909337D02*
X130142857Y-124909337D01*
X130142857Y-124909337D02*
X130228572Y-124866480D01*
X130228572Y-124866480D02*
X130271429Y-124823622D01*
X130271429Y-124823622D02*
X130314286Y-124737908D01*
X130314286Y-124737908D02*
X130357143Y-124566480D01*
X130357143Y-124566480D02*
X130357143Y-124352194D01*
X130357143Y-124352194D02*
X130314286Y-124180765D01*
X130314286Y-124180765D02*
X130271429Y-124095051D01*
X130271429Y-124095051D02*
X130228572Y-124052194D01*
X130228572Y-124052194D02*
X130142857Y-124009337D01*
X128771429Y-124566480D02*
X128085715Y-124566480D01*
X126971429Y-124309337D02*
X126971429Y-125209337D01*
X126971429Y-124352194D02*
X126885715Y-124309337D01*
X126885715Y-124309337D02*
X126714286Y-124309337D01*
X126714286Y-124309337D02*
X126628572Y-124352194D01*
X126628572Y-124352194D02*
X126585715Y-124395051D01*
X126585715Y-124395051D02*
X126542857Y-124480765D01*
X126542857Y-124480765D02*
X126542857Y-124737908D01*
X126542857Y-124737908D02*
X126585715Y-124823622D01*
X126585715Y-124823622D02*
X126628572Y-124866480D01*
X126628572Y-124866480D02*
X126714286Y-124909337D01*
X126714286Y-124909337D02*
X126885715Y-124909337D01*
X126885715Y-124909337D02*
X126971429Y-124866480D01*
X126157143Y-124909337D02*
X126157143Y-124309337D01*
X126157143Y-124480765D02*
X126114286Y-124395051D01*
X126114286Y-124395051D02*
X126071429Y-124352194D01*
X126071429Y-124352194D02*
X125985714Y-124309337D01*
X125985714Y-124309337D02*
X125900000Y-124309337D01*
X125471428Y-124909337D02*
X125557143Y-124866480D01*
X125557143Y-124866480D02*
X125600000Y-124823622D01*
X125600000Y-124823622D02*
X125642857Y-124737908D01*
X125642857Y-124737908D02*
X125642857Y-124480765D01*
X125642857Y-124480765D02*
X125600000Y-124395051D01*
X125600000Y-124395051D02*
X125557143Y-124352194D01*
X125557143Y-124352194D02*
X125471428Y-124309337D01*
X125471428Y-124309337D02*
X125342857Y-124309337D01*
X125342857Y-124309337D02*
X125257143Y-124352194D01*
X125257143Y-124352194D02*
X125214286Y-124395051D01*
X125214286Y-124395051D02*
X125171428Y-124480765D01*
X125171428Y-124480765D02*
X125171428Y-124737908D01*
X125171428Y-124737908D02*
X125214286Y-124823622D01*
X125214286Y-124823622D02*
X125257143Y-124866480D01*
X125257143Y-124866480D02*
X125342857Y-124909337D01*
X125342857Y-124909337D02*
X125471428Y-124909337D01*
X124914285Y-124309337D02*
X124571428Y-124309337D01*
X124785714Y-124009337D02*
X124785714Y-124780765D01*
X124785714Y-124780765D02*
X124742857Y-124866480D01*
X124742857Y-124866480D02*
X124657142Y-124909337D01*
X124657142Y-124909337D02*
X124571428Y-124909337D01*
X124142856Y-124909337D02*
X124228571Y-124866480D01*
X124228571Y-124866480D02*
X124271428Y-124823622D01*
X124271428Y-124823622D02*
X124314285Y-124737908D01*
X124314285Y-124737908D02*
X124314285Y-124480765D01*
X124314285Y-124480765D02*
X124271428Y-124395051D01*
X124271428Y-124395051D02*
X124228571Y-124352194D01*
X124228571Y-124352194D02*
X124142856Y-124309337D01*
X124142856Y-124309337D02*
X124014285Y-124309337D01*
X124014285Y-124309337D02*
X123928571Y-124352194D01*
X123928571Y-124352194D02*
X123885714Y-124395051D01*
X123885714Y-124395051D02*
X123842856Y-124480765D01*
X123842856Y-124480765D02*
X123842856Y-124737908D01*
X123842856Y-124737908D02*
X123885714Y-124823622D01*
X123885714Y-124823622D02*
X123928571Y-124866480D01*
X123928571Y-124866480D02*
X124014285Y-124909337D01*
X124014285Y-124909337D02*
X124142856Y-124909337D01*
X123585713Y-124309337D02*
X123242856Y-124309337D01*
X123457142Y-124009337D02*
X123457142Y-124780765D01*
X123457142Y-124780765D02*
X123414285Y-124866480D01*
X123414285Y-124866480D02*
X123328570Y-124909337D01*
X123328570Y-124909337D02*
X123242856Y-124909337D01*
X123028570Y-124309337D02*
X122814284Y-124909337D01*
X122599999Y-124309337D02*
X122814284Y-124909337D01*
X122814284Y-124909337D02*
X122899999Y-125123622D01*
X122899999Y-125123622D02*
X122942856Y-125166480D01*
X122942856Y-125166480D02*
X123028570Y-125209337D01*
X122257142Y-124309337D02*
X122257142Y-125209337D01*
X122257142Y-124352194D02*
X122171428Y-124309337D01*
X122171428Y-124309337D02*
X121999999Y-124309337D01*
X121999999Y-124309337D02*
X121914285Y-124352194D01*
X121914285Y-124352194D02*
X121871428Y-124395051D01*
X121871428Y-124395051D02*
X121828570Y-124480765D01*
X121828570Y-124480765D02*
X121828570Y-124737908D01*
X121828570Y-124737908D02*
X121871428Y-124823622D01*
X121871428Y-124823622D02*
X121914285Y-124866480D01*
X121914285Y-124866480D02*
X121999999Y-124909337D01*
X121999999Y-124909337D02*
X122171428Y-124909337D01*
X122171428Y-124909337D02*
X122257142Y-124866480D01*
X121099999Y-124866480D02*
X121185713Y-124909337D01*
X121185713Y-124909337D02*
X121357142Y-124909337D01*
X121357142Y-124909337D02*
X121442856Y-124866480D01*
X121442856Y-124866480D02*
X121485713Y-124780765D01*
X121485713Y-124780765D02*
X121485713Y-124437908D01*
X121485713Y-124437908D02*
X121442856Y-124352194D01*
X121442856Y-124352194D02*
X121357142Y-124309337D01*
X121357142Y-124309337D02*
X121185713Y-124309337D01*
X121185713Y-124309337D02*
X121099999Y-124352194D01*
X121099999Y-124352194D02*
X121057142Y-124437908D01*
X121057142Y-124437908D02*
X121057142Y-124523622D01*
X121057142Y-124523622D02*
X121485713Y-124609337D01*
X119857141Y-124909337D02*
X119942856Y-124866480D01*
X119942856Y-124866480D02*
X119985713Y-124823622D01*
X119985713Y-124823622D02*
X120028570Y-124737908D01*
X120028570Y-124737908D02*
X120028570Y-124480765D01*
X120028570Y-124480765D02*
X119985713Y-124395051D01*
X119985713Y-124395051D02*
X119942856Y-124352194D01*
X119942856Y-124352194D02*
X119857141Y-124309337D01*
X119857141Y-124309337D02*
X119728570Y-124309337D01*
X119728570Y-124309337D02*
X119642856Y-124352194D01*
X119642856Y-124352194D02*
X119599999Y-124395051D01*
X119599999Y-124395051D02*
X119557141Y-124480765D01*
X119557141Y-124480765D02*
X119557141Y-124737908D01*
X119557141Y-124737908D02*
X119599999Y-124823622D01*
X119599999Y-124823622D02*
X119642856Y-124866480D01*
X119642856Y-124866480D02*
X119728570Y-124909337D01*
X119728570Y-124909337D02*
X119857141Y-124909337D01*
X119171427Y-124309337D02*
X119171427Y-124909337D01*
X119171427Y-124395051D02*
X119128570Y-124352194D01*
X119128570Y-124352194D02*
X119042855Y-124309337D01*
X119042855Y-124309337D02*
X118914284Y-124309337D01*
X118914284Y-124309337D02*
X118828570Y-124352194D01*
X118828570Y-124352194D02*
X118785713Y-124437908D01*
X118785713Y-124437908D02*
X118785713Y-124909337D01*
X118228569Y-124909337D02*
X118314284Y-124866480D01*
X118314284Y-124866480D02*
X118357141Y-124780765D01*
X118357141Y-124780765D02*
X118357141Y-124009337D01*
X117971426Y-124309337D02*
X117757140Y-124909337D01*
X117542855Y-124309337D02*
X117757140Y-124909337D01*
X117757140Y-124909337D02*
X117842855Y-125123622D01*
X117842855Y-125123622D02*
X117885712Y-125166480D01*
X117885712Y-125166480D02*
X117971426Y-125209337D01*
D12*
X143399997Y-121917211D02*
X143799997Y-121917211D01*
X143799997Y-122545782D02*
X143799997Y-121345782D01*
X143799997Y-121345782D02*
X143228569Y-121345782D01*
X142257141Y-121745782D02*
X142257141Y-122545782D01*
X142771426Y-121745782D02*
X142771426Y-122374354D01*
X142771426Y-122374354D02*
X142714283Y-122488640D01*
X142714283Y-122488640D02*
X142599998Y-122545782D01*
X142599998Y-122545782D02*
X142428569Y-122545782D01*
X142428569Y-122545782D02*
X142314283Y-122488640D01*
X142314283Y-122488640D02*
X142257141Y-122431497D01*
X141857141Y-121745782D02*
X141399998Y-121745782D01*
X141685712Y-121345782D02*
X141685712Y-122374354D01*
X141685712Y-122374354D02*
X141628569Y-122488640D01*
X141628569Y-122488640D02*
X141514284Y-122545782D01*
X141514284Y-122545782D02*
X141399998Y-122545782D01*
X140485713Y-121745782D02*
X140485713Y-122545782D01*
X140999998Y-121745782D02*
X140999998Y-122374354D01*
X140999998Y-122374354D02*
X140942855Y-122488640D01*
X140942855Y-122488640D02*
X140828570Y-122545782D01*
X140828570Y-122545782D02*
X140657141Y-122545782D01*
X140657141Y-122545782D02*
X140542855Y-122488640D01*
X140542855Y-122488640D02*
X140485713Y-122431497D01*
X139914284Y-122545782D02*
X139914284Y-121745782D01*
X139914284Y-121974354D02*
X139857141Y-121860068D01*
X139857141Y-121860068D02*
X139799999Y-121802925D01*
X139799999Y-121802925D02*
X139685713Y-121745782D01*
X139685713Y-121745782D02*
X139571427Y-121745782D01*
X138714284Y-122488640D02*
X138828570Y-122545782D01*
X138828570Y-122545782D02*
X139057142Y-122545782D01*
X139057142Y-122545782D02*
X139171427Y-122488640D01*
X139171427Y-122488640D02*
X139228570Y-122374354D01*
X139228570Y-122374354D02*
X139228570Y-121917211D01*
X139228570Y-121917211D02*
X139171427Y-121802925D01*
X139171427Y-121802925D02*
X139057142Y-121745782D01*
X139057142Y-121745782D02*
X138828570Y-121745782D01*
X138828570Y-121745782D02*
X138714284Y-121802925D01*
X138714284Y-121802925D02*
X138657142Y-121917211D01*
X138657142Y-121917211D02*
X138657142Y-122031497D01*
X138657142Y-122031497D02*
X139228570Y-122145782D01*
X137914285Y-121345782D02*
X137685713Y-121345782D01*
X137685713Y-121345782D02*
X137571428Y-121402925D01*
X137571428Y-121402925D02*
X137457142Y-121517211D01*
X137457142Y-121517211D02*
X137399999Y-121745782D01*
X137399999Y-121745782D02*
X137399999Y-122145782D01*
X137399999Y-122145782D02*
X137457142Y-122374354D01*
X137457142Y-122374354D02*
X137571428Y-122488640D01*
X137571428Y-122488640D02*
X137685713Y-122545782D01*
X137685713Y-122545782D02*
X137914285Y-122545782D01*
X137914285Y-122545782D02*
X138028571Y-122488640D01*
X138028571Y-122488640D02*
X138142856Y-122374354D01*
X138142856Y-122374354D02*
X138199999Y-122145782D01*
X138199999Y-122145782D02*
X138199999Y-121745782D01*
X138199999Y-121745782D02*
X138142856Y-121517211D01*
X138142856Y-121517211D02*
X138028571Y-121402925D01*
X138028571Y-121402925D02*
X137914285Y-121345782D01*
X136942856Y-122488640D02*
X136771428Y-122545782D01*
X136771428Y-122545782D02*
X136485713Y-122545782D01*
X136485713Y-122545782D02*
X136371428Y-122488640D01*
X136371428Y-122488640D02*
X136314285Y-122431497D01*
X136314285Y-122431497D02*
X136257142Y-122317211D01*
X136257142Y-122317211D02*
X136257142Y-122202925D01*
X136257142Y-122202925D02*
X136314285Y-122088640D01*
X136314285Y-122088640D02*
X136371428Y-122031497D01*
X136371428Y-122031497D02*
X136485713Y-121974354D01*
X136485713Y-121974354D02*
X136714285Y-121917211D01*
X136714285Y-121917211D02*
X136828570Y-121860068D01*
X136828570Y-121860068D02*
X136885713Y-121802925D01*
X136885713Y-121802925D02*
X136942856Y-121688640D01*
X136942856Y-121688640D02*
X136942856Y-121574354D01*
X136942856Y-121574354D02*
X136885713Y-121460068D01*
X136885713Y-121460068D02*
X136828570Y-121402925D01*
X136828570Y-121402925D02*
X136714285Y-121345782D01*
X136714285Y-121345782D02*
X136428570Y-121345782D01*
X136428570Y-121345782D02*
X136257142Y-121402925D01*
X134828570Y-122545782D02*
X134828570Y-121345782D01*
X134142856Y-122545782D02*
X134657142Y-121860068D01*
X134142856Y-121345782D02*
X134828570Y-122031497D01*
X133171427Y-122488640D02*
X133285713Y-122545782D01*
X133285713Y-122545782D02*
X133514285Y-122545782D01*
X133514285Y-122545782D02*
X133628570Y-122488640D01*
X133628570Y-122488640D02*
X133685713Y-122374354D01*
X133685713Y-122374354D02*
X133685713Y-121917211D01*
X133685713Y-121917211D02*
X133628570Y-121802925D01*
X133628570Y-121802925D02*
X133514285Y-121745782D01*
X133514285Y-121745782D02*
X133285713Y-121745782D01*
X133285713Y-121745782D02*
X133171427Y-121802925D01*
X133171427Y-121802925D02*
X133114285Y-121917211D01*
X133114285Y-121917211D02*
X133114285Y-122031497D01*
X133114285Y-122031497D02*
X133685713Y-122145782D01*
X132714285Y-121745782D02*
X132428571Y-122545782D01*
X132142856Y-121745782D02*
X132428571Y-122545782D01*
X132428571Y-122545782D02*
X132542856Y-122831497D01*
X132542856Y-122831497D02*
X132599999Y-122888640D01*
X132599999Y-122888640D02*
X132714285Y-122945782D01*
X131685713Y-122545782D02*
X131685713Y-121345782D01*
X131685713Y-121802925D02*
X131571428Y-121745782D01*
X131571428Y-121745782D02*
X131342856Y-121745782D01*
X131342856Y-121745782D02*
X131228570Y-121802925D01*
X131228570Y-121802925D02*
X131171428Y-121860068D01*
X131171428Y-121860068D02*
X131114285Y-121974354D01*
X131114285Y-121974354D02*
X131114285Y-122317211D01*
X131114285Y-122317211D02*
X131171428Y-122431497D01*
X131171428Y-122431497D02*
X131228570Y-122488640D01*
X131228570Y-122488640D02*
X131342856Y-122545782D01*
X131342856Y-122545782D02*
X131571428Y-122545782D01*
X131571428Y-122545782D02*
X131685713Y-122488640D01*
X130428571Y-122545782D02*
X130542856Y-122488640D01*
X130542856Y-122488640D02*
X130599999Y-122431497D01*
X130599999Y-122431497D02*
X130657142Y-122317211D01*
X130657142Y-122317211D02*
X130657142Y-121974354D01*
X130657142Y-121974354D02*
X130599999Y-121860068D01*
X130599999Y-121860068D02*
X130542856Y-121802925D01*
X130542856Y-121802925D02*
X130428571Y-121745782D01*
X130428571Y-121745782D02*
X130257142Y-121745782D01*
X130257142Y-121745782D02*
X130142856Y-121802925D01*
X130142856Y-121802925D02*
X130085714Y-121860068D01*
X130085714Y-121860068D02*
X130028571Y-121974354D01*
X130028571Y-121974354D02*
X130028571Y-122317211D01*
X130028571Y-122317211D02*
X130085714Y-122431497D01*
X130085714Y-122431497D02*
X130142856Y-122488640D01*
X130142856Y-122488640D02*
X130257142Y-122545782D01*
X130257142Y-122545782D02*
X130428571Y-122545782D01*
X129000000Y-122545782D02*
X129000000Y-121917211D01*
X129000000Y-121917211D02*
X129057142Y-121802925D01*
X129057142Y-121802925D02*
X129171428Y-121745782D01*
X129171428Y-121745782D02*
X129400000Y-121745782D01*
X129400000Y-121745782D02*
X129514285Y-121802925D01*
X129000000Y-122488640D02*
X129114285Y-122545782D01*
X129114285Y-122545782D02*
X129400000Y-122545782D01*
X129400000Y-122545782D02*
X129514285Y-122488640D01*
X129514285Y-122488640D02*
X129571428Y-122374354D01*
X129571428Y-122374354D02*
X129571428Y-122260068D01*
X129571428Y-122260068D02*
X129514285Y-122145782D01*
X129514285Y-122145782D02*
X129400000Y-122088640D01*
X129400000Y-122088640D02*
X129114285Y-122088640D01*
X129114285Y-122088640D02*
X129000000Y-122031497D01*
X128428571Y-122545782D02*
X128428571Y-121745782D01*
X128428571Y-121974354D02*
X128371428Y-121860068D01*
X128371428Y-121860068D02*
X128314286Y-121802925D01*
X128314286Y-121802925D02*
X128200000Y-121745782D01*
X128200000Y-121745782D02*
X128085714Y-121745782D01*
X127171429Y-122545782D02*
X127171429Y-121345782D01*
X127171429Y-122488640D02*
X127285714Y-122545782D01*
X127285714Y-122545782D02*
X127514286Y-122545782D01*
X127514286Y-122545782D02*
X127628571Y-122488640D01*
X127628571Y-122488640D02*
X127685714Y-122431497D01*
X127685714Y-122431497D02*
X127742857Y-122317211D01*
X127742857Y-122317211D02*
X127742857Y-121974354D01*
X127742857Y-121974354D02*
X127685714Y-121860068D01*
X127685714Y-121860068D02*
X127628571Y-121802925D01*
X127628571Y-121802925D02*
X127514286Y-121745782D01*
X127514286Y-121745782D02*
X127285714Y-121745782D01*
X127285714Y-121745782D02*
X127171429Y-121802925D01*
X125685714Y-122545782D02*
X125685714Y-121345782D01*
X125685714Y-121345782D02*
X125228571Y-121345782D01*
X125228571Y-121345782D02*
X125114286Y-121402925D01*
X125114286Y-121402925D02*
X125057143Y-121460068D01*
X125057143Y-121460068D02*
X125000000Y-121574354D01*
X125000000Y-121574354D02*
X125000000Y-121745782D01*
X125000000Y-121745782D02*
X125057143Y-121860068D01*
X125057143Y-121860068D02*
X125114286Y-121917211D01*
X125114286Y-121917211D02*
X125228571Y-121974354D01*
X125228571Y-121974354D02*
X125685714Y-121974354D01*
X124485714Y-122545782D02*
X124485714Y-121745782D01*
X124485714Y-121974354D02*
X124428571Y-121860068D01*
X124428571Y-121860068D02*
X124371429Y-121802925D01*
X124371429Y-121802925D02*
X124257143Y-121745782D01*
X124257143Y-121745782D02*
X124142857Y-121745782D01*
X123571429Y-122545782D02*
X123685714Y-122488640D01*
X123685714Y-122488640D02*
X123742857Y-122431497D01*
X123742857Y-122431497D02*
X123800000Y-122317211D01*
X123800000Y-122317211D02*
X123800000Y-121974354D01*
X123800000Y-121974354D02*
X123742857Y-121860068D01*
X123742857Y-121860068D02*
X123685714Y-121802925D01*
X123685714Y-121802925D02*
X123571429Y-121745782D01*
X123571429Y-121745782D02*
X123400000Y-121745782D01*
X123400000Y-121745782D02*
X123285714Y-121802925D01*
X123285714Y-121802925D02*
X123228572Y-121860068D01*
X123228572Y-121860068D02*
X123171429Y-121974354D01*
X123171429Y-121974354D02*
X123171429Y-122317211D01*
X123171429Y-122317211D02*
X123228572Y-122431497D01*
X123228572Y-122431497D02*
X123285714Y-122488640D01*
X123285714Y-122488640D02*
X123400000Y-122545782D01*
X123400000Y-122545782D02*
X123571429Y-122545782D01*
X122828572Y-121745782D02*
X122371429Y-121745782D01*
X122657143Y-121345782D02*
X122657143Y-122374354D01*
X122657143Y-122374354D02*
X122600000Y-122488640D01*
X122600000Y-122488640D02*
X122485715Y-122545782D01*
X122485715Y-122545782D02*
X122371429Y-122545782D01*
X121800001Y-122545782D02*
X121914286Y-122488640D01*
X121914286Y-122488640D02*
X121971429Y-122431497D01*
X121971429Y-122431497D02*
X122028572Y-122317211D01*
X122028572Y-122317211D02*
X122028572Y-121974354D01*
X122028572Y-121974354D02*
X121971429Y-121860068D01*
X121971429Y-121860068D02*
X121914286Y-121802925D01*
X121914286Y-121802925D02*
X121800001Y-121745782D01*
X121800001Y-121745782D02*
X121628572Y-121745782D01*
X121628572Y-121745782D02*
X121514286Y-121802925D01*
X121514286Y-121802925D02*
X121457144Y-121860068D01*
X121457144Y-121860068D02*
X121400001Y-121974354D01*
X121400001Y-121974354D02*
X121400001Y-122317211D01*
X121400001Y-122317211D02*
X121457144Y-122431497D01*
X121457144Y-122431497D02*
X121514286Y-122488640D01*
X121514286Y-122488640D02*
X121628572Y-122545782D01*
X121628572Y-122545782D02*
X121800001Y-122545782D01*
X121057144Y-121745782D02*
X120600001Y-121745782D01*
X120885715Y-121345782D02*
X120885715Y-122374354D01*
X120885715Y-122374354D02*
X120828572Y-122488640D01*
X120828572Y-122488640D02*
X120714287Y-122545782D01*
X120714287Y-122545782D02*
X120600001Y-122545782D01*
X120314287Y-121745782D02*
X120028573Y-122545782D01*
X119742858Y-121745782D02*
X120028573Y-122545782D01*
X120028573Y-122545782D02*
X120142858Y-122831497D01*
X120142858Y-122831497D02*
X120200001Y-122888640D01*
X120200001Y-122888640D02*
X120314287Y-122945782D01*
X119285715Y-121745782D02*
X119285715Y-122945782D01*
X119285715Y-121802925D02*
X119171430Y-121745782D01*
X119171430Y-121745782D02*
X118942858Y-121745782D01*
X118942858Y-121745782D02*
X118828572Y-121802925D01*
X118828572Y-121802925D02*
X118771430Y-121860068D01*
X118771430Y-121860068D02*
X118714287Y-121974354D01*
X118714287Y-121974354D02*
X118714287Y-122317211D01*
X118714287Y-122317211D02*
X118771430Y-122431497D01*
X118771430Y-122431497D02*
X118828572Y-122488640D01*
X118828572Y-122488640D02*
X118942858Y-122545782D01*
X118942858Y-122545782D02*
X119171430Y-122545782D01*
X119171430Y-122545782D02*
X119285715Y-122488640D01*
X117742858Y-122488640D02*
X117857144Y-122545782D01*
X117857144Y-122545782D02*
X118085716Y-122545782D01*
X118085716Y-122545782D02*
X118200001Y-122488640D01*
X118200001Y-122488640D02*
X118257144Y-122374354D01*
X118257144Y-122374354D02*
X118257144Y-121917211D01*
X118257144Y-121917211D02*
X118200001Y-121802925D01*
X118200001Y-121802925D02*
X118085716Y-121745782D01*
X118085716Y-121745782D02*
X117857144Y-121745782D01*
X117857144Y-121745782D02*
X117742858Y-121802925D01*
X117742858Y-121802925D02*
X117685716Y-121917211D01*
X117685716Y-121917211D02*
X117685716Y-122031497D01*
X117685716Y-122031497D02*
X118257144Y-122145782D01*
X116257144Y-122545782D02*
X116257144Y-121745782D01*
X116257144Y-121974354D02*
X116200001Y-121860068D01*
X116200001Y-121860068D02*
X116142859Y-121802925D01*
X116142859Y-121802925D02*
X116028573Y-121745782D01*
X116028573Y-121745782D02*
X115914287Y-121745782D01*
X115057144Y-122488640D02*
X115171430Y-122545782D01*
X115171430Y-122545782D02*
X115400002Y-122545782D01*
X115400002Y-122545782D02*
X115514287Y-122488640D01*
X115514287Y-122488640D02*
X115571430Y-122374354D01*
X115571430Y-122374354D02*
X115571430Y-121917211D01*
X115571430Y-121917211D02*
X115514287Y-121802925D01*
X115514287Y-121802925D02*
X115400002Y-121745782D01*
X115400002Y-121745782D02*
X115171430Y-121745782D01*
X115171430Y-121745782D02*
X115057144Y-121802925D01*
X115057144Y-121802925D02*
X115000002Y-121917211D01*
X115000002Y-121917211D02*
X115000002Y-122031497D01*
X115000002Y-122031497D02*
X115571430Y-122145782D01*
X114600002Y-121745782D02*
X114314288Y-122545782D01*
X114314288Y-122545782D02*
X114028573Y-121745782D01*
X112714287Y-122202925D02*
X112142859Y-122202925D01*
X112828573Y-122545782D02*
X112428573Y-121345782D01*
X112428573Y-121345782D02*
X112028573Y-122545782D01*
D13*
X125857720Y-164705819D02*
X125857720Y-165515342D01*
X125857720Y-165515342D02*
X125810101Y-165610580D01*
X125810101Y-165610580D02*
X125762482Y-165658200D01*
X125762482Y-165658200D02*
X125667244Y-165705819D01*
X125667244Y-165705819D02*
X125476768Y-165705819D01*
X125476768Y-165705819D02*
X125381530Y-165658200D01*
X125381530Y-165658200D02*
X125333911Y-165610580D01*
X125333911Y-165610580D02*
X125286292Y-165515342D01*
X125286292Y-165515342D02*
X125286292Y-164705819D01*
X124286292Y-165705819D02*
X124857720Y-165705819D01*
X124572006Y-165705819D02*
X124572006Y-164705819D01*
X124572006Y-164705819D02*
X124667244Y-164848676D01*
X124667244Y-164848676D02*
X124762482Y-164943914D01*
X124762482Y-164943914D02*
X124857720Y-164991533D01*
X128333333Y-130979819D02*
X128333333Y-131694104D01*
X128333333Y-131694104D02*
X128380952Y-131836961D01*
X128380952Y-131836961D02*
X128476190Y-131932200D01*
X128476190Y-131932200D02*
X128619047Y-131979819D01*
X128619047Y-131979819D02*
X128714285Y-131979819D01*
X127333333Y-131979819D02*
X127904761Y-131979819D01*
X127619047Y-131979819D02*
X127619047Y-130979819D01*
X127619047Y-130979819D02*
X127714285Y-131122676D01*
X127714285Y-131122676D02*
X127809523Y-131217914D01*
X127809523Y-131217914D02*
X127904761Y-131265533D01*
X141333333Y-141654819D02*
X141333333Y-142369104D01*
X141333333Y-142369104D02*
X141380952Y-142511961D01*
X141380952Y-142511961D02*
X141476190Y-142607200D01*
X141476190Y-142607200D02*
X141619047Y-142654819D01*
X141619047Y-142654819D02*
X141714285Y-142654819D01*
X140857142Y-142654819D02*
X140857142Y-141654819D01*
X140857142Y-141654819D02*
X140476190Y-141654819D01*
X140476190Y-141654819D02*
X140380952Y-141702438D01*
X140380952Y-141702438D02*
X140333333Y-141750057D01*
X140333333Y-141750057D02*
X140285714Y-141845295D01*
X140285714Y-141845295D02*
X140285714Y-141988152D01*
X140285714Y-141988152D02*
X140333333Y-142083390D01*
X140333333Y-142083390D02*
X140380952Y-142131009D01*
X140380952Y-142131009D02*
X140476190Y-142178628D01*
X140476190Y-142178628D02*
X140857142Y-142178628D01*
X139333333Y-142654819D02*
X139904761Y-142654819D01*
X139619047Y-142654819D02*
X139619047Y-141654819D01*
X139619047Y-141654819D02*
X139714285Y-141797676D01*
X139714285Y-141797676D02*
X139809523Y-141892914D01*
X139809523Y-141892914D02*
X139904761Y-141940533D01*
%TO.C,U1*%
D14*
X119082500Y-146487000D02*
X119082500Y-163632000D01*
X120987500Y-144582000D02*
X134957500Y-144582000D01*
D15*
X123477500Y-165537000D02*
X123481228Y-166447272D01*
X123981228Y-166947000D02*
X131976500Y-166947000D01*
X132476500Y-166447000D02*
X132476500Y-165537000D01*
D14*
X134957500Y-165537000D02*
X120987500Y-165537000D01*
X136862500Y-146487000D02*
X136862500Y-163632000D01*
X119082500Y-146487000D02*
G75*
G02*
X120987500Y-144582000I1905001J-1D01*
G01*
X120987500Y-165541000D02*
G75*
G02*
X119082500Y-163636000I0J1905000D01*
G01*
D15*
X123981228Y-166947000D02*
G75*
G02*
X123481230Y-166447272I22J500020D01*
G01*
X132476500Y-166447000D02*
G75*
G02*
X131976500Y-166947000I-500000J0D01*
G01*
D14*
X134957500Y-144582000D02*
G75*
G02*
X136862500Y-146487000I0J-1905000D01*
G01*
X136862500Y-163632000D02*
G75*
G02*
X134957500Y-165537000I-1905000J0D01*
G01*
D16*
X119124500Y-165121000D02*
G75*
G02*
X118620500Y-165121000I-252000J0D01*
G01*
X118620500Y-165121000D02*
G75*
G02*
X119124500Y-165121000I252000J0D01*
G01*
X120398500Y-164404000D02*
G75*
G02*
X119894500Y-164404000I-252000J0D01*
G01*
X119894500Y-164404000D02*
G75*
G02*
X120398500Y-164404000I252000J0D01*
G01*
%TO.C,J1*%
D10*
X122850000Y-133925000D02*
X122850000Y-135265000D01*
X122850000Y-139725000D02*
X122850000Y-137985000D01*
X124340000Y-133925000D02*
X122850000Y-133925000D01*
X131660000Y-133925000D02*
X131660000Y-132725000D01*
X131660000Y-133925000D02*
X133150000Y-133925000D01*
X133150000Y-133925000D02*
X133150000Y-135265000D01*
X133150000Y-137985000D02*
X133150000Y-139725000D01*
X133150000Y-139725000D02*
X122850000Y-139725000D01*
%TO.C,JP1*%
X139100000Y-143000000D02*
X139100000Y-145000000D01*
X139100000Y-145000000D02*
X141900000Y-145000000D01*
X141900000Y-143000000D02*
X139100000Y-143000000D01*
X141900000Y-145000000D02*
X141900000Y-143000000D01*
%TD*%
%LPC*%
%TO.C,JP1*%
G36*
X140350000Y-143250000D02*
G01*
X140650000Y-143250000D01*
X140650000Y-144750000D01*
X140350000Y-144750000D01*
X140350000Y-143250000D01*
G37*
%TD*%
D17*
%TO.C,H1*%
X102800000Y-163500000D03*
%TD*%
%TO.C,H2*%
X153200000Y-163500000D03*
%TD*%
%TO.C,H3*%
X103500000Y-103500000D03*
%TD*%
%TO.C,H4*%
X152500000Y-103500000D03*
%TD*%
D18*
%TO.C,U1*%
X119917500Y-162620000D03*
X119917500Y-160080000D03*
X119917500Y-157540000D03*
X119917500Y-155000000D03*
X119917500Y-152460000D03*
X119917500Y-149920000D03*
X119917500Y-147380000D03*
X136082500Y-147380000D03*
X136082500Y-149920000D03*
X136082500Y-152460000D03*
X136082500Y-155000000D03*
X136082500Y-157540000D03*
X136082500Y-160080000D03*
X136082500Y-162620000D03*
D19*
X126829500Y-163378000D03*
X129369500Y-163378000D03*
X126829500Y-160838000D03*
X129369500Y-160838000D03*
D20*
X126829500Y-146360000D03*
X129369500Y-146360000D03*
%TD*%
D21*
%TO.C,J1*%
X131250000Y-133375000D03*
X130750000Y-133375000D03*
X130250000Y-133375000D03*
X129750000Y-133375000D03*
X129250000Y-133375000D03*
X128750000Y-133375000D03*
X128250000Y-133375000D03*
X127750000Y-133375000D03*
X127250000Y-133375000D03*
X126750000Y-133375000D03*
X126250000Y-133375000D03*
X125750000Y-133375000D03*
X125250000Y-133375000D03*
X124750000Y-133375000D03*
D22*
X133150000Y-136625000D03*
X122850000Y-136625000D03*
%TD*%
D23*
%TO.C,JP1*%
X141150000Y-144000000D03*
X139850000Y-144000000D03*
%TD*%
%LPD*%
M02*
