M48
; DRILL file KiCad 10.0.6 date 2026-09-27T19:27:54
; FORMAT={-:-/ absolute / metric / decimal}
; #@! TF.CreationDate,2026-09-27T19:27:54+03:00
; #@! TF.GenerationSoftware,Kicad,Pcbnew,10.0.6
; #@! TF.FileFunction,Plated,1,2,PTH
FMAT,2
METRIC
; #@! TA.AperFunction,Plated,PTH,ViaDrill
T1C0.300
%
G90
G05
T1
X107.5Y-109.5
X107.5Y-128.5
X107.5Y-148.25
X107.5Y-157.0
X113.5Y-129.25
X113.5Y-138.75
X113.5Y-147.5
X115.0Y-145.0
X115.75Y-147.75
X116.0Y-124.75
X116.25Y-144.0
X116.75Y-119.75
X116.75Y-128.75
X117.0Y-162.75
X117.5Y-137.0
X117.5Y-162.0
X118.25Y-140.5
X118.5Y-126.5
X118.5Y-129.75
X118.75Y-113.25
X118.75Y-118.5
X118.75Y-146.5
X118.75Y-149.5
X119.0Y-136.5
X119.75Y-127.75
X120.25Y-137.5
X121.25Y-147.75
X121.25Y-153.25
X121.25Y-156.75
X121.5Y-131.75
X121.75Y-134.75
X122.0Y-155.0
X122.0Y-160.5
X122.5Y-149.0
X122.5Y-161.25
X123.5Y-131.5
X123.75Y-153.25
X123.75Y-161.25
X124.0Y-142.75
X124.25Y-149.75
X124.75Y-129.0
X124.75Y-147.25
X125.25Y-109.75
X125.25Y-134.5
X125.5Y-114.5
X125.5Y-130.75
X125.5Y-136.25
X125.5Y-146.75
X125.5Y-149.0
X126.25Y-140.25
X126.25Y-150.75
X126.25Y-156.25
X126.5Y-127.75
X126.5Y-148.25
X127.0Y-136.5
X127.0Y-138.75
X128.0Y-140.75
X128.5Y-138.0
X128.75Y-142.75
X129.25Y-139.5
X129.5Y-153.25
X130.0Y-135.25
X130.0Y-140.75
X130.25Y-143.5
X130.25Y-153.75
X130.5Y-107.5
X130.5Y-120.75
X130.5Y-130.75
X130.75Y-150.5
X131.0Y-135.25
X131.5Y-133.75
X131.5Y-148.25
X132.0Y-142.75
X132.0Y-145.0
X132.25Y-140.25
X132.25Y-156.0
X132.5Y-134.0
X132.75Y-113.5
X132.75Y-118.5
X132.75Y-150.25
X133.0Y-162.0
X133.25Y-129.5
X133.75Y-107.75
X134.0Y-133.5
X134.0Y-153.0
X134.75Y-138.25
X134.75Y-144.5
X135.0Y-128.0
X135.0Y-130.25
X135.75Y-121.75
X135.75Y-123.75
X137.0Y-146.0
X137.25Y-126.0
X137.25Y-127.25
X137.25Y-152.75
X138.0Y-134.5
X138.25Y-155.25
X138.5Y-141.25
X138.5Y-157.75
X138.5Y-162.0
X139.25Y-142.0
X139.5Y-144.75
X139.5Y-157.75
X140.0Y-135.25
X141.5Y-148.25
X141.5Y-157.0
X142.25Y-152.75
X142.25Y-154.0
X142.75Y-154.75
X147.5Y-109.5
X147.5Y-129.25
X147.5Y-138.25
X149.0Y-137.5
X149.75Y-119.75
M30
