%TF.GenerationSoftware,KiCad,Pcbnew,10.0.6*%
%TF.CreationDate,2026-09-27T19:27:54+03:00*%
%TF.ProjectId,keyboard_prototype,6b657962-6f61-4726-945f-70726f746f74,rev?*%
%TF.SameCoordinates,Original*%
%TF.FileFunction,Drillmap*%
%TF.FilePolarity,Positive*%
%FSLAX45Y45*%
G04 Gerber Fmt 4.5, Leading zero omitted, Abs format (unit mm)*
G04 Created by KiCad (PCBNEW 10.0.6) date 2026-09-27 19:27:54*
%MOMM*%
%LPD*%
G01*
G04 APERTURE LIST*
%ADD10C,0.100000*%
%ADD11C,0.200000*%
G04 APERTURE END LIST*
D10*
X10000000Y-10300000D02*
G75*
G02*
X10300000Y-10000000I300000J0D01*
G01*
X10000000Y-16300000D02*
X10000000Y-10300000D01*
X10300000Y-10000000D02*
X15300000Y-10000000D01*
X10300000Y-16600000D02*
G75*
G02*
X10000000Y-16300000I0J300000D01*
G01*
X15300000Y-10000000D02*
G75*
G02*
X15600000Y-10300000I0J-300000D01*
G01*
X15300000Y-16600000D02*
X10300000Y-16600000D01*
X15600000Y-10300000D02*
X15600000Y-16300000D01*
X15600000Y-16300000D02*
G75*
G02*
X15300000Y-16600000I-300000J0D01*
G01*
D11*
D10*
X10735000Y-10935000D02*
X10765000Y-10965000D01*
X10765000Y-10935000D02*
X10735000Y-10965000D01*
X10735000Y-12835000D02*
X10765000Y-12865000D01*
X10765000Y-12835000D02*
X10735000Y-12865000D01*
X10735000Y-14810000D02*
X10765000Y-14840000D01*
X10765000Y-14810000D02*
X10735000Y-14840000D01*
X10735000Y-15685000D02*
X10765000Y-15715000D01*
X10765000Y-15685000D02*
X10735000Y-15715000D01*
X11335000Y-12910000D02*
X11365000Y-12940000D01*
X11365000Y-12910000D02*
X11335000Y-12940000D01*
X11335000Y-13860000D02*
X11365000Y-13890000D01*
X11365000Y-13860000D02*
X11335000Y-13890000D01*
X11335000Y-14735000D02*
X11365000Y-14765000D01*
X11365000Y-14735000D02*
X11335000Y-14765000D01*
X11485000Y-14485000D02*
X11515000Y-14515000D01*
X11515000Y-14485000D02*
X11485000Y-14515000D01*
X11560000Y-14760000D02*
X11590000Y-14790000D01*
X11590000Y-14760000D02*
X11560000Y-14790000D01*
X11585000Y-12460000D02*
X11615000Y-12490000D01*
X11615000Y-12460000D02*
X11585000Y-12490000D01*
X11610000Y-14385000D02*
X11640000Y-14415000D01*
X11640000Y-14385000D02*
X11610000Y-14415000D01*
X11660000Y-11960000D02*
X11690000Y-11990000D01*
X11690000Y-11960000D02*
X11660000Y-11990000D01*
X11660000Y-12860000D02*
X11690000Y-12890000D01*
X11690000Y-12860000D02*
X11660000Y-12890000D01*
X11685000Y-16260000D02*
X11715000Y-16290000D01*
X11715000Y-16260000D02*
X11685000Y-16290000D01*
X11735000Y-13685000D02*
X11765000Y-13715000D01*
X11765000Y-13685000D02*
X11735000Y-13715000D01*
X11735000Y-16185000D02*
X11765000Y-16215000D01*
X11765000Y-16185000D02*
X11735000Y-16215000D01*
X11810000Y-14035000D02*
X11840000Y-14065000D01*
X11840000Y-14035000D02*
X11810000Y-14065000D01*
X11835000Y-12635000D02*
X11865000Y-12665000D01*
X11865000Y-12635000D02*
X11835000Y-12665000D01*
X11835000Y-12960000D02*
X11865000Y-12990000D01*
X11865000Y-12960000D02*
X11835000Y-12990000D01*
X11860000Y-11310000D02*
X11890000Y-11340000D01*
X11890000Y-11310000D02*
X11860000Y-11340000D01*
X11860000Y-11835000D02*
X11890000Y-11865000D01*
X11890000Y-11835000D02*
X11860000Y-11865000D01*
X11860000Y-14635000D02*
X11890000Y-14665000D01*
X11890000Y-14635000D02*
X11860000Y-14665000D01*
X11860000Y-14935000D02*
X11890000Y-14965000D01*
X11890000Y-14935000D02*
X11860000Y-14965000D01*
X11885000Y-13635000D02*
X11915000Y-13665000D01*
X11915000Y-13635000D02*
X11885000Y-13665000D01*
X11960000Y-12760000D02*
X11990000Y-12790000D01*
X11990000Y-12760000D02*
X11960000Y-12790000D01*
X12010000Y-13735000D02*
X12040000Y-13765000D01*
X12040000Y-13735000D02*
X12010000Y-13765000D01*
X12110000Y-14760000D02*
X12140000Y-14790000D01*
X12140000Y-14760000D02*
X12110000Y-14790000D01*
X12110000Y-15310000D02*
X12140000Y-15340000D01*
X12140000Y-15310000D02*
X12110000Y-15340000D01*
X12110000Y-15660000D02*
X12140000Y-15690000D01*
X12140000Y-15660000D02*
X12110000Y-15690000D01*
X12135000Y-13160000D02*
X12165000Y-13190000D01*
X12165000Y-13160000D02*
X12135000Y-13190000D01*
X12160000Y-13460000D02*
X12190000Y-13490000D01*
X12190000Y-13460000D02*
X12160000Y-13490000D01*
X12185000Y-15485000D02*
X12215000Y-15515000D01*
X12215000Y-15485000D02*
X12185000Y-15515000D01*
X12185000Y-16035000D02*
X12215000Y-16065000D01*
X12215000Y-16035000D02*
X12185000Y-16065000D01*
X12235000Y-14885000D02*
X12265000Y-14915000D01*
X12265000Y-14885000D02*
X12235000Y-14915000D01*
X12235000Y-16110000D02*
X12265000Y-16140000D01*
X12265000Y-16110000D02*
X12235000Y-16140000D01*
X12335000Y-13135000D02*
X12365000Y-13165000D01*
X12365000Y-13135000D02*
X12335000Y-13165000D01*
X12360000Y-15310000D02*
X12390000Y-15340000D01*
X12390000Y-15310000D02*
X12360000Y-15340000D01*
X12360000Y-16110000D02*
X12390000Y-16140000D01*
X12390000Y-16110000D02*
X12360000Y-16140000D01*
X12385000Y-14260000D02*
X12415000Y-14290000D01*
X12415000Y-14260000D02*
X12385000Y-14290000D01*
X12410000Y-14960000D02*
X12440000Y-14990000D01*
X12440000Y-14960000D02*
X12410000Y-14990000D01*
X12460000Y-12885000D02*
X12490000Y-12915000D01*
X12490000Y-12885000D02*
X12460000Y-12915000D01*
X12460000Y-14710000D02*
X12490000Y-14740000D01*
X12490000Y-14710000D02*
X12460000Y-14740000D01*
X12510000Y-10960000D02*
X12540000Y-10990000D01*
X12540000Y-10960000D02*
X12510000Y-10990000D01*
X12510000Y-13435000D02*
X12540000Y-13465000D01*
X12540000Y-13435000D02*
X12510000Y-13465000D01*
X12535000Y-11435000D02*
X12565000Y-11465000D01*
X12565000Y-11435000D02*
X12535000Y-11465000D01*
X12535000Y-13060000D02*
X12565000Y-13090000D01*
X12565000Y-13060000D02*
X12535000Y-13090000D01*
X12535000Y-13610000D02*
X12565000Y-13640000D01*
X12565000Y-13610000D02*
X12535000Y-13640000D01*
X12535000Y-14660000D02*
X12565000Y-14690000D01*
X12565000Y-14660000D02*
X12535000Y-14690000D01*
X12535000Y-14885000D02*
X12565000Y-14915000D01*
X12565000Y-14885000D02*
X12535000Y-14915000D01*
X12610000Y-14010000D02*
X12640000Y-14040000D01*
X12640000Y-14010000D02*
X12610000Y-14040000D01*
X12610000Y-15060000D02*
X12640000Y-15090000D01*
X12640000Y-15060000D02*
X12610000Y-15090000D01*
X12610000Y-15610000D02*
X12640000Y-15640000D01*
X12640000Y-15610000D02*
X12610000Y-15640000D01*
X12635000Y-12760000D02*
X12665000Y-12790000D01*
X12665000Y-12760000D02*
X12635000Y-12790000D01*
X12635000Y-14810000D02*
X12665000Y-14840000D01*
X12665000Y-14810000D02*
X12635000Y-14840000D01*
X12685000Y-13635000D02*
X12715000Y-13665000D01*
X12715000Y-13635000D02*
X12685000Y-13665000D01*
X12685000Y-13860000D02*
X12715000Y-13890000D01*
X12715000Y-13860000D02*
X12685000Y-13890000D01*
X12785000Y-14060000D02*
X12815000Y-14090000D01*
X12815000Y-14060000D02*
X12785000Y-14090000D01*
X12835000Y-13785000D02*
X12865000Y-13815000D01*
X12865000Y-13785000D02*
X12835000Y-13815000D01*
X12860000Y-14260000D02*
X12890000Y-14290000D01*
X12890000Y-14260000D02*
X12860000Y-14290000D01*
X12910000Y-13935000D02*
X12940000Y-13965000D01*
X12940000Y-13935000D02*
X12910000Y-13965000D01*
X12935000Y-15310000D02*
X12965000Y-15340000D01*
X12965000Y-15310000D02*
X12935000Y-15340000D01*
X12985000Y-13510000D02*
X13015000Y-13540000D01*
X13015000Y-13510000D02*
X12985000Y-13540000D01*
X12985000Y-14060000D02*
X13015000Y-14090000D01*
X13015000Y-14060000D02*
X12985000Y-14090000D01*
X13010000Y-14335000D02*
X13040000Y-14365000D01*
X13040000Y-14335000D02*
X13010000Y-14365000D01*
X13010000Y-15360000D02*
X13040000Y-15390000D01*
X13040000Y-15360000D02*
X13010000Y-15390000D01*
X13035000Y-10735000D02*
X13065000Y-10765000D01*
X13065000Y-10735000D02*
X13035000Y-10765000D01*
X13035000Y-12060000D02*
X13065000Y-12090000D01*
X13065000Y-12060000D02*
X13035000Y-12090000D01*
X13035000Y-13060000D02*
X13065000Y-13090000D01*
X13065000Y-13060000D02*
X13035000Y-13090000D01*
X13060000Y-15035000D02*
X13090000Y-15065000D01*
X13090000Y-15035000D02*
X13060000Y-15065000D01*
X13085000Y-13510000D02*
X13115000Y-13540000D01*
X13115000Y-13510000D02*
X13085000Y-13540000D01*
X13135000Y-13360000D02*
X13165000Y-13390000D01*
X13165000Y-13360000D02*
X13135000Y-13390000D01*
X13135000Y-14810000D02*
X13165000Y-14840000D01*
X13165000Y-14810000D02*
X13135000Y-14840000D01*
X13185000Y-14260000D02*
X13215000Y-14290000D01*
X13215000Y-14260000D02*
X13185000Y-14290000D01*
X13185000Y-14485000D02*
X13215000Y-14515000D01*
X13215000Y-14485000D02*
X13185000Y-14515000D01*
X13210000Y-14010000D02*
X13240000Y-14040000D01*
X13240000Y-14010000D02*
X13210000Y-14040000D01*
X13210000Y-15585000D02*
X13240000Y-15615000D01*
X13240000Y-15585000D02*
X13210000Y-15615000D01*
X13235000Y-13385000D02*
X13265000Y-13415000D01*
X13265000Y-13385000D02*
X13235000Y-13415000D01*
X13260000Y-11335000D02*
X13290000Y-11365000D01*
X13290000Y-11335000D02*
X13260000Y-11365000D01*
X13260000Y-11835000D02*
X13290000Y-11865000D01*
X13290000Y-11835000D02*
X13260000Y-11865000D01*
X13260000Y-15010000D02*
X13290000Y-15040000D01*
X13290000Y-15010000D02*
X13260000Y-15040000D01*
X13285000Y-16185000D02*
X13315000Y-16215000D01*
X13315000Y-16185000D02*
X13285000Y-16215000D01*
X13310000Y-12935000D02*
X13340000Y-12965000D01*
X13340000Y-12935000D02*
X13310000Y-12965000D01*
X13360000Y-10760000D02*
X13390000Y-10790000D01*
X13390000Y-10760000D02*
X13360000Y-10790000D01*
X13385000Y-13335000D02*
X13415000Y-13365000D01*
X13415000Y-13335000D02*
X13385000Y-13365000D01*
X13385000Y-15285000D02*
X13415000Y-15315000D01*
X13415000Y-15285000D02*
X13385000Y-15315000D01*
X13460000Y-13810000D02*
X13490000Y-13840000D01*
X13490000Y-13810000D02*
X13460000Y-13840000D01*
X13460000Y-14435000D02*
X13490000Y-14465000D01*
X13490000Y-14435000D02*
X13460000Y-14465000D01*
X13485000Y-12785000D02*
X13515000Y-12815000D01*
X13515000Y-12785000D02*
X13485000Y-12815000D01*
X13485000Y-13010000D02*
X13515000Y-13040000D01*
X13515000Y-13010000D02*
X13485000Y-13040000D01*
X13560000Y-12160000D02*
X13590000Y-12190000D01*
X13590000Y-12160000D02*
X13560000Y-12190000D01*
X13560000Y-12360000D02*
X13590000Y-12390000D01*
X13590000Y-12360000D02*
X13560000Y-12390000D01*
X13685000Y-14585000D02*
X13715000Y-14615000D01*
X13715000Y-14585000D02*
X13685000Y-14615000D01*
X13710000Y-12585000D02*
X13740000Y-12615000D01*
X13740000Y-12585000D02*
X13710000Y-12615000D01*
X13710000Y-12710000D02*
X13740000Y-12740000D01*
X13740000Y-12710000D02*
X13710000Y-12740000D01*
X13710000Y-15260000D02*
X13740000Y-15290000D01*
X13740000Y-15260000D02*
X13710000Y-15290000D01*
X13785000Y-13435000D02*
X13815000Y-13465000D01*
X13815000Y-13435000D02*
X13785000Y-13465000D01*
X13810000Y-15510000D02*
X13840000Y-15540000D01*
X13840000Y-15510000D02*
X13810000Y-15540000D01*
X13835000Y-14110000D02*
X13865000Y-14140000D01*
X13865000Y-14110000D02*
X13835000Y-14140000D01*
X13835000Y-15760000D02*
X13865000Y-15790000D01*
X13865000Y-15760000D02*
X13835000Y-15790000D01*
X13835000Y-16185000D02*
X13865000Y-16215000D01*
X13865000Y-16185000D02*
X13835000Y-16215000D01*
X13910000Y-14185000D02*
X13940000Y-14215000D01*
X13940000Y-14185000D02*
X13910000Y-14215000D01*
X13935000Y-14460000D02*
X13965000Y-14490000D01*
X13965000Y-14460000D02*
X13935000Y-14490000D01*
X13935000Y-15760000D02*
X13965000Y-15790000D01*
X13965000Y-15760000D02*
X13935000Y-15790000D01*
X13985000Y-13510000D02*
X14015000Y-13540000D01*
X14015000Y-13510000D02*
X13985000Y-13540000D01*
X14135000Y-14810000D02*
X14165000Y-14840000D01*
X14165000Y-14810000D02*
X14135000Y-14840000D01*
X14135000Y-15685000D02*
X14165000Y-15715000D01*
X14165000Y-15685000D02*
X14135000Y-15715000D01*
X14210000Y-15260000D02*
X14240000Y-15290000D01*
X14240000Y-15260000D02*
X14210000Y-15290000D01*
X14210000Y-15385000D02*
X14240000Y-15415000D01*
X14240000Y-15385000D02*
X14210000Y-15415000D01*
X14260000Y-15460000D02*
X14290000Y-15490000D01*
X14290000Y-15460000D02*
X14260000Y-15490000D01*
X14735000Y-10935000D02*
X14765000Y-10965000D01*
X14765000Y-10935000D02*
X14735000Y-10965000D01*
X14735000Y-12910000D02*
X14765000Y-12940000D01*
X14765000Y-12910000D02*
X14735000Y-12940000D01*
X14735000Y-13810000D02*
X14765000Y-13840000D01*
X14765000Y-13810000D02*
X14735000Y-13840000D01*
X14885000Y-13735000D02*
X14915000Y-13765000D01*
X14915000Y-13735000D02*
X14885000Y-13765000D01*
X14960000Y-11960000D02*
X14990000Y-11990000D01*
X14990000Y-11960000D02*
X14960000Y-11990000D01*
D11*
X10255777Y-16916484D02*
X10255777Y-16716484D01*
X10255777Y-16716484D02*
X10303396Y-16716484D01*
X10303396Y-16716484D02*
X10331967Y-16726008D01*
X10331967Y-16726008D02*
X10351015Y-16745055D01*
X10351015Y-16745055D02*
X10360539Y-16764103D01*
X10360539Y-16764103D02*
X10370063Y-16802198D01*
X10370063Y-16802198D02*
X10370063Y-16830770D01*
X10370063Y-16830770D02*
X10360539Y-16868865D01*
X10360539Y-16868865D02*
X10351015Y-16887912D01*
X10351015Y-16887912D02*
X10331967Y-16906960D01*
X10331967Y-16906960D02*
X10303396Y-16916484D01*
X10303396Y-16916484D02*
X10255777Y-16916484D01*
X10455777Y-16916484D02*
X10455777Y-16783150D01*
X10455777Y-16821246D02*
X10465301Y-16802198D01*
X10465301Y-16802198D02*
X10474824Y-16792674D01*
X10474824Y-16792674D02*
X10493872Y-16783150D01*
X10493872Y-16783150D02*
X10512920Y-16783150D01*
X10579586Y-16916484D02*
X10579586Y-16783150D01*
X10579586Y-16716484D02*
X10570063Y-16726008D01*
X10570063Y-16726008D02*
X10579586Y-16735531D01*
X10579586Y-16735531D02*
X10589110Y-16726008D01*
X10589110Y-16726008D02*
X10579586Y-16716484D01*
X10579586Y-16716484D02*
X10579586Y-16735531D01*
X10703396Y-16916484D02*
X10684348Y-16906960D01*
X10684348Y-16906960D02*
X10674824Y-16887912D01*
X10674824Y-16887912D02*
X10674824Y-16716484D01*
X10808158Y-16916484D02*
X10789110Y-16906960D01*
X10789110Y-16906960D02*
X10779586Y-16887912D01*
X10779586Y-16887912D02*
X10779586Y-16716484D01*
X11036729Y-16916484D02*
X11036729Y-16716484D01*
X11036729Y-16716484D02*
X11103396Y-16859341D01*
X11103396Y-16859341D02*
X11170063Y-16716484D01*
X11170063Y-16716484D02*
X11170063Y-16916484D01*
X11351015Y-16916484D02*
X11351015Y-16811722D01*
X11351015Y-16811722D02*
X11341491Y-16792674D01*
X11341491Y-16792674D02*
X11322443Y-16783150D01*
X11322443Y-16783150D02*
X11284348Y-16783150D01*
X11284348Y-16783150D02*
X11265301Y-16792674D01*
X11351015Y-16906960D02*
X11331967Y-16916484D01*
X11331967Y-16916484D02*
X11284348Y-16916484D01*
X11284348Y-16916484D02*
X11265301Y-16906960D01*
X11265301Y-16906960D02*
X11255777Y-16887912D01*
X11255777Y-16887912D02*
X11255777Y-16868865D01*
X11255777Y-16868865D02*
X11265301Y-16849817D01*
X11265301Y-16849817D02*
X11284348Y-16840293D01*
X11284348Y-16840293D02*
X11331967Y-16840293D01*
X11331967Y-16840293D02*
X11351015Y-16830770D01*
X11446253Y-16783150D02*
X11446253Y-16983150D01*
X11446253Y-16792674D02*
X11465301Y-16783150D01*
X11465301Y-16783150D02*
X11503396Y-16783150D01*
X11503396Y-16783150D02*
X11522443Y-16792674D01*
X11522443Y-16792674D02*
X11531967Y-16802198D01*
X11531967Y-16802198D02*
X11541491Y-16821246D01*
X11541491Y-16821246D02*
X11541491Y-16878389D01*
X11541491Y-16878389D02*
X11531967Y-16897436D01*
X11531967Y-16897436D02*
X11522443Y-16906960D01*
X11522443Y-16906960D02*
X11503396Y-16916484D01*
X11503396Y-16916484D02*
X11465301Y-16916484D01*
X11465301Y-16916484D02*
X11446253Y-16906960D01*
X11627205Y-16897436D02*
X11636729Y-16906960D01*
X11636729Y-16906960D02*
X11627205Y-16916484D01*
X11627205Y-16916484D02*
X11617682Y-16906960D01*
X11617682Y-16906960D02*
X11627205Y-16897436D01*
X11627205Y-16897436D02*
X11627205Y-16916484D01*
X11627205Y-16792674D02*
X11636729Y-16802198D01*
X11636729Y-16802198D02*
X11627205Y-16811722D01*
X11627205Y-16811722D02*
X11617682Y-16802198D01*
X11617682Y-16802198D02*
X11627205Y-16792674D01*
X11627205Y-16792674D02*
X11627205Y-16811722D01*
D10*
X9965000Y-17230000D02*
X9995000Y-17260000D01*
X9995000Y-17230000D02*
X9965000Y-17260000D01*
D11*
X10293872Y-17136484D02*
X10312920Y-17136484D01*
X10312920Y-17136484D02*
X10331967Y-17146008D01*
X10331967Y-17146008D02*
X10341491Y-17155531D01*
X10341491Y-17155531D02*
X10351015Y-17174579D01*
X10351015Y-17174579D02*
X10360539Y-17212674D01*
X10360539Y-17212674D02*
X10360539Y-17260293D01*
X10360539Y-17260293D02*
X10351015Y-17298389D01*
X10351015Y-17298389D02*
X10341491Y-17317436D01*
X10341491Y-17317436D02*
X10331967Y-17326960D01*
X10331967Y-17326960D02*
X10312920Y-17336484D01*
X10312920Y-17336484D02*
X10293872Y-17336484D01*
X10293872Y-17336484D02*
X10274824Y-17326960D01*
X10274824Y-17326960D02*
X10265301Y-17317436D01*
X10265301Y-17317436D02*
X10255777Y-17298389D01*
X10255777Y-17298389D02*
X10246253Y-17260293D01*
X10246253Y-17260293D02*
X10246253Y-17212674D01*
X10246253Y-17212674D02*
X10255777Y-17174579D01*
X10255777Y-17174579D02*
X10265301Y-17155531D01*
X10265301Y-17155531D02*
X10274824Y-17146008D01*
X10274824Y-17146008D02*
X10293872Y-17136484D01*
X10446253Y-17317436D02*
X10455777Y-17326960D01*
X10455777Y-17326960D02*
X10446253Y-17336484D01*
X10446253Y-17336484D02*
X10436729Y-17326960D01*
X10436729Y-17326960D02*
X10446253Y-17317436D01*
X10446253Y-17317436D02*
X10446253Y-17336484D01*
X10522444Y-17136484D02*
X10646253Y-17136484D01*
X10646253Y-17136484D02*
X10579586Y-17212674D01*
X10579586Y-17212674D02*
X10608158Y-17212674D01*
X10608158Y-17212674D02*
X10627205Y-17222198D01*
X10627205Y-17222198D02*
X10636729Y-17231722D01*
X10636729Y-17231722D02*
X10646253Y-17250770D01*
X10646253Y-17250770D02*
X10646253Y-17298389D01*
X10646253Y-17298389D02*
X10636729Y-17317436D01*
X10636729Y-17317436D02*
X10627205Y-17326960D01*
X10627205Y-17326960D02*
X10608158Y-17336484D01*
X10608158Y-17336484D02*
X10551015Y-17336484D01*
X10551015Y-17336484D02*
X10531967Y-17326960D01*
X10531967Y-17326960D02*
X10522444Y-17317436D01*
X10770063Y-17136484D02*
X10789110Y-17136484D01*
X10789110Y-17136484D02*
X10808158Y-17146008D01*
X10808158Y-17146008D02*
X10817682Y-17155531D01*
X10817682Y-17155531D02*
X10827205Y-17174579D01*
X10827205Y-17174579D02*
X10836729Y-17212674D01*
X10836729Y-17212674D02*
X10836729Y-17260293D01*
X10836729Y-17260293D02*
X10827205Y-17298389D01*
X10827205Y-17298389D02*
X10817682Y-17317436D01*
X10817682Y-17317436D02*
X10808158Y-17326960D01*
X10808158Y-17326960D02*
X10789110Y-17336484D01*
X10789110Y-17336484D02*
X10770063Y-17336484D01*
X10770063Y-17336484D02*
X10751015Y-17326960D01*
X10751015Y-17326960D02*
X10741491Y-17317436D01*
X10741491Y-17317436D02*
X10731967Y-17298389D01*
X10731967Y-17298389D02*
X10722444Y-17260293D01*
X10722444Y-17260293D02*
X10722444Y-17212674D01*
X10722444Y-17212674D02*
X10731967Y-17174579D01*
X10731967Y-17174579D02*
X10741491Y-17155531D01*
X10741491Y-17155531D02*
X10751015Y-17146008D01*
X10751015Y-17146008D02*
X10770063Y-17136484D01*
X10960539Y-17136484D02*
X10979586Y-17136484D01*
X10979586Y-17136484D02*
X10998634Y-17146008D01*
X10998634Y-17146008D02*
X11008158Y-17155531D01*
X11008158Y-17155531D02*
X11017682Y-17174579D01*
X11017682Y-17174579D02*
X11027205Y-17212674D01*
X11027205Y-17212674D02*
X11027205Y-17260293D01*
X11027205Y-17260293D02*
X11017682Y-17298389D01*
X11017682Y-17298389D02*
X11008158Y-17317436D01*
X11008158Y-17317436D02*
X10998634Y-17326960D01*
X10998634Y-17326960D02*
X10979586Y-17336484D01*
X10979586Y-17336484D02*
X10960539Y-17336484D01*
X10960539Y-17336484D02*
X10941491Y-17326960D01*
X10941491Y-17326960D02*
X10931967Y-17317436D01*
X10931967Y-17317436D02*
X10922444Y-17298389D01*
X10922444Y-17298389D02*
X10912920Y-17260293D01*
X10912920Y-17260293D02*
X10912920Y-17212674D01*
X10912920Y-17212674D02*
X10922444Y-17174579D01*
X10922444Y-17174579D02*
X10931967Y-17155531D01*
X10931967Y-17155531D02*
X10941491Y-17146008D01*
X10941491Y-17146008D02*
X10960539Y-17136484D01*
X11112920Y-17336484D02*
X11112920Y-17203150D01*
X11112920Y-17222198D02*
X11122444Y-17212674D01*
X11122444Y-17212674D02*
X11141491Y-17203150D01*
X11141491Y-17203150D02*
X11170063Y-17203150D01*
X11170063Y-17203150D02*
X11189110Y-17212674D01*
X11189110Y-17212674D02*
X11198634Y-17231722D01*
X11198634Y-17231722D02*
X11198634Y-17336484D01*
X11198634Y-17231722D02*
X11208158Y-17212674D01*
X11208158Y-17212674D02*
X11227205Y-17203150D01*
X11227205Y-17203150D02*
X11255777Y-17203150D01*
X11255777Y-17203150D02*
X11274824Y-17212674D01*
X11274824Y-17212674D02*
X11284348Y-17231722D01*
X11284348Y-17231722D02*
X11284348Y-17336484D01*
X11379586Y-17336484D02*
X11379586Y-17203150D01*
X11379586Y-17222198D02*
X11389110Y-17212674D01*
X11389110Y-17212674D02*
X11408158Y-17203150D01*
X11408158Y-17203150D02*
X11436729Y-17203150D01*
X11436729Y-17203150D02*
X11455777Y-17212674D01*
X11455777Y-17212674D02*
X11465301Y-17231722D01*
X11465301Y-17231722D02*
X11465301Y-17336484D01*
X11465301Y-17231722D02*
X11474824Y-17212674D01*
X11474824Y-17212674D02*
X11493872Y-17203150D01*
X11493872Y-17203150D02*
X11522443Y-17203150D01*
X11522443Y-17203150D02*
X11541491Y-17212674D01*
X11541491Y-17212674D02*
X11551015Y-17231722D01*
X11551015Y-17231722D02*
X11551015Y-17336484D01*
X11941491Y-17126960D02*
X11770063Y-17384103D01*
X12198634Y-17136484D02*
X12217682Y-17136484D01*
X12217682Y-17136484D02*
X12236729Y-17146008D01*
X12236729Y-17146008D02*
X12246253Y-17155531D01*
X12246253Y-17155531D02*
X12255777Y-17174579D01*
X12255777Y-17174579D02*
X12265301Y-17212674D01*
X12265301Y-17212674D02*
X12265301Y-17260293D01*
X12265301Y-17260293D02*
X12255777Y-17298389D01*
X12255777Y-17298389D02*
X12246253Y-17317436D01*
X12246253Y-17317436D02*
X12236729Y-17326960D01*
X12236729Y-17326960D02*
X12217682Y-17336484D01*
X12217682Y-17336484D02*
X12198634Y-17336484D01*
X12198634Y-17336484D02*
X12179586Y-17326960D01*
X12179586Y-17326960D02*
X12170063Y-17317436D01*
X12170063Y-17317436D02*
X12160539Y-17298389D01*
X12160539Y-17298389D02*
X12151015Y-17260293D01*
X12151015Y-17260293D02*
X12151015Y-17212674D01*
X12151015Y-17212674D02*
X12160539Y-17174579D01*
X12160539Y-17174579D02*
X12170063Y-17155531D01*
X12170063Y-17155531D02*
X12179586Y-17146008D01*
X12179586Y-17146008D02*
X12198634Y-17136484D01*
X12351015Y-17317436D02*
X12360539Y-17326960D01*
X12360539Y-17326960D02*
X12351015Y-17336484D01*
X12351015Y-17336484D02*
X12341491Y-17326960D01*
X12341491Y-17326960D02*
X12351015Y-17317436D01*
X12351015Y-17317436D02*
X12351015Y-17336484D01*
X12484348Y-17136484D02*
X12503396Y-17136484D01*
X12503396Y-17136484D02*
X12522444Y-17146008D01*
X12522444Y-17146008D02*
X12531967Y-17155531D01*
X12531967Y-17155531D02*
X12541491Y-17174579D01*
X12541491Y-17174579D02*
X12551015Y-17212674D01*
X12551015Y-17212674D02*
X12551015Y-17260293D01*
X12551015Y-17260293D02*
X12541491Y-17298389D01*
X12541491Y-17298389D02*
X12531967Y-17317436D01*
X12531967Y-17317436D02*
X12522444Y-17326960D01*
X12522444Y-17326960D02*
X12503396Y-17336484D01*
X12503396Y-17336484D02*
X12484348Y-17336484D01*
X12484348Y-17336484D02*
X12465301Y-17326960D01*
X12465301Y-17326960D02*
X12455777Y-17317436D01*
X12455777Y-17317436D02*
X12446253Y-17298389D01*
X12446253Y-17298389D02*
X12436729Y-17260293D01*
X12436729Y-17260293D02*
X12436729Y-17212674D01*
X12436729Y-17212674D02*
X12446253Y-17174579D01*
X12446253Y-17174579D02*
X12455777Y-17155531D01*
X12455777Y-17155531D02*
X12465301Y-17146008D01*
X12465301Y-17146008D02*
X12484348Y-17136484D01*
X12741491Y-17336484D02*
X12627206Y-17336484D01*
X12684348Y-17336484D02*
X12684348Y-17136484D01*
X12684348Y-17136484D02*
X12665301Y-17165055D01*
X12665301Y-17165055D02*
X12646253Y-17184103D01*
X12646253Y-17184103D02*
X12627206Y-17193627D01*
X12931967Y-17336484D02*
X12817682Y-17336484D01*
X12874825Y-17336484D02*
X12874825Y-17136484D01*
X12874825Y-17136484D02*
X12855777Y-17165055D01*
X12855777Y-17165055D02*
X12836729Y-17184103D01*
X12836729Y-17184103D02*
X12817682Y-17193627D01*
X13046253Y-17222198D02*
X13027206Y-17212674D01*
X13027206Y-17212674D02*
X13017682Y-17203150D01*
X13017682Y-17203150D02*
X13008158Y-17184103D01*
X13008158Y-17184103D02*
X13008158Y-17174579D01*
X13008158Y-17174579D02*
X13017682Y-17155531D01*
X13017682Y-17155531D02*
X13027206Y-17146008D01*
X13027206Y-17146008D02*
X13046253Y-17136484D01*
X13046253Y-17136484D02*
X13084348Y-17136484D01*
X13084348Y-17136484D02*
X13103396Y-17146008D01*
X13103396Y-17146008D02*
X13112920Y-17155531D01*
X13112920Y-17155531D02*
X13122444Y-17174579D01*
X13122444Y-17174579D02*
X13122444Y-17184103D01*
X13122444Y-17184103D02*
X13112920Y-17203150D01*
X13112920Y-17203150D02*
X13103396Y-17212674D01*
X13103396Y-17212674D02*
X13084348Y-17222198D01*
X13084348Y-17222198D02*
X13046253Y-17222198D01*
X13046253Y-17222198D02*
X13027206Y-17231722D01*
X13027206Y-17231722D02*
X13017682Y-17241246D01*
X13017682Y-17241246D02*
X13008158Y-17260293D01*
X13008158Y-17260293D02*
X13008158Y-17298389D01*
X13008158Y-17298389D02*
X13017682Y-17317436D01*
X13017682Y-17317436D02*
X13027206Y-17326960D01*
X13027206Y-17326960D02*
X13046253Y-17336484D01*
X13046253Y-17336484D02*
X13084348Y-17336484D01*
X13084348Y-17336484D02*
X13103396Y-17326960D01*
X13103396Y-17326960D02*
X13112920Y-17317436D01*
X13112920Y-17317436D02*
X13122444Y-17298389D01*
X13122444Y-17298389D02*
X13122444Y-17260293D01*
X13122444Y-17260293D02*
X13112920Y-17241246D01*
X13112920Y-17241246D02*
X13103396Y-17231722D01*
X13103396Y-17231722D02*
X13084348Y-17222198D01*
X13198634Y-17136484D02*
X13198634Y-17174579D01*
X13274825Y-17136484D02*
X13274825Y-17174579D01*
X13570063Y-17412674D02*
X13560539Y-17403150D01*
X13560539Y-17403150D02*
X13541491Y-17374579D01*
X13541491Y-17374579D02*
X13531968Y-17355531D01*
X13531968Y-17355531D02*
X13522444Y-17326960D01*
X13522444Y-17326960D02*
X13512920Y-17279341D01*
X13512920Y-17279341D02*
X13512920Y-17241246D01*
X13512920Y-17241246D02*
X13522444Y-17193627D01*
X13522444Y-17193627D02*
X13531968Y-17165055D01*
X13531968Y-17165055D02*
X13541491Y-17146008D01*
X13541491Y-17146008D02*
X13560539Y-17117436D01*
X13560539Y-17117436D02*
X13570063Y-17107912D01*
X13751015Y-17336484D02*
X13636729Y-17336484D01*
X13693872Y-17336484D02*
X13693872Y-17136484D01*
X13693872Y-17136484D02*
X13674825Y-17165055D01*
X13674825Y-17165055D02*
X13655777Y-17184103D01*
X13655777Y-17184103D02*
X13636729Y-17193627D01*
X13941491Y-17336484D02*
X13827206Y-17336484D01*
X13884348Y-17336484D02*
X13884348Y-17136484D01*
X13884348Y-17136484D02*
X13865301Y-17165055D01*
X13865301Y-17165055D02*
X13846253Y-17184103D01*
X13846253Y-17184103D02*
X13827206Y-17193627D01*
X14112920Y-17203150D02*
X14112920Y-17336484D01*
X14065301Y-17126960D02*
X14017682Y-17269817D01*
X14017682Y-17269817D02*
X14141491Y-17269817D01*
X14370063Y-17336484D02*
X14370063Y-17136484D01*
X14455777Y-17336484D02*
X14455777Y-17231722D01*
X14455777Y-17231722D02*
X14446253Y-17212674D01*
X14446253Y-17212674D02*
X14427206Y-17203150D01*
X14427206Y-17203150D02*
X14398634Y-17203150D01*
X14398634Y-17203150D02*
X14379587Y-17212674D01*
X14379587Y-17212674D02*
X14370063Y-17222198D01*
X14579587Y-17336484D02*
X14560539Y-17326960D01*
X14560539Y-17326960D02*
X14551015Y-17317436D01*
X14551015Y-17317436D02*
X14541491Y-17298389D01*
X14541491Y-17298389D02*
X14541491Y-17241246D01*
X14541491Y-17241246D02*
X14551015Y-17222198D01*
X14551015Y-17222198D02*
X14560539Y-17212674D01*
X14560539Y-17212674D02*
X14579587Y-17203150D01*
X14579587Y-17203150D02*
X14608158Y-17203150D01*
X14608158Y-17203150D02*
X14627206Y-17212674D01*
X14627206Y-17212674D02*
X14636730Y-17222198D01*
X14636730Y-17222198D02*
X14646253Y-17241246D01*
X14646253Y-17241246D02*
X14646253Y-17298389D01*
X14646253Y-17298389D02*
X14636730Y-17317436D01*
X14636730Y-17317436D02*
X14627206Y-17326960D01*
X14627206Y-17326960D02*
X14608158Y-17336484D01*
X14608158Y-17336484D02*
X14579587Y-17336484D01*
X14760539Y-17336484D02*
X14741491Y-17326960D01*
X14741491Y-17326960D02*
X14731968Y-17307912D01*
X14731968Y-17307912D02*
X14731968Y-17136484D01*
X14912920Y-17326960D02*
X14893872Y-17336484D01*
X14893872Y-17336484D02*
X14855777Y-17336484D01*
X14855777Y-17336484D02*
X14836730Y-17326960D01*
X14836730Y-17326960D02*
X14827206Y-17307912D01*
X14827206Y-17307912D02*
X14827206Y-17231722D01*
X14827206Y-17231722D02*
X14836730Y-17212674D01*
X14836730Y-17212674D02*
X14855777Y-17203150D01*
X14855777Y-17203150D02*
X14893872Y-17203150D01*
X14893872Y-17203150D02*
X14912920Y-17212674D01*
X14912920Y-17212674D02*
X14922444Y-17231722D01*
X14922444Y-17231722D02*
X14922444Y-17250770D01*
X14922444Y-17250770D02*
X14827206Y-17269817D01*
X14998634Y-17326960D02*
X15017682Y-17336484D01*
X15017682Y-17336484D02*
X15055777Y-17336484D01*
X15055777Y-17336484D02*
X15074825Y-17326960D01*
X15074825Y-17326960D02*
X15084349Y-17307912D01*
X15084349Y-17307912D02*
X15084349Y-17298389D01*
X15084349Y-17298389D02*
X15074825Y-17279341D01*
X15074825Y-17279341D02*
X15055777Y-17269817D01*
X15055777Y-17269817D02*
X15027206Y-17269817D01*
X15027206Y-17269817D02*
X15008158Y-17260293D01*
X15008158Y-17260293D02*
X14998634Y-17241246D01*
X14998634Y-17241246D02*
X14998634Y-17231722D01*
X14998634Y-17231722D02*
X15008158Y-17212674D01*
X15008158Y-17212674D02*
X15027206Y-17203150D01*
X15027206Y-17203150D02*
X15055777Y-17203150D01*
X15055777Y-17203150D02*
X15074825Y-17212674D01*
X15151015Y-17412674D02*
X15160539Y-17403150D01*
X15160539Y-17403150D02*
X15179587Y-17374579D01*
X15179587Y-17374579D02*
X15189111Y-17355531D01*
X15189111Y-17355531D02*
X15198634Y-17326960D01*
X15198634Y-17326960D02*
X15208158Y-17279341D01*
X15208158Y-17279341D02*
X15208158Y-17241246D01*
X15208158Y-17241246D02*
X15198634Y-17193627D01*
X15198634Y-17193627D02*
X15189111Y-17165055D01*
X15189111Y-17165055D02*
X15179587Y-17146008D01*
X15179587Y-17146008D02*
X15160539Y-17117436D01*
X15160539Y-17117436D02*
X15151015Y-17107912D01*
M02*
