%TF.GenerationSoftware,KiCad,Pcbnew,10.0.6*%
%TF.CreationDate,2026-09-27T19:27:52+03:00*%
%TF.ProjectId,keyboard_prototype,6b657962-6f61-4726-945f-70726f746f74,rev?*%
%TF.SameCoordinates,Original*%
%TF.FileFunction,Legend,Top*%
%TF.FilePolarity,Positive*%
%FSLAX46Y46*%
G04 Gerber Fmt 4.6, Leading zero omitted, Abs format (unit mm)*
G04 Created by KiCad (PCBNEW 10.0.6) date 2026-09-27 19:27:52*
%MOMM*%
%LPD*%
G01*
G04 APERTURE LIST*
G04 Aperture macros list*
%AMRoundRect*
0 Rectangle with rounded corners*
0 $1 Rounding radius*
0 $2 $3 $4 $5 $6 $7 $8 $9 X,Y pos of 4 corners*
0 Add a 4 corners polygon primitive as box body*
4,1,4,$2,$3,$4,$5,$6,$7,$8,$9,$2,$3,0*
0 Add four circle primitives for the rounded corners*
1,1,$1+$1,$2,$3*
1,1,$1+$1,$4,$5*
1,1,$1+$1,$6,$7*
1,1,$1+$1,$8,$9*
0 Add four rect primitives between the rounded corners*
20,1,$1+$1,$2,$3,$4,$5,0*
20,1,$1+$1,$4,$5,$6,$7,0*
20,1,$1+$1,$6,$7,$8,$9,0*
20,1,$1+$1,$8,$9,$2,$3,0*%
G04 Aperture macros list end*
%ADD10C,0.120000*%
%ADD11R,1.000000X0.750000*%
%ADD12RoundRect,0.200000X-0.200000X-0.275000X0.200000X-0.275000X0.200000X0.275000X-0.200000X0.275000X0*%
%ADD13RoundRect,0.225000X-0.375000X0.225000X-0.375000X-0.225000X0.375000X-0.225000X0.375000X0.225000X0*%
%ADD14RoundRect,0.218750X-0.218750X-0.256250X0.218750X-0.256250X0.218750X0.256250X-0.218750X0.256250X0*%
%ADD15RoundRect,0.225000X0.375000X-0.225000X0.375000X0.225000X-0.375000X0.225000X-0.375000X-0.225000X0*%
%ADD16C,2.200000*%
%ADD17R,0.750000X1.000000*%
%ADD18RoundRect,0.150000X-0.587500X-0.150000X0.587500X-0.150000X0.587500X0.150000X-0.587500X0.150000X0*%
G04 APERTURE END LIST*
%TO.C,SW14*%
D10*
X142250000Y-110000000D02*
X142250000Y-112000000D01*
X143250000Y-108700000D02*
X143700000Y-108250000D01*
X143250000Y-113300000D02*
X143700000Y-113750000D01*
X143700000Y-108250000D02*
X146300000Y-108250000D01*
X143700000Y-113750000D02*
X146300000Y-113750000D01*
X146750000Y-108700000D02*
X146300000Y-108250000D01*
X146750000Y-113300000D02*
X146300000Y-113750000D01*
X147750000Y-110000000D02*
X147750000Y-112000000D01*
%TO.C,R8*%
X136262742Y-157427500D02*
X136737258Y-157427500D01*
X136262742Y-158472500D02*
X136737258Y-158472500D01*
%TO.C,D13*%
X115200000Y-108640000D02*
X115200000Y-112650000D01*
X117200000Y-108640000D02*
X115200000Y-108640000D01*
X117200000Y-108640000D02*
X117200000Y-112650000D01*
%TO.C,LED4*%
X118015000Y-159815000D02*
X118015000Y-161285000D01*
X118015000Y-161285000D02*
X120300000Y-161285000D01*
X120300000Y-159815000D02*
X118015000Y-159815000D01*
%TO.C,LED2*%
X118015000Y-140815000D02*
X118015000Y-142285000D01*
X118015000Y-142285000D02*
X120300000Y-142285000D01*
X120300000Y-140815000D02*
X118015000Y-140815000D01*
%TO.C,SW2*%
X125250000Y-129750000D02*
X125250000Y-131750000D01*
X126250000Y-128450000D02*
X126700000Y-128000000D01*
X126250000Y-133050000D02*
X126700000Y-133500000D01*
X126700000Y-128000000D02*
X129300000Y-128000000D01*
X126700000Y-133500000D02*
X129300000Y-133500000D01*
X129750000Y-128450000D02*
X129300000Y-128000000D01*
X129750000Y-133050000D02*
X129300000Y-133500000D01*
X130750000Y-129750000D02*
X130750000Y-131750000D01*
%TO.C,D19*%
X115600000Y-118360000D02*
X115600000Y-114350000D01*
X115600000Y-118360000D02*
X117600000Y-118360000D01*
X117600000Y-118360000D02*
X117600000Y-114350000D01*
%TO.C,SW18*%
X125250000Y-122000000D02*
X125250000Y-124000000D01*
X126250000Y-120700000D02*
X126700000Y-120250000D01*
X126250000Y-125300000D02*
X126700000Y-125750000D01*
X126700000Y-120250000D02*
X129300000Y-120250000D01*
X126700000Y-125750000D02*
X129300000Y-125750000D01*
X129750000Y-120700000D02*
X129300000Y-120250000D01*
X129750000Y-125300000D02*
X129300000Y-125750000D01*
X130750000Y-122000000D02*
X130750000Y-124000000D01*
%TO.C,D6*%
X149200000Y-137890000D02*
X149200000Y-141900000D01*
X151200000Y-137890000D02*
X149200000Y-137890000D01*
X151200000Y-137890000D02*
X151200000Y-141900000D01*
%TO.C,SW1*%
X108250000Y-129750000D02*
X108250000Y-131750000D01*
X109250000Y-128450000D02*
X109700000Y-128000000D01*
X109250000Y-133050000D02*
X109700000Y-133500000D01*
X109700000Y-128000000D02*
X112300000Y-128000000D01*
X109700000Y-133500000D02*
X112300000Y-133500000D01*
X112750000Y-128450000D02*
X112300000Y-128000000D01*
X112750000Y-133050000D02*
X112300000Y-133500000D01*
X113750000Y-129750000D02*
X113750000Y-131750000D01*
%TO.C,D16*%
X149200000Y-118640000D02*
X149200000Y-122650000D01*
X151200000Y-118640000D02*
X149200000Y-118640000D01*
X151200000Y-118640000D02*
X151200000Y-122650000D01*
%TO.C,SW20*%
X132250000Y-117300000D02*
X132250000Y-114700000D01*
X132700000Y-114250000D02*
X132250000Y-114700000D01*
X132700000Y-117750000D02*
X132250000Y-117300000D01*
X134000000Y-113250000D02*
X136000000Y-113250000D01*
X134000000Y-118750000D02*
X136000000Y-118750000D01*
X137300000Y-114250000D02*
X137750000Y-114700000D01*
X137300000Y-117750000D02*
X137750000Y-117300000D01*
X137750000Y-117300000D02*
X137750000Y-114700000D01*
%TO.C,D10*%
X115200000Y-156890000D02*
X115200000Y-160900000D01*
X117200000Y-156890000D02*
X115200000Y-156890000D01*
X117200000Y-156890000D02*
X117200000Y-160900000D01*
%TO.C,SW9*%
X142250000Y-148750000D02*
X142250000Y-150750000D01*
X143250000Y-147450000D02*
X143700000Y-147000000D01*
X143250000Y-152050000D02*
X143700000Y-152500000D01*
X143700000Y-147000000D02*
X146300000Y-147000000D01*
X143700000Y-152500000D02*
X146300000Y-152500000D01*
X146750000Y-147450000D02*
X146300000Y-147000000D01*
X146750000Y-152050000D02*
X146300000Y-152500000D01*
X147750000Y-148750000D02*
X147750000Y-150750000D01*
%TO.C,Q1*%
X118240000Y-124040000D02*
X119760000Y-124040000D01*
X118240000Y-124090000D02*
X118240000Y-124040000D01*
X118240000Y-125990000D02*
X118240000Y-125210000D01*
X118240000Y-127160000D02*
X118240000Y-127110000D01*
X119760000Y-124040000D02*
X119760000Y-125040000D01*
X119760000Y-126160000D02*
X119760000Y-127160000D01*
X119760000Y-127160000D02*
X118240000Y-127160000D01*
X117700000Y-125220000D02*
X117940000Y-125550000D01*
X117460000Y-125550000D01*
X117700000Y-125220000D01*
G36*
X117940000Y-125550000D02*
G01*
X117460000Y-125550000D01*
X117700000Y-125220000D01*
X117940000Y-125550000D01*
G37*
%TO.C,D15*%
X115200000Y-118640000D02*
X115200000Y-122650000D01*
X117200000Y-118640000D02*
X115200000Y-118640000D01*
X117200000Y-118640000D02*
X117200000Y-122650000D01*
%TO.C,D3*%
X149200000Y-128390000D02*
X149200000Y-132400000D01*
X151200000Y-128390000D02*
X149200000Y-128390000D01*
X151200000Y-128390000D02*
X151200000Y-132400000D01*
%TO.C,R2*%
X119262742Y-138427500D02*
X119737258Y-138427500D01*
X119262742Y-139472500D02*
X119737258Y-139472500D01*
%TO.C,SW11*%
X125250000Y-158250000D02*
X125250000Y-160250000D01*
X126250000Y-156950000D02*
X126700000Y-156500000D01*
X126250000Y-161550000D02*
X126700000Y-162000000D01*
X126700000Y-156500000D02*
X129300000Y-156500000D01*
X126700000Y-162000000D02*
X129300000Y-162000000D01*
X129750000Y-156950000D02*
X129300000Y-156500000D01*
X129750000Y-161550000D02*
X129300000Y-162000000D01*
X130750000Y-158250000D02*
X130750000Y-160250000D01*
%TO.C,SW15*%
X108250000Y-120000000D02*
X108250000Y-122000000D01*
X109250000Y-118700000D02*
X109700000Y-118250000D01*
X109250000Y-123300000D02*
X109700000Y-123750000D01*
X109700000Y-118250000D02*
X112300000Y-118250000D01*
X109700000Y-123750000D02*
X112300000Y-123750000D01*
X112750000Y-118700000D02*
X112300000Y-118250000D01*
X112750000Y-123300000D02*
X112300000Y-123750000D01*
X113750000Y-120000000D02*
X113750000Y-122000000D01*
%TO.C,SW3*%
X142250000Y-129750000D02*
X142250000Y-131750000D01*
X143250000Y-128450000D02*
X143700000Y-128000000D01*
X143250000Y-133050000D02*
X143700000Y-133500000D01*
X143700000Y-128000000D02*
X146300000Y-128000000D01*
X143700000Y-133500000D02*
X146300000Y-133500000D01*
X146750000Y-128450000D02*
X146300000Y-128000000D01*
X146750000Y-133050000D02*
X146300000Y-133500000D01*
X147750000Y-129750000D02*
X147750000Y-131750000D01*
%TO.C,LED1*%
X118015000Y-131315000D02*
X118015000Y-132785000D01*
X118015000Y-132785000D02*
X120300000Y-132785000D01*
X120300000Y-131315000D02*
X118015000Y-131315000D01*
%TO.C,D8*%
X132199999Y-147390000D02*
X132199999Y-151400000D01*
X134199999Y-147390000D02*
X132199999Y-147390000D01*
X134199999Y-147390000D02*
X134199999Y-151400000D01*
%TO.C,D1*%
X115200000Y-128390000D02*
X115200000Y-132400000D01*
X117200000Y-128390000D02*
X115200000Y-128390000D01*
X117200000Y-128390000D02*
X117200000Y-132400000D01*
%TO.C,D5*%
X132199999Y-137890000D02*
X132199999Y-141900000D01*
X134199999Y-137890000D02*
X132199999Y-137890000D01*
X134199999Y-137890000D02*
X134199999Y-141900000D01*
%TO.C,SW7*%
X108250000Y-148750000D02*
X108250000Y-150750000D01*
X109250000Y-147450000D02*
X109700000Y-147000000D01*
X109250000Y-152050000D02*
X109700000Y-152500000D01*
X109700000Y-147000000D02*
X112300000Y-147000000D01*
X109700000Y-152500000D02*
X112300000Y-152500000D01*
X112750000Y-147450000D02*
X112300000Y-147000000D01*
X112750000Y-152050000D02*
X112300000Y-152500000D01*
X113750000Y-148750000D02*
X113750000Y-150750000D01*
%TO.C,R9*%
X122862742Y-126077500D02*
X123337258Y-126077500D01*
X122862742Y-127122500D02*
X123337258Y-127122500D01*
%TO.C,LED7*%
X135015000Y-150315000D02*
X135015000Y-151785000D01*
X135015000Y-151785000D02*
X137300000Y-151785000D01*
X137300000Y-150315000D02*
X135015000Y-150315000D01*
%TO.C,D17*%
X121800000Y-106640000D02*
X121800000Y-110650000D01*
X123800000Y-106640000D02*
X121800000Y-106640000D01*
X123800000Y-106640000D02*
X123800000Y-110650000D01*
%TO.C,R5*%
X136262742Y-128927499D02*
X136737258Y-128927499D01*
X136262742Y-129972499D02*
X136737258Y-129972499D01*
%TO.C,D7*%
X115200000Y-147390000D02*
X115200000Y-151400000D01*
X117200000Y-147390000D02*
X115200000Y-147390000D01*
X117200000Y-147390000D02*
X117200000Y-151400000D01*
%TO.C,SW19*%
X118250000Y-117300000D02*
X118250000Y-114700000D01*
X118700000Y-114250000D02*
X118250000Y-114700000D01*
X118700000Y-117750000D02*
X118250000Y-117300000D01*
X120000000Y-113250000D02*
X122000000Y-113250000D01*
X120000000Y-118750000D02*
X122000000Y-118750000D01*
X123300000Y-114250000D02*
X123750000Y-114700000D01*
X123300000Y-117750000D02*
X123750000Y-117300000D01*
X123750000Y-117300000D02*
X123750000Y-114700000D01*
%TO.C,D9*%
X149200000Y-147390000D02*
X149200000Y-151400000D01*
X151200000Y-147390000D02*
X149200000Y-147390000D01*
X151200000Y-147390000D02*
X151200000Y-151400000D01*
%TO.C,LED5*%
X135015000Y-131315000D02*
X135015000Y-132785000D01*
X135015000Y-132785000D02*
X137300000Y-132785000D01*
X137300000Y-131315000D02*
X135015000Y-131315000D01*
%TO.C,D20*%
X138400000Y-118360000D02*
X138400000Y-114350000D01*
X138400000Y-118360000D02*
X140400000Y-118360000D01*
X140400000Y-118360000D02*
X140400000Y-114350000D01*
%TO.C,D4*%
X115200000Y-137890000D02*
X115200000Y-141900000D01*
X117200000Y-137890000D02*
X115200000Y-137890000D01*
X117200000Y-137890000D02*
X117200000Y-141900000D01*
%TO.C,LED3*%
X118015000Y-150315000D02*
X118015000Y-151785000D01*
X118015000Y-151785000D02*
X120300000Y-151785000D01*
X120300000Y-150315000D02*
X118015000Y-150315000D01*
%TO.C,D2*%
X132199999Y-128390000D02*
X132199999Y-132400000D01*
X134199999Y-128390000D02*
X132199999Y-128390000D01*
X134199999Y-128390000D02*
X134199999Y-132400000D01*
%TO.C,R4*%
X119262742Y-157427500D02*
X119737258Y-157427500D01*
X119262742Y-158472500D02*
X119737258Y-158472500D01*
%TO.C,D14*%
X149200000Y-108640000D02*
X149200000Y-112650000D01*
X151200000Y-108640000D02*
X149200000Y-108640000D01*
X151200000Y-108640000D02*
X151200000Y-112650000D01*
%TO.C,R6*%
X136262742Y-138427500D02*
X136737258Y-138427500D01*
X136262742Y-139472500D02*
X136737258Y-139472500D01*
%TO.C,SW6*%
X142250000Y-139250000D02*
X142250000Y-141250000D01*
X143250000Y-137950000D02*
X143700000Y-137500000D01*
X143250000Y-142550000D02*
X143700000Y-143000000D01*
X143700000Y-137500000D02*
X146300000Y-137500000D01*
X143700000Y-143000000D02*
X146300000Y-143000000D01*
X146750000Y-137950000D02*
X146300000Y-137500000D01*
X146750000Y-142550000D02*
X146300000Y-143000000D01*
X147750000Y-139250000D02*
X147750000Y-141250000D01*
%TO.C,R7*%
X136262742Y-147927500D02*
X136737258Y-147927500D01*
X136262742Y-148972500D02*
X136737258Y-148972500D01*
%TO.C,LED6*%
X135015000Y-140815000D02*
X135015000Y-142285000D01*
X135015000Y-142285000D02*
X137300000Y-142285000D01*
X137300000Y-140815000D02*
X135015000Y-140815000D01*
%TO.C,SW12*%
X142250000Y-158250000D02*
X142250000Y-160250000D01*
X143250000Y-156950000D02*
X143700000Y-156500000D01*
X143250000Y-161550000D02*
X143700000Y-162000000D01*
X143700000Y-156500000D02*
X146300000Y-156500000D01*
X143700000Y-162000000D02*
X146300000Y-162000000D01*
X146750000Y-156950000D02*
X146300000Y-156500000D01*
X146750000Y-161550000D02*
X146300000Y-162000000D01*
X147750000Y-158250000D02*
X147750000Y-160250000D01*
%TO.C,SW10*%
X108250000Y-158250000D02*
X108250000Y-160250000D01*
X109250000Y-156950000D02*
X109700000Y-156500000D01*
X109250000Y-161550000D02*
X109700000Y-162000000D01*
X109700000Y-156500000D02*
X112300000Y-156500000D01*
X109700000Y-162000000D02*
X112300000Y-162000000D01*
X112750000Y-156950000D02*
X112300000Y-156500000D01*
X112750000Y-161550000D02*
X112300000Y-162000000D01*
X113750000Y-158250000D02*
X113750000Y-160250000D01*
%TO.C,R3*%
X119262742Y-147927500D02*
X119737258Y-147927500D01*
X119262742Y-148972500D02*
X119737258Y-148972500D01*
%TO.C,D18*%
X132199999Y-120640000D02*
X132199999Y-124650000D01*
X134199999Y-120640000D02*
X132199999Y-120640000D01*
X134199999Y-120640000D02*
X134199999Y-124650000D01*
%TO.C,SW21*%
X125250000Y-115000000D02*
X125250000Y-117000000D01*
X126250000Y-113700000D02*
X126700000Y-113250000D01*
X126250000Y-118300000D02*
X126700000Y-118750000D01*
X126700000Y-113250000D02*
X129300000Y-113250000D01*
X126700000Y-118750000D02*
X129300000Y-118750000D01*
X129750000Y-113700000D02*
X129300000Y-113250000D01*
X129750000Y-118300000D02*
X129300000Y-118750000D01*
X130750000Y-115000000D02*
X130750000Y-117000000D01*
%TO.C,D11*%
X132199999Y-156890000D02*
X132199999Y-160900000D01*
X134199999Y-156890000D02*
X132199999Y-156890000D01*
X134199999Y-156890000D02*
X134199999Y-160900000D01*
%TO.C,D21*%
X132199999Y-106640000D02*
X132199999Y-110650000D01*
X134199999Y-106640000D02*
X132199999Y-106640000D01*
X134199999Y-106640000D02*
X134199999Y-110650000D01*
%TO.C,SW17*%
X125250000Y-108000000D02*
X125250000Y-110000000D01*
X126250000Y-106700000D02*
X126700000Y-106250000D01*
X126250000Y-111300000D02*
X126700000Y-111750000D01*
X126700000Y-106250000D02*
X129300000Y-106250000D01*
X126700000Y-111750000D02*
X129300000Y-111750000D01*
X129750000Y-106700000D02*
X129300000Y-106250000D01*
X129750000Y-111300000D02*
X129300000Y-111750000D01*
X130750000Y-108000000D02*
X130750000Y-110000000D01*
%TO.C,SW5*%
X125250000Y-139250000D02*
X125250000Y-141250000D01*
X126250000Y-137950000D02*
X126700000Y-137500000D01*
X126250000Y-142550000D02*
X126700000Y-143000000D01*
X126700000Y-137500000D02*
X129300000Y-137500000D01*
X126700000Y-143000000D02*
X129300000Y-143000000D01*
X129750000Y-137950000D02*
X129300000Y-137500000D01*
X129750000Y-142550000D02*
X129300000Y-143000000D01*
X130750000Y-139250000D02*
X130750000Y-141250000D01*
%TO.C,SW4*%
X108250000Y-139250000D02*
X108250000Y-141250000D01*
X109250000Y-137950000D02*
X109700000Y-137500000D01*
X109250000Y-142550000D02*
X109700000Y-143000000D01*
X109700000Y-137500000D02*
X112300000Y-137500000D01*
X109700000Y-143000000D02*
X112300000Y-143000000D01*
X112750000Y-137950000D02*
X112300000Y-137500000D01*
X112750000Y-142550000D02*
X112300000Y-143000000D01*
X113750000Y-139250000D02*
X113750000Y-141250000D01*
%TO.C,SW8*%
X125250000Y-148750000D02*
X125250000Y-150750000D01*
X126250000Y-147450000D02*
X126700000Y-147000000D01*
X126250000Y-152050000D02*
X126700000Y-152500000D01*
X126700000Y-147000000D02*
X129300000Y-147000000D01*
X126700000Y-152500000D02*
X129300000Y-152500000D01*
X129750000Y-147450000D02*
X129300000Y-147000000D01*
X129750000Y-152050000D02*
X129300000Y-152500000D01*
X130750000Y-148750000D02*
X130750000Y-150750000D01*
%TO.C,LED8*%
X135015000Y-159815000D02*
X135015000Y-161285000D01*
X135015000Y-161285000D02*
X137300000Y-161285000D01*
X137300000Y-159815000D02*
X135015000Y-159815000D01*
%TO.C,D12*%
X149200000Y-156890000D02*
X149200000Y-160900000D01*
X151200000Y-156890000D02*
X149200000Y-156890000D01*
X151200000Y-156890000D02*
X151200000Y-160900000D01*
%TO.C,SW16*%
X142250000Y-120000000D02*
X142250000Y-122000000D01*
X143250000Y-118700000D02*
X143700000Y-118250000D01*
X143250000Y-123300000D02*
X143700000Y-123750000D01*
X143700000Y-118250000D02*
X146300000Y-118250000D01*
X143700000Y-123750000D02*
X146300000Y-123750000D01*
X146750000Y-118700000D02*
X146300000Y-118250000D01*
X146750000Y-123300000D02*
X146300000Y-123750000D01*
X147750000Y-120000000D02*
X147750000Y-122000000D01*
%TO.C,SW13*%
X108250000Y-110000000D02*
X108250000Y-112000000D01*
X109250000Y-108700000D02*
X109700000Y-108250000D01*
X109250000Y-113300000D02*
X109700000Y-113750000D01*
X109700000Y-108250000D02*
X112300000Y-108250000D01*
X109700000Y-113750000D02*
X112300000Y-113750000D01*
X112750000Y-108700000D02*
X112300000Y-108250000D01*
X112750000Y-113300000D02*
X112300000Y-113750000D01*
X113750000Y-110000000D02*
X113750000Y-112000000D01*
%TO.C,R1*%
X119262742Y-128927499D02*
X119737258Y-128927499D01*
X119262742Y-129972499D02*
X119737258Y-129972499D01*
%TD*%
%LPC*%
D11*
%TO.C,SW14*%
X142000000Y-109125000D03*
X148000000Y-109125000D03*
X142000000Y-112875000D03*
X148000000Y-112875000D03*
%TD*%
D12*
%TO.C,R8*%
X135675000Y-157950000D03*
X137325000Y-157950000D03*
%TD*%
D13*
%TO.C,D13*%
X116200000Y-109350000D03*
X116200000Y-112650000D03*
%TD*%
D14*
%TO.C,LED4*%
X118712500Y-160550000D03*
X120287500Y-160550000D03*
%TD*%
%TO.C,LED2*%
X118712500Y-141550000D03*
X120287500Y-141550000D03*
%TD*%
D11*
%TO.C,SW2*%
X125000000Y-128875000D03*
X131000000Y-128875000D03*
X125000000Y-132625000D03*
X131000000Y-132625000D03*
%TD*%
D15*
%TO.C,D19*%
X116600000Y-117650000D03*
X116600000Y-114350000D03*
%TD*%
D11*
%TO.C,SW18*%
X125000000Y-121125000D03*
X131000000Y-121125000D03*
X125000000Y-124875000D03*
X131000000Y-124875000D03*
%TD*%
D13*
%TO.C,D6*%
X150200000Y-138600000D03*
X150200000Y-141900000D03*
%TD*%
D16*
%TO.C,H1*%
X102800000Y-163500000D03*
%TD*%
D11*
%TO.C,SW1*%
X108000000Y-128875000D03*
X114000000Y-128875000D03*
X108000000Y-132625000D03*
X114000000Y-132625000D03*
%TD*%
D13*
%TO.C,D16*%
X150200000Y-119350000D03*
X150200000Y-122650000D03*
%TD*%
D17*
%TO.C,SW20*%
X133125000Y-119000000D03*
X133125000Y-113000000D03*
X136875000Y-119000000D03*
X136875000Y-113000000D03*
%TD*%
D13*
%TO.C,D10*%
X116200000Y-157600000D03*
X116200000Y-160900000D03*
%TD*%
D11*
%TO.C,SW9*%
X142000000Y-147875000D03*
X148000000Y-147875000D03*
X142000000Y-151625000D03*
X148000000Y-151625000D03*
%TD*%
D18*
%TO.C,Q1*%
X118062500Y-124650000D03*
X118062500Y-126550000D03*
X119937500Y-125600000D03*
%TD*%
D13*
%TO.C,D15*%
X116200000Y-119350000D03*
X116200000Y-122650000D03*
%TD*%
D16*
%TO.C,H2*%
X153200000Y-163500000D03*
%TD*%
D13*
%TO.C,D3*%
X150200000Y-129100000D03*
X150200000Y-132400000D03*
%TD*%
D12*
%TO.C,R2*%
X118675000Y-138950000D03*
X120325000Y-138950000D03*
%TD*%
D11*
%TO.C,SW11*%
X125000000Y-157375000D03*
X131000000Y-157375000D03*
X125000000Y-161125000D03*
X131000000Y-161125000D03*
%TD*%
%TO.C,SW15*%
X108000000Y-119125000D03*
X114000000Y-119125000D03*
X108000000Y-122875000D03*
X114000000Y-122875000D03*
%TD*%
%TO.C,SW3*%
X142000000Y-128875000D03*
X148000000Y-128875000D03*
X142000000Y-132625000D03*
X148000000Y-132625000D03*
%TD*%
D14*
%TO.C,LED1*%
X118712500Y-132050000D03*
X120287500Y-132050000D03*
%TD*%
D13*
%TO.C,D8*%
X133199999Y-148100000D03*
X133199999Y-151400000D03*
%TD*%
%TO.C,D1*%
X116200000Y-129100000D03*
X116200000Y-132400000D03*
%TD*%
%TO.C,D5*%
X133199999Y-138600000D03*
X133199999Y-141900000D03*
%TD*%
D11*
%TO.C,SW7*%
X108000000Y-147875000D03*
X114000000Y-147875000D03*
X108000000Y-151625000D03*
X114000000Y-151625000D03*
%TD*%
D12*
%TO.C,R9*%
X122275000Y-126600000D03*
X123925000Y-126600000D03*
%TD*%
D14*
%TO.C,LED7*%
X135712500Y-151050000D03*
X137287500Y-151050000D03*
%TD*%
D13*
%TO.C,D17*%
X122800000Y-107350000D03*
X122800000Y-110650000D03*
%TD*%
D12*
%TO.C,R5*%
X135675000Y-129449999D03*
X137325000Y-129449999D03*
%TD*%
D13*
%TO.C,D7*%
X116200000Y-148100000D03*
X116200000Y-151400000D03*
%TD*%
D17*
%TO.C,SW19*%
X119125000Y-119000000D03*
X119125000Y-113000000D03*
X122875000Y-119000000D03*
X122875000Y-113000000D03*
%TD*%
D13*
%TO.C,D9*%
X150200000Y-148100000D03*
X150200000Y-151400000D03*
%TD*%
D14*
%TO.C,LED5*%
X135712500Y-132050000D03*
X137287500Y-132050000D03*
%TD*%
D15*
%TO.C,D20*%
X139400000Y-117650000D03*
X139400000Y-114350000D03*
%TD*%
D13*
%TO.C,D4*%
X116200000Y-138600000D03*
X116200000Y-141900000D03*
%TD*%
D14*
%TO.C,LED3*%
X118712500Y-151050000D03*
X120287500Y-151050000D03*
%TD*%
D16*
%TO.C,H3*%
X103500000Y-103500000D03*
%TD*%
D13*
%TO.C,D2*%
X133199999Y-129100000D03*
X133199999Y-132400000D03*
%TD*%
D12*
%TO.C,R4*%
X118675000Y-157950000D03*
X120325000Y-157950000D03*
%TD*%
D13*
%TO.C,D14*%
X150200000Y-109350000D03*
X150200000Y-112650000D03*
%TD*%
D12*
%TO.C,R6*%
X135675000Y-138950000D03*
X137325000Y-138950000D03*
%TD*%
D11*
%TO.C,SW6*%
X142000000Y-138375000D03*
X148000000Y-138375000D03*
X142000000Y-142125000D03*
X148000000Y-142125000D03*
%TD*%
D12*
%TO.C,R7*%
X135675000Y-148450000D03*
X137325000Y-148450000D03*
%TD*%
D14*
%TO.C,LED6*%
X135712500Y-141550000D03*
X137287500Y-141550000D03*
%TD*%
D11*
%TO.C,SW12*%
X142000000Y-157375000D03*
X148000000Y-157375000D03*
X142000000Y-161125000D03*
X148000000Y-161125000D03*
%TD*%
%TO.C,SW10*%
X108000000Y-157375000D03*
X114000000Y-157375000D03*
X108000000Y-161125000D03*
X114000000Y-161125000D03*
%TD*%
D12*
%TO.C,R3*%
X118675000Y-148450000D03*
X120325000Y-148450000D03*
%TD*%
D13*
%TO.C,D18*%
X133199999Y-121350000D03*
X133199999Y-124650000D03*
%TD*%
D11*
%TO.C,SW21*%
X125000000Y-114125000D03*
X131000000Y-114125000D03*
X125000000Y-117875000D03*
X131000000Y-117875000D03*
%TD*%
D13*
%TO.C,D11*%
X133199999Y-157600000D03*
X133199999Y-160900000D03*
%TD*%
%TO.C,D21*%
X133199999Y-107350000D03*
X133199999Y-110650000D03*
%TD*%
D11*
%TO.C,SW17*%
X125000000Y-107125000D03*
X131000000Y-107125000D03*
X125000000Y-110875000D03*
X131000000Y-110875000D03*
%TD*%
D16*
%TO.C,H4*%
X152500000Y-103500000D03*
%TD*%
D11*
%TO.C,SW5*%
X125000000Y-138375000D03*
X131000000Y-138375000D03*
X125000000Y-142125000D03*
X131000000Y-142125000D03*
%TD*%
%TO.C,SW4*%
X108000000Y-138375000D03*
X114000000Y-138375000D03*
X108000000Y-142125000D03*
X114000000Y-142125000D03*
%TD*%
%TO.C,SW8*%
X125000000Y-147875000D03*
X131000000Y-147875000D03*
X125000000Y-151625000D03*
X131000000Y-151625000D03*
%TD*%
D14*
%TO.C,LED8*%
X135712500Y-160550000D03*
X137287500Y-160550000D03*
%TD*%
D13*
%TO.C,D12*%
X150200000Y-157600000D03*
X150200000Y-160900000D03*
%TD*%
D11*
%TO.C,SW16*%
X142000000Y-119125000D03*
X148000000Y-119125000D03*
X142000000Y-122875000D03*
X148000000Y-122875000D03*
%TD*%
%TO.C,SW13*%
X108000000Y-109125000D03*
X114000000Y-109125000D03*
X108000000Y-112875000D03*
X114000000Y-112875000D03*
%TD*%
D12*
%TO.C,R1*%
X118675000Y-129449999D03*
X120325000Y-129449999D03*
%TD*%
%LPD*%
M02*
