%TF.GenerationSoftware,KiCad,Pcbnew,10.0.6*%
%TF.CreationDate,2026-09-27T19:27:52+03:00*%
%TF.ProjectId,keyboard_prototype,6b657962-6f61-4726-945f-70726f746f74,rev?*%
%TF.SameCoordinates,Original*%
%TF.FileFunction,Copper,L1,Top*%
%TF.FilePolarity,Positive*%
%FSLAX46Y46*%
G04 Gerber Fmt 4.6, Leading zero omitted, Abs format (unit mm)*
G04 Created by KiCad (PCBNEW 10.0.6) date 2026-09-27 19:27:52*
%MOMM*%
%LPD*%
G01*
G04 APERTURE LIST*
G04 Aperture macros list*
%AMRoundRect*
0 Rectangle with rounded corners*
0 $1 Rounding radius*
0 $2 $3 $4 $5 $6 $7 $8 $9 X,Y pos of 4 corners*
0 Add a 4 corners polygon primitive as box body*
4,1,4,$2,$3,$4,$5,$6,$7,$8,$9,$2,$3,0*
0 Add four circle primitives for the rounded corners*
1,1,$1+$1,$2,$3*
1,1,$1+$1,$4,$5*
1,1,$1+$1,$6,$7*
1,1,$1+$1,$8,$9*
0 Add four rect primitives between the rounded corners*
20,1,$1+$1,$2,$3,$4,$5,0*
20,1,$1+$1,$4,$5,$6,$7,0*
20,1,$1+$1,$6,$7,$8,$9,0*
20,1,$1+$1,$8,$9,$2,$3,0*%
G04 Aperture macros list end*
%TA.AperFunction,SMDPad,CuDef*%
%ADD10R,1.000000X0.750000*%
%TD*%
%TA.AperFunction,SMDPad,CuDef*%
%ADD11RoundRect,0.200000X-0.200000X-0.275000X0.200000X-0.275000X0.200000X0.275000X-0.200000X0.275000X0*%
%TD*%
%TA.AperFunction,SMDPad,CuDef*%
%ADD12RoundRect,0.225000X-0.375000X0.225000X-0.375000X-0.225000X0.375000X-0.225000X0.375000X0.225000X0*%
%TD*%
%TA.AperFunction,SMDPad,CuDef*%
%ADD13RoundRect,0.218750X-0.218750X-0.256250X0.218750X-0.256250X0.218750X0.256250X-0.218750X0.256250X0*%
%TD*%
%TA.AperFunction,SMDPad,CuDef*%
%ADD14RoundRect,0.225000X0.375000X-0.225000X0.375000X0.225000X-0.375000X0.225000X-0.375000X-0.225000X0*%
%TD*%
%TA.AperFunction,SMDPad,CuDef*%
%ADD15R,0.750000X1.000000*%
%TD*%
%TA.AperFunction,SMDPad,CuDef*%
%ADD16RoundRect,0.150000X-0.587500X-0.150000X0.587500X-0.150000X0.587500X0.150000X-0.587500X0.150000X0*%
%TD*%
%TA.AperFunction,ViaPad*%
%ADD17C,0.600000*%
%TD*%
%TA.AperFunction,Conductor*%
%ADD18C,0.250000*%
%TD*%
G04 APERTURE END LIST*
D10*
%TO.P,SW14,1*%
%TO.N,/COL2*%
X142000000Y-109125000D03*
X148000000Y-109125000D03*
%TO.P,SW14,2*%
%TO.N,Net-(D14-A)*%
X142000000Y-112875000D03*
X148000000Y-112875000D03*
%TD*%
D11*
%TO.P,R8,1*%
%TO.N,/LED_PWR*%
X135675000Y-157950000D03*
%TO.P,R8,2*%
%TO.N,Net-(LED8-A)*%
X137325000Y-157950000D03*
%TD*%
D12*
%TO.P,D13,1*%
%TO.N,/ROW4*%
X116200000Y-109350000D03*
%TO.P,D13,2*%
%TO.N,Net-(D13-A)*%
X116200000Y-112650000D03*
%TD*%
D13*
%TO.P,LED4,1*%
%TO.N,/LED_K*%
X118712500Y-160550000D03*
%TO.P,LED4,2*%
%TO.N,Net-(LED4-A)*%
X120287500Y-160550000D03*
%TD*%
%TO.P,LED2,1*%
%TO.N,/LED_K*%
X118712500Y-141550000D03*
%TO.P,LED2,2*%
%TO.N,Net-(LED2-A)*%
X120287500Y-141550000D03*
%TD*%
D10*
%TO.P,SW2,1*%
%TO.N,/COL1*%
X125000000Y-128875000D03*
X131000000Y-128875000D03*
%TO.P,SW2,2*%
%TO.N,Net-(D2-A)*%
X125000000Y-132625000D03*
X131000000Y-132625000D03*
%TD*%
D14*
%TO.P,D19,1*%
%TO.N,/ROW0*%
X116600000Y-117650000D03*
%TO.P,D19,2*%
%TO.N,Net-(D19-A)*%
X116600000Y-114350000D03*
%TD*%
D10*
%TO.P,SW18,1*%
%TO.N,/COL3*%
X125000000Y-121125000D03*
X131000000Y-121125000D03*
%TO.P,SW18,2*%
%TO.N,Net-(D18-A)*%
X125000000Y-124875000D03*
X131000000Y-124875000D03*
%TD*%
D12*
%TO.P,D6,1*%
%TO.N,/ROW1*%
X150200000Y-138600000D03*
%TO.P,D6,2*%
%TO.N,Net-(D6-A)*%
X150200000Y-141900000D03*
%TD*%
D10*
%TO.P,SW1,1*%
%TO.N,/COL0*%
X108000000Y-128875000D03*
X114000000Y-128875000D03*
%TO.P,SW1,2*%
%TO.N,Net-(D1-A)*%
X108000000Y-132625000D03*
X114000000Y-132625000D03*
%TD*%
D12*
%TO.P,D16,1*%
%TO.N,/ROW1*%
X150200000Y-119350000D03*
%TO.P,D16,2*%
%TO.N,Net-(D16-A)*%
X150200000Y-122650000D03*
%TD*%
D15*
%TO.P,SW20,1*%
%TO.N,/COL4*%
X133125000Y-119000000D03*
X133125000Y-113000000D03*
%TO.P,SW20,2*%
%TO.N,Net-(D20-A)*%
X136875000Y-119000000D03*
X136875000Y-113000000D03*
%TD*%
D12*
%TO.P,D10,1*%
%TO.N,/ROW3*%
X116200000Y-157600000D03*
%TO.P,D10,2*%
%TO.N,Net-(D10-A)*%
X116200000Y-160900000D03*
%TD*%
D10*
%TO.P,SW9,1*%
%TO.N,/COL2*%
X142000000Y-147875000D03*
X148000000Y-147875000D03*
%TO.P,SW9,2*%
%TO.N,Net-(D9-A)*%
X142000000Y-151625000D03*
X148000000Y-151625000D03*
%TD*%
D16*
%TO.P,Q1,1*%
%TO.N,/BL_EN*%
X118062500Y-124650000D03*
%TO.P,Q1,2*%
%TO.N,GND*%
X118062500Y-126550000D03*
%TO.P,Q1,3*%
%TO.N,/LED_K*%
X119937500Y-125600000D03*
%TD*%
D12*
%TO.P,D15,1*%
%TO.N,/ROW0*%
X116200000Y-119350000D03*
%TO.P,D15,2*%
%TO.N,Net-(D15-A)*%
X116200000Y-122650000D03*
%TD*%
%TO.P,D3,1*%
%TO.N,/ROW0*%
X150200000Y-129100000D03*
%TO.P,D3,2*%
%TO.N,Net-(D3-A)*%
X150200000Y-132400000D03*
%TD*%
D11*
%TO.P,R2,1*%
%TO.N,/LED_PWR*%
X118675000Y-138950000D03*
%TO.P,R2,2*%
%TO.N,Net-(LED2-A)*%
X120325000Y-138950000D03*
%TD*%
D10*
%TO.P,SW11,1*%
%TO.N,/COL1*%
X125000000Y-157375000D03*
X131000000Y-157375000D03*
%TO.P,SW11,2*%
%TO.N,Net-(D11-A)*%
X125000000Y-161125000D03*
X131000000Y-161125000D03*
%TD*%
%TO.P,SW15,1*%
%TO.N,/COL3*%
X108000000Y-119125000D03*
X114000000Y-119125000D03*
%TO.P,SW15,2*%
%TO.N,Net-(D15-A)*%
X108000000Y-122875000D03*
X114000000Y-122875000D03*
%TD*%
%TO.P,SW3,1*%
%TO.N,/COL2*%
X142000000Y-128875000D03*
X148000000Y-128875000D03*
%TO.P,SW3,2*%
%TO.N,Net-(D3-A)*%
X142000000Y-132625000D03*
X148000000Y-132625000D03*
%TD*%
D13*
%TO.P,LED1,1*%
%TO.N,/LED_K*%
X118712500Y-132050000D03*
%TO.P,LED1,2*%
%TO.N,Net-(LED1-A)*%
X120287500Y-132050000D03*
%TD*%
D12*
%TO.P,D8,1*%
%TO.N,/ROW2*%
X133199999Y-148100000D03*
%TO.P,D8,2*%
%TO.N,Net-(D8-A)*%
X133199999Y-151400000D03*
%TD*%
%TO.P,D1,1*%
%TO.N,/ROW0*%
X116200000Y-129100000D03*
%TO.P,D1,2*%
%TO.N,Net-(D1-A)*%
X116200000Y-132400000D03*
%TD*%
%TO.P,D5,1*%
%TO.N,/ROW1*%
X133199999Y-138600000D03*
%TO.P,D5,2*%
%TO.N,Net-(D5-A)*%
X133199999Y-141900000D03*
%TD*%
D10*
%TO.P,SW7,1*%
%TO.N,/COL0*%
X108000000Y-147875000D03*
X114000000Y-147875000D03*
%TO.P,SW7,2*%
%TO.N,Net-(D7-A)*%
X108000000Y-151625000D03*
X114000000Y-151625000D03*
%TD*%
D11*
%TO.P,R9,1*%
%TO.N,/BL_EN*%
X122275000Y-126600000D03*
%TO.P,R9,2*%
%TO.N,GND*%
X123925000Y-126600000D03*
%TD*%
D13*
%TO.P,LED7,1*%
%TO.N,/LED_K*%
X135712500Y-151050000D03*
%TO.P,LED7,2*%
%TO.N,Net-(LED7-A)*%
X137287500Y-151050000D03*
%TD*%
D12*
%TO.P,D17,1*%
%TO.N,/ROW2*%
X122800000Y-107350000D03*
%TO.P,D17,2*%
%TO.N,Net-(D17-A)*%
X122800000Y-110650000D03*
%TD*%
D11*
%TO.P,R5,1*%
%TO.N,/LED_PWR*%
X135675000Y-129449999D03*
%TO.P,R5,2*%
%TO.N,Net-(LED5-A)*%
X137325000Y-129449999D03*
%TD*%
D12*
%TO.P,D7,1*%
%TO.N,/ROW2*%
X116200000Y-148100000D03*
%TO.P,D7,2*%
%TO.N,Net-(D7-A)*%
X116200000Y-151400000D03*
%TD*%
D15*
%TO.P,SW19,1*%
%TO.N,/COL4*%
X119125000Y-119000000D03*
X119125000Y-113000000D03*
%TO.P,SW19,2*%
%TO.N,Net-(D19-A)*%
X122875000Y-119000000D03*
X122875000Y-113000000D03*
%TD*%
D12*
%TO.P,D9,1*%
%TO.N,/ROW2*%
X150200000Y-148100000D03*
%TO.P,D9,2*%
%TO.N,Net-(D9-A)*%
X150200000Y-151400000D03*
%TD*%
D13*
%TO.P,LED5,1*%
%TO.N,/LED_K*%
X135712500Y-132050000D03*
%TO.P,LED5,2*%
%TO.N,Net-(LED5-A)*%
X137287500Y-132050000D03*
%TD*%
D14*
%TO.P,D20,1*%
%TO.N,/ROW1*%
X139400000Y-117650000D03*
%TO.P,D20,2*%
%TO.N,Net-(D20-A)*%
X139400000Y-114350000D03*
%TD*%
D12*
%TO.P,D4,1*%
%TO.N,/ROW1*%
X116200000Y-138600000D03*
%TO.P,D4,2*%
%TO.N,Net-(D4-A)*%
X116200000Y-141900000D03*
%TD*%
D13*
%TO.P,LED3,1*%
%TO.N,/LED_K*%
X118712500Y-151050000D03*
%TO.P,LED3,2*%
%TO.N,Net-(LED3-A)*%
X120287500Y-151050000D03*
%TD*%
D12*
%TO.P,D2,1*%
%TO.N,/ROW0*%
X133199999Y-129100000D03*
%TO.P,D2,2*%
%TO.N,Net-(D2-A)*%
X133199999Y-132400000D03*
%TD*%
D11*
%TO.P,R4,1*%
%TO.N,/LED_PWR*%
X118675000Y-157950000D03*
%TO.P,R4,2*%
%TO.N,Net-(LED4-A)*%
X120325000Y-157950000D03*
%TD*%
D12*
%TO.P,D14,1*%
%TO.N,/ROW4*%
X150200000Y-109350000D03*
%TO.P,D14,2*%
%TO.N,Net-(D14-A)*%
X150200000Y-112650000D03*
%TD*%
D11*
%TO.P,R6,1*%
%TO.N,/LED_PWR*%
X135675000Y-138950000D03*
%TO.P,R6,2*%
%TO.N,Net-(LED6-A)*%
X137325000Y-138950000D03*
%TD*%
D10*
%TO.P,SW6,1*%
%TO.N,/COL2*%
X142000000Y-138375000D03*
X148000000Y-138375000D03*
%TO.P,SW6,2*%
%TO.N,Net-(D6-A)*%
X142000000Y-142125000D03*
X148000000Y-142125000D03*
%TD*%
D11*
%TO.P,R7,1*%
%TO.N,/LED_PWR*%
X135675000Y-148450000D03*
%TO.P,R7,2*%
%TO.N,Net-(LED7-A)*%
X137325000Y-148450000D03*
%TD*%
D13*
%TO.P,LED6,1*%
%TO.N,/LED_K*%
X135712500Y-141550000D03*
%TO.P,LED6,2*%
%TO.N,Net-(LED6-A)*%
X137287500Y-141550000D03*
%TD*%
D10*
%TO.P,SW12,1*%
%TO.N,/COL2*%
X142000000Y-157375000D03*
X148000000Y-157375000D03*
%TO.P,SW12,2*%
%TO.N,Net-(D12-A)*%
X142000000Y-161125000D03*
X148000000Y-161125000D03*
%TD*%
%TO.P,SW10,1*%
%TO.N,/COL0*%
X108000000Y-157375000D03*
X114000000Y-157375000D03*
%TO.P,SW10,2*%
%TO.N,Net-(D10-A)*%
X108000000Y-161125000D03*
X114000000Y-161125000D03*
%TD*%
D11*
%TO.P,R3,1*%
%TO.N,/LED_PWR*%
X118675000Y-148450000D03*
%TO.P,R3,2*%
%TO.N,Net-(LED3-A)*%
X120325000Y-148450000D03*
%TD*%
D12*
%TO.P,D18,1*%
%TO.N,/ROW3*%
X133199999Y-121350000D03*
%TO.P,D18,2*%
%TO.N,Net-(D18-A)*%
X133199999Y-124650000D03*
%TD*%
D10*
%TO.P,SW21,1*%
%TO.N,/COL1*%
X125000000Y-114125000D03*
X131000000Y-114125000D03*
%TO.P,SW21,2*%
%TO.N,Net-(D21-A)*%
X125000000Y-117875000D03*
X131000000Y-117875000D03*
%TD*%
D12*
%TO.P,D11,1*%
%TO.N,/ROW3*%
X133199999Y-157600000D03*
%TO.P,D11,2*%
%TO.N,Net-(D11-A)*%
X133199999Y-160900000D03*
%TD*%
%TO.P,D21,1*%
%TO.N,/ROW4*%
X133199999Y-107350000D03*
%TO.P,D21,2*%
%TO.N,Net-(D21-A)*%
X133199999Y-110650000D03*
%TD*%
D10*
%TO.P,SW17,1*%
%TO.N,/COL3*%
X125000000Y-107125000D03*
X131000000Y-107125000D03*
%TO.P,SW17,2*%
%TO.N,Net-(D17-A)*%
X125000000Y-110875000D03*
X131000000Y-110875000D03*
%TD*%
%TO.P,SW5,1*%
%TO.N,/COL1*%
X125000000Y-138375000D03*
X131000000Y-138375000D03*
%TO.P,SW5,2*%
%TO.N,Net-(D5-A)*%
X125000000Y-142125000D03*
X131000000Y-142125000D03*
%TD*%
%TO.P,SW4,1*%
%TO.N,/COL0*%
X108000000Y-138375000D03*
X114000000Y-138375000D03*
%TO.P,SW4,2*%
%TO.N,Net-(D4-A)*%
X108000000Y-142125000D03*
X114000000Y-142125000D03*
%TD*%
%TO.P,SW8,1*%
%TO.N,/COL1*%
X125000000Y-147875000D03*
X131000000Y-147875000D03*
%TO.P,SW8,2*%
%TO.N,Net-(D8-A)*%
X125000000Y-151625000D03*
X131000000Y-151625000D03*
%TD*%
D13*
%TO.P,LED8,1*%
%TO.N,/LED_K*%
X135712500Y-160550000D03*
%TO.P,LED8,2*%
%TO.N,Net-(LED8-A)*%
X137287500Y-160550000D03*
%TD*%
D12*
%TO.P,D12,1*%
%TO.N,/ROW3*%
X150200000Y-157600000D03*
%TO.P,D12,2*%
%TO.N,Net-(D12-A)*%
X150200000Y-160900000D03*
%TD*%
D10*
%TO.P,SW16,1*%
%TO.N,/COL3*%
X142000000Y-119125000D03*
X148000000Y-119125000D03*
%TO.P,SW16,2*%
%TO.N,Net-(D16-A)*%
X142000000Y-122875000D03*
X148000000Y-122875000D03*
%TD*%
%TO.P,SW13,1*%
%TO.N,/COL0*%
X108000000Y-109125000D03*
X114000000Y-109125000D03*
%TO.P,SW13,2*%
%TO.N,Net-(D13-A)*%
X108000000Y-112875000D03*
X114000000Y-112875000D03*
%TD*%
D11*
%TO.P,R1,1*%
%TO.N,/LED_PWR*%
X118675000Y-129449999D03*
%TO.P,R1,2*%
%TO.N,Net-(LED1-A)*%
X120325000Y-129449999D03*
%TD*%
D17*
%TO.N,/BL_EN*%
X130000000Y-135250000D03*
X125500000Y-130750000D03*
X139500000Y-157750000D03*
X142750000Y-154750000D03*
X137250000Y-126000000D03*
%TO.N,/COL0*%
X118750000Y-149500000D03*
X129250000Y-139500000D03*
X107500000Y-157000000D03*
X113500000Y-147500000D03*
X107500000Y-128500000D03*
X113500000Y-129250000D03*
X107500000Y-148250000D03*
X128000000Y-140750000D03*
X113500000Y-138750000D03*
X107500000Y-109500000D03*
%TO.N,/COL1*%
X132250000Y-156000000D03*
X121250000Y-147750000D03*
X125500000Y-114500000D03*
X127000000Y-138750000D03*
X124750000Y-129000000D03*
X124750000Y-147250000D03*
X132000000Y-145000000D03*
X122500000Y-149000000D03*
X118750000Y-146500000D03*
X116250000Y-144000000D03*
X126500000Y-127750000D03*
X130250000Y-143500000D03*
X131500000Y-148250000D03*
%TO.N,/COL2*%
X141500000Y-157000000D03*
X147500000Y-138250000D03*
X128500000Y-138000000D03*
X127000000Y-136500000D03*
X147500000Y-129250000D03*
X147500000Y-109500000D03*
X137000000Y-146000000D03*
X141500000Y-148250000D03*
%TO.N,/COL3*%
X116000000Y-124750000D03*
X128750000Y-142750000D03*
X117000000Y-162750000D03*
X126250000Y-140250000D03*
X130250000Y-153750000D03*
X130500000Y-120750000D03*
X126250000Y-156250000D03*
X123750000Y-161250000D03*
X130500000Y-107500000D03*
%TO.N,/COL4*%
X132750000Y-118500000D03*
X135750000Y-121750000D03*
X142250000Y-152750000D03*
X118750000Y-118500000D03*
X132250000Y-140250000D03*
X132750000Y-113500000D03*
X137250000Y-152750000D03*
X125500000Y-136250000D03*
X118750000Y-113250000D03*
%TO.N,/LED_K*%
X138000000Y-134500000D03*
X138500000Y-141250000D03*
%TO.N,/LED_PWR*%
X139500000Y-144750000D03*
X135000000Y-130250000D03*
X117500000Y-162000000D03*
X117500000Y-137000000D03*
X122500000Y-161250000D03*
X134750000Y-138250000D03*
X125250000Y-134500000D03*
X115000000Y-145000000D03*
X138250000Y-155250000D03*
X118500000Y-129750000D03*
X122000000Y-155000000D03*
%TO.N,/ROW0*%
X121500000Y-131750000D03*
X120250000Y-137500000D03*
X133250000Y-129500000D03*
X131000000Y-135250000D03*
X116750000Y-128750000D03*
X135000000Y-128000000D03*
X116750000Y-119750000D03*
%TO.N,/ROW1*%
X149000000Y-137500000D03*
X149750000Y-119750000D03*
X130500000Y-130750000D03*
X132500000Y-134000000D03*
X118250000Y-140500000D03*
X123500000Y-131500000D03*
%TO.N,/ROW2*%
X121750000Y-134750000D03*
X130750000Y-150500000D03*
X132750000Y-150250000D03*
X115750000Y-147750000D03*
X121250000Y-156750000D03*
X134000000Y-153000000D03*
X125250000Y-109750000D03*
X129500000Y-153250000D03*
X119000000Y-136500000D03*
%TO.N,/ROW3*%
X132000000Y-142750000D03*
X134750000Y-144500000D03*
X139250000Y-142000000D03*
X122000000Y-160500000D03*
X135750000Y-123750000D03*
X126500000Y-148250000D03*
%TO.N,/ROW4*%
X123750000Y-153250000D03*
X121250000Y-153250000D03*
X133750000Y-107750000D03*
X130000000Y-140750000D03*
X133000000Y-162000000D03*
X138500000Y-162000000D03*
X125500000Y-146750000D03*
%TO.N,GND*%
X138500000Y-157750000D03*
X118500000Y-126500000D03*
X134000000Y-133500000D03*
X124000000Y-142750000D03*
X140000000Y-135250000D03*
X119750000Y-127750000D03*
X131500000Y-133750000D03*
X142250000Y-154000000D03*
X126250000Y-150750000D03*
X137250000Y-127250000D03*
%TO.N,Net-(D5-A)*%
X125500000Y-149000000D03*
X124250000Y-149750000D03*
%TD*%
%TO.N,/BL_EN*%
D18*
X125000000Y-126000000D02*
X137250000Y-126000000D01*
X142750000Y-154750000D02*
X142500000Y-154750000D01*
X122250000Y-126000000D02*
X122000000Y-126250000D01*
X121000000Y-124750000D02*
X122250000Y-126000000D01*
X130000000Y-135250000D02*
X125500000Y-130750000D01*
X118750000Y-124750000D02*
X121000000Y-124750000D01*
X123000000Y-125750000D02*
X124750000Y-125750000D01*
X124750000Y-125750000D02*
X125000000Y-126000000D01*
X122500000Y-126250000D02*
X123000000Y-125750000D01*
X142500000Y-154750000D02*
X139500000Y-157750000D01*
%TO.N,/COL0*%
X108500000Y-138000000D02*
X113500000Y-138000000D01*
X117500000Y-149000000D02*
X118000000Y-149500000D01*
X128000000Y-140750000D02*
X129250000Y-139500000D01*
X108500000Y-147500000D02*
X113500000Y-147500000D01*
X115250000Y-149000000D02*
X117500000Y-149000000D01*
X118000000Y-149500000D02*
X118750000Y-149500000D01*
X108500000Y-128500000D02*
X113500000Y-128500000D01*
X113500000Y-157000000D02*
X108500000Y-157000000D01*
X114500000Y-148250000D02*
X115250000Y-149000000D01*
X113500000Y-108750000D02*
X108500000Y-108750000D01*
%TO.N,/COL1*%
X129750000Y-144000000D02*
X129500000Y-144000000D01*
X134500000Y-141750000D02*
X134250000Y-142000000D01*
X131250000Y-157000000D02*
X132250000Y-156000000D01*
X125000000Y-147500000D02*
X124750000Y-147250000D01*
X132750000Y-139500000D02*
X134500000Y-141250000D01*
X125500000Y-138750000D02*
X127000000Y-138750000D01*
X131500000Y-138750000D02*
X131750000Y-138750000D01*
X132250000Y-139500000D02*
X132750000Y-139500000D01*
X134500000Y-141250000D02*
X134250000Y-141500000D01*
X125500000Y-157000000D02*
X130500000Y-157000000D01*
X129500000Y-144000000D02*
X126000000Y-147500000D01*
X134250000Y-142500000D02*
X134250000Y-142750000D01*
X130500000Y-147500000D02*
X130000000Y-147000000D01*
X134500000Y-142250000D02*
X134250000Y-142500000D01*
X130000000Y-147000000D02*
X132000000Y-145000000D01*
X131750000Y-138750000D02*
X132250000Y-139250000D01*
X130250000Y-143500000D02*
X129750000Y-144000000D01*
X130500000Y-128500000D02*
X127750000Y-128500000D01*
X130500000Y-113750000D02*
X125500000Y-113750000D01*
X134250000Y-142750000D02*
X132000000Y-145000000D01*
X127750000Y-128500000D02*
X127000000Y-127750000D01*
X134250000Y-142000000D02*
X134500000Y-142250000D01*
X132250000Y-139250000D02*
X132250000Y-139500000D01*
X134250000Y-141500000D02*
X134500000Y-141750000D01*
X127000000Y-127750000D02*
X126500000Y-127750000D01*
X126000000Y-147500000D02*
X125000000Y-147500000D01*
X116250000Y-144000000D02*
X118750000Y-146500000D01*
X122500000Y-149000000D02*
X121250000Y-147750000D01*
%TO.N,/COL2*%
X141750000Y-138750000D02*
X139500000Y-141000000D01*
X147500000Y-157000000D02*
X142500000Y-157000000D01*
X140250000Y-144750000D02*
X140500000Y-144500000D01*
X140500000Y-144500000D02*
X140000000Y-144000000D01*
X128500000Y-138000000D02*
X127000000Y-136500000D01*
X139750000Y-145750000D02*
X140500000Y-145000000D01*
X138750000Y-143750000D02*
X139000000Y-144000000D01*
X140000000Y-144000000D02*
X139000000Y-144000000D01*
X141500000Y-147500000D02*
X139750000Y-145750000D01*
X139000000Y-144000000D02*
X137000000Y-146000000D01*
X140000000Y-142000000D02*
X140250000Y-142250000D01*
X139500000Y-141000000D02*
X140250000Y-141750000D01*
X140500000Y-145000000D02*
X140250000Y-144750000D01*
X142500000Y-108750000D02*
X147500000Y-108750000D01*
X140250000Y-142250000D02*
X138750000Y-143750000D01*
X147500000Y-147500000D02*
X142500000Y-147500000D01*
X140250000Y-141750000D02*
X140000000Y-142000000D01*
X147500000Y-138000000D02*
X142500000Y-138000000D01*
X142500000Y-128500000D02*
X147500000Y-128500000D01*
%TO.N,/COL3*%
X122000000Y-124000000D02*
X116750000Y-124000000D01*
X130500000Y-120750000D02*
X125500000Y-120750000D01*
X108500000Y-118750000D02*
X113500000Y-118750000D01*
X135000000Y-124500000D02*
X134250000Y-123750000D01*
X117500000Y-123000000D02*
X117250000Y-123250000D01*
X136250000Y-124500000D02*
X135000000Y-124500000D01*
X117250000Y-123250000D02*
X117500000Y-123500000D01*
X134250000Y-123750000D02*
X133750000Y-123750000D01*
X130000000Y-154000000D02*
X130250000Y-153750000D01*
X128750000Y-142750000D02*
X126250000Y-140250000D01*
X122500000Y-162000000D02*
X123000000Y-162000000D01*
X117500000Y-123500000D02*
X117000000Y-124000000D01*
X124500000Y-121500000D02*
X122000000Y-124000000D01*
X118250000Y-162500000D02*
X122000000Y-162500000D01*
X115250000Y-120250000D02*
X115750000Y-120250000D01*
X147500000Y-118750000D02*
X142500000Y-118750000D01*
X117000000Y-162750000D02*
X118000000Y-162750000D01*
X140500000Y-120250000D02*
X136250000Y-124500000D01*
X123000000Y-162000000D02*
X123750000Y-161250000D01*
X117500000Y-122000000D02*
X117250000Y-122250000D01*
X114500000Y-119500000D02*
X115250000Y-120250000D01*
X126250000Y-156250000D02*
X128500000Y-154000000D01*
X122000000Y-162500000D02*
X122500000Y-162000000D01*
X117250000Y-122250000D02*
X117500000Y-122500000D01*
X125500000Y-106750000D02*
X130500000Y-106750000D01*
X116750000Y-124000000D02*
X116000000Y-124750000D01*
X117500000Y-122500000D02*
X117250000Y-122750000D01*
X133750000Y-123750000D02*
X131500000Y-121500000D01*
X141500000Y-119500000D02*
X140750000Y-120250000D01*
X115750000Y-120250000D02*
X117500000Y-122000000D01*
X117250000Y-122750000D02*
X117500000Y-123000000D01*
X118000000Y-162750000D02*
X118250000Y-162500000D01*
X128500000Y-154000000D02*
X130000000Y-154000000D01*
X140750000Y-120250000D02*
X140500000Y-120250000D01*
%TO.N,/COL4*%
X128000000Y-138750000D02*
X125500000Y-136250000D01*
X133500000Y-119500000D02*
X135750000Y-121750000D01*
X123500000Y-112000000D02*
X123750000Y-112250000D01*
X123750000Y-112250000D02*
X126750000Y-112250000D01*
X119500000Y-112500000D02*
X121750000Y-112500000D01*
X132250000Y-140250000D02*
X131250000Y-139250000D01*
X131250000Y-139250000D02*
X130250000Y-139250000D01*
X126750000Y-112250000D02*
X127000000Y-112500000D01*
X142250000Y-152750000D02*
X137250000Y-152750000D01*
X127000000Y-112500000D02*
X132750000Y-112500000D01*
X129750000Y-138750000D02*
X128000000Y-138750000D01*
X130250000Y-139250000D02*
X129750000Y-138750000D01*
X121750000Y-112500000D02*
X122250000Y-112000000D01*
X122250000Y-112000000D02*
X123500000Y-112000000D01*
%TO.N,/LED_K*%
X117500000Y-153000000D02*
X117750000Y-152750000D01*
X117500000Y-152500000D02*
X118500000Y-151500000D01*
X134500000Y-147750000D02*
X134250000Y-148000000D01*
X120000000Y-152500000D02*
X119000000Y-151500000D01*
X138500000Y-141750000D02*
X138250000Y-142000000D01*
X117750000Y-143750000D02*
X117500000Y-143500000D01*
X117500000Y-156500000D02*
X117750000Y-156250000D01*
X135750000Y-142000000D02*
X134750000Y-143000000D01*
X119250000Y-141000000D02*
X119000000Y-140750000D01*
X117750000Y-134750000D02*
X117500000Y-134500000D01*
X117750000Y-153250000D02*
X117500000Y-153000000D01*
X117500000Y-158000000D02*
X117750000Y-157750000D01*
X119500000Y-147500000D02*
X119250000Y-147250000D01*
X134500000Y-158000000D02*
X134250000Y-157750000D01*
X138500000Y-141250000D02*
X138250000Y-141500000D01*
X134500000Y-148250000D02*
X134250000Y-148500000D01*
X134250000Y-147500000D02*
X134500000Y-147750000D01*
X136000000Y-132500000D02*
X138000000Y-134500000D01*
X117500000Y-129500000D02*
X117750000Y-129750000D01*
X119500000Y-150000000D02*
X119500000Y-147500000D01*
X118500000Y-131500000D02*
X118750000Y-131750000D01*
X117500000Y-143000000D02*
X118500000Y-142000000D01*
X117500000Y-157000000D02*
X117750000Y-156750000D01*
X118750000Y-150750000D02*
X119500000Y-150000000D01*
X138250000Y-142250000D02*
X138000000Y-142500000D01*
X117750000Y-134250000D02*
X117500000Y-134000000D01*
X119000000Y-140250000D02*
X119500000Y-139750000D01*
X117500000Y-134000000D02*
X117750000Y-133750000D01*
X117750000Y-133750000D02*
X117500000Y-133500000D01*
X134250000Y-148500000D02*
X134500000Y-148750000D01*
X117750000Y-135250000D02*
X117500000Y-135000000D01*
X138000000Y-142500000D02*
X136500000Y-142500000D01*
X117500000Y-143500000D02*
X117750000Y-143250000D01*
X117500000Y-135500000D02*
X117750000Y-135250000D01*
X117500000Y-154500000D02*
X117750000Y-154250000D01*
X117500000Y-130000000D02*
X118750000Y-131250000D01*
X117750000Y-157750000D02*
X117500000Y-157500000D01*
X134250000Y-158750000D02*
X134500000Y-158500000D01*
X132250000Y-152500000D02*
X120000000Y-152500000D01*
X119500000Y-146500000D02*
X119750000Y-146250000D01*
X134250000Y-158250000D02*
X134500000Y-158000000D01*
X117500000Y-135000000D02*
X117750000Y-134750000D01*
X117500000Y-129000000D02*
X117750000Y-129250000D01*
X134750000Y-143000000D02*
X135000000Y-143250000D01*
X117500000Y-154000000D02*
X117750000Y-153750000D01*
X132500000Y-152250000D02*
X132250000Y-152500000D01*
X117750000Y-129250000D02*
X117500000Y-129500000D01*
X119250000Y-147250000D02*
X119750000Y-146750000D01*
X117750000Y-154750000D02*
X117500000Y-154500000D01*
X119750000Y-146250000D02*
X117500000Y-144000000D01*
X117500000Y-136000000D02*
X117750000Y-135750000D01*
X117500000Y-153500000D02*
X117750000Y-153250000D01*
X117750000Y-156750000D02*
X117500000Y-156500000D01*
X119750000Y-146750000D02*
X119500000Y-146500000D01*
X134250000Y-157750000D02*
X134500000Y-157500000D01*
X119500000Y-138000000D02*
X117500000Y-136000000D01*
X117500000Y-159000000D02*
X117750000Y-158750000D01*
X117750000Y-129750000D02*
X117500000Y-130000000D01*
X134500000Y-147250000D02*
X134250000Y-147500000D01*
X136500000Y-142500000D02*
X136000000Y-142000000D01*
X117500000Y-144000000D02*
X117750000Y-143750000D01*
X117750000Y-153750000D02*
X117500000Y-153500000D01*
X135000000Y-143250000D02*
X132750000Y-145500000D01*
X117500000Y-155000000D02*
X117750000Y-154750000D01*
X134500000Y-158500000D02*
X134250000Y-158250000D01*
X117750000Y-155250000D02*
X117500000Y-155000000D01*
X134000000Y-149250000D02*
X135500000Y-150750000D01*
X117500000Y-155500000D02*
X117750000Y-155250000D01*
X117750000Y-143250000D02*
X117500000Y-143000000D01*
X117750000Y-135750000D02*
X117500000Y-135500000D01*
X117500000Y-133500000D02*
X118500000Y-132500000D01*
X119000000Y-141250000D02*
X119250000Y-141000000D01*
X117750000Y-152750000D02*
X117500000Y-152500000D01*
X135750000Y-160250000D02*
X134250000Y-158750000D01*
X134750000Y-152250000D02*
X132500000Y-152250000D01*
X119250000Y-126750000D02*
X119500000Y-127000000D01*
X118750000Y-131250000D02*
X118500000Y-131500000D01*
X138250000Y-142000000D02*
X138250000Y-142250000D01*
X117750000Y-154250000D02*
X117500000Y-154000000D01*
X119500000Y-139750000D02*
X119500000Y-138000000D01*
X117750000Y-156250000D02*
X117500000Y-156000000D01*
X117500000Y-134500000D02*
X117750000Y-134250000D01*
X118750000Y-160250000D02*
X117500000Y-159000000D01*
X117750000Y-158750000D02*
X117500000Y-158500000D01*
X119500000Y-126000000D02*
X119250000Y-126250000D01*
X134500000Y-157500000D02*
X134250000Y-157250000D01*
X132750000Y-145500000D02*
X134500000Y-147250000D01*
X119250000Y-140500000D02*
X119000000Y-140250000D01*
X119000000Y-140750000D02*
X119250000Y-140500000D01*
X117750000Y-158250000D02*
X117500000Y-158000000D01*
X119500000Y-127000000D02*
X117500000Y-129000000D01*
X134250000Y-157250000D02*
X134500000Y-157000000D01*
X134500000Y-148750000D02*
X134000000Y-149250000D01*
X119500000Y-126500000D02*
X119250000Y-126750000D01*
X117750000Y-157250000D02*
X117500000Y-157000000D01*
X117500000Y-158500000D02*
X117750000Y-158250000D01*
X119250000Y-126250000D02*
X119500000Y-126500000D01*
X117500000Y-157500000D02*
X117750000Y-157250000D01*
X134500000Y-157000000D02*
X130000000Y-152500000D01*
X119250000Y-125750000D02*
X119500000Y-126000000D01*
X138250000Y-141500000D02*
X138500000Y-141750000D01*
X117500000Y-156000000D02*
X117750000Y-155750000D01*
X134250000Y-148000000D02*
X134500000Y-148250000D01*
X135500000Y-151500000D02*
X134750000Y-152250000D01*
X117750000Y-155750000D02*
X117500000Y-155500000D01*
%TO.N,/LED_PWR*%
X121500000Y-155250000D02*
X121750000Y-155250000D01*
X135500000Y-129750000D02*
X135000000Y-130250000D01*
X129500000Y-137500000D02*
X126500000Y-134500000D01*
X125500000Y-127500000D02*
X126000000Y-127000000D01*
X118750000Y-138250000D02*
X117500000Y-137000000D01*
X136000000Y-157500000D02*
X138250000Y-155250000D01*
X139250000Y-144750000D02*
X139500000Y-144750000D01*
X135000000Y-129000000D02*
X135500000Y-129000000D01*
X121500000Y-162000000D02*
X117500000Y-162000000D01*
X119000000Y-129000000D02*
X119500000Y-128500000D01*
X118500000Y-138500000D02*
X118750000Y-138250000D01*
X126000000Y-127000000D02*
X127000000Y-127000000D01*
X127750000Y-127500000D02*
X133500000Y-127500000D01*
X135000000Y-138500000D02*
X134750000Y-138250000D01*
X127500000Y-127250000D02*
X127750000Y-127500000D01*
X118500000Y-148000000D02*
X117750000Y-147250000D01*
X122250000Y-161250000D02*
X121500000Y-162000000D01*
X121750000Y-128500000D02*
X122250000Y-128000000D01*
X127000000Y-127000000D02*
X127250000Y-127250000D01*
X122250000Y-128000000D02*
X123250000Y-128000000D01*
X117250000Y-147250000D02*
X115000000Y-145000000D01*
X120000000Y-156750000D02*
X121500000Y-155250000D01*
X126500000Y-134500000D02*
X125250000Y-134500000D01*
X119500000Y-128500000D02*
X121750000Y-128500000D01*
X121750000Y-155250000D02*
X122000000Y-155000000D01*
X133500000Y-127500000D02*
X135000000Y-129000000D01*
X135500000Y-138500000D02*
X135000000Y-138500000D01*
X119750000Y-156750000D02*
X120000000Y-156750000D01*
X117750000Y-147250000D02*
X117250000Y-147250000D01*
X127250000Y-127250000D02*
X127500000Y-127250000D01*
X134750000Y-138250000D02*
X134000000Y-137500000D01*
X134000000Y-137500000D02*
X129500000Y-137500000D01*
X119000000Y-157500000D02*
X119750000Y-156750000D01*
X122500000Y-161250000D02*
X122250000Y-161250000D01*
X123250000Y-128000000D02*
X123750000Y-127500000D01*
X136000000Y-148000000D02*
X139250000Y-144750000D01*
X123750000Y-127500000D02*
X125500000Y-127500000D01*
%TO.N,/ROW0*%
X115750000Y-118500000D02*
X116000000Y-118750000D01*
X124750000Y-133750000D02*
X127250000Y-133750000D01*
X124500000Y-134000000D02*
X124750000Y-133750000D01*
X149000000Y-128000000D02*
X135000000Y-128000000D01*
X130750000Y-135750000D02*
X130750000Y-135500000D01*
X116250000Y-118000000D02*
X115750000Y-118500000D01*
X123750000Y-134000000D02*
X124500000Y-134000000D01*
X120250000Y-137500000D02*
X123750000Y-134000000D01*
X129500000Y-136000000D02*
X130500000Y-136000000D01*
X127250000Y-133750000D02*
X129500000Y-136000000D01*
X130500000Y-136000000D02*
X130750000Y-135750000D01*
X130750000Y-135500000D02*
X131000000Y-135250000D01*
X116000000Y-118750000D02*
X115750000Y-119000000D01*
X121500000Y-131750000D02*
X123750000Y-134000000D01*
X149750000Y-128750000D02*
X149000000Y-128000000D01*
%TO.N,/ROW1*%
X134750000Y-139750000D02*
X135000000Y-140000000D01*
X149500000Y-119000000D02*
X149750000Y-119000000D01*
X137000000Y-137500000D02*
X136500000Y-138000000D01*
X134500000Y-139750000D02*
X134750000Y-139750000D01*
X149000000Y-137500000D02*
X137000000Y-137500000D01*
X133750000Y-139000000D02*
X134500000Y-139750000D01*
X140000000Y-118000000D02*
X141750000Y-118000000D01*
X136250000Y-140000000D02*
X136500000Y-139750000D01*
X123500000Y-131500000D02*
X125000000Y-130000000D01*
X141750000Y-118000000D02*
X142000000Y-118250000D01*
X149750000Y-138250000D02*
X149000000Y-137500000D01*
X135000000Y-140000000D02*
X136250000Y-140000000D01*
X136500000Y-138000000D02*
X132500000Y-134000000D01*
X126750000Y-130750000D02*
X130500000Y-130750000D01*
X136500000Y-139750000D02*
X136500000Y-138000000D01*
X148750000Y-118250000D02*
X149500000Y-119000000D01*
X126000000Y-130000000D02*
X126750000Y-130750000D01*
X142000000Y-118250000D02*
X148750000Y-118250000D01*
X116750000Y-139000000D02*
X118250000Y-140500000D01*
X125000000Y-130000000D02*
X126000000Y-130000000D01*
%TO.N,/ROW2*%
X138000000Y-152000000D02*
X136000000Y-152000000D01*
X136000000Y-152000000D02*
X135250000Y-152750000D01*
X149750000Y-148500000D02*
X149000000Y-148500000D01*
X148000000Y-148750000D02*
X146500000Y-150250000D01*
X124750000Y-153250000D02*
X121250000Y-156750000D01*
X146500000Y-150250000D02*
X143000000Y-150250000D01*
X129500000Y-153250000D02*
X124750000Y-153250000D01*
X120000000Y-136500000D02*
X121750000Y-134750000D01*
X132750000Y-148500000D02*
X130750000Y-150500000D01*
X119000000Y-136500000D02*
X120000000Y-136500000D01*
X123250000Y-107750000D02*
X125250000Y-109750000D01*
X143000000Y-150250000D02*
X142750000Y-150500000D01*
X139500000Y-150500000D02*
X138000000Y-152000000D01*
X149000000Y-148500000D02*
X148750000Y-148750000D01*
X132500000Y-150250000D02*
X131750000Y-149500000D01*
X135250000Y-152750000D02*
X134250000Y-152750000D01*
X148750000Y-148750000D02*
X148000000Y-148750000D01*
X134250000Y-152750000D02*
X134000000Y-153000000D01*
X132750000Y-150250000D02*
X132500000Y-150250000D01*
X142750000Y-150500000D02*
X139500000Y-150500000D01*
%TO.N,/ROW3*%
X146500000Y-159750000D02*
X143000000Y-159750000D01*
X117500000Y-160500000D02*
X117750000Y-160750000D01*
X143000000Y-159750000D02*
X142750000Y-160000000D01*
X134250000Y-160750000D02*
X134500000Y-160500000D01*
X116750000Y-158750000D02*
X117000000Y-159000000D01*
X116500000Y-158000000D02*
X117000000Y-158500000D01*
X132000000Y-158000000D02*
X131750000Y-158250000D01*
X139500000Y-160000000D02*
X138000000Y-161500000D01*
X149750000Y-158000000D02*
X149000000Y-158000000D01*
X126500000Y-148250000D02*
X132000000Y-142750000D01*
X131000000Y-158250000D02*
X129500000Y-159750000D01*
X116750000Y-159250000D02*
X117750000Y-160250000D01*
X148000000Y-158250000D02*
X146500000Y-159750000D01*
X134500000Y-160500000D02*
X134250000Y-160250000D01*
X117750000Y-160750000D02*
X117500000Y-161000000D01*
X121000000Y-161500000D02*
X122000000Y-160500000D01*
X133750000Y-121750000D02*
X135750000Y-123750000D01*
X117500000Y-161000000D02*
X118000000Y-161500000D01*
X142750000Y-160000000D02*
X139500000Y-160000000D01*
X125750000Y-160000000D02*
X122500000Y-160000000D01*
X138750000Y-142500000D02*
X138750000Y-142750000D01*
X134250000Y-160250000D02*
X134500000Y-160000000D01*
X134500000Y-160000000D02*
X132500000Y-158000000D01*
X149000000Y-158000000D02*
X148750000Y-158250000D01*
X137000000Y-144500000D02*
X134750000Y-144500000D01*
X139250000Y-142000000D02*
X138750000Y-142500000D01*
X122500000Y-160000000D02*
X122000000Y-160500000D01*
X138000000Y-161500000D02*
X135000000Y-161500000D01*
X148750000Y-158250000D02*
X148000000Y-158250000D01*
X132750000Y-158000000D02*
X132000000Y-158000000D01*
X135000000Y-161500000D02*
X134250000Y-160750000D01*
X117750000Y-160250000D02*
X117500000Y-160500000D01*
X131750000Y-158250000D02*
X131000000Y-158250000D01*
X126000000Y-159750000D02*
X125750000Y-160000000D01*
X118000000Y-161500000D02*
X121000000Y-161500000D01*
X138750000Y-142750000D02*
X137000000Y-144500000D01*
X129500000Y-159750000D02*
X126000000Y-159750000D01*
X117000000Y-158500000D02*
X116750000Y-158750000D01*
X117000000Y-159000000D02*
X116750000Y-159250000D01*
%TO.N,/ROW4*%
X124000000Y-106500000D02*
X124250000Y-106250000D01*
X134250000Y-108250000D02*
X133750000Y-107750000D01*
X132500000Y-107000000D02*
X132750000Y-107000000D01*
X121250000Y-107000000D02*
X121750000Y-106500000D01*
X119250000Y-107000000D02*
X121250000Y-107000000D01*
X125500000Y-146750000D02*
X128750000Y-143500000D01*
X149750000Y-109000000D02*
X149000000Y-108250000D01*
X129250000Y-143500000D02*
X129750000Y-143000000D01*
X124250000Y-106250000D02*
X131750000Y-106250000D01*
X128750000Y-143500000D02*
X129250000Y-143500000D01*
X131750000Y-106250000D02*
X132500000Y-107000000D01*
X123750000Y-153250000D02*
X121250000Y-153250000D01*
X129000000Y-141750000D02*
X130000000Y-140750000D01*
X129750000Y-142500000D02*
X129000000Y-141750000D01*
X118000000Y-108250000D02*
X119250000Y-107000000D01*
X117500000Y-108250000D02*
X118000000Y-108250000D01*
X149000000Y-108250000D02*
X134250000Y-108250000D01*
X129750000Y-143000000D02*
X129500000Y-142750000D01*
X116750000Y-109000000D02*
X117500000Y-108250000D01*
X138500000Y-162000000D02*
X133000000Y-162000000D01*
X129500000Y-142750000D02*
X129750000Y-142500000D01*
X121750000Y-106500000D02*
X124000000Y-106500000D01*
%TO.N,GND*%
X119750000Y-127750000D02*
X121500000Y-127750000D01*
X123250000Y-127000000D02*
X123750000Y-127000000D01*
X121750000Y-127500000D02*
X123000000Y-127500000D01*
X131500000Y-133750000D02*
X132000000Y-133250000D01*
X123000000Y-127250000D02*
X123250000Y-127250000D01*
X134250000Y-127250000D02*
X137250000Y-127250000D01*
X134000000Y-127000000D02*
X134250000Y-127250000D01*
X124750000Y-143750000D02*
X124750000Y-143500000D01*
X142250000Y-154000000D02*
X138500000Y-157750000D01*
X124500000Y-144000000D02*
X124750000Y-143750000D01*
X124250000Y-126500000D02*
X127500000Y-126500000D01*
X124500000Y-145000000D02*
X124750000Y-144750000D01*
X128000000Y-126750000D02*
X128250000Y-127000000D01*
X123750000Y-147250000D02*
X124750000Y-146250000D01*
X124750000Y-145750000D02*
X124500000Y-145500000D01*
X121500000Y-127750000D02*
X121750000Y-127500000D01*
X124750000Y-144750000D02*
X124500000Y-144500000D01*
X132000000Y-133250000D02*
X135500000Y-133250000D01*
X127500000Y-126500000D02*
X127750000Y-126750000D01*
X124750000Y-144250000D02*
X124500000Y-144000000D01*
X134000000Y-133500000D02*
X133750000Y-133250000D01*
X128250000Y-127000000D02*
X134000000Y-127000000D01*
X123000000Y-127500000D02*
X123000000Y-127250000D01*
X127750000Y-126750000D02*
X128000000Y-126750000D01*
X137500000Y-135250000D02*
X140000000Y-135250000D01*
X135500000Y-133250000D02*
X137500000Y-135250000D01*
X124500000Y-146000000D02*
X124750000Y-145750000D01*
X123750000Y-147750000D02*
X124000000Y-147500000D01*
X123750000Y-148250000D02*
X124000000Y-148000000D01*
X124000000Y-147500000D02*
X123750000Y-147250000D01*
X124750000Y-143500000D02*
X124000000Y-142750000D01*
X124000000Y-148000000D02*
X123750000Y-147750000D01*
X124750000Y-146250000D02*
X124500000Y-146000000D01*
X126250000Y-150750000D02*
X123750000Y-148250000D01*
X124500000Y-145500000D02*
X124750000Y-145250000D01*
X124750000Y-145250000D02*
X124500000Y-145000000D01*
X123250000Y-127250000D02*
X123250000Y-127000000D01*
X124500000Y-144500000D02*
X124750000Y-144250000D01*
%TO.N,Net-(D1-A)*%
X114500000Y-132250000D02*
X115750000Y-132250000D01*
X108500000Y-132250000D02*
X113500000Y-132250000D01*
%TO.N,Net-(D10-A)*%
X114500000Y-160750000D02*
X115750000Y-160750000D01*
X108500000Y-160750000D02*
X113500000Y-160750000D01*
%TO.N,Net-(D11-A)*%
X125500000Y-160750000D02*
X130500000Y-160750000D01*
X131500000Y-160750000D02*
X132750000Y-160750000D01*
%TO.N,Net-(D12-A)*%
X148500000Y-160750000D02*
X149750000Y-160750000D01*
X142500000Y-160750000D02*
X147500000Y-160750000D01*
%TO.N,Net-(D13-A)*%
X108500000Y-112500000D02*
X113500000Y-112500000D01*
X114500000Y-112500000D02*
X115750000Y-112500000D01*
%TO.N,Net-(D14-A)*%
X142500000Y-112500000D02*
X147500000Y-112500000D01*
X148500000Y-112500000D02*
X149750000Y-112500000D01*
%TO.N,Net-(D15-A)*%
X114500000Y-122500000D02*
X115750000Y-122500000D01*
X108500000Y-122500000D02*
X113500000Y-122500000D01*
%TO.N,Net-(D16-A)*%
X148500000Y-122500000D02*
X149750000Y-122500000D01*
X142500000Y-122500000D02*
X147500000Y-122500000D01*
%TO.N,Net-(D17-A)*%
X124500000Y-110500000D02*
X123250000Y-110500000D01*
X130500000Y-110500000D02*
X125500000Y-110500000D01*
%TO.N,Net-(D18-A)*%
X125500000Y-124500000D02*
X130500000Y-124500000D01*
X131500000Y-124500000D02*
X132750000Y-124500000D01*
%TO.N,Net-(D19-A)*%
X120750000Y-113500000D02*
X120250000Y-114000000D01*
X120250000Y-114000000D02*
X117000000Y-114000000D01*
X122500000Y-113500000D02*
X120750000Y-113500000D01*
X122500000Y-118500000D02*
X118000000Y-114000000D01*
%TO.N,Net-(D2-A)*%
X123750000Y-128500000D02*
X124250000Y-128000000D01*
X131500000Y-132250000D02*
X132750000Y-132250000D01*
X131000000Y-130000000D02*
X133000000Y-132000000D01*
X125750000Y-128000000D02*
X127750000Y-130000000D01*
X124500000Y-132250000D02*
X123000000Y-132250000D01*
X122500000Y-131750000D02*
X122750000Y-131500000D01*
X123750000Y-129000000D02*
X124000000Y-128750000D01*
X123000000Y-132250000D02*
X122500000Y-131750000D01*
X127750000Y-130000000D02*
X131000000Y-130000000D01*
X124000000Y-129750000D02*
X123750000Y-129500000D01*
X124000000Y-129250000D02*
X123750000Y-129000000D01*
X122500000Y-131250000D02*
X124000000Y-129750000D01*
X124000000Y-128750000D02*
X123750000Y-128500000D01*
X124250000Y-128000000D02*
X125750000Y-128000000D01*
X123750000Y-129500000D02*
X124000000Y-129250000D01*
X122750000Y-131500000D02*
X122500000Y-131250000D01*
%TO.N,Net-(D20-A)*%
X136500000Y-117750000D02*
X136750000Y-117500000D01*
X136500000Y-117250000D02*
X139000000Y-114750000D01*
X136750000Y-118000000D02*
X136500000Y-117750000D01*
X137750000Y-114000000D02*
X139000000Y-114000000D01*
X136750000Y-117500000D02*
X136500000Y-117250000D01*
X136750000Y-118500000D02*
X136500000Y-118250000D01*
X137250000Y-113500000D02*
X137750000Y-114000000D01*
X136500000Y-118250000D02*
X136750000Y-118000000D01*
%TO.N,Net-(D21-A)*%
X134000000Y-112750000D02*
X134250000Y-112500000D01*
X131250000Y-117500000D02*
X133000000Y-115750000D01*
X134250000Y-112500000D02*
X132750000Y-111000000D01*
X133000000Y-115250000D02*
X132750000Y-115000000D01*
X134250000Y-113500000D02*
X134000000Y-113250000D01*
X134250000Y-113000000D02*
X134000000Y-112750000D01*
X134000000Y-113250000D02*
X134250000Y-113000000D01*
X133000000Y-115750000D02*
X132750000Y-115500000D01*
X125500000Y-117500000D02*
X130500000Y-117500000D01*
X132750000Y-115000000D02*
X134250000Y-113500000D01*
X132750000Y-115500000D02*
X133000000Y-115250000D01*
%TO.N,Net-(D3-A)*%
X148500000Y-132250000D02*
X149750000Y-132250000D01*
X142500000Y-132250000D02*
X147500000Y-132250000D01*
%TO.N,Net-(D4-A)*%
X108500000Y-141750000D02*
X113500000Y-141750000D01*
X114500000Y-141750000D02*
X115750000Y-141750000D01*
%TO.N,Net-(D5-A)*%
X124000000Y-145500000D02*
X123750000Y-145750000D01*
X123000000Y-148500000D02*
X124250000Y-149750000D01*
X123250000Y-147750000D02*
X123000000Y-148000000D01*
X123000000Y-147000000D02*
X123250000Y-147250000D01*
X127000000Y-149000000D02*
X133000000Y-143000000D01*
X133000000Y-142500000D02*
X132750000Y-142250000D01*
X124000000Y-145000000D02*
X123750000Y-145250000D01*
X123000000Y-142500000D02*
X123250000Y-142750000D01*
X124000000Y-144500000D02*
X123750000Y-144750000D01*
X123750000Y-145750000D02*
X124000000Y-146000000D01*
X123000000Y-148000000D02*
X123250000Y-148250000D01*
X133000000Y-143000000D02*
X132750000Y-142750000D01*
X123250000Y-147250000D02*
X123000000Y-147500000D01*
X123250000Y-142750000D02*
X123000000Y-143000000D01*
X124500000Y-142000000D02*
X123500000Y-142000000D01*
X123750000Y-144750000D02*
X124000000Y-145000000D01*
X123500000Y-142000000D02*
X123000000Y-142500000D01*
X123750000Y-145250000D02*
X124000000Y-145500000D01*
X123750000Y-144250000D02*
X124000000Y-144500000D01*
X124000000Y-144000000D02*
X123750000Y-144250000D01*
X131500000Y-141750000D02*
X132750000Y-141750000D01*
X123000000Y-147500000D02*
X123250000Y-147750000D01*
X125500000Y-149000000D02*
X127000000Y-149000000D01*
X123250000Y-148250000D02*
X123000000Y-148500000D01*
X132750000Y-142750000D02*
X133000000Y-142500000D01*
X124000000Y-146000000D02*
X123000000Y-147000000D01*
X123000000Y-143000000D02*
X124000000Y-144000000D01*
%TO.N,Net-(D6-A)*%
X148500000Y-141750000D02*
X149750000Y-141750000D01*
X142500000Y-141750000D02*
X147500000Y-141750000D01*
%TO.N,Net-(D7-A)*%
X108500000Y-151250000D02*
X113500000Y-151250000D01*
X114500000Y-151250000D02*
X115750000Y-151250000D01*
%TO.N,Net-(D8-A)*%
X125500000Y-151500000D02*
X130500000Y-151500000D01*
X131500000Y-151250000D02*
X132750000Y-151250000D01*
%TO.N,Net-(D9-A)*%
X142500000Y-151250000D02*
X147500000Y-151250000D01*
X148500000Y-151250000D02*
X149750000Y-151250000D01*
%TO.N,Net-(LED1-A)*%
X120000000Y-129750000D02*
X120250000Y-130000000D01*
X120000000Y-130750000D02*
X120250000Y-131000000D01*
X120000000Y-130250000D02*
X120250000Y-130500000D01*
X120250000Y-131500000D02*
X120000000Y-131750000D01*
X120250000Y-130500000D02*
X120000000Y-130750000D01*
X120250000Y-131000000D02*
X120000000Y-131250000D01*
X120000000Y-131250000D02*
X120250000Y-131500000D01*
X120250000Y-130000000D02*
X120000000Y-130250000D01*
%TO.N,Net-(LED2-A)*%
X120000000Y-140750000D02*
X120250000Y-141000000D01*
X120250000Y-139500000D02*
X120000000Y-139750000D01*
X120000000Y-140250000D02*
X120250000Y-140500000D01*
X120250000Y-140000000D02*
X120000000Y-140250000D01*
X120250000Y-141000000D02*
X120000000Y-141250000D01*
X120000000Y-139250000D02*
X120250000Y-139500000D01*
X120250000Y-140500000D02*
X120000000Y-140750000D01*
X120000000Y-139750000D02*
X120250000Y-140000000D01*
%TO.N,Net-(LED3-A)*%
X120250000Y-149500000D02*
X120000000Y-149750000D01*
X120000000Y-148750000D02*
X120250000Y-149000000D01*
X120250000Y-149000000D02*
X120000000Y-149250000D01*
X120000000Y-149250000D02*
X120250000Y-149500000D01*
X120000000Y-149750000D02*
X120250000Y-150000000D01*
X120250000Y-150500000D02*
X120000000Y-150750000D01*
X120250000Y-150000000D02*
X120000000Y-150250000D01*
X120000000Y-150250000D02*
X120250000Y-150500000D01*
%TO.N,Net-(LED4-A)*%
X120250000Y-159500000D02*
X120000000Y-159750000D01*
X120000000Y-159750000D02*
X120250000Y-160000000D01*
X120000000Y-159250000D02*
X120250000Y-159500000D01*
X120000000Y-158250000D02*
X120250000Y-158500000D01*
X120000000Y-158750000D02*
X120250000Y-159000000D01*
X120250000Y-160000000D02*
X120000000Y-160250000D01*
X120250000Y-158500000D02*
X120000000Y-158750000D01*
X120250000Y-159000000D02*
X120000000Y-159250000D01*
%TO.N,Net-(LED5-A)*%
X137250000Y-130500000D02*
X137000000Y-130750000D01*
X137250000Y-130000000D02*
X137000000Y-130250000D01*
X137000000Y-129750000D02*
X137250000Y-130000000D01*
X137000000Y-130750000D02*
X137250000Y-131000000D01*
X137000000Y-130250000D02*
X137250000Y-130500000D01*
X137250000Y-131500000D02*
X137000000Y-131750000D01*
X137250000Y-131000000D02*
X137000000Y-131250000D01*
X137000000Y-131250000D02*
X137250000Y-131500000D01*
%TO.N,Net-(LED6-A)*%
X137250000Y-141000000D02*
X137000000Y-141250000D01*
X137250000Y-139500000D02*
X137000000Y-139750000D01*
X137250000Y-140000000D02*
X137000000Y-140250000D01*
X137000000Y-139250000D02*
X137250000Y-139500000D01*
X137000000Y-140750000D02*
X137250000Y-141000000D01*
X137250000Y-140500000D02*
X137000000Y-140750000D01*
X137000000Y-139750000D02*
X137250000Y-140000000D01*
X137000000Y-140250000D02*
X137250000Y-140500000D01*
%TO.N,Net-(LED7-A)*%
X137250000Y-149000000D02*
X137000000Y-149250000D01*
X137000000Y-149750000D02*
X137250000Y-150000000D01*
X137250000Y-150500000D02*
X137000000Y-150750000D01*
X137250000Y-149500000D02*
X137000000Y-149750000D01*
X137000000Y-150250000D02*
X137250000Y-150500000D01*
X137000000Y-149250000D02*
X137250000Y-149500000D01*
X137000000Y-148750000D02*
X137250000Y-149000000D01*
X137250000Y-150000000D02*
X137000000Y-150250000D01*
%TO.N,Net-(LED8-A)*%
X137000000Y-158750000D02*
X137250000Y-159000000D01*
X137250000Y-159000000D02*
X137000000Y-159250000D01*
X137000000Y-159750000D02*
X137250000Y-160000000D01*
X137000000Y-158250000D02*
X137250000Y-158500000D01*
X137250000Y-159500000D02*
X137000000Y-159750000D01*
X137250000Y-160000000D02*
X137000000Y-160250000D01*
X137000000Y-159250000D02*
X137250000Y-159500000D01*
X137250000Y-158500000D02*
X137000000Y-158750000D01*
%TD*%
M02*
