solid OpenSCAD_Model
  facet normal 1 -0 0
    outer loop
      vertex 50.4 60.1 -3.18
      vertex 50.4 92.3 -3.3
      vertex 50.4 92.3 -3.18
    endloop
  endfacet
  facet normal 1 0 0
    outer loop
      vertex 50.4 92.3 -3.3
      vertex 50.4 60.1 -3.18
      vertex 50.4 60.1 -3.3
    endloop
  endfacet
  facet normal -0 0 1
    outer loop
      vertex 41.4 91.3 -3.18
      vertex 42.4 63.5 -3.18
      vertex 42.4 91.3 -3.18
    endloop
  endfacet
  facet normal 0 0 1
    outer loop
      vertex 42.4 63.5 -3.18
      vertex 41.4 91.3 -3.18
      vertex 41.4 63.5 -3.18
    endloop
  endfacet
  facet normal 0 0 1
    outer loop
      vertex 42.4 91.3 -3.18
      vertex 50.4 92.3 -3.18
      vertex 42.4 92.3 -3.18
    endloop
  endfacet
  facet normal 0 0 1
    outer loop
      vertex 42.4 63.5 -3.18
      vertex 50.4 92.3 -3.18
      vertex 42.4 91.3 -3.18
    endloop
  endfacet
  facet normal 0 0 1
    outer loop
      vertex 50.4 92.3 -3.18
      vertex 42.4 63.5 -3.18
      vertex 50.4 60.1 -3.18
    endloop
  endfacet
  facet normal 0 0 1
    outer loop
      vertex 50.4 60.1 -3.18
      vertex 42.4 63.5 -3.18
      vertex 42.4 60.1 -3.18
    endloop
  endfacet
  facet normal 0 0 -1
    outer loop
      vertex 41.4 63.5 -3.3
      vertex 42.4 91.3 -3.3
      vertex 42.4 63.5 -3.3
    endloop
  endfacet
  facet normal -0 0 -1
    outer loop
      vertex 42.4 91.3 -3.3
      vertex 41.4 63.5 -3.3
      vertex 41.4 91.3 -3.3
    endloop
  endfacet
  facet normal 0 0 -1
    outer loop
      vertex 42.4 63.5 -3.3
      vertex 50.4 60.1 -3.3
      vertex 42.4 60.1 -3.3
    endloop
  endfacet
  facet normal 0 0 -1
    outer loop
      vertex 50.4 60.1 -3.3
      vertex 42.4 63.5 -3.3
      vertex 50.4 92.3 -3.3
    endloop
  endfacet
  facet normal 0 0 -1
    outer loop
      vertex 42.4 91.3 -3.3
      vertex 50.4 92.3 -3.3
      vertex 42.4 63.5 -3.3
    endloop
  endfacet
  facet normal -0 0 -1
    outer loop
      vertex 50.4 92.3 -3.3
      vertex 42.4 91.3 -3.3
      vertex 42.4 92.3 -3.3
    endloop
  endfacet
  facet normal -1 0 0
    outer loop
      vertex 41.4 63.5 -3.3
      vertex 41.4 91.3 -3.18
      vertex 41.4 91.3 -3.3
    endloop
  endfacet
  facet normal -1 -0 0
    outer loop
      vertex 41.4 91.3 -3.18
      vertex 41.4 63.5 -3.3
      vertex 41.4 63.5 -3.18
    endloop
  endfacet
  facet normal 0 1 -0
    outer loop
      vertex 42.4 91.3 -3.3
      vertex 41.4 91.3 -3.18
      vertex 42.4 91.3 -3.18
    endloop
  endfacet
  facet normal 0 1 0
    outer loop
      vertex 41.4 91.3 -3.18
      vertex 42.4 91.3 -3.3
      vertex 41.4 91.3 -3.3
    endloop
  endfacet
  facet normal 0 -1 0
    outer loop
      vertex 41.4 63.5 -3.3
      vertex 42.4 63.5 -3.18
      vertex 41.4 63.5 -3.18
    endloop
  endfacet
  facet normal 0 -1 -0
    outer loop
      vertex 42.4 63.5 -3.18
      vertex 41.4 63.5 -3.3
      vertex 42.4 63.5 -3.3
    endloop
  endfacet
  facet normal -1 0 0
    outer loop
      vertex 42.4 91.3 -3.3
      vertex 42.4 92.3 -3.18
      vertex 42.4 92.3 -3.3
    endloop
  endfacet
  facet normal -1 -0 0
    outer loop
      vertex 42.4 92.3 -3.18
      vertex 42.4 91.3 -3.3
      vertex 42.4 91.3 -3.18
    endloop
  endfacet
  facet normal -1 0 0
    outer loop
      vertex 42.4 60.1 -3.3
      vertex 42.4 63.5 -3.18
      vertex 42.4 63.5 -3.3
    endloop
  endfacet
  facet normal -1 -0 0
    outer loop
      vertex 42.4 63.5 -3.18
      vertex 42.4 60.1 -3.3
      vertex 42.4 60.1 -3.18
    endloop
  endfacet
  facet normal 0 1 -0
    outer loop
      vertex 50.4 92.3 -3.3
      vertex 42.4 92.3 -3.18
      vertex 50.4 92.3 -3.18
    endloop
  endfacet
  facet normal 0 1 0
    outer loop
      vertex 42.4 92.3 -3.18
      vertex 50.4 92.3 -3.3
      vertex 42.4 92.3 -3.3
    endloop
  endfacet
  facet normal 0 -1 0
    outer loop
      vertex 42.4 60.1 -3.3
      vertex 50.4 60.1 -3.18
      vertex 42.4 60.1 -3.18
    endloop
  endfacet
  facet normal 0 -1 -0
    outer loop
      vertex 50.4 60.1 -3.18
      vertex 42.4 60.1 -3.3
      vertex 50.4 60.1 -3.3
    endloop
  endfacet
endsolid OpenSCAD_Model
