solid OpenSCAD_Model
  facet normal -0 0 1
    outer loop
      vertex 9.6 142.2 -3.95
      vertex 21.6 136.2 -3.95
      vertex 21.6 142.2 -3.95
    endloop
  endfacet
  facet normal 0 0 1
    outer loop
      vertex 21.6 136.2 -3.95
      vertex 9.6 142.2 -3.95
      vertex 9.6 136.2 -3.95
    endloop
  endfacet
  facet normal 0 0 -1
    outer loop
      vertex 9.6 136.2 -6.15
      vertex 21.6 142.2 -6.15
      vertex 21.6 136.2 -6.15
    endloop
  endfacet
  facet normal -0 0 -1
    outer loop
      vertex 21.6 142.2 -6.15
      vertex 9.6 136.2 -6.15
      vertex 9.6 142.2 -6.15
    endloop
  endfacet
  facet normal 0 -1 0
    outer loop
      vertex 9.6 136.2 -6.15
      vertex 21.6 136.2 -3.95
      vertex 9.6 136.2 -3.95
    endloop
  endfacet
  facet normal 0 -1 -0
    outer loop
      vertex 21.6 136.2 -3.95
      vertex 9.6 136.2 -6.15
      vertex 21.6 136.2 -6.15
    endloop
  endfacet
  facet normal 1 -0 0
    outer loop
      vertex 21.6 136.2 -3.95
      vertex 21.6 142.2 -6.15
      vertex 21.6 142.2 -3.95
    endloop
  endfacet
  facet normal 1 0 0
    outer loop
      vertex 21.6 142.2 -6.15
      vertex 21.6 136.2 -3.95
      vertex 21.6 136.2 -6.15
    endloop
  endfacet
  facet normal 0 1 -0
    outer loop
      vertex 21.6 142.2 -6.15
      vertex 9.6 142.2 -3.95
      vertex 21.6 142.2 -3.95
    endloop
  endfacet
  facet normal 0 1 0
    outer loop
      vertex 9.6 142.2 -3.95
      vertex 21.6 142.2 -6.15
      vertex 9.6 142.2 -6.15
    endloop
  endfacet
  facet normal -1 0 0
    outer loop
      vertex 9.6 136.2 -6.15
      vertex 9.6 142.2 -3.95
      vertex 9.6 142.2 -6.15
    endloop
  endfacet
  facet normal -1 -0 0
    outer loop
      vertex 9.6 142.2 -3.95
      vertex 9.6 136.2 -6.15
      vertex 9.6 136.2 -3.95
    endloop
  endfacet
endsolid OpenSCAD_Model
