solid OpenSCAD_Model
  facet normal -0 0 1
    outer loop
      vertex 29.55 139.769 -0.6
      vertex 31.55 137.769 -0.6
      vertex 31.55 139.769 -0.6
    endloop
  endfacet
  facet normal 0 0 1
    outer loop
      vertex 31.55 137.769 -0.6
      vertex 29.55 139.769 -0.6
      vertex 29.55 137.769 -0.6
    endloop
  endfacet
  facet normal 0 0 -1
    outer loop
      vertex 29.55 137.769 -1.6
      vertex 31.55 139.769 -1.6
      vertex 31.55 137.769 -1.6
    endloop
  endfacet
  facet normal -0 0 -1
    outer loop
      vertex 31.55 139.769 -1.6
      vertex 29.55 137.769 -1.6
      vertex 29.55 139.769 -1.6
    endloop
  endfacet
  facet normal 0 -1 0
    outer loop
      vertex 29.55 137.769 -1.6
      vertex 31.55 137.769 -0.6
      vertex 29.55 137.769 -0.6
    endloop
  endfacet
  facet normal 0 -1 -0
    outer loop
      vertex 31.55 137.769 -0.6
      vertex 29.55 137.769 -1.6
      vertex 31.55 137.769 -1.6
    endloop
  endfacet
  facet normal 1 -0 0
    outer loop
      vertex 31.55 137.769 -0.6
      vertex 31.55 139.769 -1.6
      vertex 31.55 139.769 -0.6
    endloop
  endfacet
  facet normal 1 0 0
    outer loop
      vertex 31.55 139.769 -1.6
      vertex 31.55 137.769 -0.6
      vertex 31.55 137.769 -1.6
    endloop
  endfacet
  facet normal 0 1 -0
    outer loop
      vertex 31.55 139.769 -1.6
      vertex 29.55 139.769 -0.6
      vertex 31.55 139.769 -0.6
    endloop
  endfacet
  facet normal 0 1 0
    outer loop
      vertex 29.55 139.769 -0.6
      vertex 31.55 139.769 -1.6
      vertex 29.55 139.769 -1.6
    endloop
  endfacet
  facet normal -1 0 0
    outer loop
      vertex 29.55 137.769 -1.6
      vertex 29.55 139.769 -0.6
      vertex 29.55 139.769 -1.6
    endloop
  endfacet
  facet normal -1 -0 0
    outer loop
      vertex 29.55 139.769 -0.6
      vertex 29.55 137.769 -1.6
      vertex 29.55 137.769 -0.6
    endloop
  endfacet
endsolid OpenSCAD_Model
