solid OpenSCAD_Model
  facet normal -0 0 1
    outer loop
      vertex 8.9 15.7 -2.6
      vertex 21.4 1.7 -2.6
      vertex 21.4 15.7 -2.6
    endloop
  endfacet
  facet normal 0 0 1
    outer loop
      vertex 21.4 1.7 -2.6
      vertex 8.9 15.7 -2.6
      vertex 8.9 1.7 -2.6
    endloop
  endfacet
  facet normal 0 0 -1
    outer loop
      vertex 8.9 1.7 -4
      vertex 21.4 15.7 -4
      vertex 21.4 1.7 -4
    endloop
  endfacet
  facet normal -0 0 -1
    outer loop
      vertex 21.4 15.7 -4
      vertex 8.9 1.7 -4
      vertex 8.9 15.7 -4
    endloop
  endfacet
  facet normal 0 -1 0
    outer loop
      vertex 8.9 1.7 -4
      vertex 21.4 1.7 -2.6
      vertex 8.9 1.7 -2.6
    endloop
  endfacet
  facet normal 0 -1 -0
    outer loop
      vertex 21.4 1.7 -2.6
      vertex 8.9 1.7 -4
      vertex 21.4 1.7 -4
    endloop
  endfacet
  facet normal 1 -0 0
    outer loop
      vertex 21.4 1.7 -2.6
      vertex 21.4 15.7 -4
      vertex 21.4 15.7 -2.6
    endloop
  endfacet
  facet normal 1 0 0
    outer loop
      vertex 21.4 15.7 -4
      vertex 21.4 1.7 -2.6
      vertex 21.4 1.7 -4
    endloop
  endfacet
  facet normal 0 1 -0
    outer loop
      vertex 21.4 15.7 -4
      vertex 8.9 15.7 -2.6
      vertex 21.4 15.7 -2.6
    endloop
  endfacet
  facet normal 0 1 0
    outer loop
      vertex 8.9 15.7 -2.6
      vertex 21.4 15.7 -4
      vertex 8.9 15.7 -4
    endloop
  endfacet
  facet normal -1 0 0
    outer loop
      vertex 8.9 1.7 -4
      vertex 8.9 15.7 -2.6
      vertex 8.9 15.7 -4
    endloop
  endfacet
  facet normal -1 -0 0
    outer loop
      vertex 8.9 15.7 -2.6
      vertex 8.9 1.7 -4
      vertex 8.9 1.7 -2.6
    endloop
  endfacet
endsolid OpenSCAD_Model
