solid OpenSCAD_Model
  facet normal -0 0 1
    outer loop
      vertex 36.3 12.7 -2.6
      vertex 51.3 1.7 -2.6
      vertex 51.3 12.7 -2.6
    endloop
  endfacet
  facet normal 0 0 1
    outer loop
      vertex 51.3 1.7 -2.6
      vertex 36.3 12.7 -2.6
      vertex 36.3 1.7 -2.6
    endloop
  endfacet
  facet normal 0 0 -1
    outer loop
      vertex 36.3 1.7 -5.6
      vertex 51.3 12.7 -5.6
      vertex 51.3 1.7 -5.6
    endloop
  endfacet
  facet normal -0 0 -1
    outer loop
      vertex 51.3 12.7 -5.6
      vertex 36.3 1.7 -5.6
      vertex 36.3 12.7 -5.6
    endloop
  endfacet
  facet normal 0 -1 0
    outer loop
      vertex 36.3 1.7 -5.6
      vertex 51.3 1.7 -2.6
      vertex 36.3 1.7 -2.6
    endloop
  endfacet
  facet normal 0 -1 -0
    outer loop
      vertex 51.3 1.7 -2.6
      vertex 36.3 1.7 -5.6
      vertex 51.3 1.7 -5.6
    endloop
  endfacet
  facet normal 1 -0 0
    outer loop
      vertex 51.3 1.7 -2.6
      vertex 51.3 12.7 -5.6
      vertex 51.3 12.7 -2.6
    endloop
  endfacet
  facet normal 1 0 0
    outer loop
      vertex 51.3 12.7 -5.6
      vertex 51.3 1.7 -2.6
      vertex 51.3 1.7 -5.6
    endloop
  endfacet
  facet normal 0 1 -0
    outer loop
      vertex 51.3 12.7 -5.6
      vertex 36.3 12.7 -2.6
      vertex 51.3 12.7 -2.6
    endloop
  endfacet
  facet normal 0 1 0
    outer loop
      vertex 36.3 12.7 -2.6
      vertex 51.3 12.7 -5.6
      vertex 36.3 12.7 -5.6
    endloop
  endfacet
  facet normal -1 0 0
    outer loop
      vertex 36.3 1.7 -5.6
      vertex 36.3 12.7 -2.6
      vertex 36.3 12.7 -5.6
    endloop
  endfacet
  facet normal -1 -0 0
    outer loop
      vertex 36.3 12.7 -2.6
      vertex 36.3 1.7 -5.6
      vertex 36.3 1.7 -2.6
    endloop
  endfacet
endsolid OpenSCAD_Model
