solid OpenSCAD_Model
  facet normal -0 0 1
    outer loop
      vertex 1.04358 142.769 -0.2
      vertex 51.9564 64.5 -0.2
      vertex 51.9564 142.769 -0.2
    endloop
  endfacet
  facet normal 0 0 1
    outer loop
      vertex 51.9564 64.5 -0.2
      vertex 1.04358 142.769 -0.2
      vertex 1.04358 64.5 -0.2
    endloop
  endfacet
  facet normal 0 0 -1
    outer loop
      vertex 1.04358 64.5 -3
      vertex 51.9564 142.769 -3
      vertex 51.9564 64.5 -3
    endloop
  endfacet
  facet normal -0 0 -1
    outer loop
      vertex 51.9564 142.769 -3
      vertex 1.04358 64.5 -3
      vertex 1.04358 142.769 -3
    endloop
  endfacet
  facet normal 0 -1 0
    outer loop
      vertex 1.04358 64.5 -3
      vertex 51.9564 64.5 -0.2
      vertex 1.04358 64.5 -0.2
    endloop
  endfacet
  facet normal 0 -1 -0
    outer loop
      vertex 51.9564 64.5 -0.2
      vertex 1.04358 64.5 -3
      vertex 51.9564 64.5 -3
    endloop
  endfacet
  facet normal 1 -0 0
    outer loop
      vertex 51.9564 64.5 -0.2
      vertex 51.9564 142.769 -3
      vertex 51.9564 142.769 -0.2
    endloop
  endfacet
  facet normal 1 0 0
    outer loop
      vertex 51.9564 142.769 -3
      vertex 51.9564 64.5 -0.2
      vertex 51.9564 64.5 -3
    endloop
  endfacet
  facet normal 0 1 -0
    outer loop
      vertex 51.9564 142.769 -3
      vertex 1.04358 142.769 -0.2
      vertex 51.9564 142.769 -0.2
    endloop
  endfacet
  facet normal 0 1 0
    outer loop
      vertex 1.04358 142.769 -0.2
      vertex 51.9564 142.769 -3
      vertex 1.04358 142.769 -3
    endloop
  endfacet
  facet normal -1 0 0
    outer loop
      vertex 1.04358 64.5 -3
      vertex 1.04358 142.769 -0.2
      vertex 1.04358 142.769 -3
    endloop
  endfacet
  facet normal -1 -0 0
    outer loop
      vertex 1.04358 142.769 -0.2
      vertex 1.04358 64.5 -3
      vertex 1.04358 64.5 -0.2
    endloop
  endfacet
endsolid OpenSCAD_Model
