solid OpenSCAD_Model
  facet normal -0 0 1
    outer loop
      vertex 3 88.5 -3.4
      vertex 50 18.5 -3.4
      vertex 50 88.5 -3.4
    endloop
  endfacet
  facet normal 0 0 1
    outer loop
      vertex 50 18.5 -3.4
      vertex 3 88.5 -3.4
      vertex 3 18.5 -3.4
    endloop
  endfacet
  facet normal 0 0 -1
    outer loop
      vertex 3 18.5 -6.8
      vertex 50 88.5 -6.8
      vertex 50 18.5 -6.8
    endloop
  endfacet
  facet normal -0 0 -1
    outer loop
      vertex 50 88.5 -6.8
      vertex 3 18.5 -6.8
      vertex 3 88.5 -6.8
    endloop
  endfacet
  facet normal 0 -1 0
    outer loop
      vertex 3 18.5 -6.8
      vertex 50 18.5 -3.4
      vertex 3 18.5 -3.4
    endloop
  endfacet
  facet normal 0 -1 -0
    outer loop
      vertex 50 18.5 -3.4
      vertex 3 18.5 -6.8
      vertex 50 18.5 -6.8
    endloop
  endfacet
  facet normal 1 -0 0
    outer loop
      vertex 50 18.5 -3.4
      vertex 50 88.5 -6.8
      vertex 50 88.5 -3.4
    endloop
  endfacet
  facet normal 1 0 0
    outer loop
      vertex 50 88.5 -6.8
      vertex 50 18.5 -3.4
      vertex 50 18.5 -6.8
    endloop
  endfacet
  facet normal 0 1 -0
    outer loop
      vertex 50 88.5 -6.8
      vertex 3 88.5 -3.4
      vertex 50 88.5 -3.4
    endloop
  endfacet
  facet normal 0 1 0
    outer loop
      vertex 3 88.5 -3.4
      vertex 50 88.5 -6.8
      vertex 3 88.5 -6.8
    endloop
  endfacet
  facet normal -1 0 0
    outer loop
      vertex 3 18.5 -6.8
      vertex 3 88.5 -3.4
      vertex 3 88.5 -6.8
    endloop
  endfacet
  facet normal -1 -0 0
    outer loop
      vertex 3 88.5 -3.4
      vertex 3 18.5 -6.8
      vertex 3 18.5 -3.4
    endloop
  endfacet
endsolid OpenSCAD_Model
