solid OpenSCAD_Model
  facet normal 1 -0 0
    outer loop
      vertex 51.8 1.2 -1
      vertex 51.8 7.2 -7
      vertex 51.8 7.2 -1
    endloop
  endfacet
  facet normal 1 0 0
    outer loop
      vertex 51.8 7.2 -7
      vertex 51.8 1.2 -1
      vertex 51.8 1.2 -7
    endloop
  endfacet
  facet normal -0 0 1
    outer loop
      vertex 1.2 7.2 -1
      vertex 51.8 1.2 -1
      vertex 51.8 7.2 -1
    endloop
  endfacet
  facet normal 0 0 1
    outer loop
      vertex 51.8 1.2 -1
      vertex 1.2 7.2 -1
      vertex 1.2 1.2 -1
    endloop
  endfacet
  facet normal 0 0 -1
    outer loop
      vertex 1.2 1.2 -7
      vertex 51.8 7.2 -7
      vertex 51.8 1.2 -7
    endloop
  endfacet
  facet normal -0 0 -1
    outer loop
      vertex 51.8 7.2 -7
      vertex 1.2 1.2 -7
      vertex 1.2 7.2 -7
    endloop
  endfacet
  facet normal -1 0 0
    outer loop
      vertex 1.2 1.2 -7
      vertex 1.2 7.2 -1
      vertex 1.2 7.2 -7
    endloop
  endfacet
  facet normal -1 -0 0
    outer loop
      vertex 1.2 7.2 -1
      vertex 1.2 1.2 -7
      vertex 1.2 1.2 -1
    endloop
  endfacet
  facet normal 0 1 -0
    outer loop
      vertex 51.8 7.2 -7
      vertex 1.2 7.2 -1
      vertex 51.8 7.2 -1
    endloop
  endfacet
  facet normal 0 1 0
    outer loop
      vertex 1.2 7.2 -1
      vertex 51.8 7.2 -7
      vertex 1.2 7.2 -7
    endloop
  endfacet
  facet normal 0 -1 0
    outer loop
      vertex 1.2 1.2 -7
      vertex 51.8 1.2 -1
      vertex 1.2 1.2 -1
    endloop
  endfacet
  facet normal 0 -1 -0
    outer loop
      vertex 51.8 1.2 -1
      vertex 1.2 1.2 -7
      vertex 51.8 1.2 -7
    endloop
  endfacet
  facet normal 1 -0 0
    outer loop
      vertex 51.8 138.069 -1
      vertex 51.8 144.069 -7
      vertex 51.8 144.069 -1
    endloop
  endfacet
  facet normal 1 0 0
    outer loop
      vertex 51.8 144.069 -7
      vertex 51.8 138.069 -1
      vertex 51.8 138.069 -7
    endloop
  endfacet
  facet normal -0 0 1
    outer loop
      vertex 1.2 144.069 -1
      vertex 51.8 138.069 -1
      vertex 51.8 144.069 -1
    endloop
  endfacet
  facet normal 0 0 1
    outer loop
      vertex 51.8 138.069 -1
      vertex 1.2 144.069 -1
      vertex 1.2 138.069 -1
    endloop
  endfacet
  facet normal 0 0 -1
    outer loop
      vertex 1.2 138.069 -7
      vertex 51.8 144.069 -7
      vertex 51.8 138.069 -7
    endloop
  endfacet
  facet normal -0 0 -1
    outer loop
      vertex 51.8 144.069 -7
      vertex 1.2 138.069 -7
      vertex 1.2 144.069 -7
    endloop
  endfacet
  facet normal -1 0 0
    outer loop
      vertex 1.2 138.069 -7
      vertex 1.2 144.069 -1
      vertex 1.2 144.069 -7
    endloop
  endfacet
  facet normal -1 -0 0
    outer loop
      vertex 1.2 144.069 -1
      vertex 1.2 138.069 -7
      vertex 1.2 138.069 -1
    endloop
  endfacet
  facet normal 0 1 -0
    outer loop
      vertex 51.8 144.069 -7
      vertex 1.2 144.069 -1
      vertex 51.8 144.069 -1
    endloop
  endfacet
  facet normal 0 1 0
    outer loop
      vertex 1.2 144.069 -1
      vertex 51.8 144.069 -7
      vertex 1.2 144.069 -7
    endloop
  endfacet
  facet normal 0 -1 0
    outer loop
      vertex 1.2 138.069 -7
      vertex 51.8 138.069 -1
      vertex 1.2 138.069 -1
    endloop
  endfacet
  facet normal 0 -1 -0
    outer loop
      vertex 51.8 138.069 -1
      vertex 1.2 138.069 -7
      vertex 51.8 138.069 -7
    endloop
  endfacet
endsolid OpenSCAD_Model
