solid OpenSCAD_Model
  facet normal 1 -0 0
    outer loop
      vertex 47.25 135.069 -3.1
      vertex 47.25 143.569 -7.5
      vertex 47.25 143.569 -3.1
    endloop
  endfacet
  facet normal 1 0 0
    outer loop
      vertex 47.25 143.569 -7.5
      vertex 47.25 135.069 -3.1
      vertex 47.25 135.069 -7.5
    endloop
  endfacet
  facet normal -0 0 1
    outer loop
      vertex 38.75 143.569 -3.1
      vertex 47.25 135.069 -3.1
      vertex 47.25 143.569 -3.1
    endloop
  endfacet
  facet normal 0 0 1
    outer loop
      vertex 47.25 135.069 -3.1
      vertex 38.75 143.569 -3.1
      vertex 38.75 135.069 -3.1
    endloop
  endfacet
  facet normal 0 0 -1
    outer loop
      vertex 38.75 135.069 -7.5
      vertex 47.25 143.569 -7.5
      vertex 47.25 135.069 -7.5
    endloop
  endfacet
  facet normal -0 0 -1
    outer loop
      vertex 47.25 143.569 -7.5
      vertex 38.75 135.069 -7.5
      vertex 38.75 143.569 -7.5
    endloop
  endfacet
  facet normal -1 0 0
    outer loop
      vertex 38.75 135.069 -7.5
      vertex 38.75 143.569 -3.1
      vertex 38.75 143.569 -7.5
    endloop
  endfacet
  facet normal -1 -0 0
    outer loop
      vertex 38.75 143.569 -3.1
      vertex 38.75 135.069 -7.5
      vertex 38.75 135.069 -3.1
    endloop
  endfacet
  facet normal 0 1 -0
    outer loop
      vertex 47.25 143.569 -7.5
      vertex 38.75 143.569 -3.1
      vertex 47.25 143.569 -3.1
    endloop
  endfacet
  facet normal 0 1 0
    outer loop
      vertex 38.75 143.569 -3.1
      vertex 47.25 143.569 -7.5
      vertex 38.75 143.569 -7.5
    endloop
  endfacet
  facet normal 0 -1 0
    outer loop
      vertex 38.75 135.069 -7.5
      vertex 47.25 135.069 -3.1
      vertex 38.75 135.069 -3.1
    endloop
  endfacet
  facet normal 0 -1 -0
    outer loop
      vertex 47.25 135.069 -3.1
      vertex 38.75 135.069 -7.5
      vertex 47.25 135.069 -7.5
    endloop
  endfacet
  facet normal 1 -0 0
    outer loop
      vertex 28.75 136.519 -0.599999
      vertex 28.75 141.019 -3.5
      vertex 28.75 141.019 -0.599999
    endloop
  endfacet
  facet normal 1 0 0
    outer loop
      vertex 28.75 141.019 -3.5
      vertex 28.75 136.519 -0.599999
      vertex 28.75 136.519 -3.5
    endloop
  endfacet
  facet normal -0 0 1
    outer loop
      vertex 24.25 141.019 -0.599999
      vertex 28.75 136.519 -0.599999
      vertex 28.75 141.019 -0.599999
    endloop
  endfacet
  facet normal 0 0 1
    outer loop
      vertex 28.75 136.519 -0.599999
      vertex 24.25 141.019 -0.599999
      vertex 24.25 136.519 -0.599999
    endloop
  endfacet
  facet normal 0 0 -1
    outer loop
      vertex 24.25 136.519 -3.5
      vertex 28.75 141.019 -3.5
      vertex 28.75 136.519 -3.5
    endloop
  endfacet
  facet normal -0 0 -1
    outer loop
      vertex 28.75 141.019 -3.5
      vertex 24.25 136.519 -3.5
      vertex 24.25 141.019 -3.5
    endloop
  endfacet
  facet normal -1 0 0
    outer loop
      vertex 24.25 136.519 -3.5
      vertex 24.25 141.019 -0.599999
      vertex 24.25 141.019 -3.5
    endloop
  endfacet
  facet normal -1 -0 0
    outer loop
      vertex 24.25 141.019 -0.599999
      vertex 24.25 136.519 -3.5
      vertex 24.25 136.519 -0.599999
    endloop
  endfacet
  facet normal 0 1 -0
    outer loop
      vertex 28.75 141.019 -3.5
      vertex 24.25 141.019 -0.599999
      vertex 28.75 141.019 -0.599999
    endloop
  endfacet
  facet normal 0 1 0
    outer loop
      vertex 24.25 141.019 -0.599999
      vertex 28.75 141.019 -3.5
      vertex 24.25 141.019 -3.5
    endloop
  endfacet
  facet normal 0 -1 0
    outer loop
      vertex 24.25 136.519 -3.5
      vertex 28.75 136.519 -0.599999
      vertex 24.25 136.519 -0.599999
    endloop
  endfacet
  facet normal 0 -1 -0
    outer loop
      vertex 28.75 136.519 -0.599999
      vertex 24.25 136.519 -3.5
      vertex 28.75 136.519 -3.5
    endloop
  endfacet
endsolid OpenSCAD_Model
