solid OpenSCAD_Model
  facet normal -0 0 1
    outer loop
      vertex 29.4 143.3 -3.95
      vertex 32.4 140.8 -3.95
      vertex 32.4 143.3 -3.95
    endloop
  endfacet
  facet normal 0 0 1
    outer loop
      vertex 32.4 140.8 -3.95
      vertex 29.4 143.3 -3.95
      vertex 29.4 140.8 -3.95
    endloop
  endfacet
  facet normal 0 0 -1
    outer loop
      vertex 29.4 140.8 -5.75
      vertex 32.4 143.3 -5.75
      vertex 32.4 140.8 -5.75
    endloop
  endfacet
  facet normal -0 0 -1
    outer loop
      vertex 32.4 143.3 -5.75
      vertex 29.4 140.8 -5.75
      vertex 29.4 143.3 -5.75
    endloop
  endfacet
  facet normal 0 -1 0
    outer loop
      vertex 29.4 140.8 -5.75
      vertex 32.4 140.8 -3.95
      vertex 29.4 140.8 -3.95
    endloop
  endfacet
  facet normal 0 -1 -0
    outer loop
      vertex 32.4 140.8 -3.95
      vertex 29.4 140.8 -5.75
      vertex 32.4 140.8 -5.75
    endloop
  endfacet
  facet normal 1 -0 0
    outer loop
      vertex 32.4 140.8 -3.95
      vertex 32.4 143.3 -5.75
      vertex 32.4 143.3 -3.95
    endloop
  endfacet
  facet normal 1 0 0
    outer loop
      vertex 32.4 143.3 -5.75
      vertex 32.4 140.8 -3.95
      vertex 32.4 140.8 -5.75
    endloop
  endfacet
  facet normal 0 1 -0
    outer loop
      vertex 32.4 143.3 -5.75
      vertex 29.4 143.3 -3.95
      vertex 32.4 143.3 -3.95
    endloop
  endfacet
  facet normal 0 1 0
    outer loop
      vertex 29.4 143.3 -3.95
      vertex 32.4 143.3 -5.75
      vertex 29.4 143.3 -5.75
    endloop
  endfacet
  facet normal -1 0 0
    outer loop
      vertex 29.4 140.8 -5.75
      vertex 29.4 143.3 -3.95
      vertex 29.4 143.3 -5.75
    endloop
  endfacet
  facet normal -1 -0 0
    outer loop
      vertex 29.4 143.3 -3.95
      vertex 29.4 140.8 -5.75
      vertex 29.4 140.8 -3.95
    endloop
  endfacet
endsolid OpenSCAD_Model
