solid OpenSCAD_Model
  facet normal -0 0 1
    outer loop
      vertex 41 91.3 -4.75
      vertex 47 87.5 -4.75
      vertex 47 91.3 -4.75
    endloop
  endfacet
  facet normal 0 0 1
    outer loop
      vertex 47 87.5 -4.75
      vertex 41 91.3 -4.75
      vertex 41 87.5 -4.75
    endloop
  endfacet
  facet normal 0 0 -1
    outer loop
      vertex 41 87.5 -4.9
      vertex 47 91.3 -4.9
      vertex 47 87.5 -4.9
    endloop
  endfacet
  facet normal -0 0 -1
    outer loop
      vertex 47 91.3 -4.9
      vertex 41 87.5 -4.9
      vertex 41 91.3 -4.9
    endloop
  endfacet
  facet normal 0 -1 0
    outer loop
      vertex 41 87.5 -4.9
      vertex 47 87.5 -4.75
      vertex 41 87.5 -4.75
    endloop
  endfacet
  facet normal 0 -1 -0
    outer loop
      vertex 47 87.5 -4.75
      vertex 41 87.5 -4.9
      vertex 47 87.5 -4.9
    endloop
  endfacet
  facet normal 1 -0 0
    outer loop
      vertex 47 87.5 -4.75
      vertex 47 91.3 -4.9
      vertex 47 91.3 -4.75
    endloop
  endfacet
  facet normal 1 0 0
    outer loop
      vertex 47 91.3 -4.9
      vertex 47 87.5 -4.75
      vertex 47 87.5 -4.9
    endloop
  endfacet
  facet normal 0 1 -0
    outer loop
      vertex 47 91.3 -4.9
      vertex 41 91.3 -4.75
      vertex 47 91.3 -4.75
    endloop
  endfacet
  facet normal 0 1 0
    outer loop
      vertex 41 91.3 -4.75
      vertex 47 91.3 -4.9
      vertex 41 91.3 -4.9
    endloop
  endfacet
  facet normal -1 0 0
    outer loop
      vertex 41 87.5 -4.9
      vertex 41 91.3 -4.75
      vertex 41 91.3 -4.9
    endloop
  endfacet
  facet normal -1 -0 0
    outer loop
      vertex 41 91.3 -4.75
      vertex 41 87.5 -4.9
      vertex 41 87.5 -4.75
    endloop
  endfacet
endsolid OpenSCAD_Model
