solid OpenSCAD_Model
  facet normal -0 0 1
    outer loop
      vertex 1.7 133.9 -3.95
      vertex 44.7 89.9 -3.95
      vertex 44.7 133.9 -3.95
    endloop
  endfacet
  facet normal 0 0 1
    outer loop
      vertex 44.7 89.9 -3.95
      vertex 1.7 133.9 -3.95
      vertex 1.7 89.9 -3.95
    endloop
  endfacet
  facet normal 0 0 -1
    outer loop
      vertex 1.7 89.9 -6.8
      vertex 44.7 133.9 -6.8
      vertex 44.7 89.9 -6.8
    endloop
  endfacet
  facet normal -0 0 -1
    outer loop
      vertex 44.7 133.9 -6.8
      vertex 1.7 89.9 -6.8
      vertex 1.7 133.9 -6.8
    endloop
  endfacet
  facet normal 0 -1 0
    outer loop
      vertex 1.7 89.9 -6.8
      vertex 44.7 89.9 -3.95
      vertex 1.7 89.9 -3.95
    endloop
  endfacet
  facet normal 0 -1 -0
    outer loop
      vertex 44.7 89.9 -3.95
      vertex 1.7 89.9 -6.8
      vertex 44.7 89.9 -6.8
    endloop
  endfacet
  facet normal 1 -0 0
    outer loop
      vertex 44.7 89.9 -3.95
      vertex 44.7 133.9 -6.8
      vertex 44.7 133.9 -3.95
    endloop
  endfacet
  facet normal 1 0 0
    outer loop
      vertex 44.7 133.9 -6.8
      vertex 44.7 89.9 -3.95
      vertex 44.7 89.9 -6.8
    endloop
  endfacet
  facet normal 0 1 -0
    outer loop
      vertex 44.7 133.9 -6.8
      vertex 1.7 133.9 -3.95
      vertex 44.7 133.9 -3.95
    endloop
  endfacet
  facet normal 0 1 0
    outer loop
      vertex 1.7 133.9 -3.95
      vertex 44.7 133.9 -6.8
      vertex 1.7 133.9 -6.8
    endloop
  endfacet
  facet normal -1 0 0
    outer loop
      vertex 1.7 89.9 -6.8
      vertex 1.7 133.9 -3.95
      vertex 1.7 133.9 -6.8
    endloop
  endfacet
  facet normal -1 -0 0
    outer loop
      vertex 1.7 133.9 -3.95
      vertex 1.7 89.9 -6.8
      vertex 1.7 89.9 -3.95
    endloop
  endfacet
endsolid OpenSCAD_Model
