solid OpenSCAD_Model
  facet normal -0 0 1
    outer loop
      vertex 22.03 8.15 -2.6
      vertex 30.97 0.8 -2.6
      vertex 30.97 8.15 -2.6
    endloop
  endfacet
  facet normal 0 0 1
    outer loop
      vertex 30.97 0.8 -2.6
      vertex 22.03 8.15 -2.6
      vertex 22.03 0.8 -2.6
    endloop
  endfacet
  facet normal 0 0 -1
    outer loop
      vertex 22.03 0.8 -5.8
      vertex 30.97 8.15 -5.8
      vertex 30.97 0.8 -5.8
    endloop
  endfacet
  facet normal -0 0 -1
    outer loop
      vertex 30.97 8.15 -5.8
      vertex 22.03 0.8 -5.8
      vertex 22.03 8.15 -5.8
    endloop
  endfacet
  facet normal 0 -1 0
    outer loop
      vertex 22.03 0.8 -5.8
      vertex 30.97 0.8 -2.6
      vertex 22.03 0.8 -2.6
    endloop
  endfacet
  facet normal 0 -1 -0
    outer loop
      vertex 30.97 0.8 -2.6
      vertex 22.03 0.8 -5.8
      vertex 30.97 0.8 -5.8
    endloop
  endfacet
  facet normal 1 -0 0
    outer loop
      vertex 30.97 0.8 -2.6
      vertex 30.97 8.15 -5.8
      vertex 30.97 8.15 -2.6
    endloop
  endfacet
  facet normal 1 0 0
    outer loop
      vertex 30.97 8.15 -5.8
      vertex 30.97 0.8 -2.6
      vertex 30.97 0.8 -5.8
    endloop
  endfacet
  facet normal 0 1 -0
    outer loop
      vertex 30.97 8.15 -5.8
      vertex 22.03 8.15 -2.6
      vertex 30.97 8.15 -2.6
    endloop
  endfacet
  facet normal 0 1 0
    outer loop
      vertex 22.03 8.15 -2.6
      vertex 30.97 8.15 -5.8
      vertex 22.03 8.15 -5.8
    endloop
  endfacet
  facet normal -1 0 0
    outer loop
      vertex 22.03 0.8 -5.8
      vertex 22.03 8.15 -2.6
      vertex 22.03 8.15 -5.8
    endloop
  endfacet
  facet normal -1 -0 0
    outer loop
      vertex 22.03 8.15 -2.6
      vertex 22.03 0.8 -5.8
      vertex 22.03 0.8 -2.6
    endloop
  endfacet
endsolid OpenSCAD_Model
