solid OpenSCAD_Model
  facet normal -0 0 1
    outer loop
      vertex 2.2 15.3 -2.6
      vertex 8.2 0.8 -2.6
      vertex 8.2 15.3 -2.6
    endloop
  endfacet
  facet normal 0 0 1
    outer loop
      vertex 8.2 0.8 -2.6
      vertex 2.2 15.3 -2.6
      vertex 2.2 0.8 -2.6
    endloop
  endfacet
  facet normal 0 0 -1
    outer loop
      vertex 2.2 0.8 -6.8
      vertex 8.2 15.3 -6.8
      vertex 8.2 0.8 -6.8
    endloop
  endfacet
  facet normal -0 0 -1
    outer loop
      vertex 8.2 15.3 -6.8
      vertex 2.2 0.8 -6.8
      vertex 2.2 15.3 -6.8
    endloop
  endfacet
  facet normal 0 -1 0
    outer loop
      vertex 2.2 0.8 -6.8
      vertex 8.2 0.8 -2.6
      vertex 2.2 0.8 -2.6
    endloop
  endfacet
  facet normal 0 -1 -0
    outer loop
      vertex 8.2 0.8 -2.6
      vertex 2.2 0.8 -6.8
      vertex 8.2 0.8 -6.8
    endloop
  endfacet
  facet normal 1 -0 0
    outer loop
      vertex 8.2 0.8 -2.6
      vertex 8.2 15.3 -6.8
      vertex 8.2 15.3 -2.6
    endloop
  endfacet
  facet normal 1 0 0
    outer loop
      vertex 8.2 15.3 -6.8
      vertex 8.2 0.8 -2.6
      vertex 8.2 0.8 -6.8
    endloop
  endfacet
  facet normal 0 1 -0
    outer loop
      vertex 8.2 15.3 -6.8
      vertex 2.2 15.3 -2.6
      vertex 8.2 15.3 -2.6
    endloop
  endfacet
  facet normal 0 1 0
    outer loop
      vertex 2.2 15.3 -2.6
      vertex 8.2 15.3 -6.8
      vertex 2.2 15.3 -6.8
    endloop
  endfacet
  facet normal -1 0 0
    outer loop
      vertex 2.2 0.8 -6.8
      vertex 2.2 15.3 -2.6
      vertex 2.2 15.3 -6.8
    endloop
  endfacet
  facet normal -1 -0 0
    outer loop
      vertex 2.2 15.3 -2.6
      vertex 2.2 0.8 -6.8
      vertex 2.2 0.8 -2.6
    endloop
  endfacet
endsolid OpenSCAD_Model
