solid OpenSCAD_Model
  facet normal -0 0 1
    outer loop
      vertex 50.7 120.569 -3.4
      vertex 51.4 83.9693 -3.4
      vertex 51.4 120.569 -3.4
    endloop
  endfacet
  facet normal 0 0 1
    outer loop
      vertex 51.4 83.9693 -3.4
      vertex 50.7 120.569 -3.4
      vertex 50.7 83.9693 -3.4
    endloop
  endfacet
  facet normal 0 0 -1
    outer loop
      vertex 50.7 83.9693 -6.8
      vertex 51.4 120.569 -6.8
      vertex 51.4 83.9693 -6.8
    endloop
  endfacet
  facet normal -0 0 -1
    outer loop
      vertex 51.4 120.569 -6.8
      vertex 50.7 83.9693 -6.8
      vertex 50.7 120.569 -6.8
    endloop
  endfacet
  facet normal 0 -1 0
    outer loop
      vertex 50.7 83.9693 -6.8
      vertex 51.4 83.9693 -3.4
      vertex 50.7 83.9693 -3.4
    endloop
  endfacet
  facet normal 0 -1 -0
    outer loop
      vertex 51.4 83.9693 -3.4
      vertex 50.7 83.9693 -6.8
      vertex 51.4 83.9693 -6.8
    endloop
  endfacet
  facet normal 1 -0 0
    outer loop
      vertex 51.4 83.9693 -3.4
      vertex 51.4 120.569 -6.8
      vertex 51.4 120.569 -3.4
    endloop
  endfacet
  facet normal 1 0 0
    outer loop
      vertex 51.4 120.569 -6.8
      vertex 51.4 83.9693 -3.4
      vertex 51.4 83.9693 -6.8
    endloop
  endfacet
  facet normal 0 1 -0
    outer loop
      vertex 51.4 120.569 -6.8
      vertex 50.7 120.569 -3.4
      vertex 51.4 120.569 -3.4
    endloop
  endfacet
  facet normal 0 1 0
    outer loop
      vertex 50.7 120.569 -3.4
      vertex 51.4 120.569 -6.8
      vertex 50.7 120.569 -6.8
    endloop
  endfacet
  facet normal -1 0 0
    outer loop
      vertex 50.7 83.9693 -6.8
      vertex 50.7 120.569 -3.4
      vertex 50.7 120.569 -6.8
    endloop
  endfacet
  facet normal -1 -0 0
    outer loop
      vertex 50.7 120.569 -3.4
      vertex 50.7 83.9693 -6.8
      vertex 50.7 83.9693 -3.4
    endloop
  endfacet
endsolid OpenSCAD_Model
