solid OpenSCAD_Model
  facet normal -0 0 1
    outer loop
      vertex 2.5 74 -2.5
      vertex 50.5 4 -2.5
      vertex 50.5 74 -2.5
    endloop
  endfacet
  facet normal 0 0 1
    outer loop
      vertex 50.5 4 -2.5
      vertex 2.5 74 -2.5
      vertex 2.5 4 -2.5
    endloop
  endfacet
  facet normal 0 0 -1
    outer loop
      vertex 2.5 4 -6
      vertex 50.5 74 -6
      vertex 50.5 4 -6
    endloop
  endfacet
  facet normal -0 0 -1
    outer loop
      vertex 50.5 74 -6
      vertex 2.5 4 -6
      vertex 2.5 74 -6
    endloop
  endfacet
  facet normal 0 -1 0
    outer loop
      vertex 2.5 4 -6
      vertex 50.5 4 -2.5
      vertex 2.5 4 -2.5
    endloop
  endfacet
  facet normal 0 -1 -0
    outer loop
      vertex 50.5 4 -2.5
      vertex 2.5 4 -6
      vertex 50.5 4 -6
    endloop
  endfacet
  facet normal 1 -0 0
    outer loop
      vertex 50.5 4 -2.5
      vertex 50.5 74 -6
      vertex 50.5 74 -2.5
    endloop
  endfacet
  facet normal 1 0 0
    outer loop
      vertex 50.5 74 -6
      vertex 50.5 4 -2.5
      vertex 50.5 4 -6
    endloop
  endfacet
  facet normal 0 1 -0
    outer loop
      vertex 50.5 74 -6
      vertex 2.5 74 -2.5
      vertex 50.5 74 -2.5
    endloop
  endfacet
  facet normal 0 1 0
    outer loop
      vertex 2.5 74 -2.5
      vertex 50.5 74 -6
      vertex 2.5 74 -6
    endloop
  endfacet
  facet normal -1 0 0
    outer loop
      vertex 2.5 4 -6
      vertex 2.5 74 -2.5
      vertex 2.5 74 -6
    endloop
  endfacet
  facet normal -1 -0 0
    outer loop
      vertex 2.5 74 -2.5
      vertex 2.5 4 -6
      vertex 2.5 4 -2.5
    endloop
  endfacet
endsolid OpenSCAD_Model
