solid OpenSCAD_Model
  facet normal 0 0 -1
    outer loop
      vertex 50 64.5 -0.35
      vertex 3.34743 141.529 -0.35
      vertex 50.2611 64.5171 -0.35
    endloop
  endfacet
  facet normal 1 0 0
    outer loop
      vertex 52 136.769 -0.35
      vertex 52 66.5 -0.0500008
      vertex 52 66.5 -0.35
    endloop
  endfacet
  facet normal 0.659343 -0.751842 0
    outer loop
      vertex 51.2175 64.9133 -0.35
      vertex 51.4142 65.0858 -0.0500008
      vertex 51.2175 64.9133 -0.0500008
    endloop
  endfacet
  facet normal 0.997862 -0.0653521 0
    outer loop
      vertex 52 66.5 -0.0500008
      vertex 51.9829 66.2389 -0.35
      vertex 52 66.5 -0.35
    endloop
  endfacet
  facet normal 1 0 0
    outer loop
      vertex 52 136.769 -0.0500008
      vertex 52 66.5 -0.0500008
      vertex 52 136.769 -0.35
    endloop
  endfacet
  facet normal -0.980798 0.195026 0
    outer loop
      vertex 1.05133 137.552 -0.35
      vertex 1.20444 138.322 -0.0500008
      vertex 1.20444 138.322 -0.35
    endloop
  endfacet
  facet normal -0.751842 -0.659343 0
    outer loop
      vertex 1.41329 65.2825 -0.0500008
      vertex 1.58579 65.0858 -0.35
      vertex 1.58579 65.0858 -0.0500008
    endloop
  endfacet
  facet normal 0.321382 -0.94695 0
    outer loop
      vertex 50.7654 64.6522 -0.0500008
      vertex 50.5176 64.5681 -0.0500008
      vertex 50.7654 64.6522 -0.35
    endloop
  endfacet
  facet normal -0 0 1
    outer loop
      vertex 2.23988 140.422 -0.0500008
      vertex 1.20444 138.322 -0.0500008
      vertex 2.75736 141.012 -0.0500008
    endloop
  endfacet
  facet normal 0 -1 0
    outer loop
      vertex 3 64.5 -0.35
      vertex 50 64.5 -0.35
      vertex 3 64.5 -0.0500008
    endloop
  endfacet
  facet normal 0.94695 -0.321382 0
    outer loop
      vertex 51.9319 65.9824 -0.0500008
      vertex 51.8478 65.7346 -0.0500008
      vertex 51.9319 65.9824 -0.35
    endloop
  endfacet
  facet normal 0.89691 0.442212 -0
    outer loop
      vertex 51.5433 139.065 -0.35
      vertex 51.1962 139.769 -0.0500008
      vertex 51.5433 139.065 -0.0500008
    endloop
  endfacet
  facet normal -1 0 0
    outer loop
      vertex 1 66.5 -0.0500008
      vertex 1 136.769 -0.0500008
      vertex 1 66.5 -0.35
    endloop
  endfacet
  facet normal -0 0 -1
    outer loop
      vertex 46 142.769 -0.35
      vertex 3.34743 141.529 -0.35
      vertex 7 142.769 -0.35
    endloop
  endfacet
  facet normal -0.946961 -0.321348 -0
    outer loop
      vertex 1.06815 65.9824 -0.0500008
      vertex 1.06815 65.9824 -0.35
      vertex 1.15224 65.7346 -0.0500008
    endloop
  endfacet
  facet normal 0.997862 -0.0653521 0
    outer loop
      vertex 51.9829 66.2389 -0.0500008
      vertex 51.9829 66.2389 -0.35
      vertex 52 66.5 -0.0500008
    endloop
  endfacet
  facet normal 0.0649798 0.997887 0
    outer loop
      vertex 46.7832 142.718 -0.0500008
      vertex 46 142.769 -0.35
      vertex 46 142.769 -0.0500008
    endloop
  endfacet
  facet normal -0.946905 0.321514 0
    outer loop
      vertex 1.20444 138.322 -0.35
      vertex 1.20444 138.322 -0.0500008
      vertex 1.45672 139.065 -0.35
    endloop
  endfacet
  facet normal 0 0 -1
    outer loop
      vertex 1.78248 64.9133 -0.35
      vertex 3.34743 141.529 -0.35
      vertex 2 64.768 -0.35
    endloop
  endfacet
  facet normal 0 -0 -1
    outer loop
      vertex 2.23988 140.422 -0.35
      vertex 3.34743 141.529 -0.35
      vertex 1.80385 139.769 -0.35
    endloop
  endfacet
  facet normal 0.831599 0.555376 0
    outer loop
      vertex 50.7601 140.422 -0.0500008
      vertex 51.1962 139.769 -0.0500008
      vertex 50.7601 140.422 -0.35
    endloop
  endfacet
  facet normal 0.980801 -0.195013 0
    outer loop
      vertex 51.9319 65.9824 -0.35
      vertex 51.9829 66.2389 -0.35
      vertex 51.9319 65.9824 -0.0500008
    endloop
  endfacet
  facet normal 0 0 1
    outer loop
      vertex 50.2426 141.012 -0.0500008
      vertex 1.20444 138.322 -0.0500008
      vertex 50.7601 140.422 -0.0500008
    endloop
  endfacet
  facet normal 0.831521 -0.555494 0
    outer loop
      vertex 51.5867 65.2825 -0.0500008
      vertex 51.732 65.5 -0.35
      vertex 51.732 65.5 -0.0500008
    endloop
  endfacet
  facet normal -0.659362 -0.751826 0
    outer loop
      vertex 1.58579 65.0858 -0.35
      vertex 1.78248 64.9133 -0.0500008
      vertex 1.58579 65.0858 -0.0500008
    endloop
  endfacet
  facet normal 0 -1 0
    outer loop
      vertex 3 64.5 -0.0500008
      vertex 50 64.5 -0.35
      vertex 50 64.5 -0.0500008
    endloop
  endfacet
  facet normal 0 0 -1
    outer loop
      vertex 51.5433 139.065 -0.35
      vertex 3.34743 141.529 -0.35
      vertex 51.1962 139.769 -0.35
    endloop
  endfacet
  facet normal -0.83145 -0.5556 0
    outer loop
      vertex 1.26795 65.5 -0.35
      vertex 1.41329 65.2825 -0.0500008
      vertex 1.26795 65.5 -0.0500008
    endloop
  endfacet
  facet normal 0 0 1
    outer loop
      vertex 49.6526 141.529 -0.0500008
      vertex 1.20444 138.322 -0.0500008
      vertex 50.2426 141.012 -0.0500008
    endloop
  endfacet
  facet normal -0.751842 -0.659343 0
    outer loop
      vertex 1.41329 65.2825 -0.35
      vertex 1.58579 65.0858 -0.35
      vertex 1.41329 65.2825 -0.0500008
    endloop
  endfacet
  facet normal -0.194952 0.980813 0
    outer loop
      vertex 6.21684 142.718 -0.0500008
      vertex 5.44709 142.565 -0.35
      vertex 5.44709 142.565 -0.0500008
    endloop
  endfacet
  facet normal 0 0 -1
    outer loop
      vertex 2.48236 64.5681 -0.35
      vertex 3.34743 141.529 -0.35
      vertex 2.73895 64.5171 -0.35
    endloop
  endfacet
  facet normal 0 0 -1
    outer loop
      vertex 51.4142 65.0858 -0.35
      vertex 3.34743 141.529 -0.35
      vertex 51.5867 65.2825 -0.35
    endloop
  endfacet
  facet normal -0.896845 -0.442344 0
    outer loop
      vertex 1.26795 65.5 -0.35
      vertex 1.15224 65.7346 -0.0500008
      vertex 1.15224 65.7346 -0.35
    endloop
  endfacet
  facet normal -0 0 1
    outer loop
      vertex 1.80385 139.769 -0.0500008
      vertex 1.20444 138.322 -0.0500008
      vertex 2.23988 140.422 -0.0500008
    endloop
  endfacet
  facet normal -1 0 0
    outer loop
      vertex 1 66.5 -0.35
      vertex 1 136.769 -0.0500008
      vertex 1 136.769 -0.35
    endloop
  endfacet
  facet normal -0.99786 -0.0653902 0
    outer loop
      vertex 1 66.5 -0.35
      vertex 1.01711 66.2389 -0.0500008
      vertex 1 66.5 -0.0500008
    endloop
  endfacet
  facet normal 0 0 -1
    outer loop
      vertex 51.1962 139.769 -0.35
      vertex 3.34743 141.529 -0.35
      vertex 50.7601 140.422 -0.35
    endloop
  endfacet
  facet normal -0.194947 -0.980814 0
    outer loop
      vertex 2.73895 64.5171 -0.35
      vertex 2.73895 64.5171 -0.0500008
      vertex 2.48236 64.5681 -0.35
    endloop
  endfacet
  facet normal -0 0 -1
    outer loop
      vertex 47.5529 142.565 -0.35
      vertex 3.34743 141.529 -0.35
      vertex 46.7832 142.718 -0.35
    endloop
  endfacet
  facet normal -0.896895 0.442243 0
    outer loop
      vertex 1.80385 139.769 -0.0500008
      vertex 1.45672 139.065 -0.35
      vertex 1.45672 139.065 -0.0500008
    endloop
  endfacet
  facet normal 0 0 -1
    outer loop
      vertex 50.2611 64.5171 -0.35
      vertex 3.34743 141.529 -0.35
      vertex 50.5176 64.5681 -0.35
    endloop
  endfacet
  facet normal -0.194952 0.980813 0
    outer loop
      vertex 6.21684 142.718 -0.35
      vertex 5.44709 142.565 -0.35
      vertex 6.21684 142.718 -0.0500008
    endloop
  endfacet
  facet normal 0 0 1
    outer loop
      vertex 1.26795 65.5 -0.0500008
      vertex 1.20444 138.322 -0.0500008
      vertex 1.15224 65.7346 -0.0500008
    endloop
  endfacet
  facet normal -0.555541 0.831489 0
    outer loop
      vertex 4 141.965 -0.35
      vertex 3.34743 141.529 -0.35
      vertex 4 141.965 -0.0500008
    endloop
  endfacet
  facet normal 0.751842 -0.659343 0
    outer loop
      vertex 51.5867 65.2825 -0.35
      vertex 51.4142 65.0858 -0.0500008
      vertex 51.4142 65.0858 -0.35
    endloop
  endfacet
  facet normal 0 0 -1
    outer loop
      vertex 51.732 65.5 -0.35
      vertex 3.34743 141.529 -0.35
      vertex 51.8478 65.7346 -0.35
    endloop
  endfacet
  facet normal 0 -0 -1
    outer loop
      vertex 1.45672 139.065 -0.35
      vertex 3.34743 141.529 -0.35
      vertex 1.20444 138.322 -0.35
    endloop
  endfacet
  facet normal 0 0 1
    outer loop
      vertex 51.732 65.5 -0.0500008
      vertex 1.20444 138.322 -0.0500008
      vertex 51.5867 65.2825 -0.0500008
    endloop
  endfacet
  facet normal 0 1 -0
    outer loop
      vertex 46 142.769 -0.35
      vertex 7 142.769 -0.35
      vertex 46 142.769 -0.0500008
    endloop
  endfacet
  facet normal 0.980801 -0.195013 0
    outer loop
      vertex 51.9319 65.9824 -0.0500008
      vertex 51.9829 66.2389 -0.35
      vertex 51.9829 66.2389 -0.0500008
    endloop
  endfacet
  facet normal 0 0 -1
    outer loop
      vertex 2 64.768 -0.35
      vertex 3.34743 141.529 -0.35
      vertex 2.23463 64.6522 -0.35
    endloop
  endfacet
  facet normal -0.980771 -0.19516 0
    outer loop
      vertex 1.01711 66.2389 -0.0500008
      vertex 1.06815 65.9824 -0.35
      vertex 1.06815 65.9824 -0.0500008
    endloop
  endfacet
  facet normal 0.442621 -0.896709 0
    outer loop
      vertex 50.7654 64.6522 -0.35
      vertex 51 64.768 -0.35
      vertex 50.7654 64.6522 -0.0500008
    endloop
  endfacet
  facet normal -0.194947 -0.980814 0
    outer loop
      vertex 2.48236 64.5681 -0.35
      vertex 2.73895 64.5171 -0.0500008
      vertex 2.48236 64.5681 -0.0500008
    endloop
  endfacet
  facet normal -0 0 -1
    outer loop
      vertex 46.7832 142.718 -0.35
      vertex 3.34743 141.529 -0.35
      vertex 46 142.769 -0.35
    endloop
  endfacet
  facet normal -0.99786 -0.0653902 0
    outer loop
      vertex 1.01711 66.2389 -0.35
      vertex 1.01711 66.2389 -0.0500008
      vertex 1 66.5 -0.35
    endloop
  endfacet
  facet normal 0 0 1
    outer loop
      vertex 1 136.769 -0.0500008
      vertex 1.20444 138.322 -0.0500008
      vertex 1.05133 137.552 -0.0500008
    endloop
  endfacet
  facet normal 0.321382 -0.94695 0
    outer loop
      vertex 50.7654 64.6522 -0.35
      vertex 50.5176 64.5681 -0.0500008
      vertex 50.5176 64.5681 -0.35
    endloop
  endfacet
  facet normal -0.896845 -0.442344 -0
    outer loop
      vertex 1.26795 65.5 -0.0500008
      vertex 1.15224 65.7346 -0.0500008
      vertex 1.26795 65.5 -0.35
    endloop
  endfacet
  facet normal 0 -0 1
    outer loop
      vertex 1.01711 66.2389 -0.0500008
      vertex 1.20444 138.322 -0.0500008
      vertex 1 66.5 -0.0500008
    endloop
  endfacet
  facet normal -0.751799 0.659392 0
    outer loop
      vertex 2.23988 140.422 -0.35
      vertex 2.75736 141.012 -0.0500008
      vertex 2.75736 141.012 -0.35
    endloop
  endfacet
  facet normal 0 0 1
    outer loop
      vertex 1.41329 65.2825 -0.0500008
      vertex 1.20444 138.322 -0.0500008
      vertex 1.26795 65.5 -0.0500008
    endloop
  endfacet
  facet normal 0.555523 0.831501 0
    outer loop
      vertex 49 141.965 -0.0500008
      vertex 49.6526 141.529 -0.35
      vertex 49 141.965 -0.35
    endloop
  endfacet
  facet normal 0 0 -1
    outer loop
      vertex 1 136.769 -0.35
      vertex 3.34743 141.529 -0.35
      vertex 1 66.5 -0.35
    endloop
  endfacet
  facet normal 0 0 1
    outer loop
      vertex 50 64.5 -0.0500008
      vertex 1.20444 138.322 -0.0500008
      vertex 3 64.5 -0.0500008
    endloop
  endfacet
  facet normal 0.997861 0.0653771 0
    outer loop
      vertex 52 136.769 -0.0500008
      vertex 51.9487 137.552 -0.35
      vertex 51.9487 137.552 -0.0500008
    endloop
  endfacet
  facet normal 0.555494 -0.831521 0
    outer loop
      vertex 51.2175 64.9133 -0.0500008
      vertex 51 64.768 -0.35
      vertex 51.2175 64.9133 -0.35
    endloop
  endfacet
  facet normal 0.831599 0.555376 0
    outer loop
      vertex 50.7601 140.422 -0.35
      vertex 51.1962 139.769 -0.0500008
      vertex 51.1962 139.769 -0.35
    endloop
  endfacet
  facet normal 0 0 1
    outer loop
      vertex 51.9487 137.552 -0.0500008
      vertex 1.20444 138.322 -0.0500008
      vertex 52 136.769 -0.0500008
    endloop
  endfacet
  facet normal 0 0 1
    outer loop
      vertex 51.2175 64.9133 -0.0500008
      vertex 1.20444 138.322 -0.0500008
      vertex 51 64.768 -0.0500008
    endloop
  endfacet
  facet normal 0 0 1
    outer loop
      vertex 2.23463 64.6522 -0.0500008
      vertex 1.20444 138.322 -0.0500008
      vertex 2 64.768 -0.0500008
    endloop
  endfacet
  facet normal 0.195013 -0.980801 0
    outer loop
      vertex 50.5176 64.5681 -0.0500008
      vertex 50.2611 64.5171 -0.35
      vertex 50.5176 64.5681 -0.35
    endloop
  endfacet
  facet normal -0 0 1
    outer loop
      vertex 2.75736 141.012 -0.0500008
      vertex 1.20444 138.322 -0.0500008
      vertex 3.34743 141.529 -0.0500008
    endloop
  endfacet
  facet normal 0 0 -1
    outer loop
      vertex 51 64.768 -0.35
      vertex 3.34743 141.529 -0.35
      vertex 51.2175 64.9133 -0.35
    endloop
  endfacet
  facet normal 0 0 -1
    outer loop
      vertex 50.7601 140.422 -0.35
      vertex 3.34743 141.529 -0.35
      vertex 50.2426 141.012 -0.35
    endloop
  endfacet
  facet normal -0.443185 0.89643 0
    outer loop
      vertex 4 141.965 -0.0500008
      vertex 4.7039 142.313 -0.35
      vertex 4 141.965 -0.35
    endloop
  endfacet
  facet normal 0 0 1
    outer loop
      vertex 51.8478 65.7346 -0.0500008
      vertex 1.20444 138.322 -0.0500008
      vertex 51.732 65.5 -0.0500008
    endloop
  endfacet
  facet normal 0 0 -1
    outer loop
      vertex 51.7956 138.322 -0.35
      vertex 3.34743 141.529 -0.35
      vertex 51.5433 139.065 -0.35
    endloop
  endfacet
  facet normal -0.946961 -0.321348 -0
    outer loop
      vertex 1.15224 65.7346 -0.0500008
      vertex 1.06815 65.9824 -0.35
      vertex 1.15224 65.7346 -0.35
    endloop
  endfacet
  facet normal 0 0 1
    outer loop
      vertex 50.5176 64.5681 -0.0500008
      vertex 1.20444 138.322 -0.0500008
      vertex 50.2611 64.5171 -0.0500008
    endloop
  endfacet
  facet normal 0 0 1
    outer loop
      vertex 51.5867 65.2825 -0.0500008
      vertex 1.20444 138.322 -0.0500008
      vertex 51.4142 65.0858 -0.0500008
    endloop
  endfacet
  facet normal -0.321121 0.947038 0
    outer loop
      vertex 5.44709 142.565 -0.35
      vertex 4.7039 142.313 -0.35
      vertex 5.44709 142.565 -0.0500008
    endloop
  endfacet
  facet normal 0 0 1
    outer loop
      vertex 51.4142 65.0858 -0.0500008
      vertex 1.20444 138.322 -0.0500008
      vertex 51.2175 64.9133 -0.0500008
    endloop
  endfacet
  facet normal -0 0 1
    outer loop
      vertex 6.21684 142.718 -0.0500008
      vertex 1.20444 138.322 -0.0500008
      vertex 7 142.769 -0.0500008
    endloop
  endfacet
  facet normal -0.659002 0.752141 0
    outer loop
      vertex 2.75736 141.012 -0.0500008
      vertex 3.34743 141.529 -0.35
      vertex 2.75736 141.012 -0.35
    endloop
  endfacet
  facet normal 0 1 0
    outer loop
      vertex 46 142.769 -0.0500008
      vertex 7 142.769 -0.35
      vertex 7 142.769 -0.0500008
    endloop
  endfacet
  facet normal 0.555494 -0.831521 0
    outer loop
      vertex 51 64.768 -0.0500008
      vertex 51 64.768 -0.35
      vertex 51.2175 64.9133 -0.0500008
    endloop
  endfacet
  facet normal 0.946897 0.321537 0
    outer loop
      vertex 51.7956 138.322 -0.0500008
      vertex 51.7956 138.322 -0.35
      vertex 51.5433 139.065 -0.0500008
    endloop
  endfacet
  facet normal -0.896895 0.442243 0
    outer loop
      vertex 1.80385 139.769 -0.35
      vertex 1.45672 139.065 -0.35
      vertex 1.80385 139.769 -0.0500008
    endloop
  endfacet
  facet normal -0.831641 0.555314 0
    outer loop
      vertex 2.23988 140.422 -0.0500008
      vertex 2.23988 140.422 -0.35
      vertex 1.80385 139.769 -0.0500008
    endloop
  endfacet
  facet normal 0 0 -1
    outer loop
      vertex 1.15224 65.7346 -0.35
      vertex 3.34743 141.529 -0.35
      vertex 1.26795 65.5 -0.35
    endloop
  endfacet
  facet normal -0.442575 -0.896731 0
    outer loop
      vertex 2.23463 64.6522 -0.35
      vertex 2.23463 64.6522 -0.0500008
      vertex 2 64.768 -0.35
    endloop
  endfacet
  facet normal -0.751799 0.659392 0
    outer loop
      vertex 2.23988 140.422 -0.0500008
      vertex 2.75736 141.012 -0.0500008
      vertex 2.23988 140.422 -0.35
    endloop
  endfacet
  facet normal 0.896709 -0.442621 0
    outer loop
      vertex 51.8478 65.7346 -0.0500008
      vertex 51.732 65.5 -0.35
      vertex 51.8478 65.7346 -0.35
    endloop
  endfacet
  facet normal 0.321117 0.94704 0
    outer loop
      vertex 47.5529 142.565 -0.35
      vertex 48.2961 142.313 -0.0500008
      vertex 48.2961 142.313 -0.35
    endloop
  endfacet
  facet normal -0.980771 -0.19516 0
    outer loop
      vertex 1.01711 66.2389 -0.35
      vertex 1.06815 65.9824 -0.35
      vertex 1.01711 66.2389 -0.0500008
    endloop
  endfacet
  facet normal -0.980798 0.195026 0
    outer loop
      vertex 1.05133 137.552 -0.0500008
      vertex 1.20444 138.322 -0.0500008
      vertex 1.05133 137.552 -0.35
    endloop
  endfacet
  facet normal 0 0 1
    outer loop
      vertex 1.78248 64.9133 -0.0500008
      vertex 1.20444 138.322 -0.0500008
      vertex 1.58579 65.0858 -0.0500008
    endloop
  endfacet
  facet normal -0.659002 0.752141 0
    outer loop
      vertex 3.34743 141.529 -0.0500008
      vertex 3.34743 141.529 -0.35
      vertex 2.75736 141.012 -0.0500008
    endloop
  endfacet
  facet normal 0 0 1
    outer loop
      vertex 50.2611 64.5171 -0.0500008
      vertex 1.20444 138.322 -0.0500008
      vertex 50 64.5 -0.0500008
    endloop
  endfacet
  facet normal 0 0 1
    outer loop
      vertex 52 136.769 -0.0500008
      vertex 1.20444 138.322 -0.0500008
      vertex 52 66.5 -0.0500008
    endloop
  endfacet
  facet normal 0 0 1
    outer loop
      vertex 51.1962 139.769 -0.0500008
      vertex 1.20444 138.322 -0.0500008
      vertex 51.5433 139.065 -0.0500008
    endloop
  endfacet
  facet normal 0 0 1
    outer loop
      vertex 51 64.768 -0.0500008
      vertex 1.20444 138.322 -0.0500008
      vertex 50.7654 64.6522 -0.0500008
    endloop
  endfacet
  facet normal -0.831641 0.555314 0
    outer loop
      vertex 1.80385 139.769 -0.0500008
      vertex 2.23988 140.422 -0.35
      vertex 1.80385 139.769 -0.35
    endloop
  endfacet
  facet normal 0.0653521 -0.997862 0
    outer loop
      vertex 50 64.5 -0.35
      vertex 50.2611 64.5171 -0.35
      vertex 50 64.5 -0.0500008
    endloop
  endfacet
  facet normal -0.321463 -0.946922 0
    outer loop
      vertex 2.48236 64.5681 -0.35
      vertex 2.23463 64.6522 -0.0500008
      vertex 2.23463 64.6522 -0.35
    endloop
  endfacet
  facet normal -0.442575 -0.896731 0
    outer loop
      vertex 2 64.768 -0.35
      vertex 2.23463 64.6522 -0.0500008
      vertex 2 64.768 -0.0500008
    endloop
  endfacet
  facet normal 0 -0 -1
    outer loop
      vertex 1.20444 138.322 -0.35
      vertex 3.34743 141.529 -0.35
      vertex 1.05133 137.552 -0.35
    endloop
  endfacet
  facet normal 0.0649798 0.997887 -0
    outer loop
      vertex 46.7832 142.718 -0.35
      vertex 46 142.769 -0.35
      vertex 46.7832 142.718 -0.0500008
    endloop
  endfacet
  facet normal 0.94695 -0.321382 0
    outer loop
      vertex 51.9319 65.9824 -0.35
      vertex 51.8478 65.7346 -0.0500008
      vertex 51.8478 65.7346 -0.35
    endloop
  endfacet
  facet normal -0.555459 -0.831544 0
    outer loop
      vertex 2 64.768 -0.35
      vertex 1.78248 64.9133 -0.0500008
      vertex 1.78248 64.9133 -0.35
    endloop
  endfacet
  facet normal 0 0 -1
    outer loop
      vertex 49.6526 141.529 -0.35
      vertex 3.34743 141.529 -0.35
      vertex 49 141.965 -0.35
    endloop
  endfacet
  facet normal 0.751842 -0.659343 0
    outer loop
      vertex 51.5867 65.2825 -0.0500008
      vertex 51.4142 65.0858 -0.0500008
      vertex 51.5867 65.2825 -0.35
    endloop
  endfacet
  facet normal 0 0 -1
    outer loop
      vertex 1.58579 65.0858 -0.35
      vertex 3.34743 141.529 -0.35
      vertex 1.78248 64.9133 -0.35
    endloop
  endfacet
  facet normal 0.195013 -0.980801 0
    outer loop
      vertex 50.2611 64.5171 -0.0500008
      vertex 50.2611 64.5171 -0.35
      vertex 50.5176 64.5681 -0.0500008
    endloop
  endfacet
  facet normal 0 -0 -1
    outer loop
      vertex 1.80385 139.769 -0.35
      vertex 3.34743 141.529 -0.35
      vertex 1.45672 139.065 -0.35
    endloop
  endfacet
  facet normal 0.442621 -0.896709 0
    outer loop
      vertex 50.7654 64.6522 -0.0500008
      vertex 51 64.768 -0.35
      vertex 51 64.768 -0.0500008
    endloop
  endfacet
  facet normal -0.321463 -0.946922 -0
    outer loop
      vertex 2.48236 64.5681 -0.0500008
      vertex 2.23463 64.6522 -0.0500008
      vertex 2.48236 64.5681 -0.35
    endloop
  endfacet
  facet normal -0 0 1
    outer loop
      vertex 1.45672 139.065 -0.0500008
      vertex 1.20444 138.322 -0.0500008
      vertex 1.80385 139.769 -0.0500008
    endloop
  endfacet
  facet normal -0.0653646 -0.997861 0
    outer loop
      vertex 3 64.5 -0.35
      vertex 2.73895 64.5171 -0.0500008
      vertex 2.73895 64.5171 -0.35
    endloop
  endfacet
  facet normal -0.0653646 -0.997861 -0
    outer loop
      vertex 3 64.5 -0.0500008
      vertex 2.73895 64.5171 -0.0500008
      vertex 3 64.5 -0.35
    endloop
  endfacet
  facet normal 0 0 1
    outer loop
      vertex 51.9829 66.2389 -0.0500008
      vertex 1.20444 138.322 -0.0500008
      vertex 51.9319 65.9824 -0.0500008
    endloop
  endfacet
  facet normal 0 0 -1
    outer loop
      vertex 50.2426 141.012 -0.35
      vertex 3.34743 141.529 -0.35
      vertex 49.6526 141.529 -0.35
    endloop
  endfacet
  facet normal 0 0 -1
    outer loop
      vertex 51.5867 65.2825 -0.35
      vertex 3.34743 141.529 -0.35
      vertex 51.732 65.5 -0.35
    endloop
  endfacet
  facet normal 0 0 -1
    outer loop
      vertex 1.26795 65.5 -0.35
      vertex 3.34743 141.529 -0.35
      vertex 1.41329 65.2825 -0.35
    endloop
  endfacet
  facet normal 0 0 -1
    outer loop
      vertex 7 142.769 -0.35
      vertex 3.34743 141.529 -0.35
      vertex 6.21684 142.718 -0.35
    endloop
  endfacet
  facet normal 0 0 1
    outer loop
      vertex 48.2961 142.313 -0.0500008
      vertex 1.20444 138.322 -0.0500008
      vertex 49 141.965 -0.0500008
    endloop
  endfacet
  facet normal 0.946897 0.321537 0
    outer loop
      vertex 51.5433 139.065 -0.0500008
      vertex 51.7956 138.322 -0.35
      vertex 51.5433 139.065 -0.35
    endloop
  endfacet
  facet normal 0.194964 0.98081 0
    outer loop
      vertex 46.7832 142.718 -0.0500008
      vertex 47.5529 142.565 -0.0500008
      vertex 46.7832 142.718 -0.35
    endloop
  endfacet
  facet normal 0 0 1
    outer loop
      vertex 50.7601 140.422 -0.0500008
      vertex 1.20444 138.322 -0.0500008
      vertex 51.1962 139.769 -0.0500008
    endloop
  endfacet
  facet normal 0.194964 0.98081 0
    outer loop
      vertex 46.7832 142.718 -0.35
      vertex 47.5529 142.565 -0.0500008
      vertex 47.5529 142.565 -0.35
    endloop
  endfacet
  facet normal 0 0 1
    outer loop
      vertex 50.7654 64.6522 -0.0500008
      vertex 1.20444 138.322 -0.0500008
      vertex 50.5176 64.5681 -0.0500008
    endloop
  endfacet
  facet normal -0.443185 0.89643 0
    outer loop
      vertex 4.7039 142.313 -0.0500008
      vertex 4.7039 142.313 -0.35
      vertex 4 141.965 -0.0500008
    endloop
  endfacet
  facet normal 0.751787 0.659406 0
    outer loop
      vertex 50.7601 140.422 -0.0500008
      vertex 50.7601 140.422 -0.35
      vertex 50.2426 141.012 -0.0500008
    endloop
  endfacet
  facet normal 0.751787 0.659406 0
    outer loop
      vertex 50.2426 141.012 -0.0500008
      vertex 50.7601 140.422 -0.35
      vertex 50.2426 141.012 -0.35
    endloop
  endfacet
  facet normal -0.659362 -0.751826 0
    outer loop
      vertex 1.78248 64.9133 -0.35
      vertex 1.78248 64.9133 -0.0500008
      vertex 1.58579 65.0858 -0.35
    endloop
  endfacet
  facet normal -0.555459 -0.831544 -0
    outer loop
      vertex 2 64.768 -0.0500008
      vertex 1.78248 64.9133 -0.0500008
      vertex 2 64.768 -0.35
    endloop
  endfacet
  facet normal 0.980801 0.195014 0
    outer loop
      vertex 51.9487 137.552 -0.0500008
      vertex 51.7956 138.322 -0.35
      vertex 51.7956 138.322 -0.0500008
    endloop
  endfacet
  facet normal 0 0 1
    outer loop
      vertex 46.7832 142.718 -0.0500008
      vertex 1.20444 138.322 -0.0500008
      vertex 47.5529 142.565 -0.0500008
    endloop
  endfacet
  facet normal 0 0 1
    outer loop
      vertex 1.58579 65.0858 -0.0500008
      vertex 1.20444 138.322 -0.0500008
      vertex 1.41329 65.2825 -0.0500008
    endloop
  endfacet
  facet normal 0 0 -1
    outer loop
      vertex 3 64.5 -0.35
      vertex 3.34743 141.529 -0.35
      vertex 50 64.5 -0.35
    endloop
  endfacet
  facet normal 0.0653521 -0.997862 0
    outer loop
      vertex 50 64.5 -0.0500008
      vertex 50.2611 64.5171 -0.35
      vertex 50.2611 64.5171 -0.0500008
    endloop
  endfacet
  facet normal 0.659046 0.752103 -0
    outer loop
      vertex 50.2426 141.012 -0.35
      vertex 49.6526 141.529 -0.35
      vertex 50.2426 141.012 -0.0500008
    endloop
  endfacet
  facet normal 0 0 1
    outer loop
      vertex 51.5433 139.065 -0.0500008
      vertex 1.20444 138.322 -0.0500008
      vertex 51.7956 138.322 -0.0500008
    endloop
  endfacet
  facet normal 0.555523 0.831501 0
    outer loop
      vertex 49.6526 141.529 -0.0500008
      vertex 49.6526 141.529 -0.35
      vertex 49 141.965 -0.0500008
    endloop
  endfacet
  facet normal 0 0 -1
    outer loop
      vertex 51.9319 65.9824 -0.35
      vertex 3.34743 141.529 -0.35
      vertex 51.9829 66.2389 -0.35
    endloop
  endfacet
  facet normal -0.83145 -0.5556 0
    outer loop
      vertex 1.41329 65.2825 -0.35
      vertex 1.41329 65.2825 -0.0500008
      vertex 1.26795 65.5 -0.35
    endloop
  endfacet
  facet normal 0 -0 -1
    outer loop
      vertex 2.75736 141.012 -0.35
      vertex 3.34743 141.529 -0.35
      vertex 2.23988 140.422 -0.35
    endloop
  endfacet
  facet normal 0 0 -1
    outer loop
      vertex 50.5176 64.5681 -0.35
      vertex 3.34743 141.529 -0.35
      vertex 50.7654 64.6522 -0.35
    endloop
  endfacet
  facet normal 0 0 1
    outer loop
      vertex 47.5529 142.565 -0.0500008
      vertex 1.20444 138.322 -0.0500008
      vertex 48.2961 142.313 -0.0500008
    endloop
  endfacet
  facet normal 0 0 -1
    outer loop
      vertex 51.9829 66.2389 -0.35
      vertex 3.34743 141.529 -0.35
      vertex 52 66.5 -0.35
    endloop
  endfacet
  facet normal 0.997861 0.0653771 -0
    outer loop
      vertex 52 136.769 -0.35
      vertex 51.9487 137.552 -0.35
      vertex 52 136.769 -0.0500008
    endloop
  endfacet
  facet normal 0 -0 -1
    outer loop
      vertex 1.05133 137.552 -0.35
      vertex 3.34743 141.529 -0.35
      vertex 1 136.769 -0.35
    endloop
  endfacet
  facet normal 0 0 1
    outer loop
      vertex 2 64.768 -0.0500008
      vertex 1.20444 138.322 -0.0500008
      vertex 1.78248 64.9133 -0.0500008
    endloop
  endfacet
  facet normal 0.659343 -0.751842 0
    outer loop
      vertex 51.4142 65.0858 -0.35
      vertex 51.4142 65.0858 -0.0500008
      vertex 51.2175 64.9133 -0.35
    endloop
  endfacet
  facet normal 0 0 -1
    outer loop
      vertex 2.73895 64.5171 -0.35
      vertex 3.34743 141.529 -0.35
      vertex 3 64.5 -0.35
    endloop
  endfacet
  facet normal 0 0 -1
    outer loop
      vertex 2.23463 64.6522 -0.35
      vertex 3.34743 141.529 -0.35
      vertex 2.48236 64.5681 -0.35
    endloop
  endfacet
  facet normal 0 0 1
    outer loop
      vertex 51.7956 138.322 -0.0500008
      vertex 1.20444 138.322 -0.0500008
      vertex 51.9487 137.552 -0.0500008
    endloop
  endfacet
  facet normal -0.555541 0.831489 0
    outer loop
      vertex 4 141.965 -0.0500008
      vertex 3.34743 141.529 -0.35
      vertex 3.34743 141.529 -0.0500008
    endloop
  endfacet
  facet normal 0.443185 0.89643 -0
    outer loop
      vertex 49 141.965 -0.35
      vertex 48.2961 142.313 -0.0500008
      vertex 49 141.965 -0.0500008
    endloop
  endfacet
  facet normal 0 0 1
    outer loop
      vertex 1 66.5 -0.0500008
      vertex 1.20444 138.322 -0.0500008
      vertex 1 136.769 -0.0500008
    endloop
  endfacet
  facet normal 0.443185 0.89643 -0
    outer loop
      vertex 48.2961 142.313 -0.35
      vertex 48.2961 142.313 -0.0500008
      vertex 49 141.965 -0.35
    endloop
  endfacet
  facet normal 0 -0 1
    outer loop
      vertex 1.06815 65.9824 -0.0500008
      vertex 1.20444 138.322 -0.0500008
      vertex 1.01711 66.2389 -0.0500008
    endloop
  endfacet
  facet normal 0.980801 0.195014 -0
    outer loop
      vertex 51.9487 137.552 -0.35
      vertex 51.7956 138.322 -0.35
      vertex 51.9487 137.552 -0.0500008
    endloop
  endfacet
  facet normal -0.946905 0.321514 0
    outer loop
      vertex 1.45672 139.065 -0.35
      vertex 1.20444 138.322 -0.0500008
      vertex 1.45672 139.065 -0.0500008
    endloop
  endfacet
  facet normal -0.0649832 0.997886 0
    outer loop
      vertex 6.21684 142.718 -0.0500008
      vertex 7 142.769 -0.35
      vertex 6.21684 142.718 -0.35
    endloop
  endfacet
  facet normal -0.0649832 0.997886 0
    outer loop
      vertex 7 142.769 -0.0500008
      vertex 7 142.769 -0.35
      vertex 6.21684 142.718 -0.0500008
    endloop
  endfacet
  facet normal 0 0 -1
    outer loop
      vertex 51.9487 137.552 -0.35
      vertex 3.34743 141.529 -0.35
      vertex 51.7956 138.322 -0.35
    endloop
  endfacet
  facet normal -0.321121 0.947038 0
    outer loop
      vertex 5.44709 142.565 -0.0500008
      vertex 4.7039 142.313 -0.35
      vertex 4.7039 142.313 -0.0500008
    endloop
  endfacet
  facet normal -0.997858 0.0654151 0
    outer loop
      vertex 1 136.769 -0.0500008
      vertex 1.05133 137.552 -0.0500008
      vertex 1 136.769 -0.35
    endloop
  endfacet
  facet normal -0.997858 0.0654151 0
    outer loop
      vertex 1 136.769 -0.35
      vertex 1.05133 137.552 -0.0500008
      vertex 1.05133 137.552 -0.35
    endloop
  endfacet
  facet normal 0 0 -1
    outer loop
      vertex 1 66.5 -0.35
      vertex 3.34743 141.529 -0.35
      vertex 1.01711 66.2389 -0.35
    endloop
  endfacet
  facet normal 0 0 -1
    outer loop
      vertex 1.06815 65.9824 -0.35
      vertex 3.34743 141.529 -0.35
      vertex 1.15224 65.7346 -0.35
    endloop
  endfacet
  facet normal 0 0 1
    outer loop
      vertex 46 142.769 -0.0500008
      vertex 1.20444 138.322 -0.0500008
      vertex 46.7832 142.718 -0.0500008
    endloop
  endfacet
  facet normal 0 0 1
    outer loop
      vertex 49 141.965 -0.0500008
      vertex 1.20444 138.322 -0.0500008
      vertex 49.6526 141.529 -0.0500008
    endloop
  endfacet
  facet normal 0 0 -1
    outer loop
      vertex 1.41329 65.2825 -0.35
      vertex 3.34743 141.529 -0.35
      vertex 1.58579 65.0858 -0.35
    endloop
  endfacet
  facet normal 0 0 -1
    outer loop
      vertex 1.01711 66.2389 -0.35
      vertex 3.34743 141.529 -0.35
      vertex 1.06815 65.9824 -0.35
    endloop
  endfacet
  facet normal 0 0 -1
    outer loop
      vertex 51.8478 65.7346 -0.35
      vertex 3.34743 141.529 -0.35
      vertex 51.9319 65.9824 -0.35
    endloop
  endfacet
  facet normal 0 -0 1
    outer loop
      vertex 1.15224 65.7346 -0.0500008
      vertex 1.20444 138.322 -0.0500008
      vertex 1.06815 65.9824 -0.0500008
    endloop
  endfacet
  facet normal 0.896709 -0.442621 0
    outer loop
      vertex 51.732 65.5 -0.0500008
      vertex 51.732 65.5 -0.35
      vertex 51.8478 65.7346 -0.0500008
    endloop
  endfacet
  facet normal 0.831521 -0.555494 0
    outer loop
      vertex 51.5867 65.2825 -0.35
      vertex 51.732 65.5 -0.35
      vertex 51.5867 65.2825 -0.0500008
    endloop
  endfacet
  facet normal 0.659046 0.752103 0
    outer loop
      vertex 50.2426 141.012 -0.0500008
      vertex 49.6526 141.529 -0.35
      vertex 49.6526 141.529 -0.0500008
    endloop
  endfacet
  facet normal 0 0 -1
    outer loop
      vertex 6.21684 142.718 -0.35
      vertex 3.34743 141.529 -0.35
      vertex 5.44709 142.565 -0.35
    endloop
  endfacet
  facet normal 0 0 -1
    outer loop
      vertex 51.2175 64.9133 -0.35
      vertex 3.34743 141.529 -0.35
      vertex 51.4142 65.0858 -0.35
    endloop
  endfacet
  facet normal 0 0 -1
    outer loop
      vertex 50.7654 64.6522 -0.35
      vertex 3.34743 141.529 -0.35
      vertex 51 64.768 -0.35
    endloop
  endfacet
  facet normal 0.321117 0.94704 0
    outer loop
      vertex 47.5529 142.565 -0.0500008
      vertex 48.2961 142.313 -0.0500008
      vertex 47.5529 142.565 -0.35
    endloop
  endfacet
  facet normal -0 0 1
    outer loop
      vertex 7 142.769 -0.0500008
      vertex 1.20444 138.322 -0.0500008
      vertex 46 142.769 -0.0500008
    endloop
  endfacet
  facet normal 0 0 1
    outer loop
      vertex 2.48236 64.5681 -0.0500008
      vertex 1.20444 138.322 -0.0500008
      vertex 2.23463 64.6522 -0.0500008
    endloop
  endfacet
  facet normal 0.89691 0.442212 -0
    outer loop
      vertex 51.1962 139.769 -0.35
      vertex 51.1962 139.769 -0.0500008
      vertex 51.5433 139.065 -0.35
    endloop
  endfacet
  facet normal 0 0 1
    outer loop
      vertex 51.9319 65.9824 -0.0500008
      vertex 1.20444 138.322 -0.0500008
      vertex 51.8478 65.7346 -0.0500008
    endloop
  endfacet
  facet normal 0 0 1
    outer loop
      vertex 52 66.5 -0.0500008
      vertex 1.20444 138.322 -0.0500008
      vertex 51.9829 66.2389 -0.0500008
    endloop
  endfacet
  facet normal -0 0 -1
    outer loop
      vertex 48.2961 142.313 -0.35
      vertex 3.34743 141.529 -0.35
      vertex 47.5529 142.565 -0.35
    endloop
  endfacet
  facet normal -0 0 -1
    outer loop
      vertex 49 141.965 -0.35
      vertex 3.34743 141.529 -0.35
      vertex 48.2961 142.313 -0.35
    endloop
  endfacet
  facet normal -0 0 1
    outer loop
      vertex 4.7039 142.313 -0.0500008
      vertex 1.20444 138.322 -0.0500008
      vertex 5.44709 142.565 -0.0500008
    endloop
  endfacet
  facet normal -0 0 1
    outer loop
      vertex 3.34743 141.529 -0.0500008
      vertex 1.20444 138.322 -0.0500008
      vertex 4 141.965 -0.0500008
    endloop
  endfacet
  facet normal -0 0 1
    outer loop
      vertex 5.44709 142.565 -0.0500008
      vertex 1.20444 138.322 -0.0500008
      vertex 6.21684 142.718 -0.0500008
    endloop
  endfacet
  facet normal -0 0 1
    outer loop
      vertex 4 141.965 -0.0500008
      vertex 1.20444 138.322 -0.0500008
      vertex 4.7039 142.313 -0.0500008
    endloop
  endfacet
  facet normal 0 0 1
    outer loop
      vertex 2.73895 64.5171 -0.0500008
      vertex 1.20444 138.322 -0.0500008
      vertex 2.48236 64.5681 -0.0500008
    endloop
  endfacet
  facet normal 0 0 1
    outer loop
      vertex 3 64.5 -0.0500008
      vertex 1.20444 138.322 -0.0500008
      vertex 2.73895 64.5171 -0.0500008
    endloop
  endfacet
  facet normal 0 0 -1
    outer loop
      vertex 5.44709 142.565 -0.35
      vertex 3.34743 141.529 -0.35
      vertex 4.7039 142.313 -0.35
    endloop
  endfacet
  facet normal 0 0 -1
    outer loop
      vertex 4.7039 142.313 -0.35
      vertex 3.34743 141.529 -0.35
      vertex 4 141.965 -0.35
    endloop
  endfacet
  facet normal 0 0 -1
    outer loop
      vertex 52 136.769 -0.35
      vertex 3.34743 141.529 -0.35
      vertex 51.9487 137.552 -0.35
    endloop
  endfacet
  facet normal 0 0 -1
    outer loop
      vertex 52 66.5 -0.35
      vertex 3.34743 141.529 -0.35
      vertex 52 136.769 -0.35
    endloop
  endfacet
endsolid OpenSCAD_Model
