solid OpenSCAD_Model
  facet normal -0 0 1
    outer loop
      vertex 33.5 140.819 -6.2
      vertex 36.5 137.819 -6.2
      vertex 36.5 140.819 -6.2
    endloop
  endfacet
  facet normal 0 0 1
    outer loop
      vertex 36.5 137.819 -6.2
      vertex 33.5 140.819 -6.2
      vertex 33.5 137.819 -6.2
    endloop
  endfacet
  facet normal 0 0 -1
    outer loop
      vertex 33.5 137.819 -7
      vertex 36.5 140.819 -7
      vertex 36.5 137.819 -7
    endloop
  endfacet
  facet normal -0 0 -1
    outer loop
      vertex 36.5 140.819 -7
      vertex 33.5 137.819 -7
      vertex 33.5 140.819 -7
    endloop
  endfacet
  facet normal 0 -1 0
    outer loop
      vertex 33.5 137.819 -7
      vertex 36.5 137.819 -6.2
      vertex 33.5 137.819 -6.2
    endloop
  endfacet
  facet normal 0 -1 -0
    outer loop
      vertex 36.5 137.819 -6.2
      vertex 33.5 137.819 -7
      vertex 36.5 137.819 -7
    endloop
  endfacet
  facet normal 1 -0 0
    outer loop
      vertex 36.5 137.819 -6.2
      vertex 36.5 140.819 -7
      vertex 36.5 140.819 -6.2
    endloop
  endfacet
  facet normal 1 0 0
    outer loop
      vertex 36.5 140.819 -7
      vertex 36.5 137.819 -6.2
      vertex 36.5 137.819 -7
    endloop
  endfacet
  facet normal 0 1 -0
    outer loop
      vertex 36.5 140.819 -7
      vertex 33.5 140.819 -6.2
      vertex 36.5 140.819 -6.2
    endloop
  endfacet
  facet normal 0 1 0
    outer loop
      vertex 33.5 140.819 -6.2
      vertex 36.5 140.819 -7
      vertex 33.5 140.819 -7
    endloop
  endfacet
  facet normal -1 0 0
    outer loop
      vertex 33.5 137.819 -7
      vertex 33.5 140.819 -6.2
      vertex 33.5 140.819 -7
    endloop
  endfacet
  facet normal -1 -0 0
    outer loop
      vertex 33.5 140.819 -6.2
      vertex 33.5 137.819 -7
      vertex 33.5 137.819 -6.2
    endloop
  endfacet
endsolid OpenSCAD_Model
