solid OpenSCAD_Model
  facet normal 1 -0 0
    outer loop
      vertex 49.4 89.9 -3.95
      vertex 49.4 98.9 -4.85
      vertex 49.4 98.9 -3.95
    endloop
  endfacet
  facet normal 1 0 0
    outer loop
      vertex 49.4 98.9 -4.85
      vertex 49.4 89.9 -3.95
      vertex 49.4 89.9 -4.85
    endloop
  endfacet
  facet normal -0 0 1
    outer loop
      vertex 46.2 98.9 -3.95
      vertex 49.4 89.9 -3.95
      vertex 49.4 98.9 -3.95
    endloop
  endfacet
  facet normal 0 0 1
    outer loop
      vertex 49.4 89.9 -3.95
      vertex 46.2 98.9 -3.95
      vertex 46.2 89.9 -3.95
    endloop
  endfacet
  facet normal 0 0 -1
    outer loop
      vertex 46.2 89.9 -4.85
      vertex 49.4 98.9 -4.85
      vertex 49.4 89.9 -4.85
    endloop
  endfacet
  facet normal -0 0 -1
    outer loop
      vertex 49.4 98.9 -4.85
      vertex 46.2 89.9 -4.85
      vertex 46.2 98.9 -4.85
    endloop
  endfacet
  facet normal -1 0 0
    outer loop
      vertex 46.2 89.9 -4.85
      vertex 46.2 98.9 -3.95
      vertex 46.2 98.9 -4.85
    endloop
  endfacet
  facet normal -1 -0 0
    outer loop
      vertex 46.2 98.9 -3.95
      vertex 46.2 89.9 -4.85
      vertex 46.2 89.9 -3.95
    endloop
  endfacet
  facet normal 0 1 -0
    outer loop
      vertex 49.4 98.9 -4.85
      vertex 46.2 98.9 -3.95
      vertex 49.4 98.9 -3.95
    endloop
  endfacet
  facet normal 0 1 0
    outer loop
      vertex 46.2 98.9 -3.95
      vertex 49.4 98.9 -4.85
      vertex 46.2 98.9 -4.85
    endloop
  endfacet
  facet normal 0 -1 0
    outer loop
      vertex 46.2 89.9 -4.85
      vertex 49.4 89.9 -3.95
      vertex 46.2 89.9 -3.95
    endloop
  endfacet
  facet normal 0 -1 -0
    outer loop
      vertex 49.4 89.9 -3.95
      vertex 46.2 89.9 -4.85
      vertex 49.4 89.9 -4.85
    endloop
  endfacet
  facet normal 1 -0 0
    outer loop
      vertex 49.4 99.3 -3.95
      vertex 49.4 107.3 -4.85
      vertex 49.4 107.3 -3.95
    endloop
  endfacet
  facet normal 1 0 0
    outer loop
      vertex 49.4 107.3 -4.85
      vertex 49.4 99.3 -3.95
      vertex 49.4 99.3 -4.85
    endloop
  endfacet
  facet normal -0 0 1
    outer loop
      vertex 46.2 107.3 -3.95
      vertex 49.4 99.3 -3.95
      vertex 49.4 107.3 -3.95
    endloop
  endfacet
  facet normal 0 0 1
    outer loop
      vertex 49.4 99.3 -3.95
      vertex 46.2 107.3 -3.95
      vertex 46.2 99.3 -3.95
    endloop
  endfacet
  facet normal 0 0 -1
    outer loop
      vertex 46.2 99.3 -4.85
      vertex 49.4 107.3 -4.85
      vertex 49.4 99.3 -4.85
    endloop
  endfacet
  facet normal -0 0 -1
    outer loop
      vertex 49.4 107.3 -4.85
      vertex 46.2 99.3 -4.85
      vertex 46.2 107.3 -4.85
    endloop
  endfacet
  facet normal -1 0 0
    outer loop
      vertex 46.2 99.3 -4.85
      vertex 46.2 107.3 -3.95
      vertex 46.2 107.3 -4.85
    endloop
  endfacet
  facet normal -1 -0 0
    outer loop
      vertex 46.2 107.3 -3.95
      vertex 46.2 99.3 -4.85
      vertex 46.2 99.3 -3.95
    endloop
  endfacet
  facet normal 0 1 -0
    outer loop
      vertex 49.4 107.3 -4.85
      vertex 46.2 107.3 -3.95
      vertex 49.4 107.3 -3.95
    endloop
  endfacet
  facet normal 0 1 0
    outer loop
      vertex 46.2 107.3 -3.95
      vertex 49.4 107.3 -4.85
      vertex 46.2 107.3 -4.85
    endloop
  endfacet
  facet normal 0 -1 0
    outer loop
      vertex 46.2 99.3 -4.85
      vertex 49.4 99.3 -3.95
      vertex 46.2 99.3 -3.95
    endloop
  endfacet
  facet normal 0 -1 -0
    outer loop
      vertex 49.4 99.3 -3.95
      vertex 46.2 99.3 -4.85
      vertex 49.4 99.3 -4.85
    endloop
  endfacet
  facet normal 1 -0 0
    outer loop
      vertex 49.4 108.1 -3.95
      vertex 49.4 114.1 -4.85
      vertex 49.4 114.1 -3.95
    endloop
  endfacet
  facet normal 1 0 0
    outer loop
      vertex 49.4 114.1 -4.85
      vertex 49.4 108.1 -3.95
      vertex 49.4 108.1 -4.85
    endloop
  endfacet
  facet normal -0 0 1
    outer loop
      vertex 46.2 114.1 -3.95
      vertex 49.4 108.1 -3.95
      vertex 49.4 114.1 -3.95
    endloop
  endfacet
  facet normal 0 0 1
    outer loop
      vertex 49.4 108.1 -3.95
      vertex 46.2 114.1 -3.95
      vertex 46.2 108.1 -3.95
    endloop
  endfacet
  facet normal 0 0 -1
    outer loop
      vertex 46.2 108.1 -4.85
      vertex 49.4 114.1 -4.85
      vertex 49.4 108.1 -4.85
    endloop
  endfacet
  facet normal -0 0 -1
    outer loop
      vertex 49.4 114.1 -4.85
      vertex 46.2 108.1 -4.85
      vertex 46.2 114.1 -4.85
    endloop
  endfacet
  facet normal -1 0 0
    outer loop
      vertex 46.2 108.1 -4.85
      vertex 46.2 114.1 -3.95
      vertex 46.2 114.1 -4.85
    endloop
  endfacet
  facet normal -1 -0 0
    outer loop
      vertex 46.2 114.1 -3.95
      vertex 46.2 108.1 -4.85
      vertex 46.2 108.1 -3.95
    endloop
  endfacet
  facet normal 0 1 -0
    outer loop
      vertex 49.4 114.1 -4.85
      vertex 46.2 114.1 -3.95
      vertex 49.4 114.1 -3.95
    endloop
  endfacet
  facet normal 0 1 0
    outer loop
      vertex 46.2 114.1 -3.95
      vertex 49.4 114.1 -4.85
      vertex 46.2 114.1 -4.85
    endloop
  endfacet
  facet normal 0 -1 0
    outer loop
      vertex 46.2 108.1 -4.85
      vertex 49.4 108.1 -3.95
      vertex 46.2 108.1 -3.95
    endloop
  endfacet
  facet normal 0 -1 -0
    outer loop
      vertex 49.4 108.1 -3.95
      vertex 46.2 108.1 -4.85
      vertex 49.4 108.1 -4.85
    endloop
  endfacet
  facet normal 1 -0 0
    outer loop
      vertex 49.4 118.6 -3.95
      vertex 49.4 124.6 -4.85
      vertex 49.4 124.6 -3.95
    endloop
  endfacet
  facet normal 1 0 0
    outer loop
      vertex 49.4 124.6 -4.85
      vertex 49.4 118.6 -3.95
      vertex 49.4 118.6 -4.85
    endloop
  endfacet
  facet normal -0 0 1
    outer loop
      vertex 46.2 124.6 -3.95
      vertex 49.4 118.6 -3.95
      vertex 49.4 124.6 -3.95
    endloop
  endfacet
  facet normal 0 0 1
    outer loop
      vertex 49.4 118.6 -3.95
      vertex 46.2 124.6 -3.95
      vertex 46.2 118.6 -3.95
    endloop
  endfacet
  facet normal 0 0 -1
    outer loop
      vertex 46.2 118.6 -4.85
      vertex 49.4 124.6 -4.85
      vertex 49.4 118.6 -4.85
    endloop
  endfacet
  facet normal -0 0 -1
    outer loop
      vertex 49.4 124.6 -4.85
      vertex 46.2 118.6 -4.85
      vertex 46.2 124.6 -4.85
    endloop
  endfacet
  facet normal -1 0 0
    outer loop
      vertex 46.2 118.6 -4.85
      vertex 46.2 124.6 -3.95
      vertex 46.2 124.6 -4.85
    endloop
  endfacet
  facet normal -1 -0 0
    outer loop
      vertex 46.2 124.6 -3.95
      vertex 46.2 118.6 -4.85
      vertex 46.2 118.6 -3.95
    endloop
  endfacet
  facet normal 0 1 -0
    outer loop
      vertex 49.4 124.6 -4.85
      vertex 46.2 124.6 -3.95
      vertex 49.4 124.6 -3.95
    endloop
  endfacet
  facet normal 0 1 0
    outer loop
      vertex 46.2 124.6 -3.95
      vertex 49.4 124.6 -4.85
      vertex 46.2 124.6 -4.85
    endloop
  endfacet
  facet normal 0 -1 0
    outer loop
      vertex 46.2 118.6 -4.85
      vertex 49.4 118.6 -3.95
      vertex 46.2 118.6 -3.95
    endloop
  endfacet
  facet normal 0 -1 -0
    outer loop
      vertex 49.4 118.6 -3.95
      vertex 46.2 118.6 -4.85
      vertex 49.4 118.6 -4.85
    endloop
  endfacet
  facet normal 1 -0 0
    outer loop
      vertex 34.4 135.3 -3.95
      vertex 34.4 137.8 -4.85
      vertex 34.4 137.8 -3.95
    endloop
  endfacet
  facet normal 1 0 0
    outer loop
      vertex 34.4 137.8 -4.85
      vertex 34.4 135.3 -3.95
      vertex 34.4 135.3 -4.85
    endloop
  endfacet
  facet normal -0 0 1
    outer loop
      vertex 29.4 137.8 -3.95
      vertex 34.4 135.3 -3.95
      vertex 34.4 137.8 -3.95
    endloop
  endfacet
  facet normal 0 0 1
    outer loop
      vertex 34.4 135.3 -3.95
      vertex 29.4 137.8 -3.95
      vertex 29.4 135.3 -3.95
    endloop
  endfacet
  facet normal 0 0 -1
    outer loop
      vertex 29.4 135.3 -4.85
      vertex 34.4 137.8 -4.85
      vertex 34.4 135.3 -4.85
    endloop
  endfacet
  facet normal -0 0 -1
    outer loop
      vertex 34.4 137.8 -4.85
      vertex 29.4 135.3 -4.85
      vertex 29.4 137.8 -4.85
    endloop
  endfacet
  facet normal -1 0 0
    outer loop
      vertex 29.4 135.3 -4.85
      vertex 29.4 137.8 -3.95
      vertex 29.4 137.8 -4.85
    endloop
  endfacet
  facet normal -1 -0 0
    outer loop
      vertex 29.4 137.8 -3.95
      vertex 29.4 135.3 -4.85
      vertex 29.4 135.3 -3.95
    endloop
  endfacet
  facet normal 0 1 -0
    outer loop
      vertex 34.4 137.8 -4.85
      vertex 29.4 137.8 -3.95
      vertex 34.4 137.8 -3.95
    endloop
  endfacet
  facet normal 0 1 0
    outer loop
      vertex 29.4 137.8 -3.95
      vertex 34.4 137.8 -4.85
      vertex 29.4 137.8 -4.85
    endloop
  endfacet
  facet normal 0 -1 0
    outer loop
      vertex 29.4 135.3 -4.85
      vertex 34.4 135.3 -3.95
      vertex 29.4 135.3 -3.95
    endloop
  endfacet
  facet normal 0 -1 -0
    outer loop
      vertex 34.4 135.3 -3.95
      vertex 29.4 135.3 -4.85
      vertex 34.4 135.3 -4.85
    endloop
  endfacet
endsolid OpenSCAD_Model
